<svg width="49" height="43" viewBox="0 0 49 43" fill="none" xmlns="http://www.w3.org/2000/svg">
<g clip-path="url(#clip0_34_9)">
<path d="M24.5 43C38.031 43 49 33.3741 49 21.5C49 9.62588 38.031 0 24.5 0C10.969 0 0 9.62588 0 21.5C0 33.3741 10.969 43 24.5 43Z" fill="#F0F0F0"/>
<path d="M24.5005 -0.000488281C13.9664 -0.000488281 4.98609 5.83407 1.52441 14.0213H47.4767C44.015 5.83407 35.0347 -0.000488281 24.5005 -0.000488281Z" fill="#D80027"/>
<path d="M24.5005 43.0008C35.0347 43.0008 44.015 37.1662 47.4767 28.979H1.52441C4.98609 37.1662 13.9664 43.0008 24.5005 43.0008Z" fill="black"/>
<path d="M33.0216 19.163H26.6303C26.6303 18.1305 25.6764 17.2935 24.4998 17.2935C23.3232 17.2935 22.3694 18.1305 22.3694 19.163H15.978C15.978 20.1956 17.0029 21.0326 18.1795 21.0326H18.1085C18.1085 22.0652 19.0622 22.9022 20.2389 22.9022C20.2389 23.9348 21.1927 24.7718 22.3694 24.7718H26.6303C27.8069 24.7718 28.7607 23.9348 28.7607 22.9022C29.9374 22.9022 30.8911 22.0652 30.8911 21.0326H30.8202C31.9968 21.0326 33.0216 20.1956 33.0216 19.163Z" fill="#FF9811"/>
</g>
<defs>
<clipPath id="clip0_34_9">
<rect width="49" height="43" fill="white"/>
</clipPath>
</defs>
</svg>
