<svg width="207" height="343" viewBox="0 0 207 343" fill="none" xmlns="http://www.w3.org/2000/svg">
<path d="M144.075 96.1103C143.752 96.1103 143.41 96.3975 143.752 96.9899C146.229 101.732 148.271 106.688 149.855 111.799C150.016 112.301 150.842 112.373 150.644 111.458C149.441 106.185 147.392 101.141 144.577 96.5232C144.416 96.2719 144.254 96.1103 144.075 96.1103Z" fill="#5669FF"/>
<path d="M129.374 87.6911C133.538 90.0964 143.357 95.6968 143.626 95.8584C143.691 95.8915 143.766 95.8988 143.836 95.8788C143.906 95.8588 143.965 95.813 144.003 95.7507C144.003 95.6071 146.66 90.1682 147.934 87.4398C151.632 87.4398 155.24 87.3142 158.937 87.2244C162.389 91.5704 165.532 96.1529 168.343 100.938C168.393 101.031 168.478 101.1 168.579 101.131C168.68 101.161 168.789 101.15 168.882 101.1C168.974 101.05 169.044 100.965 169.074 100.864C169.104 100.763 169.093 100.654 169.043 100.561C166.534 95.8266 163.596 91.3323 160.266 87.1347C171.161 86.9013 181.608 86.8654 187.998 77.8186C197.709 64.0151 186.293 43.9111 166.692 46.1369C168.066 44.1014 168.95 41.7749 169.274 39.3403C169.597 36.9056 169.352 34.429 168.557 32.1051C167.762 29.7812 166.439 27.6733 164.692 25.9469C162.945 24.2206 160.822 22.9228 158.489 22.1557C155.798 21.1214 152.865 20.8966 150.048 21.509C147.232 22.1214 144.656 23.5441 142.639 25.6021C142.172 18.9606 138.402 12.8217 132.012 8.22646C121.817 0.974655 106.775 -1.2691 93.6532 2.59016C82.0216 6.07246 70.5515 15.227 71.2515 27.8997C66.0445 24.4344 59.869 22.7177 53.6206 22.9985C47.3722 23.2793 41.3756 25.543 36.5003 29.4613C33.5888 31.7648 31.4295 34.8834 30.2977 38.4193C29.166 41.9552 29.1132 45.748 30.146 49.314C19.9325 45.5266 8.265 49.1884 2.82615 57.9659C0.79542 61.2804 -0.125455 65.1561 0.197352 69.0298C0.520159 72.9035 2.06983 76.5733 4.62115 79.5059C10.6703 86.0756 20.7761 86.9731 29.8768 87.2962C55.4915 88.1937 104.441 87.9604 129.374 87.6911ZM4.11855 58.7737C8.92915 50.9116 19.8787 46.4241 31.2949 50.8757C31.3429 50.8895 31.3938 50.8905 31.4424 50.8786C31.491 50.8667 31.5356 50.8423 31.5719 50.8078C31.6082 50.7734 31.6348 50.73 31.6492 50.6821C31.6636 50.6342 31.6652 50.5833 31.6538 50.5346L31.4923 50.032C30.4371 46.5632 30.4571 42.8561 31.5497 39.3989C32.6423 35.9417 34.7563 32.8964 37.6132 30.664C42.4207 26.9067 48.2905 24.7611 54.3878 24.5323C60.485 24.3035 66.4991 26.0031 71.5746 29.3895C71.9516 29.6588 72.0772 29.8203 72.2926 29.7126C72.508 29.6049 72.4362 29.3357 72.4003 28.9228C71.5746 16.663 82.4165 7.49051 94.1019 4.08001C113.847 -1.68195 137.182 6.96996 141.077 22.8737C141.437 24.3679 141.635 25.8964 141.669 27.433C141.669 27.6663 141.939 27.8099 142.154 27.5766C144.705 24.6518 148.296 22.8377 152.164 22.5201C156.031 22.2026 159.87 23.4068 162.864 25.8764C165.857 28.346 167.769 31.8862 168.192 35.7438C168.615 39.6013 167.517 43.4718 165.13 46.5318L164.789 47.0164C164.756 47.0588 164.737 47.11 164.734 47.1634C164.73 47.2169 164.743 47.2701 164.77 47.3163C164.797 47.3625 164.837 47.3997 164.885 47.423C164.933 47.4463 164.987 47.4548 165.04 47.4472C183.942 44.9522 196.219 63.4945 186.67 77.1006C180.459 85.95 169.905 85.7525 159.296 86.0756C157.074 83.3204 154.676 80.7122 152.116 78.2674C153.498 75.1261 154.701 72.3259 155.706 69.7052C155.733 69.6403 155.735 69.568 155.711 69.5019C155.688 69.4358 155.642 69.3804 155.581 69.3462C146.606 65.2536 138.008 61.6457 130.074 58.5762C130.016 58.5503 129.951 58.547 129.891 58.567C129.831 58.5869 129.781 58.6287 129.751 58.6839C125.439 65.8338 121.491 73.1967 117.922 80.7445C117.898 80.8051 117.896 80.8718 117.916 80.9338C117.935 80.9957 117.975 81.0492 118.029 81.0855C120.56 82.5933 123.612 84.3883 127.291 86.4705C104.172 86.7577 55.4914 87.0449 29.805 86.1833C22.625 85.9141 11.6396 85.5192 5.4648 78.5905C3.21579 75.8335 1.87835 72.4461 1.63719 68.8964C1.39604 65.3466 2.26307 61.8095 4.11855 58.7737ZM151.775 79.0033C153.996 81.205 156.071 83.5495 157.986 86.0218L148.437 86.2372C149.621 83.778 150.734 81.3548 151.775 79.0033ZM152.027 70.8002L142.675 90.5452L121.512 78.8777C124.689 72.9901 128.027 66.8512 131.079 61.9329C139.031 65.0741 149.226 69.4539 152.027 70.8002ZM191.265 230.214C186.993 229.712 182.29 234.702 178.808 239.728C183.408 228.093 185.7 215.674 185.557 203.163C185.414 198.12 184.588 189.162 180.675 185.734C175.29 181.031 169.079 189.934 165.561 196.073C168.167 188.008 169.268 179.532 168.81 171.069C168.361 164.463 166.405 154.232 159.835 154.232C154.755 154.232 150.734 160.083 148.634 163.961C146.839 158.576 139.049 136.82 135.566 128.348C129.876 114.67 125.855 110.739 111.962 113.665C106.075 114.975 82.6677 121.76 76.6545 123.483C60.32 128.186 44.901 132.638 38.1518 137.556C35.8845 139.041 34.0996 141.154 33.0156 143.638C31.9315 146.122 31.5955 148.867 32.0487 151.539C33.0719 159.383 48.4909 210.326 53.3374 225.709C45.0266 234.325 39.7673 247.769 37.8825 253.172C33.2334 266.545 27.31 292.088 39.6775 312.838C46.1707 323.54 56.3032 331.544 68.218 335.383C67.6615 337.178 66.9076 339.368 66.0819 341.935C66.0712 341.977 66.0699 342.02 66.0782 342.063C66.0866 342.105 66.1044 342.145 66.1302 342.179C66.1561 342.214 66.1894 342.242 66.2276 342.262C66.2659 342.282 66.3081 342.293 66.3512 342.294H67.0333C67.09 342.29 67.1442 342.269 67.1889 342.233C67.2337 342.198 67.267 342.151 67.2846 342.096C68.2 339.332 68.9898 336.891 69.5822 335.114C69.6012 335.043 69.606 334.969 69.5964 334.897C69.5868 334.824 69.563 334.754 69.5263 334.691C69.4896 334.628 69.4408 334.572 69.3826 334.528C69.3245 334.483 69.2581 334.451 69.1873 334.432C57.4893 330.82 47.5328 323.023 41.2212 312.533C32.2462 297.239 31.4205 275.233 39.2288 253.639C47.4678 230.968 58.148 220.252 64.0715 221.76C69.1873 223.016 70.8925 232.889 68.7745 248.864C67.6573 256.874 65.7821 264.759 63.174 272.415C63.1333 272.52 63.127 272.636 63.156 272.746C63.185 272.855 63.2479 272.953 63.3356 273.025C65.1306 274.479 68.2359 276.615 70.3361 278.123C72.5589 284.657 75.2649 291.017 78.4315 297.15C81.3394 302.283 84.4627 305.496 91.1042 305.64C97.2611 305.802 108.534 302.678 114.439 301.027C110.775 305.012 107.862 309.628 105.841 314.651C103.867 319.946 103.095 327.719 107.439 332.188C107.543 332.293 107.686 332.352 107.834 332.352C107.982 332.352 108.124 332.293 108.229 332.188C108.333 332.083 108.392 331.941 108.392 331.793C108.392 331.645 108.333 331.503 108.229 331.398C104.531 327.216 105.482 320.036 107.421 315.243C109.703 309.938 112.725 304.983 116.396 300.524C135.62 295.139 159.566 286.613 163.066 285.159C169.025 282.718 174.159 280.187 176.546 274.12C179.598 266.347 174.751 254.034 174.177 249.672C177.282 243.91 185.055 230.86 190.996 231.578C197.314 232.35 196.381 247.177 196.13 250.121C193.563 277.728 176.385 309.212 140.485 332.691C138.385 334.055 138.205 334.198 138.241 334.486C138.6 337.178 138.977 339.871 139.336 342.132C139.345 342.197 139.377 342.257 139.426 342.3C139.476 342.343 139.54 342.366 139.605 342.366H140.431C140.469 342.366 140.508 342.358 140.543 342.342C140.578 342.327 140.61 342.304 140.635 342.275C140.661 342.246 140.68 342.212 140.691 342.175C140.702 342.138 140.705 342.099 140.7 342.061C140.467 340.05 140.162 337.645 139.785 334.755C156.604 324.918 178.646 304.958 190.26 278.32C194.164 269.415 196.589 259.932 197.44 250.246C197.979 245.705 198.589 231.058 191.265 230.214ZM112.07 114.796C128.799 111.206 130.558 117.38 140.054 143.21C158.524 193.47 173.656 250.48 175.774 261.68C179.005 278.697 169.51 281.91 152.26 287.726C144.864 290.221 133.376 294.314 117.455 298.891C83.8165 308.512 82.7395 307.453 71.9695 278.643C69.8694 273.025 68.2718 268.645 66.7999 264.409C68.1836 259.53 69.2745 254.573 70.0668 249.564C72.4901 257.498 82.7395 291.962 89.3272 295.552C92.8095 297.491 97.8894 296.198 101.982 295.157C109.718 293.201 163.389 277.961 167.589 272.038C168.279 271.048 168.677 269.885 168.738 268.681C169.205 260.065 154.091 209.536 150.483 198.891L155.599 196.755C155.662 196.728 155.712 196.677 155.738 196.613C155.765 196.55 155.766 196.479 155.742 196.414C147.862 173.815 141.041 153.909 130.971 131.094C130.943 131.031 130.893 130.981 130.829 130.955C130.766 130.928 130.695 130.926 130.63 130.951C111.944 137.987 78.7008 150.139 60.2661 157.876C59.7635 158.091 60.0687 157.463 67.6615 177.926C63.6228 179.721 58.1301 182.575 55.0965 184.118C54.9976 184.172 54.9225 184.261 54.8859 184.367C54.8493 184.474 54.854 184.59 54.8991 184.693C66.046 209.015 70.3002 220.162 82.6857 242.42C82.7934 242.635 83.0627 242.761 83.4576 242.618C91.5709 239.799 109.97 230.86 113.973 228.976C126.412 223.16 135.513 217.541 143.59 213.287C143.651 213.246 143.699 213.189 143.731 213.123C143.762 213.057 143.776 212.983 143.77 212.91C143.787 212.858 143.787 212.801 143.77 212.749C142.89 210.415 141.095 206.018 139.713 203.307L149.406 199.25C152.062 208.225 167.876 260.101 167.356 268.573C167.305 269.563 166.982 270.52 166.422 271.338C162.617 276.723 106.918 292.716 101.408 294.098C97.6201 295.032 92.9172 296.234 89.8118 294.511C84.5704 291.621 77.1391 268.25 71.7182 251.198C71.2156 249.6 70.7131 248.074 70.2463 246.602C71.4669 236.856 71.5387 218.565 61.8457 220.162C55.994 199.017 43.4111 159.814 42.2084 150.857C41.9282 149.632 42.0657 148.348 42.5991 147.209C43.1325 146.071 44.0312 145.144 45.1522 144.575C53.4272 138.938 109.198 122.388 116.755 122.083C120.578 121.904 122.032 123.43 124.204 127.845C125.622 130.789 125.425 130.825 125.802 130.987C126.179 131.148 126.789 130.789 126.448 130.035C126.107 129.281 125.855 128.779 125.191 127.361C123.271 123.304 121.853 120.827 117.006 121.024C112.878 121.168 93.1146 126.409 90.2785 127.253C81.4112 129.712 50.7885 139.315 44.506 143.623C43.2005 144.314 42.1558 145.411 41.5306 146.749C40.9053 148.087 40.7337 149.592 41.0417 151.037C42.2982 160.873 57.8429 210.846 60.9123 220.485C58.3822 221.401 56.0972 222.887 54.2349 224.829C52.4399 218.959 34.1489 157.481 33.3052 151.396C32.8079 148.942 33.0547 146.396 34.0142 144.084C34.9736 141.771 36.6019 139.798 38.6903 138.418C48.0961 131.579 107.367 115.855 112.07 114.796ZM129.876 172.236C129.821 172.281 129.778 172.339 129.75 172.405C129.722 172.47 129.71 172.541 129.715 172.613L129.894 173.995L129.392 173.097C129.248 172.864 129.086 172.864 128.835 172.918C128.043 173.157 127.206 173.205 126.391 173.058C125.577 172.912 124.809 172.574 124.15 172.074L123.396 169.705C124.528 169.806 125.666 169.599 126.69 169.106C127.714 168.613 128.585 167.852 129.212 166.904L130.684 168.987C130.854 169.542 130.869 170.134 130.727 170.697C130.584 171.26 130.29 171.774 129.876 172.182V172.236ZM128.404 176.974C127.149 177.16 125.869 176.872 124.814 176.167C124.386 175.753 124.081 175.229 123.932 174.652C123.783 174.076 123.797 173.469 123.971 172.9C125.241 173.786 126.797 174.164 128.333 173.959C128.17 174.93 128.194 175.923 128.404 176.885V176.974ZM116.234 164.625C116.174 164.694 116.091 164.738 116.001 164.75C115.778 164.748 115.56 164.695 115.361 164.595C115.162 164.496 114.988 164.352 114.852 164.176C114.633 163.967 114.471 163.706 114.38 163.417C114.289 163.129 114.272 162.821 114.332 162.525C114.493 162.202 114.852 162.255 115.193 162.417C115.479 163.163 115.827 163.883 116.234 164.571V164.625ZM121.153 150.139C125.981 150.139 129.966 155.865 129.912 161.412C129.387 160.508 128.55 159.827 127.559 159.496C126.567 159.166 125.489 159.209 124.527 159.617C124.597 159.43 124.652 159.238 124.689 159.042C124.72 158.947 124.711 158.844 124.666 158.754C124.621 158.665 124.542 158.598 124.446 158.567C124.351 158.536 124.248 158.544 124.158 158.589C124.069 158.635 124.002 158.714 123.971 158.809C123.882 159.043 123.768 159.265 123.63 159.473C123.545 159.621 123.412 159.735 123.253 159.796C122.983 159.886 122.624 159.581 122.409 159.276C121.848 158.398 121.476 157.414 121.314 156.386C121.295 156.302 121.249 156.227 121.182 156.173C121.115 156.12 121.032 156.091 120.946 156.091C120.86 156.091 120.777 156.12 120.71 156.173C120.643 156.227 120.597 156.302 120.578 156.386C120.578 157.84 121.206 159.976 122.499 160.532C119.519 162.453 118.909 164.858 119.734 167.084C112.537 161.214 114.708 149.96 121.153 150.085V150.139ZM126.017 161.573C126.361 161.549 126.706 161.602 127.027 161.727C127.349 161.853 127.638 162.048 127.875 162.298C128.112 162.549 128.29 162.849 128.397 163.177C128.504 163.504 128.537 163.852 128.494 164.194C128.261 167.174 124.15 169.202 122.391 167.138C120.632 165.074 123.055 161.519 126.017 161.519V161.573ZM129.804 156.188C129.866 155.986 129.992 155.81 130.163 155.686C130.774 155.381 131.187 156.44 131.223 157.14C131.258 157.84 131.007 158.432 130.487 158.396C130.321 157.648 130.093 156.916 129.804 156.206V156.188ZM131.51 169.13C133.305 169.328 134.346 171.787 132.748 174.731C132.475 173.741 131.832 172.893 130.953 172.361C131.26 171.892 131.468 171.365 131.564 170.812C131.659 170.26 131.641 169.693 131.51 169.148V169.13ZM115.947 175.969C113.075 173.636 110.024 173.761 108.929 172.523C108.812 172.355 108.738 172.162 108.713 171.959C108.688 171.756 108.713 171.55 108.785 171.359C108.858 171.169 108.976 170.998 109.129 170.863C109.282 170.728 109.466 170.632 109.665 170.584C111.366 170.063 113.184 170.06 114.888 170.574C116.591 171.089 118.103 172.098 119.232 173.474C120.577 175.05 121.591 176.882 122.212 178.859C122.812 180.744 123.209 182.688 123.396 184.657L119.806 186.667C120.121 184.706 119.932 182.697 119.256 180.829C118.581 178.961 117.443 177.295 115.947 175.987V175.969ZM116.539 190.078C116.458 190.14 116.405 190.231 116.392 190.332C116.378 190.433 116.406 190.535 116.468 190.616C116.529 190.697 116.621 190.75 116.722 190.764C116.823 190.777 116.925 190.75 117.006 190.688C117.437 190.371 117.829 190.003 118.173 189.593C118.675 190.419 119.483 191.658 119.968 192.376C119.842 195.75 115.444 197.132 113.183 195.283C113.021 194.512 112.644 193.183 112.321 192.214H113.398C113.486 192.195 113.565 192.146 113.622 192.076C113.678 192.006 113.709 191.918 113.709 191.828C113.709 191.738 113.678 191.65 113.622 191.58C113.565 191.51 113.486 191.461 113.398 191.442C112.357 191.547 111.305 191.414 110.322 191.054C109.34 190.693 108.452 190.114 107.726 189.36C105.59 186.955 105.698 182.485 106.757 179.434C106.936 179.418 107.116 179.418 107.295 179.434C107.4 179.457 107.509 179.442 107.603 179.391C107.698 179.341 107.771 179.258 107.81 179.159C107.849 179.059 107.851 178.949 107.816 178.848C107.781 178.747 107.711 178.662 107.618 178.608C107.452 178.524 107.278 178.457 107.098 178.41C107.742 176.951 108.294 175.452 108.749 173.923C108.839 173.456 108.749 173.456 108.982 173.636C110.49 174.677 114.888 174.695 117.383 178.913C119.591 182.629 119.717 187.314 116.539 190.096V190.078ZM107.887 173.779C107.367 175.574 106.828 176.472 106.092 178.428C105.768 178.502 105.467 178.654 105.214 178.869C104.961 179.085 104.763 179.359 104.639 179.667C104.581 179.772 104.568 179.895 104.602 180.009C104.636 180.124 104.713 180.22 104.818 180.277C104.923 180.334 105.046 180.348 105.16 180.314C105.275 180.28 105.371 180.202 105.428 180.098C105.472 180.013 105.526 179.935 105.59 179.864C104.889 182.122 104.796 184.524 105.321 186.829C105.568 187.915 106.079 188.924 106.808 189.766C107.537 190.608 108.463 191.258 109.503 191.658L106.38 192.986C103.149 189.701 100.259 183.383 100.995 178.626C101.623 174.874 104.872 172.074 106.828 171.913C107.834 171.823 108.103 172.9 107.887 173.797V173.779ZM93.2762 182.754C93.86 184.401 94.7288 185.932 95.843 187.278C95.2686 190.868 92.0197 192.34 88.4835 190.491C88.1585 188.684 87.5529 186.94 86.6885 185.321C86.6581 185.267 86.6168 185.221 86.5674 185.183C86.518 185.146 86.4615 185.12 86.4014 185.106C85.4859 184.944 82.3447 183.831 80.1907 176.885C77.4982 168.161 84.4627 169.292 86.2936 166.402C87.9809 168.412 91.4453 168.556 92.8454 172.595C93.9795 175.761 94.1296 179.196 93.2762 182.449C93.2447 182.542 93.2447 182.643 93.2762 182.736V182.754ZM88.2143 191.155C91.9299 193.417 96.1302 191.711 96.6328 187.565L98.4278 187.439C98.3692 188.721 97.9569 189.961 97.2367 191.022C96.5164 192.084 95.5162 192.925 94.3471 193.453C93.1779 193.981 91.8854 194.175 90.6128 194.013C89.3402 193.851 88.1373 193.341 87.1373 192.537C87.521 192.09 87.8806 191.623 88.2143 191.137V191.155ZM131.294 168.269L129.715 166.115C130.734 164.015 131.066 161.647 130.666 159.348C131.635 159.348 132.192 158.091 132.12 157.14C132.012 155.524 130.935 154.322 129.733 154.95L129.32 153.765C130.487 152.832 130.522 150.678 129.033 150.283C129.346 149.854 129.516 149.337 129.519 148.806C129.522 148.275 129.359 147.757 129.051 147.324C128.743 146.891 128.307 146.566 127.805 146.395C127.302 146.224 126.758 146.215 126.25 146.37C126.206 145.739 125.949 145.143 125.522 144.677C125.095 144.211 124.524 143.903 123.9 143.803C123.276 143.703 122.636 143.817 122.085 144.127C121.535 144.436 121.105 144.923 120.865 145.508C120.608 145.227 120.278 145.022 119.912 144.914C119.547 144.806 119.159 144.8 118.79 144.896C118.421 144.992 118.085 145.186 117.818 145.459C117.551 145.731 117.364 146.071 117.275 146.441C115.139 144.359 111.406 146.836 112.357 149.924C108.964 149.762 107.941 155.057 111.047 156.475C110.745 156.874 110.571 157.353 110.548 157.852C110.524 158.351 110.651 158.845 110.913 159.27C111.175 159.695 111.56 160.031 112.016 160.234C112.472 160.437 112.979 160.497 113.47 160.407L114.116 161.627C112.321 162.417 113.919 165.863 115.911 165.684C116.151 165.648 116.378 165.556 116.575 165.415C117.889 167.476 119.914 168.983 122.265 169.651L123.055 172.11C122.194 172.648 121.368 173.223 120.56 173.905C116.091 167.946 108.462 168.753 107.744 171.464C107.288 171.281 106.794 171.214 106.306 171.267C105.817 171.32 105.35 171.493 104.944 171.769C103.719 172.455 102.653 173.391 101.815 174.517C100.976 175.643 100.385 176.933 100.079 178.303C98.143 176.578 96.9257 174.188 96.6687 171.607C96.3277 167.102 95.5917 162.184 91.1581 161.107C90.3131 160.95 89.4449 160.97 88.6079 161.165C87.7709 161.359 86.9831 161.725 86.2936 162.237C84.5483 161.437 82.5768 161.277 80.7254 161.786C78.874 162.295 77.2611 163.44 76.1698 165.02C73.2081 168.735 73.6927 173.169 77.6597 178.572C80.7291 182.772 77.0673 189.952 83.6011 194.512C82.8831 195.158 82.1292 195.84 81.3215 196.684C78.7367 190.132 69.8873 166.833 67.8231 161.537C88.0527 153.191 106.81 146.37 127.399 138.831C131.905 148.829 135.836 158.235 139.408 167.551C136.663 167.507 133.92 167.741 131.223 168.251L131.294 168.269ZM81.9318 197.419C83.6011 195.624 85.1089 194.476 86.5449 193.094C87.6433 194.083 89.0065 194.73 90.4673 194.955C91.9281 195.181 93.4229 194.975 94.7684 194.363C96.1139 193.751 97.2516 192.76 98.042 191.511C98.8323 190.262 99.2409 188.809 99.2176 187.332L101.569 187.152C102.577 189.713 104.063 192.058 105.949 194.063C106.038 194.119 106.14 194.148 106.245 194.148C106.35 194.148 106.453 194.119 106.541 194.063L110.742 192.142C110.789 192.154 110.838 192.154 110.885 192.142H111.46C111.621 192.842 111.908 193.937 112.303 195.068C106.918 198.012 104.495 201.925 104.998 207.005C105 207.048 105.012 207.091 105.035 207.128C105.057 207.166 105.088 207.197 105.125 207.22C105.162 207.243 105.204 207.257 105.247 207.26C105.291 207.263 105.335 207.256 105.374 207.238C112.447 204.312 134.418 195.463 135.01 195.248C135.207 195.248 135.261 195.05 135.118 194.889C131.653 190.652 127.309 189.647 120.596 191.514C120.147 190.742 119.429 189.629 118.801 188.821C118.974 188.55 119.13 188.268 119.268 187.978L124.258 185.465C124.353 185.413 124.431 185.334 124.482 185.238C124.533 185.143 124.555 185.034 124.545 184.926C124.289 181.231 123.157 177.65 121.242 174.479C121.871 173.995 122.517 173.546 123.163 173.115C122.499 176.705 125.532 178.339 129.068 177.746C129.126 177.734 129.18 177.71 129.228 177.675C129.276 177.641 129.316 177.597 129.347 177.547C129.377 177.496 129.396 177.44 129.404 177.382C129.412 177.324 129.408 177.264 129.392 177.208C129.118 176.258 129.038 175.263 129.158 174.282L130.199 175.808C130.24 175.873 130.302 175.922 130.374 175.948C130.447 175.974 130.526 175.974 130.599 175.949C130.672 175.924 130.734 175.875 130.775 175.811C130.817 175.746 130.835 175.669 130.828 175.592L130.666 173.295C131.475 173.894 132.037 174.769 132.246 175.754C132.261 175.817 132.293 175.874 132.338 175.92C132.383 175.967 132.44 176 132.503 176.016C132.565 176.033 132.631 176.032 132.693 176.014C132.755 175.997 132.812 175.962 132.856 175.915C135.064 173.6 134.812 170.028 132.982 168.825C135.264 168.437 137.578 168.263 139.892 168.305C143.357 177.28 146.103 185.034 148.293 191.64C133.933 197.24 89.1836 215.118 89.1836 215.118C86.5808 209.159 84.1576 203.235 81.8241 197.384L81.9318 197.419ZM86.3475 224.344C86.3752 224.407 86.426 224.457 86.4894 224.484C86.5529 224.511 86.6241 224.512 86.6885 224.488C100.797 219.48 122.894 210.487 139.049 203.792C139.892 206.089 142.082 211.187 142.8 212.767C131.851 218.367 115.534 227.306 83.5652 241.666C68.7565 212.785 66.2973 205.605 55.994 184.747C55.994 184.747 66.4948 179.631 68.0385 178.841C73.7825 194.063 79.5086 209.32 86.2757 224.255L86.3475 224.344ZM161.953 205.605C165.292 198.425 173.908 181.444 179.759 186.703C183.349 189.916 183.942 199.268 184.013 203.128C184.092 218.6 180.584 233.881 173.764 247.769C172.454 242.725 168.271 226.75 161.953 205.605ZM161.396 203.72C157.806 191.765 153.157 177.082 149.101 165.253C152.062 160.407 155.652 155.488 159.871 155.488C165.525 155.488 167.14 165.451 167.446 171.087C167.82 182.304 165.757 193.468 161.396 203.81V203.72ZM69.4565 275.879C68.1462 274.892 66.0281 273.33 64.3408 272.199C65.0408 270.171 65.6332 268.196 66.1358 266.294C67.2846 269.471 68.3257 272.54 69.4565 275.879Z" fill="#5669FF"/>
<path d="M109.377 252.275L112.752 254.178C112.853 254.235 112.965 254.272 113.08 254.285C113.195 254.299 113.312 254.29 113.424 254.258C113.536 254.226 113.641 254.173 113.732 254.101C113.823 254.028 113.898 253.939 113.954 253.837L116.019 249.942L120.704 264.302C120.769 264.502 120.896 264.676 121.067 264.799C121.239 264.922 121.444 264.986 121.655 264.984C123.082 264.664 124.476 264.213 125.819 263.638C126.072 263.552 126.28 263.369 126.397 263.13C126.515 262.891 126.533 262.615 126.448 262.363L121.655 248.524L124.724 249.996C124.931 250.092 125.166 250.107 125.382 250.037C125.599 249.967 125.781 249.818 125.891 249.619L127.866 246.029C127.922 245.925 127.956 245.812 127.967 245.695C127.979 245.578 127.966 245.46 127.931 245.348C127.896 245.236 127.839 245.132 127.763 245.042C127.687 244.952 127.594 244.879 127.489 244.826L116.126 239.405C115.85 239.275 115.533 239.258 115.245 239.359C114.956 239.459 114.718 239.669 114.583 239.944L108.946 251.055C108.892 251.163 108.86 251.28 108.853 251.401C108.845 251.522 108.862 251.643 108.902 251.757C108.942 251.871 109.005 251.975 109.087 252.064C109.168 252.154 109.267 252.225 109.377 252.275Z" fill="#5669FF"/>
<path d="M105.356 280.511C105.459 280.8 105.669 281.039 105.944 281.176C106.218 281.313 106.535 281.338 106.828 281.246L148.347 267.981C148.639 267.886 148.882 267.682 149.026 267.41C149.17 267.139 149.203 266.823 149.119 266.527L144.846 252.509C144.803 252.361 144.731 252.223 144.635 252.104C144.538 251.984 144.419 251.885 144.284 251.811C144.149 251.738 144 251.692 143.847 251.676C143.694 251.66 143.54 251.675 143.393 251.719L139.892 252.76C139.743 252.803 139.603 252.876 139.482 252.973C139.361 253.071 139.261 253.192 139.187 253.329C139.114 253.467 139.068 253.617 139.054 253.772C139.039 253.927 139.056 254.083 139.102 254.232L141.741 263.099C141.786 263.261 141.766 263.434 141.686 263.581C141.605 263.729 141.471 263.839 141.31 263.889L110.023 273.905C109.862 273.956 109.686 273.941 109.535 273.864C109.384 273.787 109.269 273.653 109.216 273.492L106.003 264.032C105.954 263.886 105.877 263.75 105.775 263.633C105.674 263.517 105.55 263.421 105.412 263.353C105.273 263.284 105.122 263.244 104.968 263.234C104.814 263.225 104.659 263.246 104.513 263.296L101.048 264.463C100.755 264.565 100.513 264.779 100.375 265.058C100.238 265.336 100.215 265.658 100.313 265.953L105.356 280.511ZM112.536 183.634C112.622 183.596 112.691 183.529 112.732 183.445C112.772 183.36 112.781 183.264 112.758 183.174C112.734 183.083 112.679 183.004 112.602 182.95C112.526 182.896 112.432 182.872 112.339 182.88C112.049 182.944 111.749 182.944 111.459 182.88C111.083 182.755 111.334 182.36 111.603 182.001C111.638 181.969 111.666 181.93 111.685 181.887C111.704 181.844 111.714 181.797 111.714 181.75C111.714 181.702 111.704 181.656 111.685 181.612C111.666 181.569 111.638 181.53 111.603 181.498C111.442 181.373 111.172 181.498 110.921 181.624C110.778 181.717 110.655 181.839 110.561 181.982C110.467 182.125 110.404 182.286 110.375 182.455C110.347 182.623 110.353 182.796 110.395 182.962C110.436 183.128 110.511 183.284 110.616 183.419C110.875 183.647 111.199 183.79 111.542 183.829C111.886 183.867 112.233 183.8 112.536 183.634ZM113.937 183.922C113.898 184.224 113.786 184.513 113.611 184.764C113.436 185.014 113.203 185.218 112.931 185.358C112.355 185.589 111.712 185.589 111.136 185.358C111.032 185.3 110.908 185.287 110.794 185.321C110.68 185.355 110.583 185.432 110.526 185.537C110.469 185.642 110.456 185.765 110.489 185.879C110.523 185.994 110.601 186.09 110.706 186.147C111.163 186.442 111.696 186.599 112.24 186.599C112.785 186.599 113.317 186.442 113.775 186.147C114.149 185.916 114.451 185.585 114.647 185.192C114.844 184.799 114.927 184.359 114.888 183.922C114.888 183.795 114.838 183.674 114.749 183.585C114.659 183.496 114.538 183.446 114.412 183.446C114.286 183.446 114.165 183.496 114.076 183.585C113.987 183.674 113.937 183.795 113.937 183.922ZM113.093 178.339C112.303 178.662 112.788 180.134 113.631 180.134C113.751 180.135 113.869 180.1 113.968 180.032C114.068 179.965 114.144 179.869 114.188 179.757C114.493 179.129 113.757 178.07 113.093 178.339ZM108.39 180.888C107.744 180.421 107.098 181.085 107.457 181.983C107.654 182.432 108.103 182.809 108.516 182.629C108.929 182.45 108.946 181.301 108.39 180.888ZM111.585 177.208C111.759 176.905 112.031 176.671 112.357 176.544C112.703 176.446 113.07 176.446 113.416 176.544C113.523 176.577 113.638 176.568 113.739 176.521C113.839 176.473 113.919 176.389 113.962 176.286C114.004 176.183 114.007 176.068 113.969 175.963C113.931 175.858 113.856 175.771 113.757 175.718C113.501 175.571 113.216 175.481 112.922 175.454C112.628 175.426 112.331 175.462 112.052 175.559C111.773 175.656 111.518 175.812 111.304 176.016C111.09 176.22 110.923 176.467 110.813 176.742C110.751 176.844 110.733 176.967 110.761 177.083C110.79 177.199 110.863 177.299 110.966 177.361C111.068 177.423 111.191 177.441 111.307 177.413C111.423 177.384 111.523 177.311 111.585 177.208ZM90.817 179.075C90.3503 178.949 90.3503 179.47 89.6682 180.008C89.2926 180.309 88.8317 180.483 88.3513 180.505C87.8709 180.528 87.3957 180.398 86.9936 180.134C86.9032 180.056 86.7852 180.016 86.6657 180.025C86.5462 180.033 86.4349 180.089 86.3564 180.179C86.2778 180.269 86.2384 180.387 86.2469 180.507C86.2553 180.626 86.3108 180.738 86.4013 180.816C86.7475 181.167 87.1793 181.422 87.6542 181.556C88.129 181.689 88.6304 181.696 89.1089 181.577C89.5873 181.457 90.0263 181.215 90.3825 180.874C90.7388 180.532 90.9999 180.104 91.1401 179.632C91.1563 179.574 91.1607 179.513 91.1531 179.454C91.1456 179.394 91.1262 179.337 91.0961 179.285C91.0659 179.233 91.0257 179.188 90.9778 179.152C90.9298 179.116 90.8752 179.09 90.817 179.075ZM88.4476 178.357C88.5461 178.305 88.6217 178.218 88.6595 178.113C88.6973 178.008 88.6946 177.892 88.652 177.789C88.6094 177.686 88.53 177.603 88.4291 177.555C88.3282 177.507 88.2132 177.499 88.1065 177.531C87.209 177.962 86.868 176.006 86.868 175.018C86.8812 174.953 86.8798 174.886 86.8638 174.821C86.8478 174.757 86.8177 174.697 86.7756 174.645C86.7336 174.594 86.6805 174.552 86.6205 174.524C86.5604 174.495 86.4947 174.48 86.4282 174.48C86.3617 174.48 86.296 174.495 86.2359 174.524C86.1758 174.552 86.1228 174.594 86.0807 174.645C86.0386 174.697 86.0085 174.757 85.9926 174.821C85.9766 174.886 85.9752 174.953 85.9884 175.018C85.9884 176.885 86.7064 179.021 88.4476 178.357ZM84.337 171.985C84.337 171.536 83.637 171.375 83.2241 171.41C82.7922 171.488 82.3979 171.706 82.1026 172.031C81.8072 172.355 81.6273 172.768 81.5907 173.205C81.583 173.269 81.5889 173.333 81.608 173.394C81.6271 173.455 81.659 173.511 81.7014 173.558C81.7439 173.606 81.796 173.644 81.8543 173.67C81.9125 173.695 81.9757 173.709 82.0394 173.708C82.6497 173.708 82.6677 172.416 83.8344 172.416C84.1755 172.452 84.355 172.236 84.337 171.985ZM86.7064 170.585C87.0654 170.585 87.8014 169.956 88.8604 170.441C88.9703 170.491 89.0952 170.497 89.209 170.456C89.3228 170.416 89.4166 170.334 89.4707 170.226C89.7759 169.526 87.9091 168.431 86.4013 169.813C86.3372 169.875 86.293 169.954 86.2741 170.041C86.2552 170.128 86.2626 170.218 86.2953 170.301C86.328 170.384 86.3846 170.455 86.4577 170.505C86.5309 170.556 86.6175 170.584 86.7064 170.585ZM84.1934 174.947C83.3318 175.377 84.1934 177.208 85.1089 176.742C86.0243 176.275 85.055 174.534 84.1934 174.947ZM88.1424 172.864C87.2988 173.277 88.1424 175.126 89.0579 174.659C89.9733 174.193 89.022 172.434 88.1424 172.864ZM122.965 164.518C124.049 164.475 125.092 164.092 125.945 163.423C126.304 165.02 125.73 166.007 124.778 166.402C124.706 166.437 124.648 166.495 124.612 166.567C124.577 166.639 124.567 166.721 124.583 166.8C124.6 166.878 124.642 166.949 124.703 167.001C124.765 167.052 124.842 167.082 124.922 167.084C125.441 166.998 125.915 166.739 126.268 166.349C126.702 165.778 126.967 165.097 127.033 164.383C127.1 163.669 126.965 162.951 126.645 162.31C126.594 162.194 126.5 162.102 126.384 162.052C126.267 162.002 126.136 161.998 126.017 162.041C125.134 162.889 124.055 163.505 122.876 163.836C122.785 163.847 122.703 163.895 122.648 163.967C122.592 164.04 122.568 164.131 122.579 164.221C122.591 164.312 122.639 164.394 122.711 164.449C122.783 164.505 122.875 164.53 122.965 164.518ZM124.85 155.094C124.67 155.084 124.491 155.13 124.338 155.226C124.185 155.321 124.064 155.461 123.994 155.627C123.923 155.793 123.905 155.977 123.942 156.154C123.98 156.331 124.07 156.491 124.202 156.615C124.334 156.738 124.501 156.818 124.679 156.843C124.858 156.868 125.04 156.838 125.201 156.756C125.362 156.674 125.494 156.545 125.579 156.386C125.664 156.227 125.698 156.045 125.676 155.866C125.662 155.656 125.569 155.46 125.416 155.316C125.262 155.173 125.06 155.093 124.85 155.094ZM119.555 158.271C119.587 158.131 119.584 157.985 119.546 157.847C119.509 157.708 119.438 157.581 119.34 157.476C119.242 157.371 119.12 157.292 118.985 157.245C118.849 157.198 118.704 157.185 118.562 157.207C118.42 157.229 118.286 157.285 118.171 157.371C118.056 157.457 117.964 157.57 117.902 157.7C117.841 157.829 117.812 157.972 117.819 158.116C117.825 158.259 117.867 158.399 117.939 158.522C118.022 158.683 118.154 158.814 118.315 158.896C118.476 158.978 118.659 159.007 118.838 158.979C119.016 158.951 119.182 158.868 119.311 158.741C119.439 158.614 119.525 158.449 119.555 158.271ZM125.101 152.724C125.182 152.695 125.256 152.649 125.318 152.59C125.381 152.531 125.43 152.46 125.464 152.38C125.497 152.301 125.514 152.216 125.514 152.13C125.513 152.044 125.495 151.959 125.46 151.881C125.209 151.073 123.665 151.037 122.84 151.468C122.445 151.665 122.158 151.953 122.176 152.33C122.194 152.707 122.571 152.994 123.037 153.012C123.737 153.043 124.437 152.946 125.101 152.724ZM119.716 154.861C119.716 154.376 119.304 153.891 118.388 154.125C117.932 154.236 117.515 154.472 117.186 154.807C116.396 155.596 116.827 156.404 117.455 156.404C118.083 156.404 119.519 155.507 119.716 154.861ZM206.9 128.725C201.209 120.504 188.77 102.662 182.344 95.0332C182.296 94.9938 182.236 94.9723 182.173 94.9723C182.111 94.9723 182.051 94.9938 182.003 95.0332L145.008 116.627C144.909 116.69 144.839 116.789 144.812 116.903C144.785 117.017 144.804 117.137 144.864 117.237C152.655 129.659 162.689 143.014 171.323 154.932C171.355 154.98 171.397 155.021 171.445 155.053C171.494 155.084 171.548 155.106 171.605 155.116C171.662 155.126 171.72 155.124 171.777 155.111C171.833 155.098 171.886 155.074 171.933 155.04C182.703 147.429 192.252 140.68 206.81 129.372C206.86 129.336 206.902 129.291 206.933 129.239C206.965 129.186 206.986 129.128 206.994 129.068C207.002 129.007 206.998 128.946 206.982 128.887C206.966 128.828 206.938 128.773 206.9 128.725ZM177.246 115.209C177.194 115.16 177.13 115.125 177.06 115.109C176.991 115.092 176.918 115.094 176.849 115.114C176.78 115.133 176.718 115.171 176.668 115.222C176.618 115.274 176.582 115.337 176.564 115.406C176.493 115.958 176.21 116.46 175.774 116.807C175.146 117.094 174.554 116.196 174.213 116.142C174.108 116.126 174.002 116.151 173.915 116.211C173.828 116.271 173.768 116.362 173.746 116.465C173.531 117.776 172.813 119.158 171.771 119.284C170.73 119.409 170.551 118.961 170.282 119.14C170.229 119.167 170.185 119.208 170.154 119.259C170.123 119.31 170.107 119.368 170.107 119.427C170.107 119.487 170.123 119.545 170.154 119.595C170.185 119.646 170.229 119.687 170.282 119.714C171.933 120.576 173.746 119.84 174.392 117.237C174.618 117.446 174.899 117.584 175.202 117.635C175.505 117.686 175.816 117.648 176.097 117.525C176.577 117.254 176.937 116.811 177.103 116.286C178.877 118.423 179.921 121.071 180.082 123.843C180.643 125.122 181.414 126.299 182.362 127.325C181.913 129.12 181.052 130.09 178.072 130.036C177.711 128.901 177.197 127.82 176.546 126.823C176.133 126.194 173.261 127.038 170.12 120.432C170.081 120.35 170.011 120.286 169.926 120.253C169.841 120.22 169.746 120.22 169.661 120.255C169.577 120.289 169.508 120.354 169.47 120.438C169.432 120.521 169.427 120.615 169.456 120.702C169.755 121.503 170.109 122.283 170.515 123.035C168.289 123.807 166.117 120.648 169.258 119.068C169.33 119.045 169.393 118.999 169.437 118.938C169.482 118.876 169.505 118.803 169.505 118.727C169.505 118.652 169.482 118.578 169.437 118.517C169.393 118.455 169.33 118.41 169.258 118.386C165.956 117.596 165.453 115.029 167.338 112.732C169.223 110.434 171.61 110.578 173.602 113.504C173.633 113.56 173.679 113.607 173.734 113.639C173.789 113.672 173.852 113.689 173.917 113.689C173.981 113.689 174.044 113.672 174.099 113.639C174.154 113.607 174.2 113.56 174.231 113.504C174.437 113.053 174.781 112.68 175.213 112.438C175.646 112.195 176.144 112.097 176.636 112.157C177.749 112.319 177.839 113.199 177.857 114.078V114.401C177.857 115.029 178.916 114.401 179.364 115.819C179.457 116.122 179.477 116.441 179.424 116.753C179.371 117.065 179.246 117.36 179.059 117.614C178.56 116.739 177.95 115.93 177.246 115.209ZM173.656 138.239C174.445 135.434 175.898 132.86 177.892 130.736C179.032 130.987 180.223 130.861 181.285 130.377C181.805 130.078 182.241 129.653 182.555 129.142C182.868 128.631 183.049 128.05 183.08 127.451C185.388 126.346 187.922 125.795 190.48 125.842C193.039 125.888 195.551 126.532 197.817 127.72C191.319 132.531 180.531 140.124 173.854 144.809C173.115 142.688 173.065 140.389 173.71 138.239H173.656ZM198.463 127.235C196.099 125.879 193.439 125.119 190.715 125.022C187.99 124.925 185.284 125.494 182.829 126.679C182.121 125.726 181.462 124.737 180.854 123.717C180.806 121.691 180.264 119.707 179.275 117.937C179.648 117.654 179.925 117.262 180.069 116.816C180.214 116.37 180.218 115.891 180.082 115.442C180.016 115.049 179.831 114.684 179.552 114.399C179.273 114.113 178.913 113.92 178.521 113.845C178.631 113.236 178.511 112.607 178.184 112.081C177.857 111.556 177.346 111.17 176.751 111C176.156 110.83 175.519 110.888 174.963 111.161C174.408 111.435 173.974 111.905 173.746 112.481C168.846 105.695 161.001 116.465 168.092 118.763C167.486 119.114 167.038 119.683 166.837 120.353C166.637 121.024 166.7 121.746 167.014 122.371C167.328 122.997 167.869 123.479 168.526 123.719C169.183 123.959 169.908 123.939 170.551 123.663C170.643 123.64 170.728 123.597 170.802 123.538C171.317 124.519 172.043 125.374 172.927 126.041C173.812 126.708 174.833 127.171 175.918 127.397C176.403 128.33 176.851 129.192 177.246 130.269C173.207 134.595 171.018 139.89 173.19 145.293L171.053 146.819C169.258 144.144 164.25 138.023 150.411 117.919C160.93 111.063 172.256 104.206 180.818 99.5386C188.627 108.962 197.404 121.886 200.132 125.979L198.463 127.235ZM141.526 75.7908C142.112 75.8341 142.699 75.6995 143.208 75.4047C143.717 75.1098 144.125 74.6683 144.379 74.1379C144.634 73.6074 144.722 73.0126 144.633 72.4311C144.545 71.8495 144.282 71.3083 143.881 70.8779C143.48 70.4476 142.959 70.1482 142.385 70.0187C141.811 69.8893 141.211 69.9358 140.664 70.1523C140.117 70.3688 139.648 70.7452 139.318 71.2323C138.989 71.7194 138.813 72.2946 138.815 72.8829C138.791 73.6274 139.063 74.3512 139.57 74.8962C140.078 75.4411 140.781 75.7627 141.526 75.7908ZM141.526 70.8545C141.938 70.8035 142.356 70.8792 142.725 71.0717C143.093 71.2641 143.394 71.5641 143.588 71.9318C143.781 72.2995 143.858 72.7174 143.809 73.13C143.759 73.5426 143.585 73.9303 143.309 74.2415C143.034 74.5527 142.67 74.7726 142.267 74.8721C141.863 74.9716 141.439 74.9459 141.051 74.7984C140.662 74.6509 140.328 74.3887 140.092 74.0465C139.856 73.7043 139.73 73.2984 139.731 72.8829C139.706 72.3774 139.88 71.8822 140.215 71.5032C140.551 71.1242 141.021 70.8914 141.526 70.8545ZM125.101 78.1602C128.459 77.8276 131.843 77.8758 135.189 78.3038C138.581 78.7246 141.924 79.4761 145.17 80.5475C145.25 80.5598 145.333 80.5411 145.4 80.4952C145.467 80.4494 145.515 80.3796 145.533 80.3001C145.551 80.2206 145.539 80.1371 145.498 80.0665C145.457 79.9958 145.391 79.9433 145.313 79.9193C138.869 77.3469 131.866 76.4993 124.994 77.4601C124.581 77.4422 124.455 78.1602 125.101 78.1602ZM128.297 71.411C130.425 72.7128 132.299 74.3916 133.825 76.3652C133.885 76.4185 133.961 76.4501 134.041 76.4551C134.121 76.4601 134.201 76.4381 134.267 76.3926C134.333 76.3472 134.382 76.2809 134.406 76.2043C134.43 76.1278 134.428 76.0454 134.4 75.9703C132.605 72.3803 128.817 70.5853 128.315 70.8366C128.265 70.8659 128.224 70.9071 128.195 70.9565C128.166 71.0058 128.15 71.0616 128.148 71.1189C128.146 71.1761 128.159 71.2329 128.185 71.2839C128.211 71.335 128.249 71.3787 128.297 71.411ZM75.739 55.3816C83.5113 61.1974 83.1344 61 83.3139 61C83.4934 61 83.3139 61.4128 87.1013 54.7534C92.8812 56.0458 94.9634 56.9433 95.7891 57.1228C96.6148 57.3023 96.5071 56.5304 96.1302 56.3868C93.3441 55.3834 90.5034 54.5384 87.6219 53.8559L88.3399 52.6173C88.3637 52.5939 88.3827 52.566 88.3957 52.5352C88.4086 52.5044 88.4153 52.4713 88.4153 52.4378C88.4153 52.4044 88.4086 52.3713 88.3957 52.3405C88.3827 52.3097 88.3637 52.2817 88.3399 52.2583L81.0522 48.0401C81.0012 47.9993 80.9379 47.9771 80.8727 47.9771C80.8074 47.9771 80.7441 47.9993 80.6932 48.0401L75.7749 54.9508C75.7356 54.9699 75.702 54.9988 75.6774 55.0348C75.6527 55.0708 75.6379 55.1125 75.6342 55.156C75.6306 55.1995 75.6384 55.2431 75.6567 55.2827C75.6751 55.3223 75.7034 55.3564 75.739 55.3816ZM86.7782 52.8327L86.3295 53.5866C84.7947 53.2631 83.2424 53.0293 81.6804 52.8866C81.6022 52.8794 81.5236 52.8948 81.4538 52.9307C81.3839 52.9667 81.3258 53.0219 81.2863 53.0897C81.2467 53.1575 81.2273 53.2353 81.2303 53.3137C81.2334 53.3922 81.2587 53.4682 81.3035 53.5328C81.5009 53.802 81.465 53.5328 85.8269 54.4841L83.1523 59.0434L77.3904 54.8252L81.106 49.6017L86.7782 52.8327ZM148.329 151.917C151.517 145.302 153.139 138.042 153.068 130.7C153.048 130.607 152.997 130.524 152.924 130.465C152.85 130.405 152.758 130.373 152.664 130.373C152.569 130.373 152.477 130.405 152.404 130.465C152.33 130.524 152.279 130.607 152.26 130.7C151.887 137.869 150.296 144.922 147.557 151.558C147.359 152.024 148.095 152.383 148.329 151.917ZM114.816 66.1337C121.87 70.9802 121.511 70.9802 121.924 70.9802C121.997 70.9676 122.065 70.9347 122.12 70.8853C122.176 70.8359 122.216 70.772 122.236 70.7009C122.257 70.6297 122.257 70.5543 122.237 70.483C122.217 70.4118 122.177 70.3477 122.122 70.2981C120.048 68.3992 117.737 66.7763 115.247 65.4695C115.159 65.4124 115.052 65.3926 114.949 65.4145C114.846 65.4364 114.757 65.4981 114.699 65.5862C114.642 65.6743 114.623 65.7814 114.644 65.8841C114.666 65.9868 114.728 66.0766 114.816 66.1337ZM182.954 152.186C182.95 152.076 182.906 151.971 182.83 151.892C182.754 151.813 182.651 151.764 182.541 151.755C181.321 151.755 183.457 155.166 178.951 179.524C178.944 179.621 178.971 179.718 179.028 179.797C179.085 179.876 179.168 179.933 179.263 179.956C179.358 179.98 179.458 179.969 179.545 179.926C179.633 179.883 179.702 179.811 179.741 179.721C182.538 170.827 183.628 161.485 182.954 152.186ZM115.139 57.0869C122.786 59.4742 124.383 60.6769 124.868 60.5333C124.942 60.5044 125.006 60.4538 125.051 60.3882C125.096 60.3225 125.12 60.2448 125.12 60.1653C125.12 60.0858 125.096 60.0081 125.051 59.9424C125.006 59.8768 124.942 59.8262 124.868 59.7973C121.858 58.2233 118.653 57.0524 115.337 56.315C115.234 56.2889 115.126 56.3044 115.035 56.3583C114.944 56.4121 114.878 56.4999 114.852 56.6022C114.826 56.7046 114.841 56.8132 114.895 56.904C114.949 56.9949 115.037 57.0607 115.139 57.0869Z" fill="#5669FF"/>
<path d="M91.3374 53.2276L97.7635 53.7123L97.1353 61.7359C97.1301 61.7998 97.1495 61.8633 97.1895 61.9133C97.2296 61.9634 97.2872 61.9962 97.3507 62.0052C102.736 62.9206 113.039 64.6079 112.859 64.6079C113.236 64.6079 113.075 65.1644 114.493 47.3759C114.499 47.3368 114.496 47.2968 114.484 47.2592C114.471 47.2215 114.45 47.1873 114.422 47.1593C114.394 47.1313 114.36 47.1103 114.323 47.0981C114.285 47.0858 114.245 47.0826 114.206 47.0887L98.4456 47.9683C98.379 47.9683 98.3151 47.9948 98.2679 48.0419C98.2208 48.089 98.1943 48.1529 98.1943 48.2196L97.8353 52.8148C95.6896 52.5745 93.5325 52.4487 91.3733 52.4378C91.2686 52.4331 91.1663 52.4701 91.0888 52.5408C91.0114 52.6115 90.9653 52.7101 90.9605 52.8148C90.9557 52.9195 90.9928 53.0219 91.0635 53.0993C91.1342 53.1767 91.2327 53.2229 91.3374 53.2276ZM98.8944 59.4024C98.8944 59.5819 99.2175 59.6537 99.379 59.6178C102.915 58.8563 106.548 58.6444 110.149 58.9896C110.201 58.9955 110.253 58.9911 110.304 58.9767C110.354 58.9623 110.401 58.9382 110.441 58.9057C110.482 58.8732 110.516 58.8329 110.542 58.7873C110.567 58.7416 110.583 58.6914 110.589 58.6396C110.595 58.5877 110.59 58.5352 110.576 58.485C110.562 58.4349 110.537 58.388 110.505 58.3472C110.472 58.3063 110.432 58.2723 110.386 58.247C110.341 58.2217 110.291 58.2057 110.239 58.1998C108.94 58.0553 107.633 57.9893 106.326 58.0023V56.8715C106.747 57.0448 107.198 57.1361 107.654 57.1407C108.254 57.1861 108.848 56.996 109.311 56.6106C109.773 56.2253 110.067 55.675 110.131 55.0765C112.357 53.6405 110.975 49.5838 107.995 50.9659C105.859 48.2016 102.61 49.9069 103.454 52.007C102.971 51.9998 102.5 52.1638 102.127 52.47C101.753 52.7762 101.499 53.2047 101.411 53.6799C101.323 54.155 101.406 54.6459 101.645 55.0658C101.884 55.4857 102.264 55.8074 102.718 55.974C102.813 55.9865 102.91 55.9653 102.992 55.9138C103.073 55.8624 103.134 55.7841 103.164 55.6925C103.194 55.6008 103.191 55.5016 103.155 55.4121C103.119 55.3225 103.054 55.2483 102.969 55.2021C101.677 54.7713 102.143 52.6353 104.1 52.7968C104.176 52.805 104.253 52.7908 104.322 52.7558C104.39 52.7209 104.447 52.6668 104.485 52.6001C104.523 52.5335 104.541 52.4571 104.536 52.3805C104.532 52.3038 104.505 52.2302 104.459 52.1686C103.238 50.5351 105.877 49.4761 107.564 51.7198C107.622 51.7994 107.707 51.8545 107.804 51.8744C107.9 51.8943 108 51.8776 108.085 51.8275C110.329 50.5531 111.19 53.7123 109.503 54.5021C109.454 54.5268 109.411 54.5608 109.376 54.6021C109.341 54.6435 109.314 54.6914 109.298 54.7431C109.281 54.7948 109.275 54.8492 109.279 54.9034C109.283 54.9575 109.299 55.0102 109.323 55.0585C109.305 55.2291 109.249 55.3934 109.159 55.5394C109.069 55.6854 108.947 55.8094 108.803 55.9022C108.439 56.1546 108.007 56.2899 107.564 56.2899C107.122 56.2899 106.689 56.1546 106.326 55.9022V55.5073C106.306 55.4147 106.255 55.3317 106.182 55.2721C106.108 55.2126 106.016 55.1801 105.922 55.1801C105.827 55.1801 105.735 55.2126 105.662 55.2721C105.588 55.3317 105.538 55.4147 105.518 55.5073V57.9126H104.423L104.692 55.256C104.692 55.1513 104.651 55.0508 104.577 54.9768C104.503 54.9027 104.402 54.8611 104.297 54.8611C104.193 54.8611 104.092 54.9027 104.018 54.9768C103.944 55.0508 103.902 55.1513 103.902 55.256L103.615 58.0023C102.08 58.1005 100.562 58.3776 99.0918 58.828C98.996 58.8494 98.9122 58.9074 98.8585 58.9896L99.2713 53.82C99.7201 53.82 99.8996 53.9277 100.079 53.82C100.184 53.8057 100.279 53.7504 100.343 53.6663C100.407 53.5821 100.434 53.476 100.42 53.3712C100.406 53.2665 100.351 53.1717 100.266 53.1078C100.182 53.0438 100.076 53.0159 99.9714 53.0302H99.4149L99.7021 49.4402L112.806 48.7042L111.675 62.0052L98.8405 60.2102L98.8944 59.4024ZM159.691 105.426C157.416 99.6329 154.328 94.1932 150.519 89.2712C150.455 89.1954 150.366 89.146 150.268 89.1328C150.17 89.1196 150.071 89.1435 149.99 89.1998C149.909 89.2561 149.852 89.3407 149.83 89.437C149.808 89.5333 149.823 89.6343 149.872 89.72C153.259 94.8949 156.294 100.292 158.955 105.875C159.015 105.973 159.11 106.043 159.222 106.069C159.333 106.096 159.45 106.078 159.547 106.019C159.645 105.959 159.715 105.863 159.742 105.752C159.769 105.641 159.751 105.524 159.691 105.426ZM123.971 64.4284C121.398 62.9193 118.695 61.6457 115.893 60.623C115.795 60.5798 115.684 60.5762 115.584 60.613C115.483 60.6498 115.401 60.7242 115.355 60.8205C115.316 60.9188 115.314 61.0281 115.351 61.1274C115.387 61.2267 115.459 61.3091 115.552 61.359C117.132 62.077 123.576 65.1823 123.755 65.1823C123.842 65.1788 123.925 65.148 123.994 65.0943C124.062 65.0406 124.111 64.9668 124.135 64.8832C124.159 64.7997 124.156 64.7108 124.127 64.6292C124.097 64.5475 124.042 64.4773 123.971 64.4284Z" fill="#5669FF"/>
</svg>
