<svg width="361" height="361" viewBox="0 0 361 361" fill="none" xmlns="http://www.w3.org/2000/svg">
<path fill-rule="evenodd" clip-rule="evenodd" d="M312.012 143.461C312.301 144.057 313.402 144.238 314.124 144.364C320.008 145.411 345.513 145.952 347.968 143.841C350.116 142.036 348.924 112.542 346.831 111.351C344.123 109.744 314.593 109.437 312.536 111.08C311.037 112.325 310.099 139.292 312.012 143.461ZM312.987 111.459C314.629 110.087 343.473 111.116 346.072 112.379C347.462 116.098 348.365 139.454 347.011 142.776C344.809 144.292 317.824 144.238 313.113 142.776C311.272 138.353 311.958 112.325 312.987 111.459ZM240.227 108.3C239.512 109.525 238.545 110.584 237.391 111.408C236.237 112.233 234.921 112.804 233.531 113.083C233.488 113.072 233.443 113.071 233.4 113.08C233.357 113.089 233.317 113.108 233.282 113.135C233.247 113.162 233.219 113.197 233.2 113.236C233.18 113.276 233.17 113.319 233.17 113.363C233.17 113.407 233.18 113.451 233.2 113.49C233.219 113.53 233.247 113.564 233.282 113.591C233.317 113.618 233.357 113.637 233.4 113.646C233.443 113.655 233.488 113.654 233.531 113.643C236.708 114.473 240.841 111.585 240.841 108.408C240.855 108.327 240.837 108.243 240.789 108.176C240.742 108.108 240.67 108.062 240.588 108.047C240.507 108.033 240.423 108.052 240.355 108.099C240.288 108.146 240.242 108.219 240.227 108.3ZM225.48 92.1453V93.9503C225.48 94.1897 225.576 94.4192 225.745 94.5885C225.914 94.7577 226.144 94.8528 226.383 94.8528C226.621 94.8482 226.848 94.7516 227.016 94.5834C227.184 94.4151 227.281 94.1882 227.285 93.9503V92.1453C227.285 91.906 227.19 91.6764 227.021 91.5072C226.852 91.3379 226.622 91.2428 226.383 91.2428C226.144 91.2428 225.914 91.3379 225.745 91.5072C225.576 91.6764 225.48 91.906 225.48 92.1453ZM243.476 93.8601C243.476 94.0994 243.571 94.329 243.741 94.4982C243.91 94.6675 244.139 94.7626 244.379 94.7626C244.618 94.7626 244.848 94.6675 245.017 94.4982C245.186 94.329 245.281 94.0994 245.281 93.8601V91.6219C245.281 91.3825 245.186 91.153 245.017 90.9837C244.848 90.8145 244.618 90.7194 244.379 90.7194C244.139 90.7194 243.91 90.8145 243.741 90.9837C243.571 91.153 243.476 91.3825 243.476 91.6219C243.404 92.398 243.476 93.3005 243.476 93.8601Z" fill="#5669FF"/>
<path fill-rule="evenodd" clip-rule="evenodd" d="M348.13 224.434C348.012 224.232 347.844 224.065 347.643 223.946C346.091 223.188 337.643 223.567 335.892 223.64C336.199 176.294 311.254 146.765 275.046 138.299C268.403 136.747 268.385 136.639 268.205 136.747L266.977 133.371C270.443 133.263 273.277 130.592 276.454 131.133C278.854 131.53 280.064 133.66 282.428 134.563C286.435 136.079 293.565 133.75 295.749 129.942C296.868 127.956 295.876 125.899 296.579 124.527C297.843 123.426 301.435 121.657 302.464 120.375C304.576 117.74 304.666 111.838 303.709 108.643C301.982 105.028 299.63 101.746 296.76 98.9501C293.638 95.9421 290.871 92.5871 288.511 88.9504C285.605 83.1563 285.497 75.1421 283.096 69.0954C280.45 63.6357 276.354 59.0087 271.255 55.7204C266.275 52.2029 260.272 50.4322 254.18 50.6844C248.494 51.0454 246.274 53.4641 243.621 54.2944C240.967 55.1247 240.408 54.2944 236.094 56.1897C234.381 57.2333 232.856 58.5573 231.581 60.1065C231.04 60.6841 231.076 60.7202 230.155 60.7563C229.164 60.6817 228.169 60.6817 227.177 60.7563C225.487 61.1314 223.871 61.784 222.394 62.6877C212.34 68.7164 215.048 80.846 211.257 89.7626C208.676 95.8274 201.492 101.658 200.878 107.993C200.661 110.906 201.288 113.82 202.683 116.386C207.07 124.094 213.369 118.047 216.636 122.758C217.665 124.238 218.441 125.682 220.354 125.971C222.791 126.296 226.112 124.365 228.098 122.939C228.515 123.425 228.987 123.861 229.506 124.238C231.265 125.424 233.155 126.405 235.137 127.162L230.553 133.57C221.961 132.595 208.766 135.375 200.265 137.992C199.958 135.826 197.286 117.939 195.265 117.072C192.467 115.845 163.1 119.256 161.313 121.188C159.995 122.596 162.36 149.4 164.923 153.407C165.302 154.021 166.601 154.039 167.323 154.057C163.1 156.945 159.02 159.869 157.558 160.934C156.421 156.999 150.447 136.187 148.245 132.776C147.613 131.783 147.035 131.801 144.129 132.776C142.473 124.511 140.376 116.341 137.848 108.3C138.796 106.742 139.553 105.075 140.104 103.336C140.777 100.582 140.875 97.7188 140.393 94.925C142.595 95.665 155.753 99.275 157.883 98.2281C158.455 97.8199 158.88 97.2373 159.093 96.5675C161.421 91.4774 165.41 74.0953 165.717 68.59C165.843 67.8851 165.722 67.1581 165.374 66.5323C163.262 64.3302 134.851 56.1536 132.451 57.2366C130.989 57.9044 127.036 70.8823 126.621 72.4166C123.173 83.9866 124.924 81.4416 123.011 82.1095C120.809 82.8856 118.913 87.5245 118.137 89.6724C117.361 91.8204 116.549 94.7084 117.469 96.4051C117.096 97.0951 116.945 97.8842 117.039 98.6634C117.133 99.4426 117.466 100.173 117.993 100.755C117.419 101.395 117.045 102.189 116.916 103.039C116.788 103.889 116.911 104.758 117.271 105.538C117.794 107.181 121.061 108.264 122.686 108.733C121.403 112.19 120.336 115.722 119.491 119.31C118.051 124.879 116.9 130.518 116.043 136.205C115.509 138.969 115.334 141.79 115.52 144.599L112.56 145.934C112.446 145.986 112.35 146.07 112.282 146.176C112.215 146.282 112.18 146.405 112.181 146.53C112.181 146.53 112.74 168.407 119.942 186.583C128.642 208.586 142.956 215.95 164.742 207.719C164.939 209.447 165.364 211.14 166.006 212.755C166.331 213.333 167.432 213.441 168.172 213.513C174.58 213.723 180.994 213.524 187.377 212.918L192.792 247.213C191.33 251.437 174.742 299.558 174.977 304.034C174.977 304.504 175.157 304.865 175.933 305.226C180.717 307.446 226.04 313.366 227.755 308.42C228.188 307.211 229.235 299.504 229.433 298.042L254.938 295.226L279.251 296.832C279.513 299.267 279.948 301.679 280.551 304.052C280.768 304.594 281.02 304.883 281.652 304.828C284.053 304.594 296.85 302.283 300.388 301.616C313.962 299.052 313.655 298.836 313.258 297.5C312.301 294.341 303.42 269.703 299.955 258.205C305.025 258.746 310.137 258.746 315.207 258.205C315.262 258.401 315.365 258.579 315.507 258.724C315.649 258.869 315.825 258.976 316.019 259.036C319.322 260.245 348.834 258.566 351.253 256.148C353.437 254.216 349.773 227.177 348.13 224.434ZM132.487 58.0127C132.685 57.7059 132.613 57.5795 134.202 57.8141C140.826 58.7527 162.486 65.7381 164.363 67.3807C164.724 71.5141 159.363 94.2029 157.252 96.9465C155.717 97.47 145.537 94.8708 143.967 94.4557C132.018 91.333 132.487 90.8456 129.761 90.2139C128.353 89.7266 128.209 89.7085 128.245 89.51C128.25 89.4653 128.271 89.4239 128.304 89.3938C128.337 89.3638 128.381 89.3473 128.426 89.3475C130.05 89.3475 134.4 89.2211 135.465 87.9577C135.7 87.7007 135.876 87.395 135.979 87.0624C136.082 86.7298 136.111 86.3786 136.062 86.0337C136.014 85.6888 135.89 85.3588 135.7 85.0674C135.509 84.7759 135.256 84.5302 134.96 84.3477C132.64 83.4183 130.215 82.7757 127.74 82.4343C127 82.2899 126.097 82.0373 125.195 81.929C126.44 76.2974 130.556 61.009 132.487 58.0127ZM116.982 144.003V141.205C117.144 137.776 118.787 128.769 119.274 126.296C120.069 122.289 120.249 121.386 122.559 112.686C122.559 112.451 123.949 108.571 123.949 108.571C123.974 108.503 123.984 108.431 123.979 108.36C123.974 108.288 123.954 108.218 123.92 108.155C123.886 108.092 123.838 108.037 123.781 107.993C123.724 107.95 123.658 107.919 123.588 107.903C123.39 107.903 118.697 106.748 118.173 105.25C117.65 103.751 117.542 101.946 118.859 101.152C118.908 101.117 118.947 101.071 118.974 101.018C119.002 100.964 119.016 100.905 119.016 100.845C119.016 100.785 119.002 100.726 118.974 100.673C118.947 100.62 118.908 100.574 118.859 100.539C118.282 100.065 117.894 99.4004 117.765 98.6653C117.636 97.9303 117.774 97.1732 118.155 96.5314C118.57 95.6831 116.35 96.0982 118.986 90.0154C119.653 88.5172 121.91 83.9145 123.444 83.409C124.802 83.2765 126.174 83.4302 127.469 83.8603C129.731 84.2166 131.955 84.7847 134.111 85.557C134.249 85.6307 134.367 85.735 134.457 85.8619C134.547 85.9888 134.607 86.1349 134.631 86.2886C134.656 86.4423 134.644 86.5997 134.598 86.7483C134.552 86.8969 134.472 87.0328 134.364 87.1454C133.571 87.5948 132.702 87.8946 131.801 88.0299C126.115 89.149 127.126 87.9035 126.386 89.8349C124.214 89.7074 122.043 90.0972 120.05 90.972C119.274 91.1345 119.599 91.6399 120.159 91.5496C122.577 90.7571 125.164 90.6262 127.65 91.1705C129.092 91.4341 130.502 91.8517 131.855 92.416C133.082 92.9146 134.172 93.7007 135.032 94.7084C135.186 95.0902 135.243 95.504 135.199 95.9132C135.155 96.3224 135.011 96.7145 134.779 97.0549C134.346 97.7227 132.252 97.2715 131.458 97.0549C130.375 96.73 129.238 96.4592 128.173 96.1163C126.675 95.647 126.837 95.5206 126.368 95.5567C124.712 95.7912 123.093 96.234 121.549 96.8743C121.505 96.8793 121.463 96.8943 121.426 96.9179C121.389 96.9416 121.358 96.9735 121.335 97.011C121.312 97.0486 121.298 97.0909 121.294 97.1347C121.29 97.1784 121.296 97.2226 121.311 97.2637C121.327 97.3048 121.352 97.3418 121.384 97.3719C121.416 97.402 121.454 97.4244 121.497 97.4373C121.539 97.4502 121.583 97.4534 121.626 97.4466C121.67 97.4397 121.711 97.423 121.747 97.3978C123.13 97.008 124.543 96.7363 125.971 96.5855C126.783 96.5855 126.26 96.5855 128.299 97.3978C129.22 97.7407 130.104 98.0115 131.079 98.3364C131.706 98.5513 132.353 98.7024 133.01 98.7877C134.166 99.8707 134.996 102.398 133.444 102.849C132.834 102.954 132.206 102.879 131.639 102.632C127.505 101.279 130.303 100.304 121.332 102.145C121.259 102.154 121.192 102.191 121.144 102.248C121.097 102.305 121.074 102.378 121.079 102.452C121.079 102.921 121.386 102.632 126.35 102.452C126.95 102.391 127.555 102.391 128.155 102.452C129.707 103.246 132.018 104.6 133.805 104.076C135.989 103.372 135.916 100.954 134.509 99.1848C134.003 98.5711 133.949 98.7515 134.382 98.6793C134.699 98.645 135.005 98.5455 135.282 98.387C135.558 98.2286 135.799 98.0147 135.989 97.7588C136.416 97.1691 136.655 96.464 136.674 95.7359C136.694 95.0079 136.492 94.291 136.097 93.6795L139.129 94.582C139.73 97.3777 139.68 100.274 138.985 103.047C138.791 103.725 138.538 104.383 138.227 105.015C136.909 107.795 136.422 107.885 136.584 108.408C139.092 116.564 141.159 124.849 142.775 133.227C135.971 135.61 123.498 141.097 116.982 144.003ZM259.812 269.432C267.537 269.757 284.143 270.353 291.76 270.118C291.237 272.393 290.912 273.837 290.822 274.161C287.193 274.161 263.747 270.1 259.812 269.432ZM294.684 268.512C289.847 269.649 227.051 267.194 221.672 264.902C222.232 260.859 227.502 238.134 228.567 233.495C233.305 234.945 238.233 235.675 243.188 235.661C244.993 236.599 247.971 238.224 249.758 239.072C249.559 240.606 249.072 244.235 250.155 245.318C251.238 246.401 276.165 255.552 298.023 258.115C297.142 261.651 296.026 265.124 294.684 268.512ZM227.989 225.065C227.158 224.813 226.39 224.389 225.733 223.82C225.264 223.315 225.426 221.78 225.733 221.058C225.901 220.707 226.199 220.436 226.564 220.3C227.004 220.109 227.474 219.993 227.953 219.957C228.097 219.954 228.236 219.907 228.352 219.822C228.467 219.738 228.555 219.62 228.602 219.485C228.649 219.349 228.654 219.203 228.615 219.065C228.577 218.927 228.497 218.803 228.387 218.712C227.331 217.822 226.595 216.611 226.293 215.264C226.293 214.272 226.672 213.243 228.26 212.34C230.065 212.485 235.48 216.961 237.989 214.38C240.498 211.799 237.538 205.752 240.336 205.247C243.133 204.741 244.541 213.152 245.029 214.073C246.653 217.232 251.021 219.488 253.512 222.087C252.008 227.468 250.803 232.927 249.902 238.441C246.292 236.509 243.621 234.831 243.35 234.831C239.578 234.704 229.452 233.657 226.816 230.968C226.348 230.606 226.027 230.085 225.914 229.504C225.801 228.923 225.904 228.32 226.203 227.809C226.394 227.47 226.654 227.173 226.964 226.937C227.274 226.702 227.629 226.531 228.008 226.437C228.162 226.399 228.299 226.31 228.397 226.184C228.494 226.059 228.546 225.903 228.544 225.744C228.542 225.585 228.486 225.431 228.385 225.308C228.285 225.185 228.145 225.099 227.989 225.065ZM248.097 164.959C244.744 164.638 241.375 164.506 238.007 164.562C237.574 164.562 237.213 164.778 237.087 165.194C236.78 166.349 231.672 203.893 231.419 205.734C230.336 187.684 229.217 168.677 228.387 154.743C234.668 164.76 235.209 165.753 236.202 165.049C239.549 162.297 242.715 159.33 245.678 156.169C246.22 158.172 247.086 161.439 248.097 164.959ZM264.613 158.623C263.386 156.818 262.176 155.013 261.725 154.346L267.555 139.671L264.613 158.623ZM268.819 137.902C275.646 139.31 282.302 141.446 288.674 144.274C288.403 145.122 284.919 155.771 280.75 168.479C278.836 168.244 267.88 166.908 264.505 166.547L268.819 137.902ZM261.436 156.349L264.288 160.645L263.386 166.421L260.588 166.06C261.003 162.143 261.292 158.425 261.436 156.349ZM311.272 175.392C311.25 177.742 311.02 180.085 310.586 182.395C304.395 180.807 250.39 167.522 244.902 170.645C242.159 172.233 233.134 209.272 232.267 212.611L231.618 212.286C234.469 192.232 238.26 165.934 238.26 165.861C244.415 165.157 303.709 171.872 311.272 175.392ZM279.775 213.134C275.732 212.864 259.685 212.069 256.31 214.308C255.786 214.669 255.57 214.741 253.711 221.419C251.31 218.874 247.285 216.474 245.931 213.64C245.317 212.394 244.325 203.297 240.119 204.001C234.451 204.958 241.689 216.636 233.314 213.026C233.856 210.734 242.736 172.504 245.209 171.096C250.444 168.118 307.536 182.648 314.756 184.688C314.341 189.092 309.034 212.593 308.059 216.889C298.712 215.093 289.268 213.839 279.775 213.134ZM251.978 86.8747C252.989 87.5606 252.953 89.2031 252.772 90.3944C251.509 98.4628 243.422 103.354 237.809 95.6289C236.527 93.8239 235.534 88.084 236.401 86.8205C236.978 86.0804 241.635 86.0443 242.574 86.0443C244.307 86.0624 251.075 86.3332 251.906 86.8747H251.978ZM230.48 88.1742C230.48 91.5676 229.343 97.1993 226.329 98.8238C221.473 101.351 216.546 97.3437 216.419 92.1272C216.234 90.2228 216.326 88.3017 216.69 86.4234L216.871 86.3332C216.582 85.8278 229.271 85.6653 230.408 86.8025C230.447 87.2589 230.447 87.7178 230.408 88.1742H230.48ZM236.762 127.469C239.884 128.372 244.92 127.938 247.339 125.466C247.39 125.412 247.418 125.341 247.418 125.267C247.418 125.193 247.39 125.122 247.339 125.068C246.924 124.563 247.339 125.538 242.646 126.242C237.953 126.946 235.119 126.242 230.372 123.155C228.19 121.151 226.556 118.622 225.625 115.809C223.681 111.048 222.464 106.022 222.015 100.9C223.714 101.178 225.457 100.892 226.979 100.087C228.456 99.2235 229.6 97.8886 230.228 96.2967C229.619 98.2042 229.118 100.145 228.73 102.109C228.645 102.36 228.632 102.63 228.693 102.889C228.754 103.147 228.885 103.383 229.072 103.571C230.321 104.334 231.79 104.652 233.242 104.473C233.285 104.484 233.329 104.485 233.372 104.476C233.415 104.467 233.456 104.449 233.491 104.422C233.526 104.395 233.554 104.36 233.573 104.321C233.592 104.281 233.602 104.238 233.602 104.194C233.602 104.15 233.592 104.106 233.573 104.067C233.554 104.027 233.526 103.992 233.491 103.965C233.456 103.938 233.415 103.92 233.372 103.911C233.329 103.902 233.285 103.903 233.242 103.914C232.171 103.795 231.138 103.45 230.21 102.903C229.794 102.614 229.975 102.795 230.101 102.199C230.228 101.603 232.574 92.9936 232.701 92.4521C233.26 92.4521 235.39 92.1633 235.39 91.6399C235.39 91.1164 233.693 90.972 233.062 91.0081C233.062 90.7734 233.17 90.5749 233.224 90.3944C233.253 90.3226 233.252 90.2423 233.221 90.1712C233.191 90.1001 233.133 90.0441 233.062 90.0154C232.99 89.9866 232.909 89.9876 232.838 90.0181C232.767 90.0485 232.711 90.106 232.682 90.1778C232.051 91.4052 232.484 90.9539 231.636 91.1705C231.961 89.5016 231.961 87.7855 231.636 86.1166C230.607 84.5282 224.416 84.8891 222.394 85.0155C223.423 78.9688 227.43 75.9905 229.885 71.1531C230.573 70.0303 231.489 69.0648 232.574 68.3192C233.116 68.1748 234.181 69.5286 234.83 69.8535C235.48 70.1784 236.094 71.9653 236.635 72.5791C238.338 74.5177 240.3 76.2123 242.466 77.615C244.271 78.8966 247.086 79.0951 248.314 80.7377C248.832 82.1344 249.083 83.6162 249.054 85.1058C246.725 84.9614 237.014 84.817 235.859 86.4776C234.812 87.8133 235.264 93.9142 236.798 96.2607C240.661 102.109 246.599 102.47 251.238 97.1992C251.737 96.5771 252.161 95.8986 252.501 95.1777C255.967 100.593 258.693 103.824 258.819 110.177C258.963 118.228 256.689 131.566 265.407 133.245L266.905 137.379C259.685 155.537 260.064 154.4 260.064 154.58C260.064 154.761 259.721 159.995 259.09 165.988C255.624 165.627 252.393 165.32 249.523 165.085C249.307 164.345 246.617 154.779 246.671 154.58C246.942 153.678 245.588 151.909 244.541 150.338C240.615 144.654 236.329 139.228 231.708 134.093L236.762 127.469ZM230.408 134.581C230.715 135.05 243.711 149.346 245.299 154.598C242.379 157.835 239.224 160.852 235.859 163.623C234.65 162.035 231.383 156.8 228.278 151.909C227.719 142.469 227.34 135.898 227.249 134.527C228.26 134.454 229.397 134.509 230.336 134.581H230.408ZM165.952 152.631C163.894 149.021 161.042 125.556 161.71 121.946C161.71 121.621 161.71 121.513 163.226 121.097C169.688 119.419 192.359 117.487 194.741 118.3C196.546 121.819 200.499 144.797 199.561 148.335C197.72 149.815 171.258 153.551 165.879 152.631H165.952ZM167.215 212.015C165.139 207.936 163.605 181.782 164.634 180.789C166.168 179.309 194.976 178.045 197.702 179.11C199.507 182.901 202.07 206.185 201.005 209.344C198.55 211.185 171.475 212.99 167.143 212.015H167.215ZM208.423 181.764C209.723 181.421 218.784 179.11 219.867 178.46C220.643 178.009 221.528 179.471 206.348 137.812C208.153 136.151 223.928 134.021 226.419 134.797C226.419 135.79 228.784 177.919 230.643 211.727C229.758 211.293 228.477 210.625 227.665 211.077C224.271 212.882 224.055 215.878 226.564 218.802C226.095 218.917 225.66 219.14 225.293 219.454C224.926 219.767 224.638 220.162 224.452 220.607C224.162 221.285 224.039 222.021 224.093 222.756C224.146 223.491 224.374 224.202 224.759 224.831C225.179 225.234 225.661 225.569 226.184 225.824C225.645 226.185 225.22 226.692 224.957 227.286C224.72 227.797 224.58 228.348 224.542 228.91L208.423 181.764ZM253.35 294.089L229.776 296.706C229.885 295.84 232.538 274.92 233.386 267.826C238.296 268.259 244.216 268.638 250.552 268.981C251.599 281.995 253.44 290.984 253.278 294.089H253.35ZM254.595 293.944C254.848 289.829 251.454 269.198 251.436 269.017L253.241 269.107C259.378 270.245 275.19 273.042 276.905 273.331C277.483 279.143 278.927 292.681 279.27 295.46C252.357 293.728 255.263 293.872 254.505 293.944H254.595ZM350.368 255.317C348.563 256.761 322.048 259.18 316.579 257.989C314.467 253.891 312.969 227.755 313.998 226.762C315.55 225.264 344.358 224.037 347.047 225.083C348.744 228.856 351.361 252.231 350.296 255.317H350.368Z" fill="#5669FF"/>
<path fill-rule="evenodd" clip-rule="evenodd" d="M167.251 242.051C167.107 241.401 166.908 240.462 166.385 240.246C164.58 239.163 152.685 238.946 150.573 238.91C150.104 230.3 149.273 220.354 147.92 217.683C147.035 215.878 88.6975 215.698 86.6939 215.68C86.8383 205.969 86.8564 191.168 86.6939 181.385C89.239 181.385 101.946 181.385 103.697 179.941C105.935 178.136 104.437 154.039 103.426 149.256C103.282 148.606 103.065 147.667 102.56 147.451C99.9246 145.88 70.3587 145.501 68.2649 147.18C67.1638 148.1 66.7487 159.382 66.6945 160.808C62.5611 160.808 37.0023 160.284 27.869 160.501V145.754C30.2335 145.754 44.114 146.133 45.919 144.617C48.103 142.812 47.381 113.318 45.3053 112.127C43.2295 110.935 30.2696 110.556 28.0314 110.502C28.0314 107.939 27.8329 101.477 27.8148 101.315C36.172 101.008 58.193 101.712 67.2721 101.712C67.2721 104.546 67.1097 114.636 68.301 117.217C68.5898 117.83 69.6908 118.011 70.4128 118.137C76.1527 119.148 101.748 119.744 104.257 117.614C106.766 115.484 105.015 88.4992 103.553 85.5932C103.456 85.3843 103.307 85.204 103.119 85.0697C100.394 83.4633 70.8641 83.2647 68.8244 84.799C67.6512 85.7917 67.2541 98.7155 67.218 100.268C57.9944 100.268 36.2983 99.5639 27.7065 99.8708C27.7065 96.3871 27.526 92.8673 27.526 89.4017C30.0891 89.4017 45.576 89.1671 47.5074 87.4704C49.4387 85.7737 47.5074 58.4279 45.9551 55.4677C45.8585 55.258 45.7014 55.0819 45.5038 54.9623C42.7602 53.4281 13.2304 53.8974 11.2088 55.5941C9.67456 56.9298 9.40381 83.9145 11.4615 88.0841C11.6033 88.3169 11.8195 88.495 12.0752 88.5895C14.1329 89.4559 23.7355 89.4739 25.9918 89.4739C25.9918 97.5423 26.3528 104.094 26.425 110.538C24.62 110.538 12.3099 110.268 10.9381 111.369C9.56626 112.47 7.90566 139.436 9.81896 143.859C10.0897 144.454 11.1908 144.671 11.9128 144.797C16.6964 145.488 21.5199 145.868 26.3528 145.934V172.576C24.638 172.576 12.8875 172.36 11.5698 173.424C10.2522 174.489 8.51936 201.492 10.4327 205.915C10.7034 206.528 11.8045 206.727 12.5265 206.871C18.3747 207.99 43.8613 208.965 46.3702 206.871C48.8792 204.777 47.5796 177.72 46.2078 174.85C46.1101 174.637 45.9613 174.451 45.7746 174.309C43.8071 173.118 30.1252 172.721 27.7246 172.666V162.233C37.0745 161.999 61.5864 162.522 66.5321 162.54C66.5321 165.591 66.2433 177.089 67.5429 179.886C67.6608 180.129 67.8677 180.316 68.1205 180.41C70.4489 181.475 82.5605 181.691 85.0333 181.709C85.268 191.529 85.2499 206.366 85.0333 216.004C60.7741 215.878 35.6124 216.131 30.5404 217.16C29.9989 217.268 29.1144 217.448 29.0783 218.207C29.0783 218.207 28.1036 233.802 27.6524 239.163C26.0459 239.163 15.4867 239.163 14.2593 240.246C13.0319 241.329 11.6781 268.368 13.6636 272.736C13.9344 273.331 15.0354 273.53 15.7574 273.656C21.5154 274.667 47.0922 275.263 49.6012 273.133C52.1101 271.003 50.3412 243.964 48.8972 241.112C48.9696 240.94 48.9928 240.75 48.9641 240.566C48.9355 240.381 48.856 240.207 48.7348 240.065C46.659 238.82 31.84 238.711 29.3852 238.693C29.8184 233.278 30.757 218.207 30.757 218.207C36.9301 216.402 139.617 216.618 146.8 218.441C147.901 221.076 148.605 230.12 149.183 238.766C147.378 238.766 133.66 238.657 132.234 239.849C130.808 241.04 129.725 268.133 131.638 272.339C131.765 272.581 131.977 272.768 132.234 272.862C135.429 274.306 164.977 274.956 167.576 272.736C168.023 272.195 168.282 271.523 168.316 270.822C169.164 265.335 168.424 247.466 167.251 242.051ZM69.2035 85.0156C70.8099 83.6799 99.6177 84.6365 102.289 85.9361C102.959 88.785 103.346 91.6932 103.444 94.6182C91.8743 93.4449 76.243 94.3474 68.2649 94.6182C68.301 93.5352 68.5898 85.4488 69.2035 84.9614V85.0156ZM68.2468 95.611C81.3872 96.0261 96.9824 95.3402 103.498 95.4124C103.697 98.6073 104.401 113.571 103.228 116.332C101.892 117.253 91.3689 117.415 89.7624 117.433C85.8817 117.433 73.0842 117.433 69.3298 116.35C68.0302 113.192 68.1566 99.1668 68.2468 95.5568V95.611ZM11.6781 55.7385C13.2846 54.3306 42.1465 54.6013 44.7818 55.7385C45.3741 57.7504 45.7492 59.8199 45.9009 61.9116C34.241 61.5678 22.5724 62.1714 11.0103 63.7166C11.0283 63.0668 11.1547 56.2078 11.6781 55.7385ZM12.6348 87.0552C11.1727 83.7882 10.9742 68.5901 11.0103 64.3303C12.5265 64.1498 45.3053 62.5253 45.9731 62.5253C46.3702 66.1353 47.7781 82.976 46.5146 86.1347C44.0959 87.8856 16.9307 88.2285 12.6348 87.0552ZM11.3893 111.477C13.0319 110.159 41.8216 111.585 44.475 112.921C45.0653 115.614 45.3918 118.359 45.4497 121.116C45.6302 121.116 19.927 120.105 10.3424 120.412C10.3966 119.347 10.8298 111.91 11.3893 111.477ZM45.4136 205.337C43.4281 206.637 16.8043 206.474 11.5337 204.795C10.2341 201.564 10.6312 186.745 10.8117 182.973C10.9922 182.973 35.6666 184.886 45.9912 183.677C46.1717 186.98 46.659 202.521 45.4136 205.319V205.337ZM44.9804 174.905C45.568 177.605 45.9004 180.355 45.9731 183.117C46.1536 183.117 20.5046 182.107 10.8478 182.395C10.9283 179.494 11.236 176.603 11.7684 173.749C11.8947 173.388 11.7684 173.316 13.3929 173.136C19.8548 172.414 42.67 173.731 44.9804 174.887V174.905ZM11.0103 142.794C9.72871 139.563 10.1258 124.852 10.3063 120.989C10.5229 120.989 35.1251 122.903 45.4858 121.693C45.6663 125.014 46.1717 140.465 44.9082 143.353C42.4714 144.942 15.3603 144.183 11.0103 142.794ZM49.1319 250.462C49.3485 253.819 50.0344 268.747 48.8611 271.58C46.9478 272.916 20.2158 273.187 14.9632 271.58C13.6636 268.44 13.79 254.307 13.8802 250.534C25.5225 250.985 36.0998 250.462 49.1319 250.462ZM47.9225 241.184C48.5902 244.028 48.9831 246.929 49.0958 249.848C37.616 248.693 21.4432 249.614 13.8983 249.956C13.8983 248.819 14.2412 240.751 14.8369 240.264C16.4614 238.928 45.2511 239.885 47.9225 241.184ZM68.5898 147.414C70.2504 146.025 99.0582 147.071 101.675 148.335C102.362 151.298 102.761 154.32 102.867 157.36C95.033 156.945 75.539 155.699 67.6692 156.674C67.7595 155.645 68.0663 147.902 68.5898 147.414ZM68.7703 178.695C67.4526 175.536 67.597 161.096 67.7053 157.324C70.2504 157.071 88.6614 158.226 97.2171 158.154C99.4011 158.154 101.369 158.064 102.957 158.01C103.156 161.223 103.823 175.897 102.668 178.677C100.304 180.356 73.1564 180.085 68.7703 178.695ZM132.541 240.264C134.165 238.928 162.955 239.885 165.645 241.184C166.306 244.035 166.693 246.942 166.8 249.866C155.428 248.711 138.967 249.632 131.62 249.866C131.638 248.91 131.945 240.805 132.541 240.318V240.264ZM166.583 271.58C164.616 272.916 137.884 273.187 132.685 271.58C131.368 268.458 131.494 254.27 131.602 250.516C143.75 250.985 152.865 250.516 166.836 250.516C167.053 253.837 167.738 268.819 166.583 271.635V271.58Z" fill="#5669FF"/>
</svg>
