<svg width="325" height="343" viewBox="0 0 325 343" fill="none" xmlns="http://www.w3.org/2000/svg">
<path d="M306.503 103.936C306.736 104.205 305.39 103.936 324.973 107.401V106.27L307.418 102.769C283.921 75.9701 251.396 66.1873 215.496 67.2284C212.804 58.2534 200.149 16.2684 197.887 10.4526C195.374 3.99061 191.084 0.975006 184.389 0.975006C178.088 0.975006 85.6637 25.746 80.2787 27.2359C70.0651 29.9822 38.4911 37.8084 17.4537 43.2293C-2.57851 48.4169 -0.37066 61.1972 1.01149 68.826C8.72999 112.265 27.039 176.364 56.5129 244.287C53.7192 252.88 52.61 261.93 53.246 270.943C55.7231 304.653 81.7685 328.957 108.568 336.389L110.507 342.025H112.427C110.076 335.581 110.237 335.06 109.483 334.845C81.7865 326.893 57.9848 302.086 55.4359 270.763C53.6409 248.2 64.4109 224.722 79.7223 210.81C84.2995 206.682 94.0823 200.04 97.3312 205.21C83.1866 227.773 73.1885 253.514 70.837 271.535C72.0715 271.329 73.3392 271.471 74.4969 271.947C75.6546 272.423 76.6563 273.213 77.3887 274.228C77.7837 274.766 77.6221 275.825 76.7246 274.928C76.0517 274.304 75.2594 273.824 74.3955 273.515C73.5316 273.207 72.6142 273.077 71.6986 273.133C71.5299 273.152 71.3669 273.205 71.2189 273.288C71.0709 273.371 70.9411 273.483 70.837 273.618C70.2806 274.389 70.837 275.538 71.573 276.166C73.1017 277.319 74.9248 278.016 76.8323 278.177C77.1366 278.201 77.4421 278.152 77.7233 278.033C78.0045 277.914 78.253 277.73 78.4478 277.495C84.2816 270.28 89.5449 262.622 94.19 254.59C96.2278 261.599 99.3207 268.257 103.362 274.336L99.7365 280.995C99.7165 281.028 99.7031 281.065 99.6972 281.103C99.6914 281.141 99.6931 281.18 99.7022 281.217C99.7114 281.255 99.7279 281.29 99.7507 281.321C99.7735 281.352 99.8022 281.379 99.8352 281.399C99.8682 281.419 99.9049 281.432 99.943 281.438C99.9812 281.444 100.02 281.442 100.058 281.433C100.095 281.424 100.13 281.407 100.162 281.385C100.193 281.362 100.219 281.333 100.239 281.3L105.122 274.712C105.187 274.611 105.222 274.492 105.222 274.371C105.222 274.25 105.187 274.132 105.122 274.03C102.3 269.854 99.8953 265.411 97.9415 260.765C96.0537 256.174 94.652 251.397 93.7591 246.513C87.7818 211.116 127.074 231.722 136.552 281.408C141.111 305.102 134.362 319.103 134.362 320.252C134.37 320.339 134.406 320.421 134.466 320.485C134.525 320.549 134.604 320.591 134.69 320.606C134.777 320.62 134.865 320.605 134.942 320.564C135.019 320.523 135.08 320.457 135.116 320.377C138.983 309.407 140.213 297.68 138.706 286.147C141.614 286.275 144.524 285.966 147.34 285.231C150.086 292.411 150.715 298.891 147.968 306.304C147.908 306.415 147.877 306.538 147.877 306.663C147.877 306.789 147.908 306.912 147.968 307.022L172.434 342.025H174.678L149.422 306.484C149.767 305.62 150.066 304.74 150.32 303.845C150.32 303.845 196.99 290.724 209.285 286.559C217.201 283.867 249.763 273.402 260.838 269.884C272.433 266.204 277.298 262.901 279.38 257.319C281.462 251.736 278.357 243.928 271.267 226.499C267.515 217.255 247.932 164.948 246.711 161.879C257.481 161.681 271.985 156.314 280.816 150.714L324.901 172.846V171.051L280.798 148.057C274.049 151.97 263.512 159.025 246.406 160.981C235.528 132.028 237.09 137.251 231.166 118.404C233.644 118.117 236.139 117.758 238.598 117.363L253.442 128.779C253.523 128.846 253.627 128.877 253.732 128.867C253.836 128.857 253.932 128.806 253.999 128.725C254.065 128.644 254.097 128.54 254.087 128.436C254.077 128.331 254.026 128.235 253.945 128.169L239.37 115.855C238.813 115.406 238.634 115.855 230.682 116.537C222.03 117.417 202.446 118.476 195.518 113.288C191.928 110.488 192.7 106.952 195.769 103.505C208.334 89.9711 244.755 85.0528 264.338 84.3707C264.386 84.3821 264.435 84.3826 264.483 84.3722C264.53 84.3617 264.575 84.3406 264.614 84.3104C264.652 84.2801 264.683 84.2416 264.704 84.1976C264.726 84.1537 264.737 84.1054 264.737 84.0566C264.737 84.0077 264.726 83.9595 264.704 83.9155C264.683 83.8716 264.652 83.833 264.614 83.8028C264.575 83.7725 264.53 83.7514 264.483 83.7409C264.435 83.7305 264.386 83.731 264.338 83.7424C250.101 83.7596 235.923 85.5688 222.138 89.1274C220.055 82.3064 217.919 75.288 215.837 68.3952C282.27 68.7901 302.356 101.28 306.503 103.936ZM18.8538 48.3809C40.9502 42.6728 164.805 10.2193 181.589 6.75491C183.847 6.10101 186.255 6.18274 188.463 6.98826C191.246 8.17296 192.43 10.8296 193.848 14.8145C155.758 23.1074 31.5265 55.8302 5.64259 64.1949C4.85279 57.8047 5.94774 51.7196 18.8538 48.3809ZM5.69644 64.5359C23.0182 59.1509 82.0558 43.6063 99.6827 38.9931C171.321 20.1097 193.866 15.1376 193.902 15.1196C194.925 18.1891 196.469 23.0715 198.336 29.1386C162.921 36.1391 40.3758 69.3645 8.53254 79.3985C7.61709 75.2341 6.18109 68.2336 5.69644 64.5718V64.5359ZM8.62229 79.7216C32.1188 72.5416 165.344 36.2288 198.444 29.4617C200.239 35.3672 202.411 42.3856 204.69 49.9067C177.316 55.7584 43.4273 90.9404 13.4688 100.167C11.4763 92.2148 9.82494 85.1784 8.62229 79.7575V79.7216ZM97.9415 204.313C93.9387 198.784 84.0303 205.21 78.8068 209.698C73.6597 214.264 69.182 219.533 65.5059 225.35C62.5082 224.273 59.9952 218.17 57.3027 211.493C53.4223 202.143 50.1603 192.549 47.5379 182.773C46.8199 179.631 46.7122 177.208 49.2252 175.108C52.2946 172.487 65.3802 168.287 69.2394 167.048C76.5989 164.679 84.8918 162.74 92.4129 161.071C95.3926 160.425 98.5697 160.497 100.347 162.399C102.985 165.164 107.778 179.201 110.489 187.099C107.509 190.689 104.619 194.44 101.855 198.425C95.4749 194.345 88.6745 190.962 81.5711 188.337C83.3661 185.178 90.941 171.59 93.3104 167.174C93.3652 167.079 93.3798 166.966 93.3512 166.86C93.3226 166.754 93.253 166.663 93.1578 166.609C93.0626 166.554 92.9496 166.539 92.8435 166.568C92.7375 166.596 92.6471 166.666 92.5924 166.761C87.6203 174.246 83.5276 180.888 79.7581 187.637C70.8729 184.352 63.6031 182.252 55.2564 179.99C55.1517 179.955 55.037 179.962 54.9377 180.011C54.8384 180.06 54.7626 180.146 54.7269 180.251C54.6912 180.355 54.6985 180.47 54.7473 180.569C54.7962 180.669 54.8824 180.744 54.9871 180.78C60.7132 183.042 70.855 186.363 78.7889 189.36C74.0806 197.804 70.1397 206.653 67.0136 215.801C66.9933 215.896 67.0071 215.995 67.0526 216.081C67.0981 216.166 67.1724 216.233 67.2624 216.27C67.3525 216.306 67.4525 216.31 67.5449 216.28C67.6373 216.25 67.7161 216.188 67.7675 216.106C74.3193 201.889 79.7941 191.64 80.6377 190.06C87.6865 192.689 94.5117 195.883 101.047 199.61C99.9699 201.082 98.9288 202.679 97.9415 204.313ZM106.917 229.03C107.706 227.145 108.478 225.26 109.214 223.375C114.132 223.573 123.861 224.363 126.518 228.527C129.174 232.692 123.628 236.982 118.62 238.615C115.426 234.643 111.44 231.378 106.917 229.03ZM119.912 240.195C126.679 241.451 142.529 244.359 143.696 251.162C144.629 256.296 136.911 259.222 131.346 259.832C128.407 252.827 124.582 246.228 119.966 240.195H119.912ZM138.401 285.177C137.492 278.232 135.806 271.41 133.375 264.84C139.837 267.156 154.789 273.815 152.617 280.151C151.217 284.298 143.229 285.249 138.455 285.177H138.401ZM274.336 255.416C273.151 258.611 270.19 261.304 259.168 264.804C203.416 282.503 206.665 282.539 151.145 298.065C151.281 293.497 150.184 288.977 147.968 284.98C149.189 284.691 150.33 284.133 151.308 283.348C152.286 282.562 153.077 281.568 153.622 280.439C156.207 273.007 140.016 266.078 132.747 263.26C132.011 261.322 131.867 261.053 131.741 260.747C137.898 259.868 145.599 256.601 144.629 251.018C144.499 250.264 144.232 249.54 143.84 248.882C143.84 248.882 256.153 215.657 260.82 214.472C269.292 236.443 276.167 250.606 274.39 255.416H274.336ZM194.997 102.841C190.312 108.101 192.718 111.421 192.7 111.655C193.258 112.592 193.996 113.409 194.872 114.06C196.118 115.051 197.503 115.856 198.982 116.447C171.537 124.83 51.7741 159.294 51.2715 159.456C44.6659 161.251 40.304 162.543 36.9115 152.922C44.0915 144.575 67.9829 116.77 72.8115 113.324C74.5124 112.053 76.5759 111.361 78.6991 111.35C86.1124 111.134 123.772 128.869 130.359 125.71C134.883 123.52 150.553 98.8922 150.715 98.6589C161.933 81.373 160.479 82.3603 186.022 86.5247C191.712 87.4581 199.485 88.7146 209.591 90.3121L210.362 93.0944C204.565 95.4099 198.731 98.6589 195.051 102.823L194.997 102.841ZM36.3909 151.755C33.3215 142.78 25.0286 116.232 25.5132 112.265C25.7296 110.844 26.3535 109.516 27.3093 108.442C28.2651 107.369 29.5118 106.595 30.8982 106.216C36.8397 104.546 192.017 62.1306 196.272 62.1306C199.664 62.1306 200.975 63.9256 202.267 67.2105C204.956 74.437 207.28 81.7937 209.232 89.2531C171.537 83.0424 168.611 81.8038 163.297 83.0424C158.828 84.0835 156.835 86.6324 149.476 97.8152C143.965 106.324 132.729 122.838 129.731 124.327C127.146 125.584 125.764 125.153 118.135 122.766C108.37 119.696 103.039 117.973 91.659 113.468C84.8021 110.739 78.1247 107.777 71.914 112.175C66.2598 116.286 40.8605 146.37 36.3909 151.755ZM217.004 90.5634C215.209 91.1378 213.288 91.802 211.368 92.5738C209.11 83.8688 206.377 75.2938 203.182 66.8874C201.728 63.2974 200.113 61.2331 196.2 61.1793C194.028 61.1793 100.526 85.34 30.5572 105.264C28.987 105.709 27.5772 106.595 26.4954 107.816C25.4136 109.038 24.7052 110.545 24.4542 112.157C23.8439 116.77 31.9214 142.672 35.637 152.706C39.9989 164.482 44.8095 162.148 53.2998 159.886C88.428 150.732 164.59 128.402 200.616 117.094C208.37 119.678 217.65 119.481 225.746 118.889C228.743 128.492 231.131 135.851 232.423 139.118C234.81 145.203 256.35 202.625 260.748 214.113C252.222 216.231 247.986 217.596 143.696 248.559C139.837 242.6 127.756 239.746 120.594 238.884C124.561 237.089 128.403 234.217 128.133 229.909C127.864 225.601 121.151 223.86 118.961 223.322C115.932 222.617 112.842 222.208 109.735 222.101C114.035 211.17 117.175 199.817 119.105 188.229C119.625 184.945 114.079 182.844 112.302 184.819L110.758 186.614C106.575 174.228 102.914 164.158 100.544 161.627C98.7492 159.599 95.0156 159.994 92.2872 160.407C82.8814 161.879 54.4127 169.723 48.8123 174.462C46.8737 176.382 45.7788 177.818 46.9096 182.755C49.4909 192.624 52.7475 202.304 56.6565 211.726C58.7925 216.949 61.7902 224.578 65.1648 225.799C62.8798 229.409 60.8755 233.19 59.1695 237.107C42.099 198.192 30.4495 168.897 13.5406 100.687C41.381 92.2328 182.737 55.2199 204.78 50.4272C206.324 55.3276 214.617 82.4321 217.004 90.5634Z" fill="#5669FF"/>
<path d="M120.235 178.141C118.907 177.657 116.251 181.732 115.586 182.862C115.568 182.891 115.557 182.923 115.554 182.957C115.551 182.99 115.555 183.024 115.568 183.056C115.58 183.087 115.599 183.115 115.624 183.138C115.649 183.16 115.679 183.177 115.712 183.185C116.727 183.416 117.677 183.87 118.494 184.514C118.514 184.537 118.539 184.555 118.567 184.568C118.595 184.58 118.625 184.587 118.656 184.587C118.686 184.587 118.717 184.58 118.744 184.568C118.772 184.555 118.797 184.537 118.817 184.514C119.374 183.329 121.564 178.68 120.235 178.141ZM23.2695 66.0797C19.811 66.7563 16.4599 67.8975 13.3072 69.4722C14.3516 67.8703 15.2929 66.2036 16.1254 64.4821C16.1406 64.4425 16.1412 64.3987 16.1271 64.3587C16.1131 64.3186 16.0853 64.2848 16.0487 64.2633C16.0122 64.2418 15.9691 64.2339 15.9273 64.2411C15.8855 64.2483 15.8475 64.2701 15.8202 64.3026C14.6398 66.073 13.5784 67.9199 12.6431 69.8312C12.3379 70.4774 17.6691 71.9493 18.3691 72.057C18.4068 72.057 18.4435 72.0451 18.4741 72.0231C18.5047 72.0011 18.5275 71.97 18.5394 71.9343C18.5513 71.8985 18.5517 71.8599 18.5405 71.824C18.5292 71.788 18.507 71.7565 18.4768 71.7339C16.8597 70.9387 15.1547 70.3363 13.397 69.9389C16.6329 68.574 19.9548 67.4228 23.3413 66.4925C23.6644 66.2951 23.5746 66.0258 23.2695 66.0797ZM42.0811 61.2332C40.0806 60.1647 37.9977 59.2584 35.8524 58.5227C35.8115 58.5125 35.7682 58.5171 35.7303 58.5356C35.6924 58.5541 35.6622 58.5854 35.645 58.624C35.6279 58.6626 35.6249 58.7059 35.6366 58.7465C35.6482 58.7871 35.6738 58.8222 35.7088 58.8458C37.4415 59.7906 39.2413 60.6066 41.0939 61.287C37.6655 61.6184 34.3069 62.4656 31.1316 63.8C31.0966 63.8236 31.071 63.8587 31.0593 63.8993C31.0476 63.9399 31.0506 63.9832 31.0678 64.0218C31.0849 64.0604 31.1151 64.0917 31.1531 64.1102C31.191 64.1287 31.2342 64.1333 31.2752 64.1231C33.6446 63.3692 37.073 62.7051 41.5246 61.7896C40.3689 63.1903 39.3416 64.6922 38.4552 66.2771C38.4437 66.3166 38.4448 66.3587 38.4583 66.3975C38.4719 66.4364 38.4973 66.47 38.5309 66.4937C38.5645 66.5175 38.6047 66.5301 38.6458 66.5299C38.687 66.5297 38.727 66.5166 38.7603 66.4925C40.0454 64.9714 41.1815 63.3304 42.1529 61.5922C42.1797 61.5671 42.1996 61.5356 42.2108 61.5007C42.222 61.4658 42.2241 61.4286 42.2169 61.3927C42.2097 61.3567 42.1935 61.3232 42.1697 61.2953C42.1459 61.2674 42.1154 61.246 42.0811 61.2332ZM58.1105 58.8638C58.0541 59.9162 57.6202 60.9131 56.8882 61.6714C56.1562 62.4298 55.1754 62.8987 54.1255 62.9922C53.117 63.0716 52.1109 62.8106 51.2681 62.251C50.4254 61.6913 49.7945 60.8652 49.4765 59.9049C49.2113 58.9157 49.3042 57.8647 49.7386 56.9374C50.173 56.01 50.9211 55.266 51.8508 54.8366C52.7804 54.4071 53.8319 54.32 54.8196 54.5905C55.8073 54.861 56.6677 55.4717 57.2489 56.3149C56.3803 56.273 55.5097 56.303 54.6461 56.4046C54.5985 56.4046 54.5528 56.4235 54.5192 56.4572C54.4855 56.4908 54.4666 56.5365 54.4666 56.5841C54.4666 56.6317 54.4855 56.6774 54.5192 56.711C54.5528 56.7447 54.5985 56.7636 54.6461 56.7636C55.6424 56.8707 56.6474 56.8707 57.6437 56.7636C57.6831 56.7545 57.7191 56.7346 57.7477 56.706C57.7763 56.6774 57.7962 56.6414 57.8053 56.6021C58.0292 55.5646 58.0838 54.4977 57.9668 53.4428C57.9668 53.3952 57.9479 53.3496 57.9143 53.3159C57.8806 53.2823 57.835 53.2634 57.7873 53.2634C57.7397 53.2634 57.6941 53.2823 57.6604 53.3159C57.6268 53.3496 57.6078 53.3952 57.6078 53.4428C57.4271 54.2736 57.3606 55.1251 57.4104 55.9738C54.1255 51.235 47.2866 55.1481 48.7944 60.2459C50.4278 65.972 59.1336 64.5 58.4874 58.9894C58.5041 58.9394 58.5002 58.8849 58.4766 58.8377C58.4531 58.7906 58.4117 58.7548 58.3618 58.7381C58.3118 58.7214 58.2572 58.7253 58.2101 58.7489C58.1629 58.7724 58.1271 58.8138 58.1105 58.8638ZM16.6459 53.03C16.1844 53.03 15.7333 53.1669 15.3495 53.4233C14.9658 53.6797 14.6667 54.0441 14.4901 54.4705C14.3135 54.8969 14.2672 55.3661 14.3573 55.8187C14.4473 56.2714 14.6696 56.6872 14.9959 57.0135C15.3223 57.3399 15.738 57.5621 16.1907 57.6522C16.6434 57.7422 17.1125 57.696 17.5389 57.5194C17.9653 57.3428 18.3298 57.0437 18.5862 56.6599C18.8426 56.2762 18.9794 55.825 18.9794 55.3635C18.9794 54.7446 18.7336 54.1511 18.296 53.7135C17.8584 53.2758 17.2648 53.03 16.6459 53.03ZM24.885 50.5529C24.4235 50.5529 23.9723 50.6898 23.5886 50.9462C23.2048 51.2026 22.9057 51.567 22.7291 51.9934C22.5525 52.4198 22.5063 52.889 22.5963 53.3416C22.6864 53.7943 22.9086 54.2101 23.235 54.5364C23.5613 54.8628 23.9771 55.085 24.4298 55.1751C24.8824 55.2651 25.3516 55.2189 25.778 55.0423C26.2044 54.8657 26.5688 54.5666 26.8252 54.1828C27.0816 53.7991 27.2185 53.3479 27.2185 52.8864C27.2185 52.2675 26.9726 51.674 26.535 51.2364C26.0974 50.7988 25.5039 50.5529 24.885 50.5529ZM33.142 48.1297C32.6805 48.1297 32.2293 48.2665 31.8456 48.5229C31.4618 48.7793 31.1627 49.1438 30.9861 49.5702C30.8095 49.9965 30.7633 50.4657 30.8533 50.9184C30.9434 51.371 31.1656 51.7868 31.492 52.1132C31.8183 52.4395 32.2341 52.6618 32.6868 52.7518C33.1394 52.8419 33.6086 52.7956 34.035 52.619C34.4614 52.4424 34.8258 52.1433 35.0822 51.7596C35.3386 51.3758 35.4755 50.9247 35.4755 50.4632C35.4755 49.8443 35.2296 49.2507 34.792 48.8131C34.3544 48.3755 33.7609 48.1297 33.142 48.1297ZM188.176 19.9482C186.776 19.9482 82.3968 46.4783 73.691 48.8118C68.306 50.2657 67.0675 50.3734 65.9905 52.1684C65.5983 52.8027 65.3836 53.5306 65.3689 54.2763C65.3541 55.0219 65.5399 55.7577 65.9067 56.407C66.2735 57.0563 66.808 57.5952 67.4542 57.9673C68.1005 58.3395 68.8348 58.5313 69.5805 58.5227C70.9915 58.3419 72.3769 57.9986 73.709 57.4996C96.6311 51.235 187.009 28.7796 188.122 28.5642C188.843 28.4789 189.537 28.2391 190.156 27.8612C190.776 27.4832 191.307 26.9761 191.712 26.3743C192.097 25.7382 192.307 25.0122 192.322 24.2692C192.337 23.5261 192.156 22.7922 191.798 22.1411C191.44 21.49 190.916 20.9446 190.281 20.5597C189.645 20.1748 188.919 19.9639 188.176 19.9482ZM191.389 26.105C191.003 26.6548 190.504 27.1154 189.925 27.456C189.346 27.7966 188.701 28.0092 188.033 28.0795C57.3566 60.8023 70.819 58.1457 69.5625 58.1457C68.8963 58.135 68.2445 57.9495 67.6724 57.6078C67.1003 57.2661 66.628 56.7802 66.3027 56.1986C65.9774 55.617 65.8105 54.9602 65.8187 54.2939C65.8269 53.6276 66.0099 52.9751 66.3495 52.4018C67.3008 50.8581 68.1445 50.7863 73.7628 49.2785C83.8148 46.568 186.848 20.4328 188.122 20.4328C188.787 20.4305 189.44 20.604 190.016 20.9356C190.592 21.2672 191.07 21.7451 191.402 22.321C191.733 22.8968 191.907 23.5501 191.905 24.2147C191.902 24.8792 191.725 25.5313 191.389 26.105Z" fill="#5669FF"/>
<path d="M75.7912 54.825C75.3142 54.4557 74.7887 54.1538 74.2295 53.9275C74.4667 53.4278 74.5025 52.856 74.3296 52.3306C74.1566 51.8052 73.7882 51.3664 73.3006 51.1053C72.813 50.8441 72.2436 50.7805 71.7104 50.9277C71.1772 51.0748 70.7211 51.4215 70.4365 51.8958C70.1519 52.3701 70.0607 52.9357 70.1818 53.4754C70.3028 54.0152 70.6269 54.4876 71.0868 54.795C71.5467 55.1023 72.1072 55.2209 72.6522 55.1262C73.1971 55.0316 73.6848 54.7309 74.0141 54.2865C74.5197 54.6267 75.0615 54.9097 75.6296 55.1301C75.6678 55.1383 75.7076 55.1337 75.743 55.1172C75.7783 55.1007 75.8074 55.0731 75.8256 55.0386C75.8439 55.0041 75.8504 54.9646 75.8442 54.926C75.838 54.8875 75.8194 54.852 75.7912 54.825ZM72.2012 54.825C71.8424 54.8466 71.4853 54.7599 71.1763 54.5762C70.8673 54.3926 70.6206 54.1203 70.4681 53.7948C70.3156 53.4693 70.2643 53.1055 70.3209 52.7505C70.3775 52.3956 70.5394 52.0657 70.7856 51.8038C71.0318 51.5419 71.351 51.3599 71.7018 51.2815C72.0526 51.2031 72.4189 51.2317 72.7532 51.3639C73.0875 51.496 73.3744 51.7254 73.5769 52.0225C73.7793 52.3195 73.8878 52.6705 73.8885 53.03C73.8903 53.4794 73.7235 53.913 73.4211 54.2454C73.1187 54.5777 72.7026 54.7846 72.255 54.825H72.2012ZM185.502 24.0946C185.125 21.5996 184.245 21.797 183.904 23.1612C183.82 23.4673 183.76 23.7793 183.725 24.0946C183.132 24.0946 181.804 23.9331 181.517 24.4716C181.229 25.0101 181.822 25.2973 182.271 25.4947C182.576 25.6255 182.895 25.7218 183.222 25.7819C182.809 26.3384 182.289 27.3974 182.827 27.7385C183.366 28.0795 184.371 27.0205 184.819 26.5358C185.286 26.9307 186.202 27.5949 186.722 27.2718C187.243 26.9487 186.417 25.9794 185.95 25.4768C186.561 25.3511 187.476 25.0639 187.332 24.4716C187.189 23.8792 186.058 24.0408 185.502 24.0946ZM185.699 25.3511C185.591 25.3511 185.555 25.4409 185.699 25.5486C185.843 25.6563 186.866 26.7871 186.597 27.0384C186.327 27.2897 185.322 26.5179 184.945 26.2486C184.919 26.2309 184.887 26.2214 184.855 26.2214C184.823 26.2214 184.792 26.2309 184.766 26.2486C184.173 26.823 183.258 27.6128 182.971 27.3974C182.683 27.182 183.473 25.9076 183.545 25.7101C183.561 25.6933 183.571 25.6708 183.571 25.6473C183.571 25.6238 183.561 25.6012 183.545 25.5845C183.222 25.4588 181.858 25.046 181.947 24.5972C182.037 24.1485 183.742 24.31 183.94 24.328C184.137 24.3459 184.084 24.2382 184.101 24.0946C184.443 22.2996 184.748 22.4253 184.891 22.6766C185.111 23.1719 185.297 23.6817 185.448 24.2023V24.2921C185.448 24.2921 186.991 24.2921 187.099 24.5972C187.207 24.9024 186.13 25.2614 185.699 25.3511ZM116.394 177.98C113.019 166.564 110.506 161.717 111.709 157.822C114.114 150.84 138.634 144.88 146.801 142.995C149.584 142.349 155.884 140.877 158.559 141.452C161.233 142.026 162.849 143.588 169.006 162.094C171.602 169.687 173.73 177.432 175.378 185.286C175.666 186.21 175.746 187.186 175.612 188.145C175.479 189.104 175.135 190.022 174.606 190.832C171.77 194.602 151.432 200.166 146.873 201.423C124.705 207.508 127.379 206.592 120.756 189.989C120.756 189.955 120.743 189.923 120.719 189.9C120.696 189.876 120.664 189.863 120.63 189.863C120.597 189.863 120.565 189.876 120.541 189.9C120.518 189.923 120.505 189.955 120.505 189.989C123.413 198.964 124.472 204.115 129.246 205.336C132.836 206.287 143.229 202.984 147.035 201.907C170.962 195.032 173.565 193.112 175.091 191.137C175.665 190.263 176.042 189.273 176.194 188.237C176.346 187.201 176.269 186.145 175.97 185.142C174.329 177.24 172.201 169.446 169.598 161.807C163.405 143.319 161.826 141.47 158.684 140.788C155.956 140.195 150.463 141.47 146.676 142.349C138.508 144.27 113.827 150.211 111.207 157.571C109.753 161.933 114.24 173.277 116.125 177.98C116.197 178.231 116.448 178.142 116.394 177.98ZM191.569 186.793C196.72 186.488 219.678 179.99 231.059 175.018C234.9 173.331 236.821 171.626 235.905 167.551C232.151 154.327 227.534 141.363 222.084 128.743C221.4 126.659 219.993 124.889 218.117 123.753C213.988 121.779 193.974 128.294 187.315 130.448C183.096 131.813 175.88 134.128 172.955 137.036C170.37 139.513 170.729 142.672 171.698 146.119C182.953 185.86 185.268 187.152 191.569 186.793ZM173.188 137.395C176.114 134.577 183.312 132.297 187.422 130.969C193.13 129.174 214.024 122.479 217.937 124.292C219.689 125.387 220.998 127.065 221.635 129.03C227.063 141.606 231.633 154.536 235.313 167.731C236.049 171.644 234.505 172.846 230.861 174.444C221.222 178.662 197.061 185.878 191.623 186.237C185.376 186.632 183.24 184.442 172.093 146.065C171.088 142.78 170.729 139.693 173.188 137.395ZM50.733 74.8931C50.7078 74.7801 50.6601 74.6733 50.5927 74.5791C50.5253 74.4849 50.4396 74.4053 50.3408 74.345C50.2419 74.2846 50.1319 74.2449 50.0173 74.228C49.9028 74.2112 49.786 74.2176 49.6739 74.2469L17.8486 82.6655C17.6106 82.7273 17.4069 82.8813 17.2823 83.0933C17.1578 83.3054 17.1226 83.5583 17.1844 83.7963C17.2463 84.0343 17.4002 84.238 17.6123 84.3626C17.8244 84.4871 18.0773 84.5223 18.3153 84.4605L50.1227 76.0419C50.2413 76.0116 50.3523 75.9568 50.4486 75.8812C50.5449 75.8055 50.6243 75.7105 50.6817 75.6024C50.7392 75.4942 50.7734 75.3753 50.7822 75.2532C50.7911 75.131 50.7743 75.0084 50.733 74.8931ZM43.8222 83.8681C43.7951 83.7567 43.7459 83.6518 43.6776 83.5597C43.6094 83.4675 43.5234 83.3899 43.4248 83.3313C43.3262 83.2728 43.2168 83.2346 43.1032 83.2189C42.9896 83.2032 42.874 83.2103 42.7632 83.2399L19.6077 89.3608C19.4932 89.3917 19.3862 89.4453 19.293 89.5186C19.1997 89.5919 19.1223 89.6832 19.0653 89.7872C19.0083 89.8911 18.9729 90.0055 18.9612 90.1235C18.9496 90.2415 18.9619 90.3606 18.9974 90.4737C19.0243 90.5848 19.0735 90.6893 19.1421 90.7808C19.2106 90.8722 19.297 90.9489 19.3961 91.0059C19.4951 91.063 19.6047 91.0994 19.7182 91.1128C19.8318 91.1262 19.9468 91.1164 20.0564 91.084L43.2119 84.9631C43.3244 84.932 43.4296 84.879 43.5213 84.8069C43.6131 84.7349 43.6896 84.6453 43.7464 84.5434C43.8032 84.4415 43.8391 84.3293 43.8522 84.2134C43.8652 84.0974 43.855 83.9801 43.8222 83.8681ZM64.016 70.98C64.0789 71.2031 64.2273 71.3924 64.4289 71.5067C64.6306 71.621 64.8693 71.651 65.093 71.5903L96.9004 63.1718C97.0124 63.1423 97.1174 63.0911 97.2096 63.021C97.3018 62.9509 97.3792 62.8634 97.4376 62.7634C97.4959 62.6634 97.534 62.5528 97.5496 62.4381C97.5652 62.3234 97.5581 62.2067 97.5286 62.0948C97.4992 61.9828 97.448 61.8777 97.3779 61.7855C97.3078 61.6934 97.2203 61.6159 97.1203 61.5576C97.0202 61.4992 96.9097 61.4612 96.795 61.4455C96.6803 61.4299 96.5636 61.437 96.4516 61.4665L64.6442 69.9569C64.4294 70.0161 64.245 70.1546 64.1284 70.3446C64.0118 70.5345 63.9716 70.7616 64.016 70.98ZM90.6179 71.1416C90.5548 70.9177 90.4072 70.7271 90.2063 70.6099C90.0054 70.4927 89.7668 70.4581 89.5409 70.5133L66.3854 76.6522C66.2716 76.681 66.1649 76.7327 66.0718 76.8042C65.9787 76.8757 65.9012 76.9655 65.844 77.068C65.7869 77.1706 65.7513 77.2837 65.7394 77.4005C65.7276 77.5173 65.7397 77.6352 65.7751 77.7472C65.8343 77.9696 65.9783 78.1601 66.1763 78.2775C66.3743 78.395 66.6105 78.4301 66.8341 78.3754L90.0076 72.2365C90.2321 72.1697 90.4216 72.0178 90.5356 71.8132C90.6496 71.6087 90.6791 71.3676 90.6179 71.1416ZM110.812 58.415C110.839 58.5264 110.888 58.6313 110.956 58.7235C111.024 58.8156 111.11 58.8933 111.209 58.9518C111.308 59.0103 111.417 59.0485 111.531 59.0642C111.644 59.0799 111.76 59.0728 111.871 59.0433L143.678 50.6247C143.793 50.5936 143.9 50.54 143.994 50.4671C144.088 50.3941 144.166 50.3032 144.225 50.1996C144.283 50.0961 144.321 49.982 144.335 49.8639C144.349 49.7458 144.339 49.6261 144.306 49.5118C144.24 49.2913 144.09 49.1049 143.89 48.9913C143.689 48.8776 143.453 48.8455 143.229 48.9015L111.422 57.2303C111.297 57.257 111.18 57.311 111.079 57.3885C110.978 57.4659 110.895 57.5649 110.836 57.6782C110.778 57.7916 110.746 57.9164 110.741 58.0438C110.737 58.1712 110.761 58.298 110.812 58.415ZM137.431 58.415C137.369 58.1919 137.22 58.0026 137.019 57.8883C136.817 57.774 136.578 57.744 136.354 57.8047L113.199 63.9257C112.961 63.9875 112.757 64.1415 112.633 64.3535C112.508 64.5656 112.473 64.8185 112.535 65.0565C112.597 65.2945 112.751 65.4982 112.963 65.6228C113.175 65.7473 113.428 65.7825 113.666 65.7207L136.821 59.5818C136.944 59.5545 137.059 59.5008 137.158 59.4246C137.258 59.3483 137.339 59.2512 137.397 59.1401C137.455 59.029 137.489 58.9066 137.494 58.7813C137.5 58.6561 137.479 58.5311 137.431 58.415ZM157.589 45.6167C157.618 45.7265 157.669 45.8294 157.738 45.9196C157.807 46.0098 157.893 46.0854 157.992 46.1421C158.09 46.1988 158.199 46.2355 158.312 46.2501C158.424 46.2647 158.539 46.2568 158.648 46.227L190.474 37.8084C190.586 37.7774 190.691 37.7243 190.783 37.6523C190.875 37.5802 190.951 37.4906 191.008 37.3887C191.065 37.2868 191.101 37.1746 191.114 37.0587C191.127 36.9428 191.117 36.8254 191.084 36.7135C191.055 36.6013 191.004 36.4961 190.934 36.4038C190.864 36.3115 190.776 36.2339 190.676 36.1755C190.576 36.1171 190.465 36.0791 190.351 36.0636C190.236 36.0481 190.119 36.0555 190.007 36.0852L158.2 44.5038C157.971 44.5704 157.778 44.7251 157.664 44.9338C157.55 45.1425 157.523 45.3881 157.589 45.6167ZM184.101 45.7064C184.074 45.595 184.025 45.4901 183.957 45.3979C183.889 45.3058 183.803 45.2282 183.704 45.1696C183.605 45.1111 183.496 45.0729 183.382 45.0572C183.269 45.0415 183.153 45.0486 183.042 45.0782L159.959 51.235C159.847 51.2645 159.742 51.3157 159.65 51.3858C159.557 51.4558 159.48 51.5434 159.422 51.6434C159.363 51.7434 159.325 51.8539 159.31 51.9686C159.294 52.0834 159.301 52.2 159.33 52.312C159.36 52.424 159.411 52.529 159.481 52.6212C159.551 52.7134 159.639 52.7908 159.739 52.8492C159.839 52.9075 159.949 52.9456 160.064 52.9612C160.179 52.9768 160.296 52.9697 160.407 52.9403L183.563 46.8193C183.672 46.783 183.773 46.7252 183.86 46.6492C183.947 46.5731 184.017 46.4805 184.068 46.3767C184.118 46.2729 184.147 46.1601 184.152 46.045C184.158 45.9299 184.141 45.8147 184.101 45.7064ZM177.155 200.22C177.12 200.109 177.064 200.006 176.989 199.916C176.914 199.827 176.822 199.754 176.719 199.7C176.615 199.647 176.502 199.614 176.386 199.605C176.27 199.596 176.153 199.609 176.042 199.646L134.883 212.462C134.772 212.496 134.669 212.552 134.58 212.626C134.49 212.7 134.416 212.791 134.362 212.893C134.308 212.996 134.275 213.108 134.264 213.223C134.253 213.339 134.265 213.455 134.299 213.566C134.333 213.677 134.389 213.78 134.463 213.869C134.537 213.958 134.628 214.032 134.73 214.086C134.833 214.14 134.945 214.174 135.06 214.185C135.176 214.195 135.292 214.183 135.403 214.149L176.562 201.333C176.788 201.263 176.976 201.106 177.087 200.898C177.198 200.69 177.222 200.446 177.155 200.22ZM167.946 212.462C167.912 212.351 167.855 212.247 167.78 212.158C167.706 212.069 167.614 211.995 167.51 211.942C167.407 211.889 167.293 211.856 167.177 211.847C167.061 211.837 166.944 211.851 166.834 211.888L137.234 221.096C137.123 221.131 137.02 221.187 136.93 221.262C136.841 221.337 136.768 221.429 136.714 221.532C136.661 221.636 136.628 221.749 136.619 221.865C136.61 221.981 136.623 222.098 136.66 222.209C136.73 222.434 136.886 222.622 137.095 222.733C137.303 222.844 137.546 222.868 137.773 222.801L167.354 213.575C167.579 213.504 167.768 213.348 167.879 213.14C167.989 212.932 168.014 212.688 167.946 212.462ZM180.601 216.878L139.442 229.712C139.331 229.747 139.228 229.804 139.14 229.879C139.051 229.954 138.978 230.046 138.924 230.149C138.871 230.253 138.838 230.366 138.829 230.481C138.819 230.597 138.832 230.714 138.867 230.825C138.903 230.936 138.96 231.038 139.035 231.127C139.11 231.216 139.202 231.289 139.305 231.342C139.408 231.396 139.521 231.428 139.637 231.438C139.753 231.448 139.87 231.435 139.98 231.399L181.14 218.583C181.251 218.548 181.354 218.492 181.443 218.417C181.533 218.342 181.606 218.25 181.66 218.147C181.713 218.043 181.745 217.93 181.755 217.814C181.764 217.698 181.75 217.581 181.714 217.47C181.644 217.245 181.487 217.056 181.279 216.945C181.071 216.835 180.827 216.81 180.601 216.878ZM235.582 181.929L194.423 194.835C194.312 194.869 194.209 194.925 194.12 194.999C194.03 195.073 193.957 195.164 193.902 195.266C193.848 195.369 193.815 195.481 193.804 195.596C193.793 195.712 193.805 195.828 193.839 195.939C193.874 196.05 193.929 196.153 194.003 196.242C194.077 196.331 194.168 196.405 194.271 196.459C194.373 196.513 194.485 196.547 194.601 196.558C194.716 196.569 194.833 196.556 194.943 196.522L236.156 183.634C236.395 183.565 236.595 183.404 236.715 183.187C236.834 182.97 236.863 182.714 236.794 182.476C236.725 182.238 236.564 182.038 236.347 181.918C236.13 181.799 235.874 181.77 235.636 181.839L235.582 181.929ZM227.397 194.727C227.364 194.617 227.31 194.514 227.236 194.425C227.163 194.336 227.073 194.262 226.971 194.209C226.869 194.155 226.757 194.122 226.642 194.113C226.527 194.103 226.411 194.117 226.302 194.153L196.666 203.361C196.441 203.432 196.253 203.588 196.142 203.796C196.031 204.004 196.007 204.248 196.074 204.474C196.109 204.585 196.165 204.689 196.24 204.778C196.315 204.867 196.407 204.941 196.51 204.994C196.614 205.048 196.727 205.08 196.843 205.089C196.959 205.099 197.076 205.085 197.187 205.049L226.787 195.84C226.901 195.809 227.008 195.756 227.101 195.682C227.195 195.609 227.272 195.518 227.329 195.414C227.386 195.31 227.421 195.195 227.433 195.078C227.445 194.96 227.432 194.84 227.397 194.727ZM198.461 213.072C198.494 213.183 198.549 213.286 198.622 213.376C198.695 213.466 198.784 213.54 198.886 213.595C198.988 213.65 199.099 213.685 199.214 213.697C199.329 213.709 199.446 213.698 199.556 213.665L240.716 200.848C240.84 200.826 240.959 200.777 241.063 200.705C241.167 200.633 241.255 200.54 241.321 200.432C241.387 200.324 241.429 200.203 241.445 200.078C241.461 199.952 241.45 199.824 241.413 199.703C241.376 199.582 241.314 199.47 241.231 199.375C241.148 199.279 241.045 199.203 240.93 199.15C240.815 199.097 240.69 199.069 240.563 199.068C240.437 199.067 240.311 199.092 240.195 199.143L199.036 211.959C198.925 211.994 198.821 212.05 198.732 212.125C198.643 212.2 198.569 212.292 198.516 212.396C198.463 212.499 198.43 212.612 198.421 212.728C198.411 212.845 198.425 212.961 198.461 213.072ZM148.201 258.396L168.305 252.293C168.507 252.205 168.669 252.046 168.761 251.846C168.853 251.646 168.868 251.419 168.804 251.209C168.74 250.998 168.601 250.819 168.413 250.704C168.225 250.59 168.001 250.548 167.785 250.588L147.681 256.691C147.556 256.713 147.438 256.762 147.334 256.834C147.229 256.906 147.141 256.999 147.075 257.107C147.009 257.215 146.967 257.336 146.951 257.461C146.936 257.587 146.946 257.715 146.983 257.836C147.02 257.957 147.083 258.069 147.166 258.164C147.249 258.259 147.352 258.336 147.467 258.389C147.582 258.442 147.707 258.47 147.833 258.471C147.96 258.472 148.085 258.447 148.201 258.396ZM148.704 264.643C148.774 264.868 148.931 265.056 149.139 265.167C149.347 265.278 149.591 265.302 149.817 265.235L176.921 256.996C177.119 256.907 177.277 256.749 177.367 256.552C177.457 256.355 177.473 256.132 177.412 255.925C177.351 255.717 177.217 255.538 177.034 255.422C176.852 255.305 176.633 255.259 176.419 255.291L149.243 263.53C149.027 263.611 148.851 263.772 148.751 263.979C148.651 264.186 148.634 264.423 148.704 264.643ZM155.381 270.889L171.429 266.007C171.541 265.976 171.646 265.923 171.737 265.851C171.828 265.778 171.903 265.688 171.959 265.586C172.014 265.484 172.048 265.371 172.059 265.255C172.07 265.139 172.057 265.023 172.021 264.912C171.988 264.801 171.934 264.698 171.861 264.608C171.788 264.518 171.698 264.444 171.596 264.389C171.495 264.334 171.383 264.299 171.268 264.287C171.153 264.275 171.037 264.286 170.926 264.319L154.771 269.184C154.653 269.218 154.543 269.275 154.448 269.352C154.352 269.429 154.272 269.523 154.213 269.631C154.154 269.738 154.116 269.856 154.103 269.978C154.089 270.1 154.1 270.224 154.134 270.342C154.168 270.46 154.225 270.57 154.302 270.665C154.379 270.761 154.473 270.841 154.581 270.9C154.688 270.959 154.806 270.997 154.928 271.01C155.05 271.024 155.174 271.013 155.292 270.979L155.381 270.889ZM157.32 277.064C157.39 277.289 157.547 277.478 157.755 277.588C157.963 277.699 158.207 277.724 158.433 277.656L181.409 270.692C181.611 270.604 181.773 270.444 181.865 270.244C181.957 270.045 181.972 269.818 181.908 269.607C181.843 269.397 181.704 269.217 181.516 269.103C181.328 268.988 181.105 268.947 180.888 268.986L157.912 275.951C157.687 276.021 157.499 276.178 157.388 276.386C157.277 276.594 157.253 276.838 157.32 277.064ZM174.732 279.415L155.579 285.213C155.461 285.247 155.351 285.305 155.255 285.381C155.159 285.458 155.08 285.553 155.021 285.66C154.961 285.768 154.924 285.886 154.91 286.008C154.897 286.13 154.908 286.253 154.942 286.371C154.976 286.489 155.033 286.599 155.11 286.695C155.186 286.791 155.281 286.87 155.389 286.929C155.496 286.989 155.614 287.026 155.736 287.04C155.858 287.053 155.982 287.042 156.099 287.008L175.252 281.192C175.476 281.123 175.663 280.968 175.772 280.761C175.882 280.554 175.905 280.312 175.836 280.089C175.766 279.865 175.611 279.678 175.404 279.568C175.197 279.459 174.955 279.436 174.732 279.505V279.415ZM184.586 247.805L201.154 243.103C201.392 243.038 201.595 242.882 201.718 242.668C201.84 242.455 201.873 242.201 201.809 241.963C201.745 241.725 201.589 241.522 201.375 241.399C201.161 241.276 200.907 241.243 200.669 241.308L184.101 246.1C183.987 246.129 183.88 246.181 183.787 246.252C183.693 246.323 183.614 246.413 183.556 246.515C183.497 246.617 183.46 246.73 183.446 246.847C183.431 246.963 183.441 247.082 183.473 247.195C183.544 247.421 183.699 247.611 183.907 247.724C184.114 247.838 184.358 247.867 184.586 247.805ZM185.627 254.07C185.658 254.182 185.711 254.288 185.783 254.379C185.855 254.471 185.945 254.548 186.047 254.604C186.149 254.661 186.261 254.697 186.377 254.71C186.493 254.723 186.61 254.713 186.722 254.68L205.911 249.295C206.149 249.231 206.352 249.075 206.474 248.861C206.597 248.647 206.63 248.394 206.566 248.155C206.502 247.917 206.345 247.715 206.132 247.592C205.918 247.469 205.664 247.436 205.426 247.5L186.238 252.885C186.113 252.912 185.996 252.966 185.894 253.043C185.793 253.121 185.71 253.22 185.652 253.333C185.594 253.447 185.561 253.571 185.557 253.699C185.553 253.826 185.577 253.953 185.627 254.07ZM205.354 255.865C205.284 255.639 205.128 255.449 204.921 255.336C204.713 255.222 204.47 255.193 204.241 255.255L188.374 259.76C188.256 259.792 188.145 259.847 188.049 259.921C187.952 259.996 187.871 260.089 187.81 260.194C187.687 260.408 187.654 260.662 187.718 260.9C187.783 261.138 187.939 261.341 188.153 261.464C188.366 261.587 188.62 261.619 188.858 261.555L204.744 257.05C204.864 257.015 204.976 256.957 205.072 256.877C205.169 256.798 205.248 256.7 205.305 256.589C205.362 256.478 205.396 256.357 205.404 256.232C205.413 256.108 205.396 255.983 205.354 255.865ZM189.899 267.73C189.93 267.842 189.983 267.948 190.055 268.039C190.128 268.131 190.217 268.208 190.319 268.264C190.421 268.321 190.533 268.357 190.649 268.37C190.765 268.383 190.882 268.373 190.994 268.34L209.752 262.955C209.866 262.926 209.973 262.875 210.066 262.803C210.159 262.732 210.236 262.642 210.293 262.539C210.351 262.437 210.386 262.324 210.398 262.207C210.41 262.09 210.398 261.972 210.362 261.86C210.332 261.744 210.277 261.635 210.203 261.54C210.129 261.445 210.035 261.367 209.929 261.31C209.823 261.253 209.707 261.218 209.587 261.207C209.467 261.197 209.346 261.212 209.231 261.25L190.474 266.635C190.256 266.709 190.075 266.864 189.968 267.068C189.861 267.272 189.836 267.509 189.899 267.73ZM205.641 269.794L192.682 273.474C192.444 273.538 192.241 273.694 192.118 273.908C191.995 274.122 191.962 274.376 192.026 274.614C192.091 274.852 192.247 275.055 192.461 275.177C192.674 275.3 192.928 275.333 193.166 275.269L206.126 271.589C206.364 271.525 206.567 271.369 206.69 271.155C206.813 270.941 206.846 270.687 206.781 270.449C206.717 270.211 206.561 270.009 206.347 269.886C206.133 269.763 205.88 269.73 205.641 269.794ZM119.715 107.006C120.636 107.921 121.768 108.596 123.012 108.97C124.256 109.343 125.573 109.404 126.846 109.147C128.12 108.89 129.31 108.323 130.311 107.496C131.313 106.669 132.095 105.608 132.589 104.407C133.083 103.206 133.273 101.901 133.142 100.609C133.011 99.3166 132.563 98.0766 131.838 96.9987C131.114 95.9208 130.134 95.0383 128.987 94.4293C127.84 93.8203 126.56 93.5036 125.261 93.5073C123.692 93.4942 122.154 93.9514 120.846 94.82C119.538 95.6886 118.52 96.9288 117.924 98.3809C117.327 99.8331 117.179 101.431 117.498 102.968C117.817 104.505 118.589 105.911 119.715 107.006ZM120.487 96.5947C121.285 95.8054 122.266 95.225 123.342 94.9046C124.418 94.5841 125.557 94.5336 126.657 94.7574C127.757 94.9812 128.785 95.4725 129.651 96.1878C130.516 96.9032 131.192 97.8206 131.619 98.8591C132.046 99.8976 132.211 101.025 132.099 102.142C131.986 103.26 131.601 104.332 130.976 105.265C130.351 106.198 129.506 106.962 128.516 107.491C127.526 108.02 126.42 108.297 125.297 108.298C123.941 108.299 122.615 107.896 121.488 107.141C120.361 106.387 119.484 105.314 118.968 104.059C118.453 102.805 118.322 101.425 118.592 100.096C118.862 98.7668 119.522 97.5481 120.487 96.5947Z" fill="#5669FF"/>
<path d="M156.135 144.916C151.313 152.921 147.055 161.252 143.391 169.849C135.838 165.893 128.045 162.416 120.056 159.438C119.958 159.409 119.852 159.414 119.758 159.453C119.663 159.493 119.584 159.563 119.535 159.653C119.491 159.753 119.487 159.867 119.524 159.97C119.56 160.074 119.635 160.159 119.733 160.209C128.959 164.787 142.637 171.644 142.637 171.644C139.024 180.107 135.925 188.781 133.357 197.617C133.34 197.678 133.338 197.742 133.35 197.804C133.362 197.866 133.388 197.924 133.426 197.974C133.465 198.025 133.514 198.066 133.57 198.094C133.627 198.122 133.689 198.137 133.752 198.138C134.434 198.138 133.644 198.138 144.378 172.559C149.907 175.467 158.738 180.457 168.647 186.434C168.739 186.496 168.853 186.519 168.962 186.497C169.072 186.475 169.168 186.411 169.23 186.318C169.292 186.225 169.314 186.111 169.292 186.002C169.271 185.892 169.206 185.796 169.113 185.734C161.501 180.157 153.486 175.153 145.132 170.764C148.291 163.369 152.133 155.04 156.871 145.311C156.924 145.213 156.935 145.099 156.903 144.993C156.871 144.887 156.798 144.798 156.701 144.746C156.603 144.693 156.489 144.682 156.383 144.714C156.277 144.746 156.188 144.818 156.135 144.916ZM178.357 142.78C185.537 146.37 189.935 148.327 201.692 154.412C197.872 162.768 194.639 171.381 192.017 180.188C191.984 180.293 191.994 180.406 192.044 180.504C192.095 180.601 192.182 180.675 192.287 180.708C192.391 180.742 192.505 180.732 192.603 180.682C192.7 180.631 192.774 180.544 192.807 180.439C196.541 171.356 195.141 173.995 203.452 155.309C210.632 159.15 218.727 163.764 227.325 168.969C227.418 169.031 227.532 169.053 227.641 169.032C227.75 169.01 227.847 168.945 227.908 168.852C227.97 168.76 227.993 168.646 227.971 168.537C227.949 168.427 227.885 168.331 227.792 168.269C220.294 162.801 212.412 157.882 204.205 153.55C208.011 145.311 212.229 136.946 215.604 129.964C215.641 129.87 215.643 129.766 215.609 129.671C215.575 129.577 215.507 129.498 215.419 129.449C215.331 129.4 215.228 129.386 215.13 129.408C215.032 129.43 214.945 129.487 214.886 129.569C210.335 137.026 206.195 144.726 202.482 152.635C194.795 148.594 186.857 145.05 178.716 142.026C178.617 141.978 178.502 141.973 178.397 142.01C178.293 142.047 178.208 142.124 178.16 142.224C178.112 142.324 178.106 142.438 178.144 142.543C178.181 142.647 178.258 142.732 178.357 142.78ZM217.901 241.972C218.46 241.408 218.841 240.692 218.997 239.914C219.153 239.136 219.077 238.329 218.779 237.593C218.481 236.858 217.974 236.226 217.32 235.776C216.666 235.325 215.895 235.077 215.101 235.061C214.45 235.069 213.81 235.236 213.238 235.547C212.666 235.859 212.178 236.305 211.817 236.847C211.457 237.39 211.234 238.012 211.168 238.66C211.103 239.309 211.196 239.963 211.441 240.567C211.686 241.17 212.074 241.705 212.572 242.125C213.07 242.545 213.664 242.836 214.3 242.975C214.937 243.113 215.598 243.094 216.225 242.919C216.853 242.745 217.428 242.419 217.901 241.972ZM212.247 237.843C212.46 237.388 212.78 236.991 213.179 236.685C213.578 236.38 214.045 236.175 214.54 236.089C215.035 236.003 215.544 236.037 216.023 236.189C216.502 236.342 216.937 236.607 217.291 236.964C217.574 237.246 217.797 237.583 217.946 237.954C218.094 238.325 218.166 238.723 218.156 239.123C218.146 239.523 218.054 239.916 217.887 240.279C217.72 240.643 217.48 240.968 217.183 241.236C216.598 241.772 215.832 242.069 215.038 242.069C214.244 242.069 213.479 241.772 212.893 241.236C212.462 240.813 212.169 240.269 212.053 239.676C211.938 239.083 212.005 238.469 212.247 237.915V237.843ZM225.243 239.028C225.976 239.364 226.794 239.467 227.587 239.322C228.38 239.178 229.11 238.793 229.677 238.22C230.401 237.454 230.805 236.439 230.805 235.384C230.805 234.329 230.401 233.314 229.677 232.548C229.313 232.167 228.876 231.863 228.391 231.656C227.907 231.449 227.385 231.342 226.858 231.342C226.331 231.342 225.81 231.449 225.326 231.656C224.841 231.863 224.404 232.167 224.04 232.548C223.598 233.014 223.273 233.579 223.09 234.195C222.908 234.812 222.874 235.462 222.992 236.094C223.109 236.726 223.374 237.321 223.765 237.831C224.157 238.341 224.663 238.751 225.243 239.028ZM224.022 234.092C224.235 233.636 224.555 233.239 224.954 232.934C225.353 232.628 225.82 232.424 226.315 232.338C226.81 232.251 227.319 232.286 227.798 232.438C228.277 232.59 228.712 232.856 229.066 233.212C229.349 233.494 229.572 233.831 229.721 234.203C229.87 234.574 229.941 234.972 229.931 235.371C229.921 235.771 229.829 236.165 229.662 236.528C229.495 236.891 229.256 237.216 228.959 237.484C228.376 238.019 227.614 238.316 226.822 238.316C226.031 238.316 225.269 238.019 224.686 237.484C224.23 237.063 223.919 236.506 223.8 235.896C223.68 235.286 223.758 234.654 224.022 234.092ZM241.541 234.451C242.102 233.89 242.484 233.177 242.642 232.401C242.8 231.625 242.726 230.819 242.43 230.084C242.133 229.349 241.627 228.718 240.974 228.269C240.322 227.82 239.551 227.572 238.759 227.558C238.105 227.56 237.461 227.722 236.885 228.031C236.308 228.339 235.815 228.784 235.45 229.327C235.085 229.87 234.859 230.494 234.791 231.144C234.723 231.795 234.815 232.452 235.06 233.059C235.305 233.666 235.695 234.203 236.195 234.624C236.696 235.045 237.292 235.337 237.932 235.474C238.571 235.612 239.235 235.59 239.864 235.412C240.493 235.233 241.069 234.903 241.541 234.451ZM235.887 230.34C236.1 229.885 236.42 229.488 236.819 229.182C237.218 228.877 237.685 228.672 238.18 228.586C238.675 228.5 239.184 228.534 239.663 228.686C240.142 228.839 240.577 229.104 240.931 229.461C241.214 229.741 241.436 230.077 241.585 230.447C241.733 230.816 241.805 231.212 241.795 231.611C241.785 232.009 241.693 232.401 241.526 232.763C241.359 233.125 241.12 233.449 240.823 233.715C240.243 234.253 239.48 234.553 238.687 234.553C237.895 234.553 237.132 234.253 236.551 233.715C236.086 233.304 235.762 232.756 235.627 232.15C235.491 231.544 235.551 230.91 235.797 230.34H235.887ZM248.721 231.525C249.456 231.859 250.275 231.959 251.068 231.811C251.862 231.663 252.59 231.275 253.155 230.699C253.887 229.94 254.295 228.926 254.295 227.872C254.295 226.818 253.887 225.804 253.155 225.045C252.796 224.66 252.363 224.352 251.882 224.138C251.401 223.924 250.882 223.81 250.356 223.801C249.83 223.793 249.307 223.891 248.82 224.089C248.332 224.287 247.89 224.582 247.519 224.955C247.062 225.423 246.724 225.994 246.533 226.62C246.342 227.245 246.304 227.907 246.422 228.551C246.539 229.194 246.81 229.8 247.21 230.318C247.61 230.835 248.128 231.249 248.721 231.525ZM247.519 226.571C247.733 226.119 248.052 225.725 248.449 225.421C248.847 225.118 249.312 224.915 249.804 224.829C250.297 224.743 250.802 224.776 251.279 224.926C251.756 225.076 252.19 225.338 252.545 225.691C252.914 226.092 253.169 226.584 253.282 227.117C253.395 227.65 253.363 228.204 253.188 228.72C253.014 229.236 252.703 229.696 252.29 230.05C251.876 230.405 251.374 230.642 250.838 230.736C250.301 230.83 249.749 230.777 249.239 230.584C248.73 230.391 248.282 230.064 247.942 229.638C247.603 229.212 247.384 228.702 247.31 228.162C247.235 227.623 247.307 227.073 247.519 226.571Z" fill="#5669FF"/>
</svg>
