<svg width="323" height="343" viewBox="0 0 323 343" fill="none" xmlns="http://www.w3.org/2000/svg">
<path d="M139.84 36.6126C140.652 42.9481 144.551 43.9409 144.551 43.9409C150.923 44.3741 148.685 38.6883 148.685 38.6883C142.151 25.6021 126.212 29.9521 126.212 29.9521C126.212 29.9521 138.956 30.277 139.84 36.6126ZM232.166 61.0523C241.299 48.5436 225.09 38.9771 225.09 38.9771C226.157 43.847 226.157 48.8902 225.09 53.7601C224.224 65.6189 232.166 61.0523 232.166 61.0523Z" fill="#5669FF"/>
<path d="M314.925 72.5683C314.925 72.5683 296.875 26.9018 232.292 8.49081C167.709 -9.92019 118.866 28.3458 118.866 28.3458C180.741 8.49081 192.492 24.5012 192.492 24.5012C192.492 24.5012 203.069 36.5405 212.798 35.0785C222.527 33.6164 216.047 24.2485 216.047 24.2485C239.386 28.9054 243.212 42.5692 248.952 54.1754C254.692 65.7815 261.587 59.8431 268.158 53.309C274.728 46.7749 281.641 54.6086 281.641 54.6086C287.513 62.7411 291.282 72.2004 292.611 82.1432C293.94 92.0859 292.788 102.203 289.258 111.592C277.291 144.66 297.958 146.609 297.958 146.609C339.924 139.119 314.925 72.5683 314.925 72.5683ZM258.591 45.4933C255.125 46.5944 253.375 40.3852 253.375 40.3852C252.971 39.5647 252.882 38.6248 253.125 37.7433C253.368 36.8617 253.925 36.0999 254.692 35.6019C258.663 33.7969 260.107 38.9231 260.107 38.9231C260.107 38.9231 262.057 44.4645 258.573 45.5475L258.591 45.4933ZM311.315 95.6904C311.762 95.6939 312.202 95.8053 312.597 96.015C312.992 96.2248 313.33 96.5267 313.584 96.8952C313.837 97.2637 313.998 97.6879 314.052 98.1317C314.107 98.5756 314.053 99.026 313.896 99.4448C312.958 103.055 309.113 100.185 309.113 100.185C308.841 99.7615 308.682 99.275 308.653 98.7725C308.624 98.2701 308.725 97.7685 308.947 97.3166C309.168 96.8646 309.502 96.4774 309.917 96.1925C310.332 95.9076 310.814 95.7346 311.315 95.6904ZM306.424 134.426C306.424 134.426 304.799 133.126 306.424 129.011C307.766 124.824 308.75 120.531 309.366 116.177C311.423 109.102 315.882 114.119 315.882 114.119C315.882 114.119 319.041 119.119 314.257 128.794C309.474 138.469 306.424 134.444 306.424 134.444V134.426ZM115.202 99.3004C115.24 99.3004 115.277 99.2851 115.304 99.2581C115.331 99.231 115.346 99.1943 115.346 99.156C115.346 99.1177 115.331 99.0809 115.304 99.0538C115.277 99.0268 115.24 99.0116 115.202 99.0116C115.164 99.0116 115.127 99.0268 115.1 99.0538C115.073 99.0809 115.057 99.1177 115.057 99.156C115.057 99.1943 115.073 99.231 115.1 99.2581C115.127 99.2851 115.164 99.3004 115.202 99.3004ZM131.194 111.033C131.023 111.191 130.836 111.33 130.635 111.448C130.612 111.468 130.595 111.495 130.589 111.525C130.582 111.555 130.585 111.586 130.597 111.614C130.609 111.642 130.629 111.665 130.656 111.681C130.682 111.697 130.712 111.704 130.743 111.701C133.126 111.051 130.905 109.156 130.743 107.892C130.743 107.621 130.129 107.892 131.429 110.022C131.493 110.195 131.506 110.383 131.464 110.563C131.422 110.743 131.328 110.906 131.194 111.033ZM133.613 105.455C133.486 106.087 133.486 106.737 133.613 107.369C133.635 107.399 133.663 107.423 133.696 107.44C133.729 107.456 133.765 107.465 133.802 107.465C133.839 107.465 133.876 107.456 133.909 107.44C133.942 107.423 133.97 107.399 133.992 107.369C134.075 106.77 134.075 106.163 133.992 105.564C134.118 105.239 133.649 105.167 133.613 105.455ZM126.122 105.654C125.972 106.353 126.055 107.082 126.357 107.73C126.391 107.763 126.434 107.786 126.48 107.799C126.526 107.811 126.574 107.812 126.621 107.802C126.667 107.791 126.71 107.769 126.746 107.737C126.782 107.706 126.809 107.666 126.826 107.621C126.875 106.957 126.796 106.289 126.591 105.654C126.568 105.613 126.533 105.578 126.492 105.555C126.451 105.531 126.404 105.518 126.357 105.518C126.309 105.518 126.262 105.531 126.221 105.555C126.18 105.578 126.146 105.613 126.122 105.654ZM124.101 104.138C124.498 103.759 126.23 102.513 126.591 102.17C126.952 101.827 126.122 101.34 123.848 103.885C123.685 104.048 123.938 104.318 124.101 104.138ZM134.985 103.344C134.549 102.746 133.981 102.258 133.324 101.918C133.071 101.809 132.873 102.261 133.144 102.369C133.414 102.477 135.183 104.336 134.985 103.344ZM124.75 115.942C124.859 116.069 125.039 115.942 124.967 115.78C124.41 115.055 124.106 114.167 124.101 113.253C126.122 115.473 128.342 114.932 127.476 114.697C126.221 114.42 125.07 113.794 124.155 112.892C123.703 112.459 123.433 114.39 124.75 115.942ZM113.686 101.466C113.619 101.466 113.554 101.493 113.507 101.54C113.46 101.588 113.433 101.652 113.433 101.719C113.433 101.786 113.46 101.85 113.507 101.898C113.554 101.945 113.619 101.972 113.686 101.972C113.753 101.972 113.817 101.945 113.864 101.898C113.912 101.85 113.938 101.786 113.938 101.719C113.938 101.652 113.912 101.588 113.864 101.54C113.817 101.493 113.753 101.466 113.686 101.466ZM115.761 103.362C115.838 103.362 115.911 103.331 115.966 103.277C116.02 103.223 116.05 103.149 116.05 103.073C116.05 102.996 116.02 102.923 115.966 102.869C115.911 102.814 115.838 102.784 115.761 102.784C115.685 102.784 115.611 102.814 115.557 102.869C115.503 102.923 115.473 102.996 115.473 103.073C115.473 103.149 115.503 103.223 115.557 103.277C115.611 103.331 115.685 103.362 115.761 103.362ZM116.086 100.943C116.144 100.928 116.195 100.894 116.232 100.846C116.268 100.799 116.288 100.741 116.288 100.681C116.288 100.621 116.268 100.563 116.232 100.516C116.195 100.469 116.144 100.435 116.086 100.419C116.029 100.435 115.978 100.469 115.941 100.516C115.905 100.563 115.885 100.621 115.885 100.681C115.885 100.741 115.905 100.799 115.941 100.846C115.978 100.894 116.029 100.928 116.086 100.943ZM118.956 101.34C119.018 101.324 119.073 101.288 119.113 101.237C119.152 101.187 119.173 101.124 119.173 101.06C119.173 100.996 119.152 100.934 119.113 100.883C119.073 100.832 119.018 100.796 118.956 100.78C118.894 100.796 118.839 100.832 118.8 100.883C118.76 100.934 118.739 100.996 118.739 101.06C118.739 101.124 118.76 101.187 118.8 101.237C118.839 101.288 118.894 101.324 118.956 101.34ZM119.606 106.25C120.13 106.069 119.444 105.473 119.299 105.943C119.245 106.087 119.426 106.322 119.606 106.25ZM118.74 104.102C118.783 104.102 118.824 104.085 118.855 104.054C118.885 104.024 118.902 103.982 118.902 103.939C118.902 103.896 118.885 103.855 118.855 103.824C118.824 103.794 118.783 103.777 118.74 103.777C118.697 103.777 118.655 103.794 118.625 103.824C118.594 103.855 118.577 103.896 118.577 103.939C118.577 103.982 118.594 104.024 118.625 104.054C118.655 104.085 118.697 104.102 118.74 104.102ZM113.523 104.715C113.475 104.715 113.429 104.734 113.396 104.768C113.362 104.802 113.343 104.848 113.343 104.896C113.343 104.944 113.362 104.99 113.396 105.023C113.429 105.057 113.475 105.076 113.523 105.076C113.571 105.076 113.617 105.057 113.651 105.023C113.685 104.99 113.704 104.944 113.704 104.896C113.704 104.848 113.685 104.802 113.651 104.768C113.617 104.734 113.571 104.715 113.523 104.715ZM115.418 112.062C115.374 112.075 115.335 112.102 115.307 112.14C115.279 112.177 115.264 112.223 115.264 112.269C115.264 112.316 115.279 112.361 115.307 112.399C115.335 112.436 115.374 112.464 115.418 112.477C115.463 112.464 115.502 112.436 115.53 112.399C115.558 112.361 115.573 112.316 115.573 112.269C115.573 112.223 115.558 112.177 115.53 112.14C115.502 112.102 115.463 112.075 115.418 112.062ZM113.09 107.188C113.013 107.188 112.94 107.219 112.886 107.273C112.832 107.327 112.801 107.4 112.801 107.477C112.801 107.554 112.832 107.627 112.886 107.681C112.94 107.735 113.013 107.766 113.09 107.766C113.167 107.766 113.24 107.735 113.294 107.681C113.348 107.627 113.379 107.554 113.379 107.477C113.379 107.4 113.348 107.327 113.294 107.273C113.24 107.219 113.167 107.188 113.09 107.188ZM115.761 104.715C115.724 104.705 115.685 104.704 115.646 104.711C115.608 104.718 115.572 104.734 115.541 104.758C115.51 104.782 115.485 104.812 115.468 104.847C115.451 104.882 115.442 104.92 115.442 104.959C115.442 104.998 115.451 105.036 115.468 105.071C115.485 105.106 115.51 105.136 115.541 105.16C115.572 105.184 115.608 105.2 115.646 105.207C115.685 105.215 115.724 105.213 115.761 105.203C115.815 105.188 115.862 105.156 115.895 105.112C115.929 105.068 115.947 105.014 115.947 104.959C115.947 104.904 115.929 104.85 115.895 104.806C115.862 104.762 115.815 104.73 115.761 104.715ZM117.765 103.199C117.827 103.199 117.887 103.174 117.931 103.13C117.975 103.086 118 103.027 118 102.965C118 102.902 117.975 102.843 117.931 102.799C117.887 102.755 117.827 102.73 117.765 102.73C117.703 102.73 117.643 102.755 117.599 102.799C117.555 102.843 117.53 102.902 117.53 102.965C117.53 103.027 117.555 103.086 117.599 103.13C117.643 103.174 117.703 103.199 117.765 103.199ZM93.235 163.342C93.2516 163.258 93.2516 163.172 93.235 163.089C93.0365 161.284 90.1304 162.836 91.43 164.316C91.5529 164.439 91.7104 164.521 91.8813 164.551C92.0544 164.589 92.2341 164.586 92.4055 164.541C92.577 164.496 92.7354 164.411 92.8676 164.293C92.9997 164.175 93.102 164.027 93.1659 163.862C93.2298 163.696 93.2535 163.518 93.235 163.342ZM95.3288 153.198C95.4613 153.329 95.627 153.422 95.8082 153.467C95.9895 153.511 96.1794 153.506 96.3577 153.45C96.499 153.401 96.6285 153.323 96.7376 153.221C96.8467 153.118 96.933 152.994 96.9909 152.856C97.0488 152.718 97.077 152.57 97.0736 152.42C97.0702 152.271 97.0354 152.124 96.9714 151.988C96.6465 150.635 94.0653 151.88 95.3288 153.198ZM99.4984 159.443C99.609 159.146 99.609 158.819 99.4984 158.522C97.206 156.519 97.3865 162.06 99.4984 159.443ZM82.405 167.584C83.5422 168.396 84.6252 167.277 83.6324 166.103C83.2534 165.652 81.0332 166.555 82.405 167.584ZM92.6935 171.861C90.347 170.165 90.0041 175.255 92.4589 173.666C92.7022 173.441 92.8629 173.141 92.9152 172.814C92.9676 172.486 92.9086 172.151 92.7477 171.861H92.6935ZM99.6969 144.137C99.1554 145.256 100.942 146.23 101.358 144.498C101.358 144.1 101.358 143.577 100.437 143.505C100.265 143.526 100.104 143.597 99.9723 143.71C99.8407 143.822 99.745 143.97 99.6969 144.137ZM98.3251 137.205C98.4993 137.301 98.6994 137.34 98.8966 137.314C99.0939 137.289 99.2781 137.202 99.4226 137.066C99.5672 136.929 99.6647 136.75 99.701 136.555C99.7373 136.359 99.7106 136.157 99.6247 135.978C99.0832 134.931 97.1158 136.122 98.3251 137.205ZM101.737 129.57C101.737 130.599 103.65 130.455 103.542 129.281C103.54 129.163 103.51 129.047 103.453 128.943C103.397 128.839 103.315 128.751 103.217 128.686C102.802 128.18 101.267 128.559 101.737 129.57ZM109.57 119.047C110.599 118.433 109.931 116.935 108.939 117.477C107.639 117.603 108.397 119.733 109.57 119.047ZM102.549 111.051C102.557 110.991 102.557 110.93 102.549 110.87C102.577 110.728 102.569 110.582 102.525 110.444C102.482 110.306 102.405 110.181 102.3 110.08C102.196 109.98 102.069 109.907 101.929 109.868C101.79 109.83 101.643 109.827 101.502 109.86C101.355 109.898 101.22 109.976 101.113 110.084C101.006 110.192 100.93 110.327 100.893 110.475C100.857 110.622 100.86 110.777 100.904 110.923C100.947 111.069 101.029 111.2 101.141 111.304C101.21 111.451 101.326 111.572 101.471 111.647C101.616 111.722 101.781 111.747 101.942 111.718C102.103 111.69 102.249 111.609 102.359 111.488C102.469 111.367 102.535 111.214 102.549 111.051ZM91.1051 102.91C90.2568 101.809 88.885 103.181 89.7333 104.084C89.8099 104.154 89.8948 104.214 89.986 104.264C90.5817 104.842 91.8813 103.813 91.1051 102.91ZM92.2242 91.9179C91.791 92.3331 91.8452 93.4702 92.6033 93.5605C92.7787 93.6409 92.9756 93.6617 93.164 93.6197C93.3523 93.5778 93.5218 93.4754 93.6466 93.3281C93.7713 93.1809 93.8445 92.9969 93.8549 92.8042C93.8653 92.6115 93.8124 92.4207 93.7043 92.2609C93.6385 92.1319 93.5454 92.0189 93.4313 91.9298C93.3173 91.8407 93.1851 91.7775 93.0441 91.7449C92.9031 91.7122 92.7566 91.7108 92.615 91.7407C92.4734 91.7705 92.34 91.831 92.2242 91.9179ZM95.2386 80.5825C95.0437 80.4867 94.8216 80.4613 94.6102 80.5109C94.3987 80.5604 94.211 80.6818 94.079 80.8542C93.947 81.0267 93.8789 81.2396 93.8863 81.4566C93.8936 81.6737 93.9761 81.8815 94.1195 82.0446C94.1648 82.227 94.2569 82.3946 94.3867 82.5307C94.5164 82.6668 94.6794 82.7667 94.8595 82.8207C94.9758 82.8358 95.0939 82.8277 95.207 82.7967C95.3201 82.7658 95.426 82.7126 95.5184 82.6404C95.6107 82.5682 95.6878 82.4783 95.7452 82.376C95.8025 82.2737 95.8389 82.161 95.8523 82.0446C95.8914 81.8667 95.8872 81.6821 95.8401 81.5062C95.793 81.3303 95.7043 81.1683 95.5815 81.0338C95.5282 80.8455 95.4057 80.6843 95.2386 80.5825ZM88.7045 86.9542C89.1377 85.5643 86.7912 85.4199 86.7912 86.7195C86.7953 86.9562 86.8888 87.1826 87.0528 87.3533C87.2168 87.524 87.4393 87.6264 87.6756 87.6401C87.8994 87.659 88.123 87.6014 88.3099 87.4769C88.4967 87.3523 88.6358 87.168 88.7045 86.9542ZM87.82 157.205C88.5781 158.522 90.2387 156.158 88.2893 156.032C87.9825 156.23 87.4951 156.393 87.82 157.205ZM131.88 163.576C132.064 163.546 132.236 163.464 132.376 163.341C132.516 163.217 132.618 163.057 132.671 162.878C132.723 162.699 132.725 162.508 132.674 162.329C132.624 162.149 132.524 161.987 132.385 161.862C131.483 160.887 129.967 163.486 131.88 163.576ZM133.956 150.057C134.172 149.624 134.172 149.064 133.631 148.884C131.032 148.487 132.385 152.458 133.956 150.057ZM129.696 139.389C129.518 139.344 129.332 139.344 129.155 139.389C126.375 141.321 132.349 141.934 129.696 139.389ZM136.23 136.429C136.88 135.852 136.916 134.516 135.653 134.624C134.389 134.732 134.714 137.332 136.23 136.429ZM139.605 143.162C139.589 143.044 139.546 142.931 139.48 142.831C139.415 142.731 139.328 142.647 139.226 142.584C139.094 142.49 138.935 142.439 138.772 142.438C138.609 142.437 138.45 142.487 138.316 142.579C138.182 142.672 138.08 142.803 138.023 142.956C137.966 143.109 137.958 143.275 137.999 143.433C138.035 143.646 138.154 143.836 138.33 143.961C138.506 144.086 138.725 144.136 138.938 144.1C139.151 144.065 139.341 143.945 139.466 143.769C139.591 143.593 139.641 143.375 139.605 143.162ZM144.768 148.685C144.943 148.642 145.1 148.543 145.214 148.403C145.328 148.263 145.393 148.089 145.4 147.909C145.455 147.72 145.432 147.517 145.337 147.344C145.243 147.171 145.083 147.044 144.894 146.988C144.705 146.933 144.502 146.956 144.329 147.051C144.157 147.145 144.029 147.305 143.974 147.494C143.703 147.765 143.847 148.92 144.768 148.685ZM143.252 157.169C143.068 157.253 142.921 157.4 142.836 157.584C141.753 161.266 146.573 157.223 143.252 157.169ZM156.338 157.855C156.312 157.657 156.215 157.475 156.066 157.342C155.917 157.21 155.725 157.135 155.526 157.133C152.601 157.945 155.832 160.67 156.338 157.855ZM158.955 147.386C159.731 147.747 160.363 146.212 159.442 145.797C158.937 145.4 157.854 146.285 158.522 147.169C158.633 147.294 158.788 147.372 158.955 147.386ZM165.814 150.274C166.626 150.274 167.15 148.469 165.814 148.469C165.435 148.469 165.02 148.685 164.93 149.371C164.919 149.491 164.934 149.611 164.975 149.724C165.015 149.838 165.08 149.941 165.164 150.026C165.248 150.112 165.349 150.179 165.462 150.221C165.574 150.264 165.694 150.282 165.814 150.274ZM140.183 175.219C140.422 175.195 140.642 175.077 140.795 174.891C140.947 174.704 141.019 174.465 140.995 174.226C140.971 173.987 140.853 173.766 140.667 173.614C140.481 173.462 140.242 173.39 140.003 173.414C139.763 173.438 139.543 173.556 139.391 173.742C139.239 173.928 139.166 174.167 139.19 174.406C139.214 174.646 139.332 174.866 139.518 175.018C139.705 175.17 139.944 175.243 140.183 175.219ZM132.187 185.471C132.963 186.103 134.479 184.893 133.613 183.81C133.017 182.782 131.122 184.244 132.187 185.471ZM142.782 188.142C142.972 188.017 143.114 187.831 143.183 187.614C143.252 187.397 143.244 187.163 143.161 186.951C143.161 186.428 141.934 185.615 141.591 186.789C141.482 186.96 141.431 187.163 141.447 187.366C141.462 187.568 141.543 187.761 141.678 187.913C141.812 188.066 141.993 188.171 142.192 188.212C142.391 188.254 142.598 188.229 142.782 188.142ZM130.941 172.547C130.725 172.421 130.635 172.403 130.093 172.547C129.552 172.692 129.497 173.323 130.093 173.865C130.689 174.406 132.259 173.305 130.941 172.547ZM195.687 119.643C195.732 119.353 195.705 119.057 195.61 118.78C195.515 118.503 195.354 118.254 195.14 118.053C194.927 117.852 194.668 117.706 194.386 117.628C194.104 117.55 193.807 117.541 193.521 117.603C193.158 117.742 192.861 118.012 192.691 118.361C192.547 118.5 192.436 118.669 192.367 118.857C192.298 119.045 192.273 119.245 192.293 119.444C191.788 121.448 195.199 122.116 195.687 119.643ZM200.217 125.563C202.347 127.061 205.001 123.939 203.593 122.079C203.26 121.609 202.775 121.266 202.22 121.108C201.665 120.951 201.073 120.988 200.542 121.213C199.044 122.007 198.412 124.661 200.217 125.563ZM201.932 135.743C203.087 138.324 207.347 134.335 204.513 132.548C202.654 131.357 201.03 134.245 201.932 135.743ZM196.625 145.274C196.943 145.309 197.265 145.277 197.569 145.18C197.874 145.083 198.154 144.923 198.393 144.71C198.631 144.497 198.822 144.236 198.953 143.945C199.084 143.653 199.152 143.337 199.152 143.017C199.983 140.815 197.564 139.516 196.102 139.877C193.882 140.418 194.423 145.544 196.625 145.274ZM186.933 147.819C187.303 148.106 187.758 148.261 188.227 148.261C188.696 148.261 189.151 148.104 189.521 147.817C189.891 147.53 190.155 147.127 190.271 146.673C190.388 146.219 190.35 145.74 190.164 145.31C189.135 142.909 185.832 143.902 186.247 146.736C186.384 147.147 186.619 147.519 186.933 147.819ZM181.355 139.444C181.131 139.42 180.905 139.443 180.691 139.511C180.476 139.58 180.278 139.692 180.11 139.841C179.171 140.671 179.153 142.963 180.579 143.216C182.384 143.956 184.045 141.104 182.51 139.913C182.174 139.656 181.775 139.494 181.355 139.444Z" fill="#5669FF"/>
<path d="M176.752 260.433C167.204 259.35 157.078 258.519 147.62 260.794L132.331 226.769C135.941 221.463 138.18 213.16 139.714 205.904C147.493 206.987 155.327 203.936 152.583 196.644C150.941 192.366 148.251 187.98 146.97 183.576C145.637 178.725 145.113 173.688 145.418 168.666C146.318 169.022 147.268 169.241 148.233 169.316C151.699 169.551 154.37 167.511 156.879 165.436C162.749 160.486 167.582 154.425 171.103 147.602C170.718 146.656 170.266 145.739 169.749 144.859C171.369 144.286 172.886 143.457 174.243 142.404C174.929 151.609 182.998 157.295 188.99 156.212C197.384 154.714 202.817 149.209 208.051 142.422C210.618 139.387 212.315 135.713 212.961 131.79C213.773 125.22 212.672 116.015 206.282 112.441C204.644 111.548 202.817 111.059 200.952 111.015C199.087 110.971 197.239 111.373 195.56 112.188C191.603 113.86 188.451 117.006 186.77 120.96C183.629 115.979 172.601 119.372 175.579 129.985C173.533 130.761 171.775 132.147 170.543 133.956C169.824 134.979 169.028 135.944 168.161 136.844C167.439 137.494 166.518 137.855 165.76 138.469C165.616 138.354 165.488 138.221 165.381 138.072H165.146C159.79 141.256 154.797 145.015 150.255 149.281C145.977 140.436 138.811 128.632 130.815 123.523C130.707 121.845 130.562 119.913 130.58 119.913C132.909 118.578 135.995 118.325 136.988 112.693C137.686 108.166 137.428 103.542 136.23 99.1198C141.194 97.3148 142.169 90.3475 140.833 91.7915C140.198 92.5815 139.302 93.1191 138.306 93.3077C139.696 91.5765 140.41 89.3988 140.313 87.1805C140.217 84.9622 139.318 82.8546 137.782 81.2503C137.719 81.1724 137.631 81.117 137.534 81.0924C137.436 81.0678 137.333 81.0753 137.24 81.1137C137.147 81.1522 137.069 81.2196 137.017 81.3059C136.965 81.3923 136.942 81.493 136.952 81.5933C137.159 82.7535 136.928 83.9491 136.305 84.9491C135.681 85.9492 134.709 86.6828 133.577 87.0083V85.0047C133.58 84.9307 133.558 84.8577 133.514 84.798C133.47 84.7383 133.407 84.6954 133.335 84.6764C133.264 84.6575 133.188 84.6636 133.12 84.6938C133.052 84.7239 132.997 84.7763 132.963 84.8423C132.478 85.6664 131.834 86.3859 131.069 86.9592C130.304 87.5324 129.432 87.9479 128.505 88.1815C128.755 87.3204 128.959 86.4468 129.118 85.5643C129.127 85.4694 129.11 85.3739 129.068 85.2881C129.027 85.2023 128.963 85.1294 128.883 85.0774C128.803 85.0254 128.71 84.9962 128.615 84.9929C128.52 84.9897 128.426 85.0125 128.342 85.0589L124.227 87.5498C124.227 87.5498 124.877 85.8892 122.909 86.0336C122.909 86.0336 116.501 91.9901 114.209 91.8637C112.567 91.8637 111.863 94.86 114.48 97.2787C109.661 100.889 111.068 110.762 115.725 114.065C114.552 115.87 114.372 116.069 114.624 116.123C115.271 116.337 115.947 116.447 116.628 116.448C115.865 116.656 115.135 116.972 114.462 117.386C109.837 111.694 104.825 106.326 99.4623 101.322C99.0471 88.5245 98.5959 76.7378 97.4768 76.3227C97.1701 76.2168 96.8565 76.1323 96.5382 76.07C97.6031 72.6044 96.5382 67.6767 92.9282 66.1425C106.069 51.522 107.783 51.0888 107.134 48.3813C109.498 49.8794 112.549 48.1827 114.011 46.1972C120.274 43.8868 119.227 29.4107 117.296 31.3782C116.574 32.1182 117.097 34.7896 113.09 34.8979C110.834 34.8979 108.415 34.1218 107.224 35.1687C102.711 35.4033 101.015 42.7858 103.217 45.764C102.489 45.9069 101.8 46.2022 101.195 46.6304L88.4337 63.2003C87.9644 63.2003 85.9067 61.9368 85.3652 63.9945C85.2512 64.4264 85.2512 64.8804 85.3652 65.3122C84.8296 65.113 84.2402 65.113 83.7046 65.3122C83.3176 65.4247 82.9793 65.6636 82.7438 65.9907C82.5082 66.3179 82.389 66.7144 82.405 67.1172C82.3933 67.415 82.4685 67.7098 82.6216 67.9655C82.3588 67.9916 82.1125 68.1056 81.9225 68.289C81.7325 68.4725 81.61 68.7146 81.5747 68.9763C81.5128 69.3185 81.5259 69.67 81.6131 70.0066C81.7004 70.3432 81.8597 70.6568 82.0801 70.9257L66.9723 87.3693C66.9723 87.3693 64.8604 89.6977 65.9976 90.8349C65.9976 90.8349 67.0986 91.9359 69.6076 89.427L86.5926 73.6693C86.596 74.2041 86.7415 74.7283 87.0143 75.1882C87.287 75.6481 87.6773 76.0272 88.1449 76.2866C87.6916 76.3018 87.2395 76.344 86.7912 76.4129C86.6829 76.4129 86.7912 76.5934 86.7912 76.5934C97.1338 76.2866 97.4226 76.792 97.4768 76.7739C97.6212 80.781 99.1374 97.0802 98.9749 101.214C98.9675 101.255 98.9675 101.298 98.9749 101.34C98.9749 101.737 107.44 109.769 114.011 117.585C111.902 119.202 110.155 121.244 108.884 123.578C103.848 131.917 102.025 157.367 101.935 165.76C100.491 178.883 91.1051 181.843 88.1449 178.269C85.962 175.818 83.5438 173.587 80.9249 171.609C79.0116 169.443 75.9612 166.428 73.5786 167.277C77.6218 163.486 84.7515 161.862 89.1016 153.125C96.0508 139.137 95.6718 120.401 94.9498 128.469C88.9186 121.42 84.9557 112.839 83.4998 103.677C82.0439 94.5151 83.1519 85.1288 86.7009 76.5573C86.7009 76.3768 86.4482 76.2324 86.376 76.431C73.2717 106.177 94.7151 128.92 94.8054 129.101C94.3026 133.823 93.3845 138.492 92.0618 143.054C87.1341 160.67 82.5675 159.569 74.2284 165.923C73.0324 166.675 72.0792 167.756 71.4836 169.037C70.888 170.318 70.6753 171.744 70.8711 173.143C47.2075 182.168 51.9727 202.6 51.9727 202.6L58.3083 242.094C39.6085 249.458 21.1433 257.382 2.98502 266.01C2.85867 266.01 2.89477 266.335 3.07527 266.317C16.5586 265.198 29.4644 268.682 41.3413 274.638C38.0248 275.493 34.7833 276.616 31.6484 277.995C28.5258 279.223 25.4392 280.576 22.4068 282.02C15.9424 285.14 9.73221 288.761 3.83337 292.85C3.58067 292.85 3.68897 293.266 3.83337 293.211C14.1219 291.406 21.7209 290.107 31.5943 291.118C21.9014 296.334 2.24497 307.236 2.08252 307.236L3.25577 311.731H79.8961C79.8961 311.731 81.3401 306.207 85.4013 312.453C85.4013 312.453 117.296 317.092 152.818 342.903V337.687C152.818 337.687 127.548 315.467 83.1451 307.453C96.2313 306.803 109.985 304.782 122.855 308.662C142.62 314.655 156.717 324.907 157.313 324.438C179.839 303.662 172.023 311.911 193.81 292.49C196.751 293.802 199.764 294.947 202.835 295.919C200.308 297.58 179.803 311.334 153.468 337.434L153.757 342.939C153.757 342.939 181.68 312.417 203.087 299.258C203.087 299.258 203.087 295.648 202.979 295.648C200.037 294.511 197.041 293.248 193.954 292.363C200.235 286.804 202.618 286.28 201.643 285.865C197.633 283.839 193.483 282.102 189.225 280.667C194.929 276.028 207.076 266.732 206.788 266.624C194.911 262.364 193.99 262.4 176.752 260.433ZM106.809 35.5838C106.57 35.9231 106.423 36.3176 106.38 36.7298C106.336 37.1421 106.399 37.5586 106.562 37.9399C106.724 38.3212 106.982 38.6547 107.309 38.9089C107.636 39.163 108.023 39.3295 108.433 39.3924C111.808 39.3924 107.982 41.3779 107.837 41.793C107.788 42.0108 107.815 42.239 107.913 42.4395C108.012 42.6399 108.176 42.8004 108.379 42.8941C109.408 43.3814 110.292 42.3706 111.159 42.1721C111.7 42.0457 112.386 42.2984 112.44 42.8399C112.494 43.3814 111.718 43.8507 111.447 44.4464C111.339 44.7282 111.331 45.0391 111.427 45.3257C111.522 45.6123 111.715 45.8566 111.971 46.0167C112.285 46.2121 112.648 46.3124 113.018 46.3055C112.343 47.2162 111.377 47.8686 110.281 48.1543C109.184 48.4399 108.022 48.3417 106.989 47.8759C106.8 47.2093 106.394 46.6251 105.834 46.2163C105.275 45.8074 104.595 45.5974 103.903 45.6196C102.404 44.1576 101.339 37.443 106.809 35.5838ZM87.6576 63.3808C87.8592 63.4456 88.064 63.4999 88.2713 63.5433C89.1738 64.0306 89.1016 65.5107 89.0474 66.0161C88.4518 66.0161 88.2532 66.702 88.181 67.1713C87.3327 66.9367 86.9897 67.0269 86.376 66.1244C86.2512 65.9672 86.1423 65.7979 86.0511 65.619C85.2389 64.2111 85.8887 62.7671 87.6576 63.3808ZM83.8851 65.619C84.5107 65.51 85.1546 65.6387 85.6901 65.98C85.8982 66.4398 86.2366 66.8284 86.6632 67.0979C87.0899 67.3674 87.5862 67.5059 88.0908 67.4962C88.067 67.7791 88.1103 68.0636 88.2171 68.3265C88.0534 68.6485 87.787 68.9067 87.4601 69.0603C87.1332 69.214 86.7645 69.2543 86.4121 69.1749C85.8216 69.2336 85.2255 69.1604 84.6667 68.9606C84.108 68.7608 83.6006 68.4395 83.1812 68.0197C83.0253 67.8289 82.9183 67.603 82.8694 67.3615C82.8204 67.12 82.8311 66.8703 82.9004 66.6338C82.9698 66.3974 83.0957 66.1814 83.2672 66.0046C83.4388 65.8278 83.6509 65.6955 83.8851 65.619ZM82.4411 70.8355C82.1496 70.4973 81.9782 70.072 81.9538 69.6261C81.9538 69.0305 82.1704 68.146 82.9465 68.3807C83.3695 68.7932 83.8734 69.1137 84.4263 69.3218C84.9793 69.5299 85.5694 69.6213 86.1594 69.59C86.0413 69.9502 85.8407 70.2779 85.5737 70.5469C85.3067 70.816 84.9806 71.0191 84.6214 71.14C84.2621 71.2609 83.8796 71.2963 83.5043 71.2435C83.1289 71.1906 82.7711 71.0509 82.4592 70.8355H82.4411ZM96.1411 75.9256L88.6684 76.1241C88.1365 75.9163 87.6726 75.5651 87.3285 75.1094C86.9843 74.6537 86.7733 74.1114 86.719 73.543L89.9319 70.5828C90.6358 72.3878 93.1087 72.3878 92.3506 72.0448C91.5925 71.7019 90.4373 71.5033 90.1846 70.1315C90.1589 69.8185 90.256 69.5078 90.4553 69.2651C89.8446 69.0533 89.2672 68.7555 88.7406 68.3807C88.4989 68.0478 88.3959 67.6341 88.4531 67.2267C88.5104 66.8194 88.7234 66.4501 89.0474 66.1966H92.513C96.3577 68.3807 96.5201 71.8824 96.1591 75.9256H96.1411ZM147.89 268.664C148.301 270.043 148.801 271.393 149.389 272.707C147.628 274.391 145.564 275.726 143.306 276.642C140.959 273.898 141.501 274.494 140.959 273.844C143.458 272.385 145.783 270.647 147.89 268.664ZM148.919 281.1C147.493 282.4 141.699 287.309 139.894 288.32C139.172 287.797 139.894 286.064 140.129 285.486C141.573 282.995 142.62 283.194 142.746 277.021C144.93 276.858 149.136 273.645 149.966 272.58C151.065 274.551 151.937 276.64 152.565 278.808C152.259 279.006 151.861 279.259 151.609 279.457C151.319 278.699 150.891 278.001 150.345 277.4C150.074 277.075 149.695 276.569 149.208 276.804C148.721 277.039 148.558 277.959 148.504 278.392C148.431 279.31 148.554 280.233 148.865 281.1H148.919ZM151.609 201.572C149.804 205.669 143.811 205.579 139.912 205.001C141.086 199.297 141.627 195.29 141.717 194.171C145.887 194.64 152.078 197.023 151.609 201.572ZM176.879 121.592C179.117 118.867 184.315 117.747 186.355 121.267C186.369 121.3 186.392 121.329 186.42 121.351C186.449 121.373 186.482 121.388 186.517 121.394C186.531 121.42 186.552 121.442 186.577 121.458C186.603 121.473 186.632 121.482 186.662 121.482C186.692 121.482 186.721 121.473 186.746 121.458C186.772 121.442 186.793 121.42 186.806 121.394C193.304 108.199 212.654 106.268 212.401 129.462C212.401 136.682 207.636 142.368 202.961 147.386C184.911 166.699 169.641 147.891 176.103 134.317C176.129 134.248 176.129 134.171 176.103 134.101C177.093 133.548 178.175 133.181 179.297 133.018C178.485 136.935 185.452 137.151 186.012 132.566C186.101 131.655 185.876 130.741 185.374 129.976C184.871 129.211 184.122 128.641 183.25 128.361C182.461 128.17 181.627 128.301 180.934 128.724C180.24 129.147 179.743 129.828 179.55 130.617C178.446 129.866 177.095 129.569 175.778 129.787C175.471 126.953 175.02 123.975 176.969 121.592H176.879ZM179.676 130.852C179.89 130.131 180.38 129.525 181.04 129.167C181.7 128.808 182.476 128.726 183.196 128.938C183.836 129.159 184.396 129.566 184.804 130.106C185.212 130.646 185.45 131.295 185.489 131.971C185.615 135.581 179.261 137.079 179.46 133.036H179.64C179.785 133.036 179.983 132.801 180.001 132.747C180.143 132.441 180.197 132.101 180.155 131.766C180.114 131.431 179.979 131.114 179.767 130.852H179.676ZM170.254 134.588C171.416 132.86 172.992 131.451 174.839 130.491C176.229 129.877 180.254 129.931 179.55 132.585C178.234 132.643 176.97 133.117 175.94 133.938C175.326 133.938 174.009 138.505 174.135 141.934C172.673 142.927 171.067 143.739 169.605 144.714C164.172 134.444 164.731 141.61 170.345 134.588H170.254ZM135.959 99.192C138.252 116.737 135.219 116.989 130.292 119.408C130.252 119.428 130.219 119.46 130.197 119.498C130.175 119.536 130.164 119.58 130.165 119.625C130.146 121.651 130.248 123.676 130.472 125.689C128.599 127.866 126.573 129.905 124.407 131.79C120.741 129.122 118.062 125.313 116.79 120.96C117.038 119.433 117.087 117.88 116.935 116.34C118.054 116.34 119.227 116.177 120.202 116.123C120.4 116.123 120.491 115.708 120.472 115.672C119.802 113.782 118.937 111.968 117.891 110.257C117.891 110.437 117.53 110.888 117.44 111.069C117.424 111.059 117.405 111.054 117.386 111.054C117.367 111.054 117.348 111.059 117.332 111.069C114.101 111.069 113.541 106.376 116.447 106.213C118.252 106.105 118.252 108.109 119.57 108.65C119.587 108.658 119.605 108.662 119.624 108.662C119.643 108.662 119.661 108.658 119.678 108.65C120.563 108.867 121.303 108.073 121.483 107.134C121.718 105.564 120.13 103.524 121.79 100.6C127.873 101.773 132.223 100.131 135.977 99.192H135.959ZM114.66 97.2607C116.639 98.7874 118.933 99.8541 121.375 100.383C119.949 102.423 121.213 105.076 121.213 106.304C121.189 106.759 121.017 107.193 120.724 107.542C120.431 107.89 120.032 108.134 119.588 108.235C118.776 107.459 118.541 106.304 117.386 105.871C116.886 105.694 116.342 105.683 115.835 105.839C115.328 105.995 114.884 106.31 114.57 106.737C114.309 107.207 114.178 107.738 114.191 108.275C114.204 108.812 114.36 109.336 114.643 109.793C114.927 110.249 115.327 110.622 115.803 110.871C116.279 111.121 116.813 111.239 117.35 111.213C116.917 112.026 116.429 112.784 115.942 113.56C113.77 111.471 112.441 108.658 112.205 105.654C111.968 102.65 112.842 99.6635 114.66 97.2607ZM114.949 115.744C116.061 114.282 117.068 112.744 117.964 111.141C118.216 111.791 119.552 114.751 119.985 115.527C119.065 115.545 115.689 115.636 114.949 115.744ZM116.574 116.827C116.574 117.26 116.14 120.762 116.574 121.014C117.032 123.313 117.945 125.497 119.259 127.437C120.573 129.378 122.262 131.036 124.227 132.314C126.758 130.516 128.983 128.322 130.815 125.816C130.847 125.797 130.874 125.771 130.893 125.74C130.912 125.708 130.922 125.672 130.923 125.635C130.923 125.31 130.923 124.643 130.815 123.83C139.371 131.502 142.475 134.859 149.84 149.407C149.966 149.642 150.255 149.515 150.291 149.299C155.309 145.689 159.821 141.375 165.182 138.18C166.987 141.321 168.792 144.317 170.597 147.476C166.338 155.255 157.403 166.591 151.139 168.54C146.771 169.894 141.826 166.248 140.418 164.93L140.309 165.038C141.65 166.569 143.298 167.799 145.147 168.648C143.649 175.525 146.122 183.269 148.576 189.586C149.804 192.727 152.565 196.806 151.988 200.416C151.518 195.399 145.183 191.987 122.007 190.706L123.595 178.72C124.714 172.926 122.404 165.472 122.963 151.916C123.776 132.693 129.173 130.924 133.089 126.285C133.104 126.272 133.115 126.256 133.123 126.239C133.131 126.221 133.136 126.202 133.137 126.183C133.138 126.164 133.135 126.145 133.128 126.127C133.122 126.108 133.111 126.092 133.098 126.078C133.085 126.063 133.07 126.052 133.052 126.044C133.035 126.035 133.016 126.031 132.997 126.03C132.977 126.029 132.958 126.032 132.94 126.039C132.922 126.045 132.905 126.055 132.891 126.068C127.025 131.357 123.866 134.335 122.657 148.667C121.592 160.941 123.776 170.508 123.288 177.06L102.314 165.887C103.74 144.317 104.209 122.332 116.574 116.827ZM72.279 168.63C74.806 166.41 77.2066 168.63 79.3365 170.724C76.626 171.274 73.9595 172.022 71.3584 172.962C71.1702 172.218 71.1553 171.44 71.3149 170.689C71.4745 169.938 71.8043 169.234 72.279 168.63ZM77.3149 206.102C85.4194 205.344 100.148 199.731 100.148 199.731C100.148 199.731 100.69 184.081 101.339 182.944C101.989 181.807 101.881 182.944 101.881 182.944C98.632 230.56 111.231 244.152 111.231 244.152L129.01 265.36C127.736 265.779 126.488 266.273 125.274 266.84C120.686 258.535 114.786 251.025 107.801 244.603C104.488 241.527 100.857 238.81 96.9714 236.498C93.0906 234.242 88.6503 232.112 84.0656 232.455C83.9393 232.239 84.4086 232.112 75.2392 235.542L77.3149 206.102ZM4.32072 292.742C10.1063 288.97 16.1362 285.588 22.3707 282.616C25.71 281.028 29.1214 279.566 32.569 278.248C35.6555 277.057 38.9406 276.226 41.955 274.909C56.827 282.703 70.1161 293.201 81.1415 305.865C71.1418 298.645 58.2902 295.991 46.4855 293.23C30.9445 289.565 22.2444 289.114 4.32072 292.814V292.742ZM3.45432 307.182C3.63482 307.092 32.4426 291.388 32.587 291.208C42.4604 292.345 69.6437 298.067 81.8455 307.218C80.2751 307.218 49.5901 305.648 3.45432 307.272V307.182ZM3.86947 265.83C21.7751 257.406 39.9394 249.585 58.3624 242.365L59.3732 248.61L61.828 248.7C62.1088 250.315 62.5626 251.894 63.1818 253.411C62.2793 253.411 61.7017 255.216 60.0952 257.021C58.9895 258.021 57.7792 258.898 56.4852 259.638C54.8968 260.794 55.33 262.039 57.0628 262.599C60.0772 263.555 64.0662 261.768 66.8279 260.794C67.1469 259.797 67.539 258.826 68.0011 257.888C69.03 256.913 69.2105 259.945 69.1744 260.397C69.9782 260.541 70.7977 260.577 71.6111 260.505C72.043 258.015 71.9384 255.461 71.3043 253.014H70.9252C71.1356 251.725 71.2443 250.421 71.2501 249.115L74.2103 249.224L75.1489 236.047C83.8851 232.87 83.8851 233.033 84.0476 232.87C93.3253 233.069 102.098 240.09 108.451 246.155C114.848 252.368 120.352 259.439 124.804 267.165C117.584 270.775 111.718 276.822 105.816 282.093C97.1673 289.501 89.3316 297.809 82.4411 306.875C64.0301 285.215 32.1899 262.436 3.86947 265.92V265.83ZM66.7918 260.415C64.373 261.22 61.8917 261.824 59.3732 262.22C58.579 262.22 54.6622 262.22 56.6296 259.837C59.435 258.583 61.6874 256.35 62.9652 253.556C65.7041 253.963 68.497 253.816 71.1779 253.122C71.1779 254.747 71.3765 253.538 71.3223 260.144C70.7914 260.137 70.2607 260.168 69.7339 260.234C69.9325 256.57 67.5318 256.137 66.7918 260.559V260.415ZM70.6184 252.96C68.2752 253.294 65.9091 253.438 63.5428 253.393C63.5428 253.393 62.7486 250.234 62.2973 248.7L70.9613 249.007C70.7628 250.433 70.6003 253.068 70.6184 253.104V252.96ZM201.012 286.046C193.268 291.009 187.113 298.139 179.893 303.771C171.768 309.864 164.155 316.614 157.132 323.951C146.19 317.432 134.577 312.113 122.494 308.085C112.422 304.998 93.0004 305.449 83.3075 307.056C96.1411 301.641 105.058 300.883 117.837 302.236C130.617 303.59 139.371 305.612 150.742 313.066C151.5 313.572 163.919 301.027 188.918 280.703C193.033 282.472 197.004 284.385 201.012 286.19V286.046ZM205.975 266.732C187.113 281.353 168.702 296.461 151.23 312.706C151.22 312.667 151.203 312.63 151.178 312.599C151.153 312.568 151.121 312.543 151.085 312.525C140.995 305.81 129.768 302.995 117.837 301.695C105.202 300.359 95.5454 301.081 82.8202 306.803C89.6665 298.322 97.1488 290.376 105.202 283.031C118.036 271.299 122.097 268.032 129.353 265.649L137.223 275.071C138.381 274.845 139.496 274.437 140.526 273.862L143.017 276.587C142.927 276.587 142.475 276.696 142.475 276.858C142.006 282.833 142.151 281.28 139.768 285.468C139.414 285.973 139.245 286.586 139.291 287.201C139.338 287.816 139.595 288.397 140.021 288.843C140.129 288.843 149.425 281.19 149.389 281.136C149.352 281.082 148.288 277.309 149.533 277.237C150.454 277.237 151.609 279.692 151.699 279.656C152.119 279.485 152.509 279.247 152.854 278.952C152.35 276.511 151.395 274.184 150.038 272.093C150.038 272.093 149.695 272.237 149.641 272.292C149.19 270.92 148.721 269.548 148.197 268.194C149.407 267.075 150.165 266.281 150.165 266.281L147.746 260.866C157.36 259.458 167.123 259.403 176.752 260.703C193.25 262.815 194.748 262.797 205.975 266.877V266.732Z" fill="#5669FF"/>
<path d="M277.561 184.027V183.919H277.435C277.392 183.912 277.349 183.922 277.312 183.945C277.276 183.968 277.249 184.004 277.237 184.045L255.811 196.03C254.837 201.012 255.992 200.705 254.295 219.387C252.743 221.3 251.768 224.044 246.245 226.102C243.15 227.018 240.132 228.176 237.22 229.567C233.429 231.715 232.436 235.686 236.245 238.592C236.165 238.649 236.092 238.715 236.028 238.791L235.487 239.098C235.414 239.149 235.359 239.221 235.327 239.303C235.295 239.386 235.288 239.477 235.307 239.564C235.327 239.65 235.371 239.729 235.435 239.791C235.499 239.853 235.58 239.894 235.667 239.91C235.902 240.126 236.101 240.018 236.317 239.91C236.326 240.036 236.326 240.163 236.317 240.289C236.317 240.394 236.359 240.495 236.434 240.57C236.508 240.644 236.609 240.686 236.714 240.686C236.82 240.686 236.921 240.644 236.995 240.57C237.07 240.495 237.111 240.394 237.111 240.289V239.531L237.436 239.35C240.126 240.902 243.988 241.643 244.801 245.144C245.396 247.743 243.375 250.92 240.812 252.743C240.812 252.743 240.505 250.198 240.487 250.162C240.36 249.801 239.765 249.801 239.783 250.252V251.101L239.115 249.982C239.051 249.908 238.964 249.859 238.868 249.843C238.772 249.827 238.673 249.845 238.589 249.895C238.505 249.944 238.442 250.022 238.409 250.113C238.376 250.205 238.377 250.306 238.411 250.397C238.88 251.408 239.332 252.418 239.819 253.429C233.285 257.039 230.938 249.007 226.841 245.614C227.364 242.834 227.491 242.888 227.382 242.635C227.398 242.58 227.402 242.521 227.395 242.464C227.388 242.407 227.37 242.351 227.341 242.301C227.313 242.251 227.275 242.207 227.229 242.171C227.183 242.135 227.131 242.109 227.076 242.094C227.02 242.078 226.962 242.074 226.904 242.081C226.847 242.088 226.792 242.107 226.741 242.135C226.691 242.164 226.647 242.202 226.611 242.247C226.576 242.293 226.55 242.345 226.534 242.401C226.408 242.708 226.318 243.032 226.209 243.357C226.101 243.682 226.083 243.538 225.993 243.881L225.794 243.285C225.77 243.197 225.712 243.121 225.632 243.075C225.553 243.03 225.458 243.017 225.37 243.041C225.281 243.065 225.206 243.123 225.16 243.203C225.115 243.283 225.102 243.377 225.126 243.466C225.036 243.646 225.126 243.935 225.289 244.531C224.419 243.98 223.486 243.537 222.509 243.213C219.97 242.469 217.247 242.661 214.838 243.754C214.693 243.068 214.585 242.365 214.495 241.679C214.405 240.993 213.845 241.354 213.755 241.679C213.642 241.728 213.551 241.818 213.502 241.931C213.376 241.751 213.231 241.462 212.888 241.606C212.832 241.587 212.771 241.585 212.713 241.6C212.656 241.615 212.603 241.646 212.563 241.69C212.523 241.734 212.496 241.789 212.487 241.848C212.477 241.907 212.485 241.967 212.509 242.022C212.961 242.744 213.394 243.466 213.827 244.188C210.793 245.787 208.081 247.935 205.831 250.523C205.809 250.561 205.801 250.605 205.807 250.648C205.812 250.691 205.832 250.731 205.863 250.762C205.894 250.792 205.934 250.812 205.977 250.818C206.02 250.824 206.064 250.815 206.102 250.794C208.536 248.627 211.165 246.687 213.953 245C214.098 245.866 214.278 246.805 214.459 247.581C214.459 248.068 215.379 247.96 215.307 247.473C215.316 247.365 215.316 247.256 215.307 247.148C215.375 247.084 215.425 247.003 215.451 246.913L215.614 247.166C215.661 247.253 215.735 247.323 215.826 247.363C215.916 247.404 216.018 247.414 216.114 247.391C216.211 247.369 216.297 247.315 216.36 247.238C216.423 247.162 216.459 247.066 216.462 246.967V246.877C216.463 246.828 216.452 246.779 216.43 246.735C216.408 246.691 216.376 246.653 216.336 246.624C215.975 245.897 215.571 245.192 215.127 244.512C216.802 243.732 218.658 243.422 220.496 243.616C222.334 243.81 224.084 244.5 225.559 245.614V245.758C225.559 246.155 225.415 246.552 225.325 246.949C225.235 247.346 225.18 247.635 225.126 247.978C225.072 248.321 225.92 248.826 226.011 248.231V247.978C226.084 247.923 226.141 247.848 226.173 247.762L226.715 249.169C226.913 249.675 227.725 249.476 227.545 248.935C227.364 248.393 227.058 247.455 226.805 246.733C230.27 250.162 233.158 257.779 239.909 254.332C240.036 255.541 240.054 255.902 240.216 257.4C240.237 257.502 240.292 257.594 240.373 257.66C240.453 257.726 240.554 257.762 240.658 257.762C240.762 257.762 240.863 257.726 240.944 257.66C241.024 257.594 241.08 257.502 241.1 257.4C241.1 257.021 241.1 256.642 241.01 256.263C241.029 256.186 241.029 256.106 241.01 256.028C241.057 256.047 241.108 256.047 241.155 256.028C241.461 256.227 241.985 256.028 241.841 255.541C241.591 254.889 241.307 254.251 240.992 253.628C244.187 251.426 246.678 247.238 244.855 243.809C243.501 241.282 240.523 240.469 237.888 239.134C238.736 238.556 240.072 238.321 239.277 237.69C239.043 236.769 238.267 237.69 237.021 238.321V237.563C237.021 237.506 236.998 237.451 236.958 237.41C236.917 237.369 236.862 237.347 236.805 237.347C236.747 237.347 236.692 237.369 236.651 237.41C236.611 237.451 236.588 237.506 236.588 237.563C236.588 237.816 236.498 238.051 236.444 238.303C233.104 235.848 233.935 232.257 237.364 230.253C240.794 228.249 244.963 227.509 248.627 225.993C249.982 225.383 251.203 224.51 252.219 223.426C253.235 222.342 254.026 221.067 254.548 219.676L279.619 207.257C279.667 207.269 279.717 207.263 279.761 207.239C279.804 207.216 279.837 207.177 279.854 207.131C279.493 205.488 277.742 184.135 277.561 184.027ZM267.381 201.86L254.746 219.297C255.107 216.012 256.551 200.128 256.046 196.175L267.417 201.86L277.309 184.514C277.721 192.022 278.51 199.504 279.673 206.932L267.381 201.86ZM14.934 221.481L12.9665 218.214L12.2445 221.77L8.99555 222.492L11.5586 224.315L10.8005 227.78L13.8329 225.289L17.3888 226.914L15.7462 223.647L17.9123 220.975L14.934 221.481ZM203.25 218.394L200.47 213.972L199.441 218.791L194.784 219.766L198.43 222.239L197.365 226.95L201.679 223.556L206.751 225.777L204.405 221.354L207.473 217.708L203.25 218.394ZM76.1054 28.2916C78.0548 28.6165 80.5457 28.1833 81.6468 30.1868L81.1053 30.5659C80.9955 31.0673 81.0658 31.5913 81.3038 32.046C81.6362 32.7559 82.1078 33.3918 82.6908 33.9158C83.2737 34.4398 83.9561 34.8413 84.6973 35.0964L85.1124 34.9881C86.1412 35.656 87.5491 36.1253 88.5238 35.0784C89.4985 34.0315 88.8487 32.3709 88.8668 32.3348C90.9425 29.4648 86.6286 26.7212 86.6286 26.7212L86.1232 27.0822C84.2099 23.4722 89.3722 20.0066 84.8597 13.7794C79.6071 6.55939 65.6184 9.89864 69.6255 22.1546C70.0306 23.6776 70.8511 25.0581 71.9954 26.1418C73.1397 27.2255 74.5626 27.9698 76.1054 28.2916ZM83.181 29.1399C80.8076 26.773 78.2484 24.6 75.5278 22.6419C76.2859 22.8224 76.7372 23.2195 77.3328 22.5517V22.299C78.0368 20.494 78.47 22.3892 79.3905 21.0174V20.6384C79.8959 19.9164 79.8237 20.512 80.3111 20.4579C80.5434 20.4723 80.7763 20.4417 80.997 20.3676C81.5565 20.1149 81.4482 19.2124 82.4229 19.3207C82.8626 22.3181 83.6439 25.2553 84.7514 28.075L83.181 29.1399ZM88.3975 32.9124C88.5429 33.2541 88.5895 33.6298 88.5321 33.9968C88.4747 34.3637 88.3155 34.7072 88.0726 34.9881C87.3145 35.6921 86.2676 35.295 85.5456 34.8257C86.6258 34.4062 87.5997 33.7528 88.3975 32.9124ZM85.9788 17.624C86.773 21.234 83.885 24.844 85.708 27.371L85.1124 27.7862C83.524 22.5336 81.737 14.4292 82.2966 18.8695C80.5999 18.7612 81.015 19.4471 80.7082 19.6998C80.4014 19.9525 79.571 19.6998 79.0115 19.9705C78.849 19.9705 79.0115 20.3496 78.849 20.4218C77.748 21.577 78.0909 20.7286 77.1704 21.0355C76.8274 21.1618 76.8094 21.2521 76.6469 21.5409C76.4845 21.8297 77.0801 22.1726 76.4845 22.4975C76.4845 22.4975 75.4917 22.3531 75.1127 22.3351C71.5027 19.5193 79.1559 26.4505 82.6757 29.5551L81.9536 30.0605C79.8418 25.8368 70.5099 31.2337 69.5172 18.707C68.723 8.31024 83.885 7.82289 85.9788 17.624ZM215.09 302.995C215.049 303.415 215.156 303.837 215.394 304.187C215.631 304.536 215.984 304.792 216.39 304.908C218.448 305.07 218.628 303.59 218.628 303.59L219.549 300.161L215.939 299.782L215.09 302.995ZM75.6722 0.205788C75.6722 -0.0649621 75.1488 -0.0288621 75.1849 0.205788C75.3895 2.16738 75.715 4.11446 76.1596 6.03594C76.3762 6.66769 77.5855 6.81209 75.6722 0.205788ZM85.5095 10.4221C86.3087 9.00466 86.9157 7.48717 87.3145 5.90959C87.3084 5.86239 87.2901 5.81762 87.2612 5.77979C87.2323 5.74196 87.194 5.7124 87.1501 5.6941C87.1062 5.6758 87.0582 5.66939 87.011 5.67554C86.9638 5.68168 86.9191 5.70015 86.8813 5.72909C86.0006 7.10365 85.3257 8.59956 84.8777 10.1694C84.7694 10.5123 85.347 10.8553 85.5095 10.4221ZM65.4921 11.108C65.5317 11.1232 65.5745 11.1283 65.6166 11.1226C65.6586 11.117 65.6986 11.1008 65.7328 11.0756C65.7669 11.0504 65.7942 11.017 65.8121 10.9785C65.83 10.94 65.8378 10.8976 65.835 10.8553C64.6275 8.99492 63.2301 7.26488 61.6654 5.69299C61.4669 5.53054 61.1239 5.69299 61.2864 5.98179C61.9362 6.79404 64.6798 10.2957 65.4921 11.108ZM57.6042 23.761C63.6148 22.9307 63.0192 21.956 62.604 21.956C60.799 22.1726 59.1745 22.8946 57.4598 23.2376C57.0988 23.2917 57.2612 23.8152 57.6042 23.761ZM69.806 30.8908C69.9684 30.6742 69.6977 30.3493 69.445 30.4395C68.0122 31.3349 66.6486 32.3364 65.3657 33.4358C65.0769 33.6705 65.3657 34.1398 65.7448 33.9412C67.1705 33.024 68.5278 32.0045 69.806 30.8908ZM76.1054 32.6055C75.7986 34.1217 75.8527 35.7282 75.6361 37.2624C75.6361 37.6415 76.1596 37.822 76.2318 37.4249C76.6367 35.8526 76.783 34.2248 76.665 32.6055C76.665 32.5313 76.6355 32.4602 76.5831 32.4077C76.5306 32.3552 76.4594 32.3258 76.3852 32.3258C76.311 32.3258 76.2399 32.3552 76.1874 32.4077C76.1349 32.4602 76.1054 32.5313 76.1054 32.6055ZM69.3367 53.7601C69.7712 53.7965 70.2085 53.7398 70.6195 53.5938C71.0304 53.4479 71.4055 53.216 71.7197 52.9137C72.034 52.6114 72.2802 52.2456 72.442 51.8406C72.6038 51.4357 72.6774 51.0009 72.6579 50.5653C72.333 46.1069 65.9794 46.6845 65.8169 50.3306C65.8623 51.241 66.2503 52.1006 66.9032 52.7367C67.5561 53.3729 68.4254 53.7385 69.3367 53.7601ZM71.8998 50.1501C71.9901 50.5233 71.9903 50.9127 71.9003 51.286C71.8103 51.6592 71.6327 52.0057 71.3822 52.2967C71.1318 52.5878 70.8156 52.815 70.4599 52.9596C70.1042 53.1042 69.7192 53.1621 69.3367 53.1284C68.6096 53.1438 67.9023 52.891 67.3497 52.4183C66.7971 51.9456 66.4378 51.286 66.3404 50.5653C66.3794 49.8869 66.6625 49.2456 67.1372 48.7595C67.612 48.2735 68.2465 47.9755 68.9237 47.9205C69.601 47.8655 70.2752 48.0573 70.8222 48.4604C71.3691 48.8636 71.7519 49.4509 71.8998 50.114V50.1501ZM152.98 90.6363C153.125 91.0695 171.951 91.8817 176.102 91.7915C175.562 92.2967 175.177 92.9452 174.992 93.6611C174.807 94.377 174.829 95.1308 175.056 95.8347C175.597 97.1884 177.294 97.4592 178.557 97.6397C185.326 98.5422 192.059 99.8959 199.549 98.3797C209.766 96.322 204.351 86.1779 198.196 90.8529C198.425 89.5278 198.254 88.1643 197.704 86.9371C197.154 85.71 196.25 84.6752 195.107 83.9653C193.965 83.2555 192.637 82.9031 191.293 82.9532C189.949 83.0033 188.65 83.4537 187.564 84.2466C187.564 79.6438 180.741 75.7992 177.853 79.9326C178.593 73.3624 172.763 69.229 166.464 70.4564C159.695 71.7379 158.486 79.4453 161.5 84.6437C160.585 83.9028 159.453 83.4805 158.276 83.4408C157.099 83.4011 155.941 83.7462 154.978 84.4237C154.015 85.1012 153.299 86.0742 152.938 87.1953C152.578 88.3164 152.593 89.5244 152.98 90.6363ZM187.925 84.6798C192.799 81.7737 198.051 84.6798 197.582 91.3763C197.582 91.3763 198.033 91.5568 198.069 91.5207C203.827 86.8999 208.52 95.7625 200.145 97.6758C193.34 99.2281 185.164 98.2173 178.178 96.9899C172.763 96.0332 176.842 88.8493 180.94 91.6651C181.247 91.8817 181.355 89.4089 183.395 89.3908C184.387 89.3908 185.741 89.7338 186.066 90.7807C186.066 90.7807 186.427 90.3114 186.391 90.2031C185.922 88.1815 185.904 85.8891 187.925 84.6798ZM177.095 80.5824C177.095 80.9434 177.655 80.6907 177.673 80.5824C180.94 76.3407 186.698 80.059 186.878 84.5715C186.16 85.1021 185.644 85.861 185.415 86.7237C185.185 87.5863 185.256 88.5014 185.615 89.3186C183.81 88.1093 180.904 88.6327 180.705 91.1236C180.393 90.8513 180.029 90.6439 179.636 90.5135C179.242 90.3832 178.826 90.3325 178.413 90.3644C178 90.3963 177.597 90.5102 177.228 90.6995C176.859 90.8887 176.532 91.1495 176.265 91.4666C169.045 90.4558 154.244 90.546 153.468 90.2031C152.692 89.8601 153.468 86.9541 154.009 86.0877C154.456 85.4978 155.028 85.0137 155.683 84.6698C156.338 84.3258 157.061 84.1305 157.8 84.0978C158.54 84.0651 159.277 84.1957 159.96 84.4803C160.643 84.765 161.255 85.1967 161.753 85.7447C162.042 85.9974 162.132 85.2754 162.114 85.2574C153.738 66.1605 179.712 67.2074 177.185 80.5824H177.095ZM196.806 49.1574C196.474 46.8087 195.5 44.5974 193.99 42.7677C187.095 36.4863 172.691 43.4175 179.893 57.2077C180.695 58.4697 181.581 59.6759 182.546 60.8177C184.171 63.1642 184.911 68.4167 185.254 71.2506C185.254 71.3224 185.282 71.3913 185.333 71.442C185.384 71.4928 185.453 71.5213 185.525 71.5213H190.705C191.553 71.5213 190.434 65.0594 191.499 62.1173C193.051 57.6048 198.015 54.5182 196.806 49.1574ZM185.795 41.1612C186.986 40.911 188.215 40.911 189.405 41.1612C190.646 44.5086 191.192 48.0733 191.012 51.6385C190.832 55.2038 189.929 58.6952 188.358 61.9007H186.896C185.327 58.6958 184.42 55.2069 184.231 51.6432C184.042 48.0796 184.574 44.5144 185.795 41.1612ZM179.857 55.7456C177.709 50.3306 177.673 45.6196 182.528 42.515C179.568 46.3596 180.272 56.5398 186.138 61.9187C185.308 61.9187 184.496 61.666 183.665 61.5758C182.272 59.716 181 57.7686 179.857 55.7456ZM190.272 71.052C189.117 71.1784 187.997 71.052 186.842 71.052C185.687 71.052 185.922 71.6838 185.326 67.9294C187.078 68.2088 188.863 68.2088 190.615 67.9294C190.643 68.981 190.528 70.0316 190.272 71.052ZM190.615 67.442C188.81 67.6767 187.005 67.442 185.2 67.6225C184.803 65.6489 184.285 63.7018 183.647 61.7924C186.035 62.6044 188.619 62.6423 191.03 61.9007C190.583 63.7178 190.443 65.5968 190.615 67.4601V67.442ZM191.283 61.3953C190.676 61.4576 190.073 61.554 189.477 61.6841C195.29 55.9803 195.56 46.0167 192.745 42.4428C195.615 44.4463 197.456 50.7638 195.723 54.2294C194.459 56.7203 192.438 58.7961 191.355 61.4494L191.283 61.3953ZM206.011 74.7342C206.39 75.6367 206.733 69.9149 210.632 69.4275C210.777 69.4275 210.903 69.2831 210.777 69.1568C209.982 68.3806 207.762 68.3445 207.491 63.5432C207.491 63.3447 207.112 63.2725 207.112 63.5432C207.004 68.9582 200.362 69.1207 201.697 69.5178C204.982 70.4203 205.542 73.6332 206.011 74.7342ZM207.293 65.0053C207.344 65.8395 207.595 66.6492 208.026 67.3656C208.456 68.082 209.053 68.684 209.766 69.1207C208.88 69.608 208.104 70.2707 207.483 71.0683C206.862 71.8659 206.411 72.7816 206.156 73.7595C205.858 72.8181 205.373 71.9463 204.731 71.1959C204.089 70.4455 203.303 69.8318 202.419 69.3914C203.543 69.1477 204.584 68.6149 205.439 67.8456C206.293 67.0764 206.933 66.0973 207.293 65.0053ZM229.783 94.7697C229.639 94.7697 229.675 95.0585 229.783 95.0946C230.798 95.3187 231.707 95.8794 232.362 96.6856C233.018 97.4918 233.381 98.496 233.393 99.5349C233.393 99.6613 233.664 99.6974 233.7 99.5349C233.736 99.3725 233.7 95.9249 235.938 94.5892C236.083 94.5892 236.155 94.1921 235.938 94.2102C233.483 94.5712 232.057 89.6796 232.039 89.6074C232.021 89.5352 231.678 89.4991 231.733 89.6074C231.938 90.5642 231.864 91.5601 231.518 92.4757C231.172 93.3912 230.57 94.1877 229.783 94.7697ZM232.382 91.1597C232.96 92.6037 233.899 94.4087 235.306 94.6434C234.436 95.482 233.855 96.5755 233.646 97.766C233.054 96.4632 231.98 95.4408 230.65 94.9141C231.677 93.9018 232.294 92.5453 232.382 91.1056V91.1597ZM109.516 67.2435V67.4059C110.413 67.5704 111.239 68.0038 111.883 68.6486C112.528 69.2934 112.962 70.119 113.126 71.0159C113.138 71.052 113.161 71.0835 113.192 71.1058C113.222 71.1281 113.259 71.1401 113.297 71.1401C113.335 71.1401 113.373 71.1281 113.403 71.1058C113.434 71.0835 113.457 71.052 113.469 71.0159C113.974 69.3734 114.317 67.6045 117.079 67.2074C117.187 67.2074 117.223 66.9727 117.079 66.9727C113.812 66.6478 113.18 62.6046 113.054 62.3158C112.927 62.027 112.747 62.3158 112.765 62.3158C113.252 65.3843 110.491 66.6839 109.516 67.2435ZM113.27 63.9223C113.491 64.5988 113.853 65.2206 114.332 65.7465C114.811 66.2724 115.397 66.6904 116.05 66.9727C115.417 67.2487 114.853 67.6625 114.401 68.184C113.948 68.7055 113.617 69.3215 113.433 69.9871C113.126 69.2967 112.657 68.6904 112.067 68.2192C111.476 67.748 110.781 67.4257 110.039 67.2796C110.814 67.0314 111.515 66.5946 112.079 66.0086C112.643 65.4226 113.052 64.7057 113.27 63.9223ZM277.886 132.891C276.081 126.682 275.829 120.906 275.107 121.628C272.832 123.884 267.887 128.361 267.887 128.379C267.887 128.397 274.475 131.556 277.417 133.216C277.489 133.27 277.941 133.054 277.886 132.891ZM268.591 128.271C271 126.407 273.219 124.309 275.215 122.007C275.424 125.584 276.11 129.117 277.255 132.512C274.294 130.942 271.479 129.985 268.591 128.271ZM260.775 132.133C260.281 133.912 259.902 135.721 259.638 137.548C259.638 137.927 260.143 138.09 260.215 137.711C260.688 135.874 260.966 133.992 261.046 132.097C261.032 132.07 261.011 132.048 260.984 132.034C260.958 132.02 260.927 132.015 260.897 132.019C260.868 132.023 260.84 132.036 260.818 132.056C260.796 132.077 260.781 132.104 260.775 132.133ZM258.212 145.454C258.796 143.689 259.231 141.877 259.511 140.039C259.511 139.804 259.187 139.786 259.114 140.039C258.535 141.769 258.1 143.544 257.815 145.346C257.817 145.391 257.834 145.435 257.862 145.471C257.891 145.506 257.93 145.532 257.974 145.544C258.018 145.556 258.065 145.554 258.108 145.537C258.15 145.521 258.187 145.492 258.212 145.454ZM264.728 140.96C264.795 140.981 264.868 140.977 264.933 140.948C264.997 140.919 265.049 140.867 265.078 140.802C265.107 140.738 265.111 140.665 265.09 140.597C265.069 140.53 265.023 140.473 264.963 140.436C263.535 139.711 261.999 139.223 260.414 138.992C259.096 139.01 263.825 140.815 264.728 140.96ZM257.923 137.981C256.353 137.548 254.8 136.989 253.23 136.574C252.887 136.574 251.66 136.916 257.743 138.649C257.831 138.673 257.926 138.661 258.005 138.615C258.085 138.57 258.143 138.494 258.167 138.406C258.191 138.317 258.178 138.223 258.133 138.143C258.087 138.063 258.012 138.005 257.923 137.981ZM212.202 161.284C209.621 162.602 207.455 166.916 208.43 169.713C208.43 169.713 208.574 169.84 208.61 169.858C212.942 170.291 239.295 170.255 247.996 170.074C248.058 170.073 248.118 170.054 248.171 170.021C248.223 169.988 248.266 169.94 248.294 169.885C248.321 169.829 248.333 169.767 248.329 169.705C248.324 169.643 248.302 169.584 248.266 169.533C248.546 168.322 248.431 167.054 247.937 165.914C247.443 164.773 246.597 163.821 245.523 163.197C244.319 162.739 243.03 162.544 241.745 162.625C240.459 162.705 239.205 163.061 238.068 163.667C239.314 161.446 238.068 158.992 236.552 157.078C234.747 154.732 232.761 152.476 229.639 152.259C226.878 151.888 224.076 152.529 221.751 154.064C219.459 155.977 219.657 158.793 220.054 161.446C218.321 159.082 214.531 160.093 212.202 161.284ZM221.823 154.966C222.766 154.106 223.881 153.456 225.093 153.058C226.306 152.661 227.589 152.525 228.858 152.659C230.127 152.794 231.354 153.197 232.456 153.84C233.558 154.484 234.511 155.353 235.252 156.392C236.913 158.45 239.187 161.338 237.184 163.937C236.949 164.244 237.743 164.19 237.761 164.172C245.613 161.699 247.617 164.389 247.743 169.406C239.115 169.894 210.632 169.244 208.665 169.533C208.105 160.959 217.69 158.703 220.343 162.566C220.451 162.728 220.686 162.566 220.523 162.259C220.271 159.84 219.982 156.844 221.823 154.966ZM240.613 185.471C240.812 185.345 240.613 185.038 240.523 185.092C237.454 186.175 235.667 181.807 235.541 181.626C235.415 181.446 235.216 181.626 235.27 181.735C236.119 183.865 235.866 186.373 233.465 187.276C233.433 187.287 233.406 187.308 233.386 187.335C233.367 187.363 233.356 187.396 233.356 187.429C233.356 187.463 233.367 187.496 233.386 187.524C233.406 187.551 233.433 187.572 233.465 187.583C234.479 187.432 235.514 187.642 236.388 188.176C237.262 188.711 237.921 189.536 238.249 190.507C238.249 190.724 238.682 190.687 238.664 190.507C238.646 190.326 238.14 186.915 240.613 185.471ZM238.176 189.261C237.772 188.669 237.235 188.18 236.609 187.832C235.982 187.484 235.283 187.288 234.566 187.258C235.136 186.808 235.576 186.215 235.842 185.54C236.108 184.865 236.191 184.131 236.083 183.413C236.448 184.061 236.97 184.606 237.601 185C238.231 185.394 238.95 185.624 239.693 185.67C239.216 186.139 238.837 186.698 238.577 187.315C238.317 187.931 238.181 188.592 238.176 189.261ZM169.911 255.722C174.045 243.195 184.044 232.257 194.893 225.037C195.235 224.802 194.893 224.26 194.568 224.477C172.077 239.44 168.558 259.945 169.911 255.722ZM163.052 242.96C169.207 233.556 175.146 229.784 184.983 224.531C185.362 224.333 184.983 223.773 184.658 223.972C176.301 228.141 167.077 234.188 162.872 242.852C162.865 242.875 162.865 242.9 162.874 242.923C162.883 242.945 162.899 242.965 162.919 242.977C162.94 242.99 162.965 242.995 162.989 242.992C163.013 242.989 163.035 242.977 163.052 242.96ZM191.066 216.986C191.914 216.878 191.192 215.633 183.521 217.383C167.15 220.993 163.359 228.538 164.244 227.564C172.131 218.936 183.756 217.925 191.066 216.986ZM25.5474 183.233C22.9843 184.587 20.9807 182.547 20.2948 180.236C20.2948 180.056 19.9158 180.074 19.9338 180.236C20.4031 185.904 29.0672 185.76 27.8036 178.431C26.9131 174.742 25.3992 171.232 23.3272 168.053C18.7606 160.273 14.7174 157.439 15.5296 158.45C20.2226 164.28 31.9371 179.875 25.5474 183.233ZM46.6298 193.269C47.7128 192.601 47.1171 190.904 47.2254 189.875C47.2254 189.622 46.8464 189.586 46.7922 189.875C46.7232 190.402 46.6811 190.932 46.6659 191.464C46.3049 193.269 44.5721 192.781 43.3627 192.204C41.493 191.108 39.9142 189.579 38.76 187.745C36.4315 184.514 34.4099 181.031 32.3883 177.619C19.7533 156.555 18.8509 157.873 19.1035 158.179C25.3127 166.248 30.114 175.11 35.4749 183.738C37.4784 186.987 39.6625 191.066 43.3266 192.763C44.175 193.16 45.7273 193.81 46.6298 193.269ZM27.0455 163.829C26.9192 163.667 26.6484 163.829 26.7568 164.046C35.4388 176.464 34.049 172.258 27.0455 163.829ZM7.55155 151.356C3.68885 157.187 10.4395 159.894 10.4395 159.894C9.94456 159.17 9.74891 158.283 9.8936 157.418C10.0383 156.554 10.5121 155.778 11.2157 155.255C11.7346 155.611 12.2774 155.931 12.8402 156.212C14.5315 155.626 16.0425 154.612 17.2263 153.27C17.0325 152.602 16.7725 151.955 16.4502 151.338C17.2047 150.836 18.1261 150.649 19.017 150.817C19.9078 150.986 20.697 151.497 21.2154 152.241C21.2154 152.241 21.2154 144.732 13.9954 146.519C5.9451 132.386 -6.63575 127.657 6.27 149.227C6.61295 149.949 7.0642 150.653 7.55155 151.356ZM5.85485 137.079C7.8945 139.353 12.0821 141.628 16.8112 153.017C15.609 154.126 14.2896 155.1 12.8763 155.923C4.7899 147.295 5.2953 145.617 1.84775 139.949L5.85485 137.079ZM48.3084 105.401C44.6984 105.943 39.0307 109.878 40.4025 114.155C39.2611 113.233 37.8526 112.703 36.3861 112.645C34.9196 112.586 33.4734 113.002 32.262 113.831C30.787 114.962 29.7152 116.538 29.2049 118.326C28.6946 120.114 28.7729 122.018 29.4281 123.758H61.7557C64.8422 123.758 65.8711 109.715 55.1133 113.975C55.5337 112.943 55.6722 111.819 55.5146 110.716C55.357 109.613 54.909 108.572 54.2164 107.699C53.5239 106.827 52.6118 106.154 51.5736 105.75C50.5355 105.346 49.4086 105.226 48.3084 105.401ZM54.7703 114.679C60.4741 111.069 65.9974 117.152 61.8279 123.397C61.8279 123.397 31.5761 122.964 29.9335 123.289C27.1177 114.264 36.8467 109.896 40.8899 115.311C41.0162 115.491 40.8899 114.715 40.7455 114.516C39.0668 108.524 49.2651 102.748 53.6151 107.567C56.5031 110.744 53.922 115.238 54.7703 114.679ZM19.1035 65.9078C18.9961 66.0917 18.9306 66.2971 18.9119 66.5094C18.8932 66.7216 18.9216 66.9353 18.9952 67.1352C18.3274 67.8752 19.4826 70.0051 21.2154 68.8319C24.239 70.0934 27.4321 70.9023 30.6916 71.2325C29.7711 74.1566 27.6592 81.8279 30.2945 83.3802C32.9298 84.9325 36.594 76.1602 37.677 73.5429C38.4427 73.279 39.1527 72.8751 39.7708 72.3516C44.3736 72.7307 54.4274 73.0556 51.3408 68.5611C50.0954 66.7561 42.9656 65.4024 40.7996 65.0594C42.009 61.3592 45.258 50.2765 39.861 52.4244C37.5687 53.3089 35.3846 58.6878 33.8685 62.4602C32.8886 62.6872 31.9935 63.188 31.2873 63.9042C28.3451 63.6154 20.3129 63.2003 19.1035 65.9078ZM40.944 65.4746C43.0378 65.7995 50.2037 67.2796 50.9618 68.7777C53.0195 72.7126 44.5179 71.9906 40.3303 71.756C41.1611 70.9519 41.6789 69.8787 41.7913 68.728C41.9038 67.5774 41.6034 66.4242 40.944 65.4746ZM39.9693 52.8396C44.3735 51.558 41.5216 60.6372 40.2401 64.7345C39.502 63.916 38.5863 63.2774 37.5632 62.8675C36.5401 62.4577 35.4368 62.2875 34.3377 62.37C35.15 60.3664 37.9658 53.3811 39.9693 52.8035V52.8396ZM37.0633 73.7776C32.0273 87.5678 26.865 85.1852 31.1068 71.4852C31.7197 72.4574 32.6326 73.2035 33.7073 73.6106C34.782 74.0177 35.9601 74.0637 37.0633 73.7415V73.7776ZM31.0165 64.3374C30.3802 65.2604 30.0057 66.3383 29.9326 67.457C29.8595 68.5756 30.0906 69.6932 30.6014 70.691C30.6014 70.691 23.0926 69.5178 21.5764 68.4889C22.172 67.9294 21.7569 66.3771 19.5729 66.6839C19.2119 65.6912 20.6558 65.1316 21.2876 64.8789C24.4595 64.0386 27.7675 63.8422 31.0165 64.3013V64.3374ZM17.5874 43.0565C18.4492 43.4254 19.2057 44.003 19.7886 44.7372C20.3716 45.4714 20.7626 46.3391 20.9266 47.2621C21.4139 48.291 20.9266 43.2009 23.7965 42.9843C23.9229 42.9843 23.9951 42.7677 23.7965 42.6955C22.533 42.0457 20.7822 41.8471 19.6631 36.8653C19.6631 36.5765 19.0855 36.7209 19.2299 36.9917C20.349 39.1577 17.5512 42.8038 17.5332 42.8038C17.4997 42.811 17.4704 42.8312 17.4518 42.8599C17.4332 42.8887 17.4267 42.9237 17.4339 42.9572C17.4411 42.9907 17.4613 43.02 17.4901 43.0386C17.5188 43.0572 17.5538 43.0637 17.5874 43.0565ZM19.8256 38.9772C20.024 39.8012 20.3997 40.5721 20.9265 41.2361C21.4534 41.9001 22.1186 42.4413 22.876 42.8218C22.325 43.1205 21.8557 43.5499 21.5095 44.0723C21.1633 44.5948 20.9508 45.1943 20.8905 45.8181C20.6849 45.0884 20.2891 44.4264 19.7436 43.8999C19.1981 43.3734 18.5225 43.0014 17.7859 42.8218C18.9061 41.8273 19.6302 40.4623 19.8256 38.9772ZM17.3346 23.4903C20.5715 22.7531 23.7554 21.8004 26.865 20.6384C28.7964 21.6131 21.2334 13.4184 18.3635 11.4329C18.2372 11.3426 18.0928 11.5412 18.183 11.6495C17.6234 15.4789 17.2619 19.3347 17.1 23.2015C17.1 23.2015 17.2624 23.4903 17.3346 23.4903ZM18.3815 11.83C24.4824 17.9489 24.1214 18.2377 26.4318 20.2593C23.4716 21.216 20.5475 22.4614 17.5332 23.1834C17.7498 19.3749 18.0205 15.5844 18.3815 11.8119V11.83ZM16.721 118.433C16.7521 118.472 16.7971 118.496 16.8462 118.501C16.8953 118.506 16.9444 118.491 16.9827 118.46C17.021 118.429 17.0453 118.384 17.0504 118.335C17.0555 118.286 17.0409 118.237 17.0098 118.199C16.853 117.302 16.9247 116.381 17.2181 115.52C17.5115 114.659 18.0171 113.885 18.6884 113.271C18.905 113.072 18.6884 112.657 18.4898 112.802C15.5296 114.444 13.4539 111.123 13.4178 110.997C13.3817 110.87 13.0387 110.997 13.111 111.123C14.5008 114.733 12.3889 116.087 11.4684 116.538C11.3781 116.538 11.4684 116.755 11.4684 116.719C12.3994 116.293 13.4562 116.234 14.4292 116.551C15.4022 116.869 16.2202 117.541 16.721 118.433ZM13.8149 112.224C14.3189 112.79 14.9629 113.212 15.6821 113.45C16.4014 113.688 17.1706 113.732 17.9123 113.578C16.958 114.637 16.4361 116.015 16.4502 117.441C16.0187 116.967 15.4814 116.603 14.8823 116.377C14.2831 116.151 13.6391 116.07 13.0026 116.141C13.4615 115.612 13.777 114.974 13.9192 114.288C14.0614 113.603 14.0255 112.892 13.8149 112.224ZM39.139 153.017C39.0488 153.017 39.139 153.198 39.139 153.198C40.0387 152.742 41.0792 152.651 42.0441 152.944C43.0091 153.236 43.824 153.89 44.3194 154.768C44.4458 154.948 44.6984 154.768 44.6082 154.533C44.4754 153.638 44.5585 152.723 44.8504 151.866C45.1424 151.009 45.6349 150.234 46.2868 149.606C46.4854 149.407 46.2868 149.028 46.0883 149.136C45.638 149.358 45.1478 149.487 44.6468 149.516C44.1457 149.545 43.6439 149.474 43.171 149.305C42.6981 149.137 42.2638 148.876 41.8937 148.537C41.5236 148.197 41.2252 147.788 41.0162 147.331C41.0162 147.169 40.6372 147.331 40.7094 147.458C42.2256 151.068 40.0776 152.476 39.139 153.017ZM41.4855 148.559C41.9895 149.124 42.6335 149.547 43.3528 149.785C44.0721 150.022 44.8412 150.066 45.5829 149.912C44.7213 151.021 44.2289 152.372 44.175 153.775C43.751 153.292 43.2148 152.921 42.6136 152.695C42.0123 152.468 41.3646 152.393 40.7274 152.476C41.1771 151.941 41.4827 151.301 41.6154 150.616C41.7481 149.93 41.7034 149.222 41.4855 148.559ZM6.7393 174.027C6.77042 174.066 6.81547 174.09 6.86455 174.095C6.91364 174.1 6.96273 174.085 7.00102 174.054C7.03932 174.023 7.06369 173.978 7.06877 173.929C7.07384 173.88 7.05922 173.831 7.0281 173.793C6.64905 171.861 7.0281 171.067 8.74285 168.901C8.92335 168.684 8.74285 168.323 8.5443 168.432C8.09362 168.659 7.60158 168.793 7.09788 168.824C6.59418 168.856 6.08925 168.786 5.61356 168.617C5.13787 168.448 4.70129 168.185 4.33017 167.843C3.95904 167.501 3.66105 167.087 3.4542 166.627C3.4542 166.464 3.0932 166.627 3.1654 166.753C3.4396 167.218 3.61493 167.734 3.6804 168.269C3.74587 168.804 3.70007 169.347 3.54587 169.864C3.39166 170.381 3.13238 170.861 2.78427 171.273C2.43616 171.684 2.00671 172.02 1.52285 172.258V172.439C2.43156 171.992 3.47617 171.908 4.44485 172.203C5.41354 172.498 6.2338 173.15 6.7393 174.027ZM3.8513 167.89C4.35248 168.454 4.99337 168.876 5.70948 169.114C6.42558 169.352 7.19165 169.396 7.9306 169.244C7.44387 169.763 7.06422 170.373 6.81335 171.039C6.56248 171.705 6.44531 172.414 6.46855 173.125C6.04068 172.651 5.50717 172.285 4.91131 172.056C4.31545 171.827 3.67402 171.742 3.03905 171.807C3.49486 171.276 3.80848 170.639 3.95055 169.953C4.09261 169.268 4.05846 168.559 3.8513 167.89ZM20.1685 224.17C24.7216 225.629 28.8864 228.097 32.3522 231.39C35.4966 234.66 38.4439 238.114 41.1787 241.733C41.3592 241.949 41.6841 241.733 41.5397 241.462C36.9911 233.538 29.1574 226.3 20.2046 224.026C20.1143 224.008 20.0963 224.152 20.1685 224.17ZM41.0162 228.448C41.2148 228.556 41.4494 228.268 41.2689 228.123C37.9902 225.023 33.732 223.166 29.2296 222.871C29.031 222.871 29.031 223.177 29.2296 223.195C33.8143 223.52 37.2979 226.065 41.0162 228.448ZM41.7383 220.975C38.5252 218.722 34.7918 217.322 30.8891 216.909C26.9863 216.495 23.0425 217.081 19.4285 218.611C19.3021 218.611 19.4285 218.882 19.4285 218.845C23.0583 217.612 26.9145 217.189 30.7254 217.607C34.5363 218.025 38.2092 219.273 41.4855 221.264C41.5238 221.298 41.5739 221.315 41.6247 221.311C41.6754 221.308 41.7228 221.284 41.7563 221.246C41.7898 221.208 41.8067 221.158 41.8033 221.107C41.8 221.056 41.7765 221.009 41.7383 220.975ZM225.036 265.866C223.989 268.357 221.733 273.248 221.715 273.284C219.454 281.261 217.682 289.369 216.408 297.561C216.408 297.561 220.018 298.229 220.018 298.193C222.509 290.143 223.881 281.696 226.119 273.609C226.119 273.609 225.325 265.992 225.343 265.956C225.361 265.92 225.09 265.703 225.036 265.866ZM225.198 266.335C225.162 266.864 225.162 267.395 225.198 267.923H224.621C224.874 267.328 225.036 266.822 225.198 266.335ZM216.625 297.273C217.672 292.868 221.462 276.984 222.04 273.465C222.04 273.465 223.159 273.338 223.718 273.338C221.498 281.244 218.123 297.435 218.123 297.453C217.632 297.335 217.129 297.274 216.625 297.273ZM219.874 297.742L218.448 297.507C220.253 289.475 223.989 273.338 223.989 273.32C224.605 273.395 225.211 273.54 225.794 273.753C224.26 277.4 220.866 293.59 219.874 297.742ZM222.022 273.104C222.978 271.568 223.805 269.956 224.494 268.284C224.757 268.373 225.03 268.428 225.307 268.447C225.307 268.718 225.596 272.057 225.74 273.356C224.513 273.137 223.267 273.052 222.022 273.104ZM219.549 298.392C218.469 298.173 217.378 298.01 216.282 297.904C216.155 297.904 216.083 298.085 216.282 298.157C217.318 298.527 218.398 298.764 219.495 298.861C219.729 298.933 219.856 298.446 219.549 298.392ZM216.065 299.096C216.913 299.836 218.213 299.493 219.188 299.908C219.221 299.93 219.258 299.945 219.297 299.951C219.336 299.957 219.376 299.954 219.414 299.944C219.452 299.933 219.487 299.913 219.517 299.888C219.547 299.862 219.57 299.829 219.586 299.793C219.602 299.757 219.61 299.718 219.61 299.678C219.609 299.639 219.6 299.6 219.582 299.565C219.565 299.529 219.54 299.498 219.509 299.473C219.479 299.448 219.443 299.43 219.404 299.421C218.863 299.24 215.65 298.663 216.065 299.096ZM246.624 283.789C245.619 283.573 244.57 283.726 243.668 284.219C242.766 284.713 242.073 285.515 241.714 286.479C240.216 291.894 248.573 294.024 249.728 288.663C249.955 287.605 249.756 286.502 249.175 285.59C248.594 284.678 247.678 284.031 246.624 283.789ZM242.4 285.883C243.23 284.078 246.01 283.97 246.534 284.078C247.378 284.345 248.107 284.89 248.602 285.624C249.097 286.358 249.329 287.238 249.259 288.121C248.916 293.771 239.909 291.172 242.4 285.883ZM263.176 295.738C263.374 292.507 262.562 289.944 262.418 290.991C262.231 292.604 262.298 294.236 262.616 295.829C262.688 296.135 263.158 296.045 263.176 295.738ZM263.121 303.987C263.121 304.33 263.717 304.24 263.717 303.897C263.728 302.413 263.589 300.931 263.302 299.475C262.779 298.175 262.905 302.561 263.121 303.987ZM268.176 296.37C260.956 297.543 263.464 297.886 268.356 297.02C268.789 296.948 268.591 296.298 268.176 296.37ZM261.876 297.489C260.443 297.509 259.013 297.636 257.598 297.868C257.566 297.879 257.539 297.9 257.519 297.928C257.5 297.955 257.489 297.988 257.489 298.022C257.489 298.055 257.5 298.088 257.519 298.116C257.539 298.143 257.566 298.164 257.598 298.175C259.049 298.375 260.524 298.302 261.948 297.959C261.979 297.954 262.009 297.943 262.035 297.927C262.062 297.911 262.085 297.889 262.104 297.864C262.122 297.839 262.135 297.811 262.143 297.78C262.15 297.75 262.152 297.719 262.147 297.688C262.142 297.657 262.131 297.627 262.115 297.601C262.099 297.574 262.078 297.551 262.053 297.532C262.027 297.514 261.999 297.501 261.969 297.493C261.938 297.486 261.907 297.485 261.876 297.489Z" fill="#5669FF"/>
<path d="M10.1327 149.552C10.1699 149.863 10.3199 150.15 10.5544 150.358C10.789 150.566 11.0917 150.681 11.4053 150.681C11.7189 150.681 12.0216 150.566 12.2561 150.358C12.4906 150.15 12.6406 149.863 12.6778 149.552C12.6778 148.848 10.1327 147.855 10.1327 149.552ZM7.35304 145.22C7.39047 145.536 7.54254 145.827 7.7804 146.038C8.01827 146.25 8.32541 146.366 8.64361 146.366C8.96181 146.366 9.26895 146.25 9.50682 146.038C9.74469 145.827 9.89675 145.536 9.93419 145.22C9.89675 144.904 9.74469 144.612 9.50682 144.401C9.26895 144.19 8.96181 144.073 8.64361 144.073C8.32541 144.073 8.01827 144.19 7.7804 144.401C7.54254 144.612 7.39047 144.904 7.35304 145.22ZM4.14014 141.194C4.14014 141.534 4.27516 141.86 4.51549 142.101C4.75583 142.341 5.0818 142.476 5.42169 142.476C5.76157 142.476 6.08754 142.341 6.32788 142.101C6.56822 141.86 6.70324 141.534 6.70324 141.194C6.70324 140.49 4.14014 139.498 4.14014 141.194ZM93.632 116.881C93.9432 116.881 94.2416 116.757 94.4617 116.537C94.6817 116.317 94.8053 116.019 94.8053 115.708C94.8053 115.397 94.6817 115.098 94.4617 114.878C94.2416 114.658 93.9432 114.535 93.632 114.535C92.91 114.535 92.0797 116.881 93.632 116.881ZM103.126 121.267C103.146 121.11 103.133 120.949 103.086 120.797C103.04 120.645 102.961 120.505 102.856 120.386C102.751 120.267 102.622 120.171 102.477 120.106C102.332 120.04 102.175 120.006 102.016 120.006C101.857 120.006 101.7 120.04 101.555 120.106C101.411 120.171 101.281 120.267 101.176 120.386C101.071 120.505 100.993 120.645 100.946 120.797C100.9 120.949 100.886 121.11 100.906 121.267C100.906 121.935 103.126 122.765 103.126 121.267Z" fill="#5669FF"/>
</svg>
