<svg width="341" height="285" viewBox="0 0 341 285" fill="none" xmlns="http://www.w3.org/2000/svg">
<path d="M78.5722 216.095C79.2505 216.203 82.9633 216.382 82.9633 215.736C82.9633 215.359 82.285 215.377 82.285 215.377C82.3743 212.505 85.9978 211.787 88.5861 213.295C89.2995 213.708 89.9591 214.208 90.5496 214.785C86.8903 214.982 82.0351 217.495 82.3564 221.139C82.541 222.089 82.9371 222.985 83.5153 223.759C84.0934 224.533 84.8384 225.165 85.6944 225.608C86.7644 226.414 87.9831 226.997 89.2794 227.323C90.5758 227.65 91.9238 227.714 93.2449 227.511C95.5979 226.908 97.6683 225.499 99.0997 223.526C102.335 223.63 105.501 222.567 108.025 220.529C108.131 220.444 108.219 220.338 108.284 220.217C108.348 220.097 108.388 219.965 108.4 219.829C108.4 219.2 108.4 219.236 104.83 215.251C104.729 215.138 104.602 215.051 104.46 214.997C104.319 214.943 104.166 214.924 104.016 214.941C103.865 214.959 103.721 215.012 103.596 215.098C103.47 215.183 103.367 215.297 103.294 215.431C103.233 215.509 103.179 215.593 103.134 215.682C102.85 216.218 102.392 216.638 101.836 216.874C101.28 217.109 100.66 217.145 100.082 216.975C98.2965 216.454 95.9938 211.697 91.7991 208.861C88.1398 206.384 83.2311 205.648 79.7682 208.592C78.2778 209.878 77.2181 211.596 76.7337 213.51C76.541 214.1 76.5793 214.742 76.8408 215.305C77.3096 215.762 77.9216 216.041 78.5722 216.095ZM85.2838 222.754C84.7945 222.403 84.4548 221.879 84.3324 221.287C84.21 220.695 84.3139 220.078 84.6234 219.559C85.415 218.459 86.5151 217.622 87.7828 217.154C86.7601 218.898 85.9225 220.745 85.2838 222.665V222.754ZM102.099 219.918C102.527 218.626 102.099 219.075 102.813 218.752C103.354 218.481 103.843 218.116 104.258 217.675L105.883 219.613C104.538 220.471 103.05 221.079 101.492 221.408C101.67 220.941 101.956 220.223 102.099 219.829V219.918ZM95.6368 215.341C97.3326 217.477 98.7428 219.38 101.331 219.164C100.962 219.937 100.663 220.742 100.438 221.57C99.1355 221.659 98.957 221.354 98.4393 221.57C97.4218 221.965 95.7439 225.644 91.6741 225.626C91.9275 225.057 92.0901 224.451 92.1561 223.831C93.3077 223.598 94.3857 223.086 95.2977 222.342C95.6886 222.001 95.9424 221.529 96.0117 221.013C96.0117 220.385 95.7975 219.577 94.4766 218.518C94.9687 217.47 95.3573 216.376 95.6368 215.251V215.341ZM89.6392 222.126C88.0684 221.283 90.7459 219.793 92.4774 219.847C92.8752 219.85 93.2641 219.966 93.5989 220.182C93.9338 220.398 94.2009 220.705 94.3695 221.067C94.131 221.453 93.8167 221.786 93.4457 222.046C93.0747 222.305 92.655 222.486 92.2121 222.577C91.7693 222.668 91.3126 222.667 90.8702 222.574C90.4278 222.481 90.0089 222.298 89.6392 222.036V222.126ZM91.7455 211.141C92.9577 212.177 94.0585 213.338 95.0299 214.605C94.4651 215.641 94.0333 216.745 93.7447 217.89C92.9946 217.673 92.2083 217.614 91.4344 217.716C90.6606 217.818 89.9159 218.079 89.2465 218.482C85.98 220.277 86.7475 224.208 91.2814 223.76C91.015 224.276 90.817 224.825 90.6924 225.393C88.8823 225.03 87.1897 224.223 85.7658 223.042C87.0312 221.065 88.0165 218.92 88.6932 216.669C89.3871 216.349 90.1378 216.171 90.9011 216.146C91.6644 216.122 92.4249 216.251 93.1378 216.526L93.5127 215.108L93.12 214.928C92.2811 214.354 91.9062 213.905 90.9423 213.133C91.3001 212.478 91.5701 211.778 91.7455 211.051V211.141ZM84.8197 208.269C87.0535 208.31 89.2165 209.064 90.9958 210.423C90.6762 211.154 90.4368 211.919 90.2818 212.702C89.4262 212.027 88.4169 211.577 87.3449 211.392C86.2729 211.207 85.1719 211.293 84.1414 211.643C84.5181 210.554 84.7463 209.419 84.8197 208.269ZM80.7321 209.669C81.7216 208.895 82.9108 208.421 84.1593 208.305C83.6054 209.511 83.2613 210.804 83.1418 212.128C82.61 212.449 82.1747 212.909 81.8824 213.459C81.59 214.009 81.4516 214.628 81.4818 215.251C80.2312 215.321 78.9797 215.131 77.8047 214.695C78.0702 212.701 79.1099 210.894 80.6964 209.669H80.7321ZM54.0642 206.671C50.8512 205.271 43.7112 209.418 42.4081 211.643C42.2197 212.134 42.2197 212.678 42.4081 213.169C43.5327 217.459 54.0285 232.609 55.9741 234.96C56.3133 235.391 56.7774 234.799 56.4739 234.296C55.5457 232.753 55.6528 235.858 60.4009 220.403C60.8408 220.23 61.2505 219.987 61.6147 219.685C61.7803 219.5 61.872 219.26 61.872 219.012C61.872 218.763 61.7803 218.523 61.6147 218.339C61.4527 218.137 61.2669 217.956 61.0614 217.8L62.1859 213.618L66.6484 216.095C65.746 218.363 65.0877 220.722 64.6849 223.131C62.8852 223.784 61.1987 224.717 59.6869 225.896C58.6338 227.062 60.2938 229.216 61.3291 230.509C62.3644 231.801 63.2391 232.681 63.4354 232.878C63.6318 233.076 64.2565 232.878 64.203 232.555C64.0897 232.295 63.9393 232.053 63.7567 231.837C62.7895 230.323 61.9592 228.725 61.2756 227.062C62.6629 226.228 64.1275 225.53 65.6488 224.98C66.2022 224.783 67.9158 224.244 68.3799 224.531C70.6699 225.745 73.0586 226.759 75.5199 227.565C75.6193 227.613 75.7335 227.619 75.8372 227.582C75.941 227.544 76.0259 227.468 76.0732 227.368C76.1206 227.268 76.1265 227.153 76.0897 227.048C76.0529 226.944 75.9763 226.859 75.8769 226.811L72.7888 224.926C73.4463 223.427 73.8678 221.835 74.0383 220.206L81.6603 224.352C82.1244 224.621 82.4814 223.885 82.1422 223.688C81.8031 223.49 58.6695 208.7 54.0642 206.671ZM51.351 208.574C51.9739 208.386 52.638 208.386 53.2609 208.574C53.6715 208.753 54.6711 209.292 56.0277 210.046C55.5701 211.316 55.2587 212.635 55.0995 213.977C53.9035 213.295 53.1895 212.774 52.2435 212.936C51.7278 213.052 51.2455 213.285 50.8333 213.618C51.0118 212.218 51.1725 211.141 51.351 208.574ZM44.211 212.523C46.0623 210.748 48.3082 209.443 50.7619 208.718C49.8093 212.952 49.1414 217.245 48.7627 221.57C46.9628 218.703 45.4443 215.667 44.2288 212.505L44.211 212.523ZM52.3149 227.619C51.3331 225.985 50.2621 224.172 49.2447 222.395C49.8516 219.829 50.0479 218.644 50.4228 216.221C51.3994 217.924 52.5287 219.534 53.7964 221.031C53.0768 223.168 52.5861 225.377 52.3327 227.619H52.3149ZM55.4386 232.788C54.796 231.765 53.9749 230.383 52.9039 228.606C53.5816 226.354 54.0301 224.039 54.2427 221.695C54.6354 222.647 58.134 221.283 59.08 220.924C58.3839 223.131 55.9563 230.814 55.4565 232.788H55.4386ZM54.9031 221.139C53.7969 219.214 52.819 217.217 51.9757 215.162L52.5291 214.856C52.779 215 58.8837 218.626 59.3299 218.913C57.9388 219.803 56.4616 220.549 54.921 221.139H54.9031ZM60.2581 217.19C58.9194 216.292 57.0987 215.197 55.7064 214.39C56.1828 213.119 56.4947 211.792 56.6346 210.441L61.704 213.313C61.6147 213.995 61.0078 215.395 60.3652 217.19H60.2581ZM72.0748 224.37L69.3259 222.701C68.1045 222.216 66.7454 222.216 65.5239 222.701C66.2157 220.602 66.7176 218.446 67.0233 216.257L73.485 219.847C72.8248 221.31 72.3856 222.865 72.1819 224.46L72.0748 224.37Z" fill="#5669FF"/>
<path d="M338.915 230.76C336.023 203.691 311.104 162.065 296.217 139.323C304.53 139.991 312.872 140.201 321.207 139.951C323.581 139.951 329.793 139.52 330.989 139.287C331.685 139.143 331.792 138.479 330.739 138.443C329.686 138.407 322.189 138.048 321.172 138.03H303.018C300.234 138.138 295.878 138.389 295.628 138.389C290.273 130.186 286.543 125.053 286.507 125.035C286.466 124.993 286.417 124.96 286.362 124.939C286.307 124.918 286.249 124.909 286.191 124.912C286.132 124.916 286.075 124.932 286.024 124.959C285.972 124.987 285.927 125.025 285.891 125.071C285.855 125.118 285.829 125.171 285.816 125.228C285.802 125.285 285.801 125.345 285.812 125.403C285.823 125.46 285.846 125.515 285.88 125.563C285.913 125.611 285.957 125.651 286.007 125.681C286.828 126.345 322.903 179.351 333.934 215.862C338.308 230.347 340.896 248.531 326.794 253.557C293.308 265.583 31.0378 269.496 6.24416 255.352C2.79911 253.395 1.99586 249.32 2.67416 243.828C3.72731 236.199 7.81496 225.878 12.7416 214.318C18.2929 219.703 64.3459 262.226 71.8072 260.629C79.2685 259.031 121.234 239.43 122.965 235.678C123.971 233.073 124.503 230.306 124.536 227.511C124.747 227.219 124.846 226.859 124.813 226.499C124.78 226.139 124.618 225.803 124.358 225.555C121.591 222.79 66.7021 179.028 63.1678 179.154C60.7045 179.262 56.242 181.81 54.1179 183.067C53.4292 181.934 52.4038 181.047 51.1867 180.532C49.9695 180.016 48.6222 179.898 47.3349 180.195C46.1211 180.688 45.0343 181.451 44.1563 182.427C43.2782 183.404 42.6317 184.567 42.2655 185.831C42.2855 185.928 42.3381 186.015 42.4145 186.078C42.4909 186.14 42.5864 186.175 42.6849 186.175C42.7835 186.175 42.879 186.14 42.9554 186.078C43.0318 186.015 43.0844 185.928 43.1044 185.831C44.178 184.005 45.88 182.639 47.8882 181.99C48.7232 181.861 49.5774 181.973 50.3516 182.313C51.1258 182.653 51.788 183.207 52.2615 183.911L32.4123 192.437C31.3583 191.347 30.0426 190.55 28.5924 190.121C25.2009 189.224 22.9161 191.468 21.5595 194.752C21.5296 194.847 21.533 194.949 21.5692 195.041C21.6054 195.133 21.6721 195.21 21.7581 195.259C21.8441 195.307 21.9441 195.324 22.0412 195.307C22.1384 195.29 22.2267 195.24 22.2913 195.165C24.5761 191.844 27.2179 190.714 30.3774 193.37C26.5575 195.075 21.2203 197.499 17.4718 199.366C17.7396 198.935 56.2599 128.786 56.2599 128.607C57.9556 125.447 61.365 119.793 64.8814 119.057C66.4708 118.709 68.0921 118.528 69.7188 118.519C67.2376 122.647 47.1028 156.214 47.0671 160.953C47.0671 166.338 47.9953 165.494 50.8513 166.338C53.7073 167.181 213.518 166.194 213.804 166.194C216.571 166.194 227.388 165.835 228.387 165.099C231.493 162.801 230.797 159.373 229.441 155.765C229.119 154.903 227.495 151.331 225.317 146.557C234.688 143.721 241.739 147.328 242.382 162.712C243.024 176.013 237.812 180.069 227.834 179.495C219.819 179.028 214.286 176.659 212.537 179.8C210.573 183.3 216 191.162 218.356 194.429C218.017 194.429 203.076 194.124 199.31 193.963C194.002 193.756 188.688 193.822 183.388 194.16C179.737 194.241 176.108 194.741 172.57 195.65C171.232 196.314 169.5 199.778 168.768 201.232C167.323 204.086 160.736 222 158.915 227.17C157.844 230.15 154.221 240.022 156.648 241.763C156.559 243.684 156.862 246.251 158.54 247.148C160.218 248.046 183.28 248.692 185.048 248.728C188.171 248.818 219.748 249.231 239.901 248.333C260.053 247.436 268.853 245.497 268.336 245.551C268.848 245.399 269.307 245.107 269.664 244.708C270.02 244.309 270.258 243.817 270.353 243.289C270.628 241.962 270.542 240.586 270.103 239.304C272.352 234.907 255.341 198.396 250.629 195.829C250.35 195.672 250.038 195.585 249.718 195.578C248.772 195.578 227.602 194.681 219.373 194.411C217.588 191.88 211.787 182.349 214.018 180.321C217.41 177.341 245.738 192.275 244.22 162.55C243.435 149.106 237.277 141.225 224.782 145.785C223.693 143.415 214.554 123.778 212.108 118.555C221.582 119.125 231.086 118.915 240.525 117.926C240.661 119.602 241.14 121.231 241.933 122.71C242.725 124.19 243.814 125.489 245.131 126.524C252.271 131.909 280.688 131.102 285.847 124.514C287.292 122.526 288.291 120.246 288.775 117.832C289.259 115.418 289.216 112.927 288.649 110.531C289.124 110.227 289.492 109.781 289.702 109.257C289.988 108.7 289.702 108 288.471 107.749C286.882 107.509 285.275 107.413 283.669 107.462C283.669 105.99 283.758 103.243 283.669 100.12C283.829 100.012 284.99 98.6122 285.115 98.4506C286.537 96.779 287.66 94.872 288.435 92.8143C289.024 91.145 289.256 89.2243 287.703 88.2909C285.311 86.9806 283.633 89.3859 282.83 92.0784C282.08 87.9319 280.349 81.8469 276.208 82.4572C269.175 83.5342 274.03 100.676 276.315 107.462C274.308 107.177 272.271 107.177 270.264 107.462C272.495 101.825 273.637 94.5375 267.907 93.4426C267.039 93.2494 266.133 93.3165 265.302 93.6356C264.47 93.9546 263.75 94.5115 263.231 95.2376C263.116 94.8313 262.901 94.461 262.605 94.1612C262.309 93.8615 261.942 93.6421 261.539 93.5237C261.136 93.4054 260.71 93.3918 260.3 93.4844C259.89 93.5769 259.511 93.7725 259.197 94.0529C256.573 95.9556 258.072 100.317 261.124 101.753C260.964 103.599 260.964 105.455 261.124 107.3C259.224 107.069 257.301 107.111 255.412 107.426C255.307 103.043 254.829 98.6771 253.984 94.376C255.069 93.5999 255.981 92.6056 256.664 91.4561C257.346 90.3066 257.783 89.027 257.947 87.6986C258.197 85.3112 257.358 83.3188 255.377 82.7982C252.895 82.152 251.432 83.8932 251.003 86.3882C248.808 83.3367 244.506 82.2418 242.418 85.742C235.724 78.7415 232.493 82.6546 234.189 85.742C235.456 88.1114 238.758 89.4397 241.329 90.1757C241.329 94.1965 243.114 97.589 245.327 101.053C246.809 103.387 248.469 105.631 249.754 107.282C246.976 107.192 244.197 107.373 241.454 107.821C239.776 108.269 239.508 109.49 241.061 110.369C240.57 112.473 240.389 114.639 240.525 116.796C230.937 116.282 221.323 116.51 211.769 117.478C211.162 116.167 209.359 112.344 209.145 111.895C208.931 111.446 210.645 106.241 213.054 57.8477C224.121 56.9143 273.887 58.0272 278.457 56.2502C278.719 56.1556 278.951 55.9927 279.13 55.7783C279.308 55.5638 279.427 55.3054 279.474 55.0296C280.991 50.0215 282.027 6.97743 279.474 2.97458C278.849 1.98733 276.618 1.68218 275.386 1.50268C259.482 -0.830816 193.116 0.174381 189.706 1.98733C186.297 3.80028 187.743 21.499 188.386 25.0172C153.917 23.9043 74.3241 26.0762 66.8271 28.8944C65.0421 29.5406 64.3816 31.9997 64.0246 33.8486C61.0615 49.2317 69.3796 98.7378 72.1642 114.031C71.9857 114.031 72.1642 114.031 69.9865 117.442C68.1433 117.304 66.2901 117.401 64.4709 117.729C60.4011 118.357 56.6526 124.011 54.582 127.53C54.4927 127.709 49.227 136.505 48.4416 137.941C43.9612 137.241 23.1303 137.51 20.4885 137.653C17.8467 137.797 15.1335 137.994 12.7416 138.174C12.3132 138.174 12.2775 139 12.7416 139.018C17.7396 139.323 19.5781 139.43 23.4516 139.484C32.9299 139.628 46.9065 140.023 47.3527 139.969C46.4245 141.602 32.68 166.194 30.8415 169.676C22.8447 184.754 16.5615 198.558 16.1866 199.725C14.1116 200.673 12.1628 201.879 10.3854 203.315C9.81205 204.896 9.46935 206.553 9.36791 208.233C9.27866 211.123 10.314 211.823 11.9026 213.438C7.63986 222.623 4.1354 232.145 1.42466 241.907C0.539706 245.857 0.503192 249.951 1.31756 253.916C2.04639 257.879 3.40872 261.698 5.35166 265.224C6.22442 266.115 7.35541 266.706 8.58251 266.911C13.2771 268.24 27.8248 269.945 32.6979 270.501C32.3305 272.695 32.2286 274.925 32.3944 277.143C32.3992 279.428 32.7298 281.701 33.3762 283.892C33.382 283.946 33.3984 283.999 33.4245 284.047C33.4505 284.094 33.4857 284.137 33.528 284.171C33.5702 284.205 33.6188 284.23 33.6708 284.246C33.7229 284.261 33.7774 284.266 33.8313 284.26C33.8853 284.254 33.9375 284.238 33.9851 284.211C34.0326 284.185 34.0746 284.15 34.1086 284.107C34.1426 284.065 34.1679 284.016 34.1831 283.964C34.1983 283.911 34.2031 283.857 34.1973 283.802C34.4828 281.565 34.5605 279.305 34.4293 277.053C34.4176 274.885 34.1722 272.724 33.6975 270.609C36.1608 270.824 38.5348 271.004 40.6054 271.076C40.2761 273.171 40.1863 275.297 40.3377 277.412C40.3437 279.697 40.6743 281.97 41.3194 284.161C41.3194 284.271 41.3627 284.376 41.4397 284.453C41.5167 284.531 41.6211 284.574 41.73 284.574C41.8389 284.574 41.9433 284.531 42.0203 284.453C42.0973 284.376 42.1405 284.271 42.1405 284.161C42.4357 281.925 42.5194 279.665 42.3904 277.412C42.3782 275.316 42.1388 273.227 41.6764 271.183C45.657 271.273 104.241 276.568 205.414 274.558C232.529 274.02 265.123 272.763 291.969 269.801C291.615 271.966 291.513 274.165 291.666 276.353C291.674 278.634 292.011 280.901 292.665 283.084C292.653 283.144 292.653 283.207 292.668 283.266C292.682 283.326 292.709 283.382 292.748 283.43C292.786 283.478 292.835 283.516 292.89 283.543C292.945 283.569 293.006 283.583 293.067 283.583C293.128 283.583 293.188 283.569 293.244 283.543C293.299 283.516 293.347 283.478 293.386 283.43C293.424 283.382 293.452 283.326 293.466 283.266C293.48 283.207 293.481 283.144 293.469 283.084C293.78 280.849 293.864 278.588 293.718 276.335C293.699 274.118 293.442 271.909 292.951 269.747C294.932 269.532 299.52 268.958 299.912 268.904C299.561 271.057 299.465 273.244 299.627 275.42C299.628 277.705 299.959 279.979 300.609 282.169C300.62 282.278 300.675 282.379 300.76 282.448C300.846 282.517 300.955 282.549 301.064 282.537C301.173 282.525 301.272 282.47 301.341 282.384C301.41 282.298 301.441 282.189 301.43 282.079C301.723 279.848 301.801 277.594 301.662 275.348C301.65 273.136 301.393 270.932 300.894 268.778C308.944 267.683 333.56 264.345 336.915 257.434C340.878 249.554 340.557 239.304 338.915 230.76ZM176.48 201.861C176.676 201.376 182.656 200.066 189.189 201.861C189.249 201.848 189.311 201.849 189.37 201.863C189.429 201.877 189.485 201.905 189.532 201.944C189.58 201.982 189.618 202.031 189.645 202.087C189.671 202.142 189.685 202.203 189.685 202.264C189.685 202.326 189.671 202.387 189.645 202.442C189.618 202.498 189.58 202.547 189.532 202.585C189.485 202.624 189.429 202.651 189.37 202.666C189.311 202.68 189.249 202.681 189.189 202.668C185.936 203.249 182.614 203.334 179.336 202.92C177.801 202.668 175.855 202.65 176.426 201.861H176.48ZM268.246 244.546C251.735 247.705 160.522 246.987 159.147 246.341C157.773 245.694 157.648 243.612 157.612 242.248C167.501 245.479 264.123 242.984 269.496 240.13C269.782 241.71 269.853 244.241 268.193 244.546H268.246ZM233.6 202.058C233.6 201.448 237.527 201.107 237.705 201.089C240.04 200.908 242.385 200.908 244.72 201.089C246.023 201.232 247.826 201.412 247.683 201.968C247.54 202.525 244.845 202.758 244.381 202.83C242.637 202.992 240.885 203.063 239.133 203.045C237.955 203.009 233.475 202.794 233.546 202.058H233.6ZM256.537 208.035C261.003 216.592 264.752 225.508 267.747 234.691C268.127 235.851 268.338 237.06 268.371 238.281C260.321 240.794 167.537 243.379 158.148 240.668C157.701 240.543 157.576 240.668 157.469 239.915C156.791 235.032 164.734 215.628 166.573 211.105C200.345 209.974 256.18 208.233 256.483 208.035H256.537ZM241.507 89.3679C239.555 88.2896 237.784 86.9084 236.259 85.2753C235.563 84.2163 235.724 83.4803 237.777 84.4855C239.062 85.0779 240.865 86.1369 242.078 86.8729C241.766 87.6716 241.574 88.5124 241.507 89.3679ZM284.347 92.581C285.775 89.9962 287.185 89.2602 287.043 90.786C286.275 93.5162 285.185 96.1438 283.794 98.6122C283.687 96.8172 283.562 95.6145 283.419 94.4298C283.49 94.1785 283.847 93.4246 284.294 92.581H284.347ZM276.761 108.197C277.118 109.221 277.35 109.831 277.368 109.867C277.388 109.918 277.417 109.964 277.455 110.003C277.492 110.043 277.537 110.074 277.587 110.096C277.637 110.118 277.691 110.129 277.745 110.13C277.799 110.131 277.853 110.121 277.903 110.1C278.689 109.795 277.528 109.059 275.672 98.2352C275.119 95.0042 273.477 85.042 276.725 84.5753C279.367 84.1804 280.795 90.768 281.295 93.3708C282.221 98.3877 282.817 103.461 283.08 108.556C283.079 108.656 283.113 108.752 283.177 108.828C283.241 108.904 283.33 108.954 283.427 108.97C283.525 108.985 283.625 108.964 283.709 108.912C283.792 108.859 283.854 108.777 283.883 108.682C283.889 108.58 283.889 108.479 283.883 108.377C285.497 108.425 287.101 108.647 288.667 109.041C288.468 109.275 288.217 109.459 287.935 109.58C284.187 111.518 272.852 111.141 268.943 111.069C269.478 109.992 269.853 109.167 270.264 108.18C272.397 108.532 274.572 108.538 276.707 108.197H276.761ZM262.838 104.266C263.248 100.676 264.159 94.9504 267.765 95.6325C271.37 96.3146 270.46 101.574 269.674 105.092C269.19 107.11 268.594 109.1 267.889 111.052H262.534C262.491 108.787 262.575 106.522 262.784 104.266H262.838ZM260.571 95.8299C260.654 95.7504 260.753 95.6892 260.861 95.6503C260.968 95.6114 261.083 95.5957 261.198 95.6042C261.312 95.6126 261.423 95.6451 261.524 95.6994C261.626 95.7538 261.714 95.8288 261.785 95.9197C262.069 96.206 262.326 96.5185 262.552 96.8531C262.045 97.9978 261.691 99.2049 261.499 100.443C260.571 99.1507 259.375 96.7992 260.571 95.8299ZM254.948 84.9163C257.269 85.6523 255.448 91.7912 253.895 93.658C253.466 91.726 252.825 89.8478 251.985 88.0576C252.503 86.478 253.377 84.4137 254.948 84.8984V84.9163ZM250.557 108.395C251.432 109.508 252.003 110.19 252.003 110.19C252.074 110.26 252.168 110.302 252.267 110.308C252.367 110.314 252.465 110.284 252.543 110.222C252.622 110.161 252.676 110.072 252.695 109.974C252.713 109.876 252.696 109.774 252.646 109.687C252.646 109.687 249.486 105.164 246.88 100.479C244.917 96.889 243.042 93.299 243.56 89.332C243.97 86.2087 245.613 84.8804 248.379 86.6934C252.378 89.2782 254.199 105.218 254.77 110.028C254.775 110.154 254.819 110.275 254.896 110.375C254.973 110.475 255.078 110.548 255.198 110.585C255.68 110.585 255.609 110.064 255.591 109.813C255.573 109.562 255.591 108.305 255.591 108.18C257.487 108.421 259.406 108.421 261.303 108.18C261.41 109.49 261.535 110.513 261.624 111.052C255.287 111.052 247.63 111.482 242.382 109.418C245.079 108.881 247.811 108.54 250.557 108.395ZM242.007 111.034C244.618 112.051 247.37 112.657 250.164 112.829C253.324 113.116 274.833 113.152 277.279 113.026C280.966 112.965 284.617 112.279 288.078 110.998C288.41 113.202 288.285 115.451 287.71 117.604C287.136 119.758 286.125 121.768 284.74 123.509C280.402 128.625 252.967 129.791 246.38 125.124C242.043 122.127 241.257 116.131 242.007 111.016V111.034ZM227.62 163.735C227.995 164.937 57.795 164.991 57.6165 164.973C50.4765 164.973 52.2615 164.973 49.8696 164.381C49.227 164.237 49.102 164.237 48.9771 163.609C48.8257 162.624 48.7837 161.624 48.8521 160.629C48.8895 160.703 48.95 160.762 49.0242 160.798C49.0984 160.834 49.1822 160.844 49.2627 160.827C49.2627 160.827 227.566 158.386 228.727 158.35C229.209 160.45 229.28 162.406 227.62 163.735ZM277.832 54.7962C277.832 54.7962 277.939 54.6167 277.975 54.6706C278.01 54.7244 277.832 54.7783 277.743 54.7962H277.832ZM189.064 9.52633C189.064 8.35958 189.528 3.94388 190.563 3.40538C192.919 2.22068 267.8 1.21548 278.028 4.42853C279.813 8.19803 279.242 50.5421 277.743 54.7962C268.96 56.1784 224.764 56.0707 213.268 57.2554C213.965 43.1287 214.268 31.2279 213.697 28.9123C213.587 28.6104 213.409 28.3381 213.176 28.117C212.944 27.8959 212.664 27.7319 212.358 27.6379C208.449 25.9326 193.741 25.448 189.457 25.3044C188.901 20.0644 188.769 14.7877 189.064 9.52633ZM65.6311 54.7244C65.3634 50.9549 64.0425 31.9279 67.6125 30.5996C69.3975 29.9714 75.6807 29.3431 84.802 28.8046C102.277 27.7097 129.82 26.8301 154.881 26.6506C160.45 26.6506 207.503 26.2378 212.108 29.4149C213.465 35.6256 209.127 104.625 208.163 111.285C165.984 112.667 116.004 114.749 73.4673 113.708C72.7533 109.598 67.2912 77.8799 65.6311 54.7244ZM72.9139 114.911C72.9173 114.869 72.9173 114.827 72.9139 114.785C102.991 115.719 197.114 112.613 208.574 112.541C209.841 115.503 227.638 155.209 228.387 157.416C228.191 157.416 49.1199 159.858 48.8878 160.037C51.1369 152.462 69.7366 120.439 72.9139 114.911ZM121.984 235.176C120.663 237.761 80.643 255.746 72.4141 258.242C72.5737 257.414 72.6336 256.57 72.5926 255.729C84.7485 251.492 111.131 240.309 122.965 232.394C122.74 233.36 122.411 234.299 121.984 235.194V235.176ZM123.215 231.209C119.645 233.327 116.236 234.799 72.5748 254.759C72.5765 253.947 72.4684 253.137 72.2535 252.354C77.9655 249.661 116.7 234.565 123.608 228.552C123.519 229.324 123.394 230.257 123.215 231.227V231.209ZM31.2699 194.375C32.1282 195.392 32.6594 196.647 32.7933 197.974C32.9272 199.301 32.6574 200.637 32.0196 201.807C31.734 202.255 32.4123 202.722 32.6979 202.255C33.7755 201.074 34.4125 199.554 34.5004 197.953C34.5883 196.353 34.1216 194.771 33.1798 193.478C41.8549 189.475 50.3872 185.706 52.7256 184.682C53.3106 185.878 53.6237 187.189 53.6422 188.521C53.6607 189.852 53.3842 191.172 52.8327 192.383C52.6185 192.957 53.2611 193.173 53.5645 192.796C54.5463 191.541 55.1573 190.035 55.3277 188.447C55.4982 186.86 55.2212 185.257 54.5284 183.821C56.4562 182.726 60.9544 180.231 63.15 180.231C65.8989 180.231 121.68 225.86 122.715 226.901C118.057 231.729 74.806 248.943 71.1646 250.703C63.4891 248.908 16.6507 208.394 12.2596 204.23C14.9907 201.95 28.1997 195.811 31.2699 194.375ZM10.903 205.056C16.4722 210.53 62.9358 251.313 70.7184 252.605C70.5622 253.282 70.4903 253.975 70.5042 254.669C58.0092 248.531 22.3092 217.441 10.4925 207.443C10.546 207.443 10.8138 205.684 10.9566 205.056H10.903ZM11.1708 211.213C10.6673 210.442 10.4175 209.531 10.4568 208.61C22.1307 220.457 55.0818 249.59 70.4863 255.657C70.4545 256.617 70.5506 257.576 70.7719 258.511C61.6149 256.447 12.3846 212.684 11.2243 211.213H11.1708ZM336.041 256.841C324.51 279.853 11.5992 273.84 6.52976 264.865C4.38096 261.109 2.92934 256.991 2.24576 252.713C2.93435 254.229 4.08454 255.487 5.53016 256.303C31.8054 271.686 293.219 267.665 327.348 255.334C334.577 252.713 338.218 247.059 339.04 239.179C339.524 245.229 338.48 251.305 336.005 256.841H336.041Z" fill="#5669FF"/>
<path d="M68.7548 134.763C194.972 136.558 207.021 135.463 210.555 134.907C211.394 134.781 211.93 134.494 211.894 133.507C211.894 130.904 205.825 118.967 204.218 118.142C203.504 117.765 75.6984 119.578 75.2522 119.721C75.1691 119.741 75.0911 119.779 75.0234 119.832C74.9557 119.884 74.8999 119.951 74.8595 120.026C73.6457 122.019 67.7195 131.856 67.9872 134.081C68.0162 134.267 68.1088 134.437 68.2489 134.561C68.389 134.686 68.5679 134.757 68.7548 134.763ZM75.7698 120.96C77.055 120.798 202.79 119.542 203.558 119.614C204.891 121.541 206.084 123.563 207.128 125.663C204.201 125.663 73.3601 126.363 72.6818 126.381C73.4672 124.801 74.5025 123.006 75.7698 120.96ZM72.1998 127.242C72.896 127.242 205.289 126.56 207.556 126.506C208.731 128.706 209.659 131.03 210.323 133.435C203.969 134.458 146.063 133.956 69.3974 133.435C70.1137 131.261 71.0404 129.163 72.1641 127.171L72.1998 127.242ZM167.269 140.866C166.913 140.074 166.331 139.405 165.597 138.945C164.863 138.485 164.01 138.254 163.146 138.282C158.612 138.282 120.538 137.223 117.11 138.623C114.923 141.289 113.23 144.329 112.112 147.598C112.005 148.387 112.398 148.746 112.88 148.8C123.59 149.967 159.094 151.08 168.304 149.375C169.447 149.159 169.589 147.939 169.357 146.772C168.805 144.755 168.107 142.781 167.269 140.866ZM113.38 147.598C114.405 144.685 115.797 141.916 117.521 139.359C120.234 138.461 155.524 140.328 163.199 140.31C163.656 140.294 164.108 140.41 164.501 140.646C164.893 140.881 165.21 141.226 165.413 141.638C166.28 143.503 166.956 145.451 167.43 147.454C158.38 148.872 119.949 148.064 113.38 147.598ZM291.237 143.164C288.72 139.682 276.1 139.843 271.87 139.969C268.3 139.969 255.323 140.561 255.323 144.079C255.338 144.364 255.42 144.642 255.563 144.888C255.706 145.135 255.905 145.344 256.144 145.498C256.483 145.767 254.145 169.425 257.358 182.116C258.411 186.316 259.768 188.398 263.748 190.139C271.388 193.478 284.062 192.742 289.149 185.616C290.166 183.534 289.952 177.466 290.041 175.618C297.949 177.197 304.428 173.966 306.106 165.404C307.159 159.893 305.803 156.285 303.464 154.096C301.902 152.817 300.055 151.936 298.082 151.53C296.108 151.124 294.066 151.203 292.13 151.762C292.062 151.785 291.99 151.791 291.92 151.781C291.849 151.77 291.782 151.742 291.724 151.7C291.667 151.658 291.62 151.602 291.588 151.538C291.556 151.474 291.54 151.403 291.541 151.331C291.541 150.38 291.88 143.936 291.237 143.164ZM257.322 143.541C262.142 140.705 281.777 140.489 288.113 143.379C288.328 143.487 289.131 143.9 289.131 144.079C289.131 144.259 288.31 144.69 288.113 144.78C283.33 146.951 266.247 147.939 257.269 144.636C256.644 144.295 257.269 143.613 257.269 143.541H257.322ZM292.63 153.593C294.252 153.123 295.963 153.055 297.617 153.396C299.271 153.737 300.818 154.476 302.126 155.55C304.053 157.345 305.017 160.432 304.125 165.009C303.947 166.6 303.399 168.127 302.524 169.465C301.65 170.803 300.473 171.915 299.091 172.71C296.164 174.035 292.868 174.289 289.774 173.428C289.621 173.372 289.46 173.349 289.298 173.359C289.137 173.369 288.979 173.413 288.835 173.487C288.691 173.561 288.564 173.664 288.461 173.79C288.358 173.915 288.283 174.061 288.238 174.218C287.756 175.582 288.435 181.092 287.453 184.575C282.937 190.732 271.388 191.288 264.551 188.398C261.089 186.908 260.125 185.364 259.196 181.649C256.805 172.835 256.662 154.885 257.197 146.054C262.82 148.729 282.294 149.5 289.952 145.551C289.952 151.116 289.274 152.049 290.666 153.18C290.935 153.384 291.246 153.527 291.576 153.599C291.906 153.67 292.247 153.668 292.576 153.593H292.63ZM119.235 191.629C114.547 187.631 109.504 184.074 104.169 181.003C102.114 179.783 99.9285 178.802 97.6539 178.077C95.744 177.574 94.9407 178.561 95.3334 179.872C96.1381 181.753 97.2017 183.511 98.4929 185.095C102.6 190.323 107.323 195.031 112.559 199.114C120.52 205.81 130.837 213.923 138.37 219.685C138.754 219.967 139.189 220.169 139.652 220.279C140.114 220.39 140.594 220.406 141.063 220.327C141.532 220.249 141.98 220.077 142.382 219.822C142.784 219.567 143.131 219.233 143.403 218.841C144.724 217.387 145.546 214.838 144.064 213.456C142.35 211.913 131.872 201.986 119.235 191.629ZM102.134 187.644L99.6889 183.677C100.559 183.314 101.296 182.686 101.795 181.882L105.669 183.462C104.697 183.656 103.818 184.174 103.177 184.934C102.535 185.693 102.168 186.648 102.134 187.644ZM107.614 192.221C106.324 191.13 105.13 189.929 104.044 188.631C104.169 186.459 104.847 185.49 107.007 185.418C108.446 186.11 109.805 186.959 111.059 187.949C110.099 188.184 109.243 188.73 108.62 189.501C107.998 190.273 107.645 191.228 107.614 192.221ZM138.138 218.339C136.156 216.669 109.81 194.196 108.185 192.76C108.322 191.755 108.758 190.815 109.437 190.065C110.116 189.315 111.005 188.79 111.987 188.56C118.146 193.155 126.999 200.766 142.44 213.69C141.839 213.659 141.238 213.761 140.68 213.988C140.123 214.216 139.621 214.563 139.211 215.006C138.801 215.449 138.493 215.977 138.307 216.553C138.122 217.128 138.064 217.738 138.138 218.339ZM279.581 238.227C281.812 239.753 283.365 239.053 284.811 236.935C288.381 231.837 300.876 209.274 300.876 209.094C300.876 208.915 301.019 209.256 300.43 202.004C300.404 201.731 300.307 201.471 300.146 201.249C299.986 201.028 299.77 200.854 299.519 200.745C299.269 200.637 298.995 200.599 298.725 200.634C298.455 200.669 298.199 200.776 297.984 200.945L291.88 205.415C291.88 205.415 278.332 233.578 278.189 233.829C277.944 234.618 277.946 235.462 278.195 236.249C278.444 237.036 278.928 237.727 279.581 238.227ZM298.484 203.135C298.591 204.445 298.734 206.186 298.841 207.389C297.515 206.751 296.128 206.252 294.7 205.899L298.484 203.135ZM293.379 207.12C294.926 208.223 296.714 208.937 298.591 209.202C298.324 209.669 284.686 234.691 284.543 234.942C284.129 234.094 283.448 233.408 282.605 232.989C281.763 232.57 280.806 232.443 279.885 232.627C281.277 230.024 292.879 208.017 293.379 207.12Z" fill="#5669FF"/>
<path d="M285.168 171.525C284.976 171.253 284.731 171.023 284.449 170.847C284.167 170.672 283.854 170.554 283.526 170.502C282.47 170.218 281.397 170.002 280.313 169.856C280.92 174.128 281.277 178.831 281.259 179.243C281.232 179.517 281.099 179.768 280.888 179.943C280.677 180.118 280.406 180.202 280.134 180.177C279.861 180.145 279.611 180.007 279.438 179.793C279.264 179.578 279.181 179.304 279.206 179.028C279.206 178.723 279.099 177.484 279.01 169.676C275.44 169.227 258.25 167.881 258.929 171.328C258.929 171.507 257.519 180.303 262.981 184.521C268.443 188.739 279.367 187.913 283.187 183.623C284.271 182.317 284.986 180.743 285.257 179.064C285.679 176.566 285.649 174.012 285.168 171.525ZM289.452 155.28C289.452 156.088 288.381 162.263 287.667 170.556L288.524 170.735C291.665 171.406 294.936 171.047 297.86 169.712C298.879 169.143 299.723 168.302 300.299 167.283C300.875 166.263 301.161 165.104 301.126 163.932C301.247 162.475 300.995 161.011 300.394 159.68C299.793 158.349 298.863 157.194 297.693 156.327C296.522 155.459 295.15 154.908 293.708 154.724C292.265 154.541 290.8 154.733 289.452 155.28ZM290.255 155.891C291.395 155.709 292.559 155.776 293.671 156.085C294.783 156.395 295.815 156.941 296.699 157.686C297.548 158.468 298.205 159.438 298.62 160.518C299.035 161.599 299.196 162.761 299.091 163.914C298.931 168.527 294.218 169.407 289.702 168.94C289.916 165.673 290.095 161.922 290.255 155.891ZM271.138 50.524C271.133 50.8438 271.192 51.1613 271.309 51.4583C271.427 51.7552 271.603 52.0258 271.825 52.2544C272.047 52.483 272.312 52.6651 272.605 52.7902C272.898 52.9153 273.212 52.9809 273.53 52.9832C274.016 52.9939 274.494 52.8588 274.903 52.5952C275.312 52.3316 275.634 51.9513 275.827 51.503C276.02 51.0547 276.077 50.5587 275.988 50.0782C275.9 49.5976 275.672 49.1544 275.332 48.8051C274.992 48.4558 274.556 48.2162 274.081 48.1168C273.605 48.0175 273.11 48.063 272.66 48.2474C272.211 48.4318 271.825 48.7469 271.554 49.1524C271.283 49.5579 271.138 50.0354 271.138 50.524ZM75.7698 109.741C76.1804 110.549 76.7159 110.639 77.055 110.387C77.3942 110.136 190.438 109.149 198.846 108.7C200.654 108.728 202.457 108.498 204.201 108.018C208.217 104.428 209.788 37.3128 208.217 34.2075C204.201 26.1479 78.5009 31.3355 70.7718 33.6869C64.6136 35.5537 72.9317 104.015 75.7698 109.741ZM70.4327 36.5948C70.4327 36.2717 70.8254 35.0152 71.1288 34.9255C79.679 32.3407 203.826 28.0865 207.199 34.8357C207.487 36.1862 207.619 37.5655 207.592 38.9463C207.896 46.7725 207.592 63.5378 206.789 78.5619C206.628 81.4339 205.361 104.966 203.504 107.102C196.097 108.682 81.9459 109.041 76.8765 109.238C73.9848 102.489 67.7373 48.4418 70.4327 36.5948ZM273.762 10.9443C274.247 10.955 274.724 10.8203 275.133 10.5575C275.542 10.2946 275.863 9.91545 276.057 9.4682C276.251 9.02095 276.308 8.52583 276.222 8.04583C276.135 7.56582 275.908 7.12262 275.57 6.77261C275.232 6.42259 274.798 6.18158 274.324 6.08023C273.849 5.97888 273.355 6.02177 272.905 6.20345C272.455 6.38513 272.068 6.69738 271.795 7.10048C271.522 7.50359 271.374 7.97933 271.37 8.46719C271.363 8.78842 271.42 9.10785 271.536 9.40692C271.653 9.70599 271.828 9.97871 272.05 10.2092C272.273 10.4397 272.539 10.6234 272.833 10.7496C273.127 10.8758 273.443 10.942 273.762 10.9443Z" fill="#5669FF"/>
<path d="M105.365 81.8288H126.571C129.025 81.8193 131.375 80.8311 133.105 79.0812C134.835 77.3312 135.804 74.9625 135.799 72.4948V55.191C135.8 52.7181 134.831 50.3445 133.104 48.5841C131.377 46.8238 129.03 45.8182 126.571 45.7852H105.365C104.136 45.7805 102.917 46.0205 101.78 46.4915C100.643 46.9625 99.6103 47.6552 98.7408 48.5295C97.8713 49.4039 97.1825 50.4426 96.7142 51.586C96.2458 52.7293 96.0071 53.9545 96.0118 55.191V72.4948C96.0165 73.7253 96.2621 74.9428 96.7347 76.0778C97.2073 77.2128 97.8976 78.2431 98.7661 79.1098C99.6346 79.9766 100.664 80.6628 101.797 81.1293C102.929 81.5958 104.142 81.8335 105.365 81.8288ZM97.529 55.191C97.5616 53.1163 98.3993 51.1365 99.8633 49.6743C101.327 48.2121 103.302 47.3833 105.365 47.3648H126.571C127.613 47.353 128.647 47.5488 129.614 47.9411C130.58 48.3334 131.459 48.9143 132.201 49.6503C132.943 50.3863 133.533 51.2628 133.936 52.2292C134.339 53.1956 134.548 54.2328 134.55 55.2808V72.4948C134.545 73.5438 134.335 74.5816 133.932 75.5489C133.528 76.5162 132.939 77.3941 132.198 78.1325C131.457 78.8709 130.579 79.4553 129.613 79.8524C128.648 80.2495 127.614 80.4514 126.571 80.4467H105.365C104.331 80.442 103.309 80.2325 102.355 79.8304C101.402 79.4282 100.537 78.8412 99.8094 78.1028C99.0817 77.3644 98.5058 76.4891 98.1146 75.5269C97.7233 74.5646 97.5243 73.5343 97.529 72.4948V55.191ZM162.699 94.6451C163.056 95.7041 163.949 95.4708 164.199 94.8067C164.538 93.8553 166.519 87.0164 166.769 85.8317C168.144 85.4009 164.27 86.7471 176.248 82.3673C176.372 82.3189 176.479 82.2339 176.554 82.1233C176.629 82.0128 176.669 81.882 176.669 81.748C176.669 81.6141 176.629 81.4832 176.554 81.3727C176.479 81.2622 176.372 81.1772 176.248 81.1288L157.898 73.7513C157.785 73.6977 157.66 73.6747 157.536 73.6846C157.412 73.6945 157.292 73.737 157.189 73.8078C157.086 73.8786 157.004 73.9753 156.95 74.0882C156.895 74.2011 156.871 74.3263 156.88 74.4514C156.88 74.4514 161.718 91.7911 162.699 94.6451ZM158.719 75.672L174.177 81.7929C172.106 82.5648 168.608 83.8931 166.93 84.5752C166.18 84.8624 165.877 84.988 165.698 85.2214C165.52 85.4547 166.144 84.0546 163.52 92.186L158.719 75.672ZM200.845 23.0426C200.866 23.1502 200.924 23.247 201.009 23.316C201.094 23.3849 201.2 23.4216 201.309 23.4195C201.684 23.4195 213.233 24.5324 215.589 23.9042C217.106 23.4913 217.374 20.7988 217.517 19.2192C217.695 16.8319 217.517 10.9802 216.517 8.98771C215.161 6.29521 205.147 7.19271 202.237 7.71326C201.465 7.82253 200.727 8.10469 200.077 8.53896C199.699 8.98034 199.479 9.53655 199.453 10.1186C199.435 14.4653 199.902 18.8004 200.845 23.0426ZM201.362 9.92111C204.183 9.04156 212.215 8.70051 214.768 9.92111C215.642 12.2546 216.107 20.2783 215.053 22.1451C213.393 22.5759 203.255 22.5759 201.559 22.5938C201.505 21.1937 200.684 13.6368 201.362 9.92111ZM224.8 22.9708C224.824 23.0769 224.882 23.1717 224.967 23.2401C225.051 23.3085 225.155 23.3464 225.264 23.3477C225.638 23.3477 237.187 24.4606 239.544 23.8324C241.061 23.4195 241.329 20.727 241.489 19.1474C241.65 16.7601 241.489 10.9084 240.472 8.91591C239.115 6.20546 229.101 7.12091 226.192 7.64146C225.421 7.75812 224.685 8.03969 224.032 8.46716C223.662 8.91335 223.443 9.46675 223.407 10.0468C223.391 14.3935 223.858 18.7284 224.8 22.9708ZM225.317 9.84931C228.137 8.95181 236.17 8.62871 238.723 9.84931C239.597 12.1828 240.061 20.2065 239.008 22.0553C237.348 22.5041 227.209 22.5041 225.514 22.522C225.46 21.1219 224.639 13.565 225.317 9.84931ZM249.861 23.7606C249.882 23.8682 249.94 23.965 250.025 24.034C250.11 24.1029 250.216 24.1396 250.325 24.1375C250.7 24.1375 262.249 25.2504 264.605 24.6222C266.122 24.2093 266.39 21.5168 266.533 19.9372C266.711 17.5499 266.533 11.6982 265.533 9.70571C264.177 7.01321 254.163 7.91071 251.253 8.43126C250.482 8.54515 249.745 8.82695 249.093 9.25696C248.715 9.69834 248.495 10.2545 248.469 10.8366C248.451 15.1833 248.918 19.5184 249.861 23.7606ZM250.379 10.6391C253.199 9.75956 261.231 9.41851 263.784 10.6391C264.659 12.9726 265.123 20.9963 264.07 22.8631C262.409 23.2939 252.271 23.2939 250.575 23.3118C250.521 21.9117 249.7 14.3548 250.379 10.6391ZM224.96 50.5779C225.085 50.9369 225.371 50.9728 225.424 50.9548C225.817 50.9548 237.348 52.0677 239.704 51.4395C241.222 51.0266 241.489 48.3341 241.65 46.7545C241.811 44.3672 241.65 38.5155 240.65 36.541C239.276 33.8305 229.262 34.746 226.37 35.2486C225.593 35.3599 224.85 35.6418 224.193 36.0743C223.819 36.5253 223.6 37.0856 223.568 37.6718C223.551 42.0126 224.018 46.3416 224.96 50.5779ZM225.496 37.4564C228.316 36.5769 236.331 36.2358 238.883 37.4564C239.758 39.7899 240.222 47.8136 239.169 49.6804C237.509 50.1112 227.388 50.1112 225.692 50.1291C225.621 48.729 224.8 41.1721 225.496 37.4564ZM266.693 35.805C269.549 31.5688 272.048 27.7455 272.138 27.566C272.227 27.3865 270.924 25.771 270.156 26.9198C264.694 35.3742 265.444 34.5665 265.051 34.4229C261.91 33.2741 251.771 33.669 250.182 35.1588C249.111 36.164 249.522 39.8079 249.647 41.3695C248.504 40.7233 247.63 40.2566 247.308 40.131C246.487 39.8079 246.541 40.6156 246.987 40.9028L249.772 42.6978C249.997 45.0568 250.361 47.4003 250.861 49.7163C250.878 49.8256 250.935 49.9246 251.021 49.9942C251.106 50.0638 251.215 50.099 251.325 50.0932C251.699 50.0932 263.248 51.2061 265.605 50.5779C268.675 49.7163 267.729 38.3898 266.693 35.805ZM251.378 36.541C255.577 35.5802 259.928 35.5007 264.159 36.3076L257.965 46.1263C257.34 45.7673 254.002 43.7928 251.218 42.2132C251.1 40.3394 251.154 38.4587 251.378 36.5948V36.541ZM265.069 48.747C263.391 49.1957 253.27 49.1957 251.575 49.2137C251.575 48.4957 251.307 46.1442 251.182 43.5415L257.965 47.7777C258.136 47.7965 258.309 47.766 258.464 47.6898C258.619 47.6135 258.749 47.4946 258.839 47.3469C259.411 46.6109 262.285 42.4106 265.212 38.0847C265.765 41.3157 265.944 47.2033 265.105 48.747H265.069ZM194.098 10.3519C194.582 10.359 195.057 10.2213 195.464 9.95622C195.87 9.69115 196.189 9.31068 196.38 8.86305C196.571 8.41543 196.626 7.92082 196.537 7.44196C196.448 6.9631 196.22 6.52156 195.881 6.17335C195.543 5.82514 195.109 5.58594 194.634 5.48609C194.16 5.38624 193.667 5.43023 193.218 5.6125C192.769 5.79477 192.384 6.10709 192.111 6.50986C191.839 6.91263 191.691 7.3877 191.688 7.87481C191.688 8.52255 191.94 9.14459 192.39 9.60762C192.841 10.0706 193.454 10.3378 194.098 10.3519Z" fill="#5669FF"/>
</svg>
