<svg width="253" height="341" viewBox="0 0 253 341" fill="none" xmlns="http://www.w3.org/2000/svg">
<path d="M214.875 206.575C217.392 204.344 219.927 201.987 219.409 198.721C219.144 196.976 218.204 195.405 216.792 194.347C215.379 193.288 213.608 192.827 211.859 193.062L202.005 148.848C202.737 149.741 202.827 150.062 203.308 150.062C203.428 150.062 203.546 150.033 203.652 149.977C203.758 149.921 203.848 149.84 203.915 149.741C206.737 145.801 209.266 141.661 211.484 137.353C215.518 130.927 208.717 127.392 204.969 133.783C204.668 132.705 204.144 131.704 203.43 130.842C202.717 129.981 201.83 129.28 200.827 128.785C199.765 128.409 198.606 128.409 197.543 128.785L172.249 15.3836C171.145 10.5163 168.161 6.28327 163.947 3.60805C159.734 0.932837 154.633 0.0325292 149.758 1.10355C81.6608 16.2046 38.071 25.4688 33.68 26.4862C23.3091 28.9138 15.83 49.6912 18.1505 59.7408L39.5169 155.256C39.3889 155.15 39.2279 155.092 39.0617 155.092C38.8955 155.092 38.7346 155.15 38.6065 155.256C21.649 167.644 9.9216 187.386 4.3524 207.2C-4.1799 237.241 2.1033 271.46 13.0097 300.591C15.2868 307.092 18.5825 313.189 22.7736 318.655C23.202 319.208 24.0945 318.53 23.7197 317.959C16.4368 306.892 13.1525 297.414 9.26115 283.776C2.29965 260.25 -0.556346 235.153 5.1021 211.198C14.6519 172.41 38.8386 157.755 39.7668 156.399L47.5137 191.188C40.4266 198.977 34.6676 207.878 30.467 217.535C30.1278 218.302 30.824 218.642 31.2345 217.803C37.8962 204.038 47.4346 191.864 59.2054 182.103C65.5422 176.944 72.3787 171.767 80.197 170.357C83.4142 169.753 86.7365 170.069 89.7825 171.268C101.956 176.23 97.9935 189.421 91.3533 200.792C75.7167 227.567 74.1816 230.351 72.0039 236.367C67.5949 249.79 72.0039 261.357 74.1459 274.78C79.1617 305.339 67.3807 315.567 64.9531 319.048C63.9892 320.458 65.1138 320.726 65.5601 320.351C69.1745 317.254 71.9856 313.328 73.7532 308.909L77.4481 325.527C77.9886 327.967 79.0052 330.276 80.4397 332.322C81.8741 334.368 83.6982 336.111 85.8075 337.451C87.9167 338.791 90.2696 339.701 92.7314 340.13C95.1931 340.559 97.7153 340.498 100.153 339.95L213.59 314.675C223.033 312.497 234.296 296.539 231.886 284.419C231.815 281.813 233.064 288.132 214.875 206.575ZM54.0825 184.477L23.7375 48.4953C22.8038 44.3428 23.4658 39.991 25.5921 36.304C27.7183 32.6169 31.1533 29.8643 35.215 28.5926C35.8934 28.3605 148.902 2.9064 150.098 2.63865C152.305 2.14714 154.588 2.09643 156.814 2.48944C159.041 2.88245 161.169 3.71144 163.074 4.92881C164.98 6.14618 166.626 7.72796 167.919 9.58335C169.212 11.4387 170.125 13.5312 170.607 15.7406L196.008 129.677C195.306 130.245 194.77 130.991 194.455 131.837C192.349 136.603 196.454 141.708 199.631 145.885L210.216 193.384C209.061 193.751 207.996 194.36 207.093 195.169C206.968 190.903 205.218 187.047 201.22 186.797L198.007 172.339C200.131 167.341 201.006 165.752 201.702 161.807C201.904 160.722 201.843 159.605 201.524 158.549C201.204 157.492 200.636 156.528 199.866 155.738C199.096 154.947 198.148 154.353 197.101 154.005C196.053 153.657 194.938 153.566 193.848 153.739L165.288 25.2189C164.304 20.9459 161.672 17.2348 157.964 14.8944C154.256 12.5539 149.773 11.7738 145.492 12.7239L46.1749 34.7329C41.9044 35.721 38.1963 38.3545 35.8566 42.0612C33.5169 45.768 32.7347 50.2483 33.68 54.5286L61.3296 178.586C58.67 180.443 56.3494 182.388 54.0825 184.477ZM85.4449 168.572C76.9126 167.662 69.3799 172.606 62.5612 177.497L35.0544 54.1894C34.2031 50.3152 34.9217 46.2615 37.0528 42.916C39.1839 39.5704 42.5539 37.2056 46.4248 36.3395C153.971 12.2955 146.635 13.8306 149.044 13.8127C152.461 13.8073 155.776 14.9714 158.439 17.1114C161.102 19.2514 162.952 22.2385 163.682 25.5759L192.242 154.096C187.493 155.363 184.78 160.558 184.155 164.806C180.996 160.433 175.123 158.558 171.66 162.807C170.873 164.147 170.498 165.689 170.58 167.241C170.663 168.793 171.2 170.286 172.125 171.535C173.462 173.43 174.942 175.22 176.551 176.89L167.144 179.604C166.484 170.286 161.522 153.543 151.686 139.923C149.981 137.297 147.743 135.06 145.117 133.354C148.32 130.401 151.005 126.931 153.061 123.09C153.144 122.947 153.177 122.779 153.154 122.615C153.132 122.45 153.055 122.297 152.937 122.181C152.818 122.065 152.665 121.991 152.5 121.971C152.335 121.952 152.168 121.987 152.025 122.073C151.633 122.323 151.204 122.555 150.794 122.769C151.338 121.942 151.759 121.04 152.043 120.092C152.071 119.967 152.065 119.837 152.027 119.715C151.988 119.593 151.919 119.484 151.825 119.397C151.731 119.311 151.616 119.25 151.492 119.221C151.367 119.193 151.237 119.198 151.115 119.235C149.33 119.967 147.849 118.075 147.384 116.183C146.046 110.613 147.384 108.257 144.154 101.474C146.919 96.8798 148.626 91.7273 149.152 86.3909C149.473 85.2133 149.416 83.9648 148.991 82.8209C148.692 82.3133 148.236 81.9169 147.692 81.6915C147.147 81.4661 146.545 81.4239 145.974 81.5714C141.687 82.3279 137.536 83.7176 133.658 85.6947C134.229 81.1787 134.925 76.9125 135.068 72.6285C138.102 71.2897 146.545 67.452 144.778 60.2585C143.868 56.4921 138.727 51.7619 134.657 52.9578C134.877 50.5803 134.271 48.1997 132.941 46.2166C131.612 44.2335 129.64 42.7689 127.357 42.0693C124.785 41.499 122.097 41.7977 119.713 42.9185C117.329 44.0393 115.385 45.919 114.183 48.2633C112.367 46.1749 110.168 44.454 107.704 43.1939C105.845 42.4049 103.814 42.1085 101.808 42.3333C99.8008 42.5581 97.8859 43.2964 96.2478 44.4771C94.6096 45.6577 93.3035 47.2407 92.4555 49.0734C91.6075 50.906 91.2463 52.9262 91.4068 54.9391C85.5699 53.6182 79.0368 57.5452 79.3581 63.8641C79.4045 65.3059 79.809 66.7135 80.535 67.9599C81.2611 69.2064 82.2859 70.2525 83.5171 71.0042C85.1804 71.6973 86.9085 72.2235 88.6758 72.575C89.6564 72.9111 90.5424 73.4769 91.2597 74.2253C91.977 74.9737 92.5049 75.8828 92.7991 76.8768C94.6074 81.8374 96.0394 86.9271 97.0831 92.1029C97.0831 92.2814 97.3866 91.7459 95.798 93.4416C94.5483 92.2331 93.1921 91.1398 91.746 90.175C90.1573 88.872 88.7115 87.7118 87.2299 86.605C77.7159 79.2151 77.3767 93.87 81.5536 103.241C82.8942 106.396 84.6992 109.332 86.9086 111.952C86.8015 112.47 86.7301 113.005 86.6587 113.523C85.8733 113.255 84.8737 114.683 84.6774 115.486C84.6433 115.595 84.6356 115.709 84.6547 115.821C84.6738 115.933 84.7192 116.038 84.7873 116.129C84.8553 116.22 84.944 116.293 85.0459 116.343C85.1479 116.392 85.2602 116.417 85.3735 116.415H86.3731C86.1294 118.912 86.046 121.422 86.1232 123.929C86.2482 126.714 86.1232 133.265 83.41 133.497C83.2864 133.493 83.1647 133.528 83.0612 133.595C82.9576 133.663 82.8771 133.76 82.8305 133.875C82.784 133.99 82.7735 134.116 82.8005 134.236C82.8275 134.357 82.8907 134.466 82.9817 134.55C83.6861 135.151 84.459 135.666 85.2843 136.085H83.6421C83.5312 136.083 83.4218 136.112 83.3266 136.168C83.2313 136.225 83.1541 136.308 83.1037 136.407C83.0533 136.506 83.0319 136.617 83.0419 136.727C83.0519 136.838 83.0929 136.943 83.1601 137.031C88.176 143.047 95.6551 145.117 103.616 145.956C102.974 149.134 101.563 154.185 99.3501 156.827C98.552 157.632 97.6146 158.285 96.5833 158.755C91.7817 159.915 89.4433 165.895 91.8709 170.786C89.9113 169.598 87.7203 168.843 85.4449 168.572ZM160.04 204.933C156.791 210.52 154.078 211.377 147.777 212.198L108.507 217.785C104.152 218.57 88.5152 220.891 89.7468 216.696C90.9963 213.572 98.0649 204.897 99.8677 202.684C98.8681 210.288 101.92 213.394 109.257 212.108C148.527 204.968 146.742 206.129 147.509 204.772C148.973 205.058 150.062 203.63 151.079 202.362C152.781 199.95 154.331 197.434 155.72 194.83C156.951 192.801 157.776 190.551 158.148 188.207C161.852 187.488 165.646 187.349 169.393 187.797C169.538 187.922 169.652 188.079 169.726 188.256C169.8 188.432 169.833 188.623 169.822 188.814C169.447 189.76 170.625 186.708 160.058 204.933H160.04ZM170.411 190.992C170.864 193.714 170.222 196.505 168.626 198.757L162.575 208.985C161.302 211.682 159.649 214.183 157.666 216.41C156.363 217.473 154.757 218.097 153.079 218.195C151.615 218.409 101.082 224.728 101.082 224.728C94.2271 225.924 91.0855 225.692 89.6932 219.248C94.1914 221.926 106.133 219.052 147.545 213.644C153.882 212.822 157.63 212.091 161.129 205.807L170.411 190.992ZM114.612 184.423C114.995 184.687 115.348 184.993 115.665 185.333C114.682 186.22 113.824 187.234 113.112 188.35C113.103 188.397 113.103 188.445 113.112 188.492C113.122 188.539 113.14 188.584 113.167 188.623C113.193 188.663 113.227 188.697 113.267 188.724C113.307 188.751 113.351 188.769 113.398 188.778C113.445 188.788 113.493 188.788 113.54 188.779C113.587 188.769 113.632 188.751 113.671 188.724C113.711 188.698 113.745 188.664 113.772 188.624C113.799 188.584 113.817 188.54 113.826 188.493C114.563 187.631 115.376 186.836 116.254 186.119C116.632 186.737 116.966 187.382 117.254 188.047C117.111 188.243 117.022 188.314 117.022 188.439C117.017 188.498 117.023 188.557 117.042 188.613C117.06 188.669 117.088 188.721 117.127 188.766C117.165 188.81 117.211 188.847 117.264 188.874C117.316 188.901 117.373 188.917 117.432 188.921C117.825 188.921 118.414 187.618 121.002 185.351C121.181 185.583 121.288 185.798 121.591 185.798C121.657 185.8 121.722 185.789 121.783 185.765C121.844 185.74 121.899 185.703 121.945 185.656C121.99 185.609 122.025 185.552 122.047 185.491C122.069 185.429 122.078 185.363 122.073 185.298C122.04 185.067 121.967 184.844 121.859 184.637C122.45 184.122 123.103 183.684 123.805 183.334C124.189 183.804 124.524 184.313 124.804 184.851C123.702 185.961 122.688 187.155 121.77 188.421C121.715 188.488 121.687 188.573 121.69 188.659C121.692 188.745 121.726 188.827 121.785 188.89C121.844 188.953 121.924 188.993 122.009 189.002C122.095 189.011 122.181 188.989 122.252 188.939C122.502 188.939 122.751 188.207 125.322 185.815C125.418 186.164 125.617 186.475 125.893 186.708C123.805 188.939 122.037 191.17 122.894 194.294C123.031 194.824 123.271 195.321 123.602 195.756C123.933 196.191 124.348 196.556 124.822 196.829C124.974 197.629 125.432 198.34 126.098 198.809C126.764 199.279 127.587 199.471 128.392 199.346C129.461 199.202 130.485 198.824 131.391 198.239C133.604 199.703 135.639 197.525 136.996 196.204C138.762 194.438 140.363 192.514 141.78 190.456C142.672 189.171 142.369 189.492 142.565 189.546C143.065 189.689 143.225 188.814 145.046 186.815C145.271 187.266 145.553 187.686 145.885 188.064C145.944 188.161 146.04 188.231 146.15 188.258C146.26 188.285 146.377 188.266 146.474 188.207C146.571 188.148 146.641 188.053 146.667 187.942C146.694 187.832 146.676 187.715 146.617 187.618C146.383 187.076 146.089 186.561 145.742 186.083C146.322 185.424 146.968 184.826 147.67 184.298C148.02 184.815 148.331 185.358 148.598 185.922C147.403 187.136 146.36 188.49 145.492 189.957C145.314 190.51 146.188 190.635 146.188 190.153C147.034 188.948 147.997 187.83 149.062 186.815C149.437 187.547 149.705 188.279 150.205 188.064C150.325 187.998 150.42 187.894 150.474 187.768C150.529 187.642 150.541 187.502 150.508 187.368C150.395 186.869 150.228 186.384 150.008 185.922C151.262 184.872 152.592 183.917 153.989 183.066C149.684 188.178 147.104 194.519 146.617 201.184C146.653 201.965 146.617 202.748 146.51 203.523V203.665C146.064 204.683 144.386 204.701 144.154 204.736C143.422 204.736 146.171 204.379 110.239 210.573C106.151 211.269 102.277 211.377 101.546 207.36C100.439 199.613 104.794 189.403 114.612 184.423ZM115.719 183.941C116.729 183.423 117.803 183.039 118.914 182.799C115.487 184.78 117.111 185.066 115.79 183.941H115.719ZM119.753 183.656C120.806 184.941 120.485 183.656 117.968 186.993C117.766 186.415 117.464 185.877 117.075 185.405C117.893 184.715 118.792 184.127 119.753 183.656ZM120.752 183.138C121.461 182.892 122.138 182.562 122.769 182.156C123.144 182.549 123.162 182.156 121.502 183.459C121.02 183.816 121.377 183.798 120.752 183.138ZM127.892 183.548C128.053 183.888 127.892 183.816 128.142 184.084C127.839 184.477 126.964 185.565 126.625 185.869C126.522 185.54 126.384 185.223 126.214 184.923C126.5 184.78 126.75 184.512 127.964 183.548H127.892ZM125.643 183.995C125.516 183.744 125.366 183.505 125.197 183.281C125.052 183.1 124.897 182.927 124.733 182.763C125.348 182.439 125.979 182.147 126.625 181.888C126.869 182.102 127.096 182.335 127.303 182.585C126.751 183.028 126.22 183.498 125.715 183.995H125.643ZM145.064 185.155C145.544 184.309 145.967 183.432 146.331 182.531L147.01 183.495C146.281 183.983 145.636 184.586 145.1 185.28L145.064 185.155ZM148.509 183.656C149.294 183.156 149.455 183.084 150.008 182.692C150.794 182.692 151.597 182.692 152.4 182.817C148.455 185.173 150.33 185.94 148.58 183.656H148.509ZM155.113 189.885C155.008 189.731 154.848 189.623 154.665 189.583C154.483 189.543 154.292 189.575 154.132 189.671C153.81 189.921 153.81 189.992 152.882 191.277C152.686 191.063 152.49 190.885 152.311 190.671C152.24 190.577 152.136 190.514 152.02 190.494C151.904 190.474 151.785 190.499 151.686 190.563C151.151 190.92 151.793 191.706 152.186 192.348C151.865 192.848 151.543 193.366 151.276 193.866C151.215 193.947 151.18 194.045 151.175 194.146C151.17 194.247 151.194 194.348 151.246 194.435C151.297 194.523 151.373 194.593 151.464 194.638C151.555 194.683 151.657 194.7 151.758 194.687C151.758 194.687 152.025 194.687 152.079 194.562C153.489 193.134 152.579 193.205 153.864 194.098C154.018 194.194 154.202 194.232 154.382 194.205C153.525 195.776 149.509 203.023 147.866 203.737C147.91 196.231 150.697 188.999 155.703 183.406C155.705 183.467 155.723 183.527 155.754 183.58C155.785 183.633 155.829 183.677 155.881 183.709C156.06 184.066 156.238 184.423 156.399 184.798C157.016 187.685 156.471 190.699 154.881 193.187C154.881 192.955 154.756 192.938 153.882 192.277C155.06 190.885 155.56 190.456 155.185 189.885H155.113ZM156.024 181.567C155.929 181.503 155.817 181.468 155.703 181.468C155.588 181.468 155.476 181.503 155.381 181.567C152.624 181.146 149.831 181.008 147.045 181.157C152.091 170.016 153.07 157.459 149.812 145.671C149.787 145.577 149.745 145.489 149.686 145.412C149.627 145.335 149.554 145.27 149.47 145.221C149.387 145.172 149.294 145.14 149.198 145.127C149.102 145.114 149.004 145.12 148.911 145.144C148.817 145.169 148.729 145.212 148.652 145.27C148.574 145.329 148.51 145.402 148.461 145.486C148.412 145.57 148.38 145.662 148.367 145.758C148.354 145.854 148.359 145.952 148.384 146.046C150.217 153.142 150.573 160.54 149.431 167.78C148.289 175.02 145.672 181.948 141.744 188.136C140.134 190.508 138.387 192.785 136.514 194.955C135.55 196.079 134.604 197.668 132.194 197.061C132.011 196.961 131.861 196.81 131.763 196.626C131.665 196.442 131.622 196.233 131.641 196.026C131.801 194.348 132.587 194.241 132.908 192.17C132.908 192.052 132.861 191.938 132.777 191.854C132.694 191.771 132.58 191.724 132.462 191.724C132.343 191.724 132.23 191.771 132.146 191.854C132.063 191.938 132.016 192.052 132.016 192.17C131.65 192.936 131.233 193.675 130.766 194.383C130.515 194.817 130.359 195.299 130.307 195.797C130.254 196.295 130.308 196.799 130.463 197.275L129.642 197.686C127.714 198.596 126.429 197.918 126.072 196.757C125.215 193.991 128.624 191.652 128.517 191.028C128.508 190.949 128.478 190.875 128.431 190.812C128.384 190.749 128.321 190.699 128.248 190.668C128.176 190.637 128.096 190.626 128.018 190.636C127.94 190.646 127.866 190.676 127.803 190.724C126.305 191.741 125.241 193.282 124.822 195.044C123.037 192.83 124.822 189.814 126.607 188.082C136.978 178.086 138.227 162.432 133.747 148.812C133.658 148.348 132.872 148.455 132.962 148.812C135.371 159.915 135.943 170.696 130.338 180.639C126.094 180.425 121.84 180.761 117.682 181.638C112.541 183.102 114.701 183.923 114.665 180.853C115.495 173.673 114.658 166.398 112.22 159.594C111.916 158.755 111.149 159.165 111.327 159.808C111.696 160.998 112.018 162.247 112.291 163.556C111.913 165.165 111.442 166.75 110.881 168.305C110.194 170.299 108.851 172.001 107.07 173.133C105.29 174.264 103.179 174.758 101.082 174.534C101.421 174.443 101.739 174.281 102.012 174.06C102.286 173.839 102.51 173.562 102.67 173.249C102.808 173.323 102.96 173.366 103.116 173.374C104.152 173.374 105.794 171.589 106.419 170.857C106.911 170.084 107.161 169.181 107.135 168.265C107.11 167.348 106.811 166.461 106.276 165.716C105.54 164.052 104.637 162.467 103.581 160.986C103.622 160.877 103.622 160.756 103.581 160.647C102.582 159.495 101.223 158.715 99.7249 158.433C102.849 155.702 104.509 149.848 105.08 145.831C118.557 146.795 134.247 142.993 144.35 134.122C145.3 134.885 146.2 135.708 147.045 136.585C152.9 142.493 161.593 157.666 164.895 174.606C165.038 175.32 165.77 179.282 166.073 179.961C162.503 180.978 159.79 181.746 157.148 182.727C156.888 182.267 156.528 181.871 156.095 181.567H156.024ZM88.4616 136.05C88.2831 135.282 87.1942 135.8 84.7131 134.122C88.5687 131.748 86.8908 122.394 87.3906 116.165C89.1756 116.165 90.9606 115.968 92.7456 115.736C92.7649 117.178 93.1203 118.594 93.7834 119.874C94.4465 121.154 95.3992 122.261 96.5655 123.108C95.7444 123.108 94.9233 122.948 94.12 122.93C93.3168 122.912 90.7821 122.93 90.55 123.483C90.524 123.539 90.5099 123.6 90.5085 123.661C90.5071 123.723 90.5185 123.784 90.542 123.841C90.5655 123.898 90.6005 123.95 90.6449 123.993C90.6893 124.036 90.7421 124.069 90.7999 124.09C92.9204 124.054 95.0414 124.125 97.1545 124.304C99.3221 124.592 101.464 125.046 103.563 125.661C103.667 125.661 103.767 125.619 103.84 125.546C103.914 125.472 103.955 125.372 103.955 125.268C103.955 125.164 103.914 125.064 103.84 124.99C103.767 124.917 103.667 124.875 103.563 124.875L103.206 124.751C105.447 124.475 107.513 123.398 109.022 121.718C110.531 120.038 111.382 117.869 111.417 115.611C111.686 115.593 111.956 115.642 112.202 115.754C112.543 117.842 113.584 119.752 115.154 121.169C116.724 122.587 118.73 123.428 120.841 123.555C120.792 123.594 120.756 123.648 120.737 123.708C120.718 123.768 120.717 123.833 120.734 123.894C120.913 124.233 121.341 123.894 122.127 123.537C124.33 123.378 126.405 122.442 127.981 120.895C131.944 119.11 134.05 118.325 136.639 117.075C137.192 116.95 136.764 116.058 136.371 116.272C124.054 120.627 131.908 120.395 130.588 112.702C137.478 112.702 139.655 110.667 144.296 105.776C145.724 111.417 144.921 118.271 148.545 120.377C149.04 120.689 149.62 120.839 150.205 120.806C149.645 122.024 148.8 123.089 147.741 123.912C147.605 124.013 147.506 124.157 147.463 124.322C147.419 124.486 147.432 124.661 147.501 124.816C147.569 124.972 147.689 125.1 147.84 125.179C147.99 125.258 148.163 125.283 148.331 125.25C149.083 125.04 149.823 124.784 150.544 124.483C147.947 128.663 144.565 132.3 140.584 135.193C120.467 149.08 92.5849 145.635 84.9808 137.103C86.0003 137.094 87.0166 136.986 88.0154 136.781C88.1715 136.743 88.3061 136.645 88.3898 136.508C88.4734 136.371 88.4993 136.206 88.4616 136.05ZM107.722 45.0145C110.034 46.4649 112.071 48.3143 113.737 50.4766C113.843 50.5856 113.976 50.665 114.122 50.707C114.269 50.749 114.423 50.7521 114.571 50.7161C114.719 50.68 114.855 50.6061 114.965 50.5015C115.076 50.3969 115.157 50.2653 115.201 50.1197C116.088 47.8638 117.739 45.9915 119.867 44.8299C121.994 43.6683 124.462 43.2914 126.839 43.765C129.001 44.4029 130.823 45.8704 131.906 47.847C132.99 49.8236 133.248 52.1486 132.622 54.3144C132.572 54.501 132.583 54.699 132.655 54.8786C132.726 55.0582 132.854 55.2097 133.019 55.3104C133.184 55.411 133.378 55.4554 133.57 55.4367C133.762 55.418 133.944 55.3374 134.086 55.2069C136.139 53.4219 139.102 55.546 139.959 56.2243C140.898 56.87 141.682 57.7153 142.256 58.6998C142.83 59.6842 143.18 60.7833 143.279 61.9185C143.279 67.1128 137.567 69.594 133.765 71.2541C133.629 71.3299 133.518 71.4417 133.442 71.5772C133.367 71.7127 133.33 71.8666 133.337 72.0216C133.212 76.7876 132.444 81.732 131.873 86.5515C130.088 87.4619 129.392 87.8546 129.392 87.8546C129.224 87.8071 129.063 87.7412 128.91 87.6582C129.124 86.1588 130.356 77.9478 130.302 76.4305C130.267 76.3234 130.199 76.2301 130.107 76.164C130.016 76.0979 129.906 76.0623 129.793 76.0623C129.68 76.0623 129.571 76.0979 129.479 76.164C129.388 76.2301 129.32 76.3234 129.285 76.4305C128.945 77.6622 128.089 87.1406 128.071 87.2477C125.771 86.1957 123.319 85.5149 120.806 85.2306C120.949 83.8026 121.252 62.0256 121.252 61.258C121.252 60.9725 120.966 60.9903 120.788 60.9903C120.72 60.9902 120.654 61.0159 120.605 61.0623C120.555 61.1087 120.525 61.1723 120.52 61.2402C119.646 70.5758 119.449 82.214 119.574 85.1057H119.039C114.667 84.5368 110.223 85.0517 106.097 86.605C105.883 84.4987 104.312 76.3591 103.188 71.3612C103.188 70.9506 102.456 70.8078 102.456 71.3612C102.448 71.4024 102.448 71.4448 102.456 71.4861C103.813 78.9831 104.562 85.2663 104.919 87.0691C102.332 88.2178 99.926 89.7393 97.7793 91.5852C97.0659 87.4988 96.1364 83.453 94.9947 79.465C92.2458 69.9867 89.0863 71.5754 85.1058 70.1652C84.078 69.7304 83.1664 69.0607 82.4443 68.21C81.7221 67.3592 81.2094 66.3509 80.9473 65.2662C80.6852 64.1814 80.681 63.0503 80.9351 61.9637C81.1892 60.877 81.6945 59.865 82.4105 59.009C83.5822 57.6701 85.1508 56.7403 86.8878 56.355C88.6247 55.9697 90.4393 56.1491 92.0673 56.867C92.6563 57.099 93.1561 56.5099 93.0847 55.903C92.7179 54.0303 92.8881 52.0921 93.5755 50.3119C94.2629 48.5317 95.4396 46.9821 96.9698 45.8419C98.5 44.7017 100.321 44.0174 102.224 43.8678C104.126 43.7183 106.032 44.1096 107.722 44.9967V45.0145ZM128.285 88.3901L127.821 88.6221C127.715 88.7126 127.646 88.8387 127.626 88.9766C127.607 89.1146 127.638 89.2549 127.715 89.3712C127.792 89.4874 127.909 89.5716 128.043 89.6079C128.178 89.6442 128.321 89.63 128.446 89.5682C133.034 87.0077 137.889 84.9548 142.922 83.4456C144.261 83.0886 147.277 81.9462 147.973 83.285C147.984 83.4454 147.984 83.6064 147.973 83.7669C146.035 83.8261 144.164 84.4875 142.618 85.659L133.212 91.014C132.48 91.4424 133.676 92.21 133.765 91.5495C133.765 91.371 133.337 91.6923 144.939 85.5162C145.207 85.3734 147.688 84.1596 148.045 85.2128C146.742 96.0477 143.547 99.0287 141.887 102.367C141.815 102.499 141.794 102.653 141.83 102.8C141.865 102.946 141.954 103.074 142.079 103.159C142.204 103.244 142.355 103.279 142.505 103.258C142.654 103.237 142.79 103.161 142.886 103.045C142.993 102.92 143.065 102.777 143.172 102.652C143.388 103.105 143.579 103.57 143.743 104.045C135.711 112.398 137.085 109.649 130.373 111.898C129.797 109.683 128.426 107.757 126.521 106.488C124.616 105.219 122.31 104.696 120.044 105.018C117.778 105.34 115.709 106.485 114.233 108.235C112.757 109.985 111.977 112.216 112.041 114.505C111.8 114.392 111.54 114.325 111.274 114.308C110.978 112.073 109.88 110.02 108.184 108.534C106.488 107.048 104.31 106.228 102.054 106.228C99.7992 106.228 97.6208 107.048 95.9248 108.534C94.2287 110.02 93.1306 112.073 92.8348 114.308C91.0498 114.558 89.2648 114.63 87.4798 114.719C88.1734 109.013 90.1111 103.529 93.1561 98.6538C105.401 79.0902 128.071 88.3901 128.285 88.3901ZM126.875 120.324C123.305 122.109 123.305 122.412 121.52 122.412C119.61 122.435 117.752 121.786 116.271 120.58C114.79 119.374 113.78 117.686 113.416 115.811C113.051 113.936 113.357 111.992 114.278 110.319C115.2 108.646 116.68 107.349 118.459 106.655C120.239 105.961 122.206 105.914 124.017 106.521C125.828 107.128 127.368 108.352 128.37 109.978C129.371 111.605 129.77 113.531 129.497 115.422C129.224 117.313 128.296 119.047 126.875 120.324ZM110.221 116.432C109.993 118.496 108.982 120.395 107.398 121.737C105.813 123.079 103.775 123.764 101.701 123.649C99.6278 123.535 97.6768 122.631 96.2493 121.123C94.8219 119.614 94.0264 117.617 94.0264 115.54C94.0264 113.463 94.8219 111.465 96.2493 109.957C97.6768 108.449 99.6278 107.545 101.701 107.43C103.775 107.316 105.813 108.001 107.398 109.343C108.982 110.685 109.993 112.583 110.221 114.647C109.043 115.54 109.168 117.111 110.185 116.504L110.221 116.432ZM92.5849 98.1004C91.0141 95.423 87.7476 91.4781 86.3196 89.5324C84.8916 87.5868 84.124 86.4087 82.2319 86.605C81.8035 86.605 81.75 86.9799 81.9106 87.1584C82.4104 87.7475 82.9102 86.2124 85.0165 89.2647C86.68 91.3202 88.2293 93.4654 89.6575 95.6907C92.3172 99.5463 92.4421 98.2611 91.6389 99.5463C90.8062 98.2531 89.6939 97.1632 88.3841 96.3569C87.0742 95.5506 85.6002 95.0484 84.0705 94.8875C83.9534 94.8848 83.8391 94.9234 83.7475 94.9965C83.6559 95.0696 83.593 95.1726 83.5696 95.2874C83.5462 95.4022 83.5639 95.5215 83.6196 95.6246C83.6752 95.7277 83.7653 95.8079 83.8742 95.8513C86.7999 96.3439 89.4152 97.9656 91.1569 100.367L90.7643 101.046C89.9984 100.286 89.0328 99.7603 87.9796 99.5285C86.8003 99.293 85.6083 99.1261 84.4096 99.0286C84.2989 99.0191 84.1885 99.0496 84.0984 99.1146C84.0082 99.1795 83.9444 99.2747 83.9185 99.3827C83.8925 99.4908 83.9062 99.6045 83.9571 99.7033C84.0079 99.8021 84.0925 99.8794 84.1954 99.9212C86.2661 100.707 88.4437 100.082 90.4072 101.92C90.1216 102.438 89.8539 102.974 89.6218 103.509C88.7567 103.602 87.9221 103.882 87.1764 104.33C85.8019 104.991 86.391 105.901 87.0157 105.58C87.6367 105.198 88.3103 104.909 89.0149 104.723C88.2494 106.612 87.6521 108.565 87.2299 110.56C80.9467 102.777 79.2153 92.8168 80.9468 87.2655C81.0672 86.7179 81.3942 86.2378 81.8597 85.9253C82.3252 85.6127 82.8933 85.4918 83.4457 85.5876C84.4981 85.935 85.4652 86.5007 86.2839 87.2477C92.817 92.442 92.0673 92.3528 95.0482 94.2627C94.0774 95.4394 93.2504 96.7277 92.5849 98.1004ZM93.5488 171.553C93.5855 171.425 93.5855 171.289 93.5488 171.161C89.9788 162.432 96.619 157.041 102.099 160.932C101.974 161.432 102.867 162.825 103.17 163.235C106.294 168.715 106.133 169.215 103.473 171.518C103.134 171.803 103.027 171.857 102.956 171.803C102.751 171.585 102.588 171.331 102.474 171.053C100.957 168.305 100.689 167.483 100.171 167.698C100.105 167.72 100.046 167.759 99.9987 167.81C99.9517 167.862 99.9186 167.924 99.9025 167.992C99.8864 168.06 99.8879 168.131 99.9068 168.198C99.9257 168.265 99.9614 168.326 100.011 168.376C100.189 168.537 99.7249 168.037 101.117 171.357C101.885 173.142 102.028 172.267 101.117 172.874C99.7071 173.642 98.6182 173.713 97.5472 169.483C97.5058 169.369 97.4272 169.273 97.3243 169.21C97.2213 169.147 97.1 169.12 96.9801 169.135C96.8601 169.149 96.7486 169.204 96.6636 169.29C96.5786 169.375 96.5252 169.487 96.5119 169.608C96.374 170.868 96.6974 172.137 97.4223 173.178C97.0137 173.492 96.5367 173.706 96.03 173.802C95.3596 172.896 94.5163 172.132 93.5488 171.553ZM96.9403 175.123C97.33 175.014 97.6982 174.839 98.0292 174.606C104.884 177.801 111.024 173.499 112.934 167.109C113.633 171.548 113.789 176.055 113.398 180.532C113.214 181.469 113.214 182.433 113.398 183.37C108.672 185.831 104.838 189.715 102.438 194.473C100.02 195.088 97.6366 195.833 95.2981 196.704C98.6896 189.832 101.01 181.567 96.9403 175.105V175.123ZM94.3699 198.56C102.884 195.651 99.7249 196.597 101.867 195.865C101.163 197.466 100.625 199.135 100.26 200.845C96.0468 205.342 92.2806 210.238 89.0149 215.464C88.6912 215.911 88.5163 216.448 88.5151 216.999C88.5068 217.019 88.5025 217.04 88.5025 217.062C88.5025 217.083 88.5068 217.104 88.5151 217.124C88.467 219.824 89.2798 222.468 90.8356 224.675C91.5833 225.346 92.4642 225.852 93.4208 226.16C94.3774 226.467 95.3882 226.57 96.387 226.46C98.3326 226.46 92.817 226.96 152.739 219.766C158.094 219.516 160.183 216.607 162.771 211.876C164.395 208.895 170.286 199.078 170.411 198.899C171.372 197.347 171.96 195.593 172.131 193.776C172.301 191.958 172.048 190.125 171.393 188.421C171.407 188.137 171.364 187.852 171.266 187.584C171.168 187.316 171.017 187.071 170.822 186.863C170.627 186.654 170.392 186.487 170.132 186.372C169.871 186.256 169.589 186.195 169.304 186.19C165.636 185.75 161.921 185.877 158.291 186.565C158.287 185.443 158.063 184.333 157.63 183.299C162.2 182.174 163.699 181.638 177.605 177.783C181.304 181.492 185.22 184.979 189.332 188.225C189.402 188.318 189.492 188.393 189.596 188.444C189.7 188.496 189.814 188.523 189.93 188.523C190.046 188.523 190.16 188.496 190.264 188.444C190.368 188.393 190.458 188.318 190.528 188.225C192.866 183.584 195.026 179.05 196.954 174.695L199.649 186.779C198.739 186.967 197.887 187.37 197.163 187.953C196.44 188.537 195.866 189.285 195.49 190.135C193.866 193.277 194.294 197.275 194.669 200.756C194.669 201.416 195.811 213.09 196.276 217.41C196.285 217.625 196.378 217.827 196.535 217.974C196.692 218.121 196.9 218.2 197.115 218.195C200.055 216.84 202.89 215.265 205.593 213.483L215.518 258.019C216.369 261.893 215.651 265.947 213.519 269.292C211.388 272.638 208.018 275.002 204.147 275.869L104.83 298.003C100.954 298.839 96.9056 298.112 93.5632 295.979C90.2208 293.847 87.855 290.481 86.98 286.614L75.1276 233.421C78.0908 225.96 90.2287 206.289 94.3699 198.56ZM230.137 285.418C230.102 289.255 228.763 292.965 226.34 295.94C223.916 298.915 220.553 300.977 216.803 301.787L103.295 327.08C98.88 328.04 94.2647 327.219 90.4513 324.796C86.638 322.373 83.9345 318.544 82.9281 314.139C78.2871 293.451 77.2339 288.114 77.2339 288.114C77.3255 285.476 77.1821 282.836 76.8055 280.224C75.1455 263.784 68.8623 251.664 74.0031 236.295L85.4449 287.096C86.3854 291.368 88.9789 295.093 92.6582 297.458C96.3376 299.823 100.804 300.635 105.08 299.716L204.469 277.6C208.742 276.616 212.453 273.984 214.793 270.276C217.134 266.568 217.914 262.085 216.964 257.804L206.914 212.715C209.145 211.198 211.287 209.556 213.358 207.824C231.922 290.756 230.173 281.813 230.119 285.418H230.137Z" fill="#5669FF"/>
<path d="M156.845 291.88C155.349 293.3 154.264 295.098 153.705 297.084C153.146 299.069 153.133 301.169 153.668 303.161C154.163 305.339 155.379 307.285 157.118 308.685C158.858 310.085 161.02 310.856 163.253 310.872C165.451 310.887 167.578 310.09 169.225 308.634C170.871 307.179 171.923 305.166 172.178 302.983C172.437 300.977 172.205 298.938 171.503 297.041C170.8 295.145 169.648 293.447 168.144 292.094C166.604 290.701 164.611 289.911 162.535 289.872C160.458 289.833 158.437 290.546 156.845 291.88ZM165.77 309.141C156.845 312.051 151.865 301.269 156.845 294.111C157.981 292.774 159.57 291.902 161.309 291.661C163.047 291.421 164.813 291.829 166.27 292.808C171.536 296.557 172.749 306.82 165.77 309.177V309.141ZM136.371 93.5308C138.263 92.1773 140.405 91.2126 142.672 90.6927C143.904 90.4785 144.332 90.3892 144.457 90.0322C144.463 89.9175 144.426 89.8048 144.353 89.7158C144.281 89.6268 144.178 89.5678 144.064 89.5503C141.122 89.6797 138.324 90.8573 136.175 92.8704C136.125 92.9204 136.09 92.9829 136.073 93.0512C136.056 93.1196 136.057 93.1913 136.077 93.2588C136.097 93.3263 136.135 93.3872 136.187 93.4351C136.239 93.483 136.302 93.516 136.371 93.5308ZM144.082 93.745C142.802 93.3877 141.458 93.3209 140.149 93.5494C138.839 93.778 137.597 94.2961 136.514 95.0659C136.446 95.1197 136.398 95.1945 136.376 95.2786C136.355 95.3627 136.363 95.4514 136.397 95.5309C136.432 95.6104 136.492 95.6761 136.568 95.718C136.644 95.7598 136.732 95.7753 136.817 95.7621C138.399 94.8811 140.183 94.426 141.994 94.4412C143.297 94.4412 144.154 94.8517 144.332 94.2805C144.367 94.1762 144.361 94.0625 144.314 93.9628C144.268 93.8631 144.185 93.7851 144.082 93.745ZM137.317 96.601C137.255 96.5881 137.19 96.5892 137.129 96.6043C137.067 96.6194 137.009 96.6481 136.96 96.6882C136.91 96.7284 136.871 96.7791 136.843 96.8365C136.816 96.894 136.802 96.9569 136.802 97.0205C136.802 97.0841 136.816 97.147 136.843 97.2044C136.871 97.2619 136.91 97.3126 136.96 97.3528C137.009 97.3929 137.067 97.4216 137.129 97.4367C137.19 97.4518 137.255 97.4529 137.317 97.44C138.451 97.548 139.532 97.9682 140.441 98.6538C140.498 98.7073 140.571 98.7415 140.649 98.7514C140.727 98.7613 140.806 98.7465 140.875 98.709C140.944 98.6715 141 98.6133 141.034 98.5425C141.068 98.4717 141.079 98.392 141.066 98.3146C140.604 97.7725 140.029 97.3381 139.381 97.042C138.734 96.746 138.029 96.5954 137.317 96.601ZM122.18 125.393C126.536 122.912 129.981 122.894 133.247 121.948C133.783 121.948 133.658 120.984 133.247 121.056C129.201 121.366 125.289 122.646 121.841 124.786C121.288 125.036 121.645 125.732 122.18 125.393ZM89.7469 128.356C94.1142 126.938 98.7466 126.529 103.295 127.16C103.795 127.16 103.884 126.411 103.206 126.268C98.619 125.202 93.8124 125.621 89.4791 127.464C89.015 127.553 89.3006 128.356 89.7469 128.356Z" fill="#5669FF"/>
<path d="M94.6556 132.158C97.1875 130.767 99.9129 129.763 102.742 129.177C103.327 130.209 104.193 131.055 105.238 131.617C106.283 132.18 107.466 132.435 108.65 132.354C108.954 133.318 109.538 134.169 110.328 134.8C110.994 135.397 111.812 135.798 112.691 135.959C113.571 136.121 114.478 136.036 115.312 135.715C116.146 135.394 116.876 134.848 117.42 134.139C117.964 133.429 118.302 132.583 118.396 131.694C119.633 131.591 120.815 131.135 121.8 130.378C122.784 129.621 123.53 128.597 123.947 127.428C132.426 127.107 133.426 127.178 137.21 126.75C137.799 126.75 137.745 125.839 137.21 125.768C132.861 125.732 128.514 125.982 124.197 126.518C124.244 126.378 124.279 126.234 124.304 126.089C124.342 125.996 124.359 125.896 124.355 125.796C124.35 125.696 124.324 125.598 124.278 125.509C124.232 125.42 124.168 125.342 124.089 125.28C124.01 125.218 123.919 125.174 123.822 125.151C123.724 125.127 123.623 125.125 123.525 125.145C123.426 125.164 123.333 125.204 123.252 125.263C123.171 125.321 123.103 125.397 123.054 125.484C123.004 125.571 122.974 125.668 122.966 125.768C122.93 126.084 122.859 126.396 122.751 126.696C122.305 126.696 121.627 126.696 121.663 127.178C121.698 127.66 122.109 127.499 122.43 127.499C122.095 128.17 121.624 128.762 121.046 129.239C120.468 129.715 119.796 130.065 119.074 130.266C116.825 130.766 115.094 129.391 113.719 126.107C115.844 123.215 114.862 122.126 113.719 122.537C113.345 122.662 113.719 122.626 111.792 122.626C109.864 122.626 109.65 124.322 111.131 125.661L111.97 126.357C111.577 128.695 110.703 131.176 108.257 131.23C107.412 131.211 106.583 131.001 105.831 130.614C105.08 130.228 104.426 129.675 103.92 128.999L104.616 128.874C105.08 128.874 105.348 128.017 104.312 128.017C100.675 128.005 97.1244 129.128 94.1558 131.23C94.0948 131.263 94.041 131.307 93.9972 131.361C93.9535 131.415 93.9207 131.476 93.9008 131.543C93.8809 131.609 93.8743 131.678 93.8813 131.747C93.8883 131.816 93.9088 131.883 93.9416 131.944C93.9744 132.005 94.0189 132.059 94.0725 132.102C94.1262 132.146 94.1879 132.179 94.2542 132.199C94.3205 132.219 94.3901 132.225 94.459 132.218C94.5278 132.211 94.5946 132.191 94.6556 132.158ZM112.97 127.481C113.292 128.424 113.827 129.279 114.533 129.981C115.238 130.684 116.096 131.215 117.039 131.533C117.039 131.801 117.039 132.069 116.932 132.319C116.717 132.872 116.371 133.364 115.924 133.754C115.477 134.145 114.942 134.421 114.365 134.559C113.788 134.698 113.186 134.695 112.61 134.55C112.035 134.405 111.503 134.124 111.06 133.729C110.515 133.276 110.077 132.709 109.775 132.069C110.642 131.625 111.388 130.974 111.945 130.174C112.502 129.374 112.854 128.449 112.97 127.481ZM95.0661 106.097C95.673 106.097 95.798 105.08 97.6008 103.955C98.4906 103.487 99.423 103.104 100.385 102.813C101.135 102.349 100.814 101.028 99.0645 101.42L98.2077 101.742C96.6292 102.467 95.3627 103.733 94.6377 105.312C94.6004 105.391 94.5823 105.477 94.5848 105.564C94.5873 105.651 94.6103 105.737 94.6521 105.813C94.6939 105.89 94.7531 105.956 94.8251 106.005C94.8971 106.054 94.9796 106.086 95.0661 106.097ZM123.698 99.9924C124.148 99.9835 124.598 100.031 125.036 100.135C125.999 100.395 126.927 100.766 127.803 101.242C129.588 101.242 127.035 98.5466 123.84 98.4752C123.206 98.4123 122.571 98.5837 122.055 98.9571C121.145 99.8853 122.448 100.296 123.698 99.9924ZM106.74 205.611C106.903 205.584 107.052 205.501 107.159 205.375C107.266 205.249 107.325 205.089 107.325 204.924C107.325 204.758 107.266 204.598 107.159 204.472C107.052 204.346 106.903 204.263 106.74 204.236C106.577 204.263 106.428 204.346 106.321 204.472C106.214 204.598 106.155 204.758 106.155 204.924C106.155 205.089 106.214 205.249 106.321 205.375C106.428 205.501 106.577 205.584 106.74 205.611ZM111.792 206.575C111.955 206.548 112.103 206.465 112.211 206.339C112.318 206.213 112.377 206.053 112.377 205.888C112.377 205.722 112.318 205.562 112.211 205.436C112.103 205.31 111.955 205.227 111.792 205.2C111.542 205.2 111.024 205.504 111.131 206.021C111.166 206.173 111.249 206.309 111.368 206.409C111.488 206.509 111.636 206.567 111.792 206.575ZM117.147 203.665C117.296 203.64 117.432 203.562 117.531 203.446C117.629 203.33 117.682 203.183 117.682 203.032C117.682 202.88 117.629 202.733 117.531 202.617C117.432 202.501 117.296 202.423 117.147 202.398C116.997 202.423 116.861 202.501 116.763 202.617C116.665 202.733 116.611 202.88 116.611 203.032C116.611 203.183 116.665 203.33 116.763 203.446C116.861 203.562 116.997 203.64 117.147 203.665ZM119.681 207.11C119.842 207.11 119.997 207.046 120.11 206.933C120.224 206.819 120.288 206.664 120.288 206.503C120.288 206.342 120.224 206.188 120.11 206.074C119.997 205.96 119.842 205.896 119.681 205.896C119.52 205.896 119.366 205.96 119.252 206.074C119.138 206.188 119.074 206.342 119.074 206.503C119.074 206.664 119.138 206.819 119.252 206.933C119.366 207.046 119.52 207.11 119.681 207.11ZM126.268 202.077C126.268 201.92 126.206 201.771 126.095 201.66C125.985 201.55 125.835 201.488 125.679 201.488C125.523 201.488 125.373 201.55 125.262 201.66C125.152 201.771 125.09 201.92 125.09 202.077C125.09 202.233 125.152 202.383 125.262 202.493C125.373 202.604 125.523 202.666 125.679 202.666C125.835 202.666 125.985 202.604 126.095 202.493C126.206 202.383 126.268 202.233 126.268 202.077ZM131.034 206.2C131.148 206.17 131.249 206.102 131.321 206.009C131.393 205.915 131.432 205.8 131.432 205.682C131.432 205.564 131.393 205.449 131.321 205.356C131.249 205.262 131.148 205.195 131.034 205.165C130.954 205.164 130.874 205.183 130.802 205.218C130.73 205.254 130.667 205.306 130.619 205.37C130.57 205.434 130.537 205.508 130.523 205.587C130.508 205.666 130.512 205.748 130.534 205.825C130.562 205.935 130.627 206.032 130.718 206.1C130.809 206.168 130.92 206.203 131.034 206.2ZM141.708 204.504C141.958 204.504 142.333 204.254 142.226 203.844C142.119 203.433 141.869 203.397 141.708 203.451C141.585 203.474 141.474 203.539 141.394 203.635C141.314 203.731 141.27 203.852 141.27 203.978C141.27 204.103 141.314 204.224 141.394 204.32C141.474 204.416 141.585 204.481 141.708 204.504ZM143.993 200.184C144.154 200.184 144.308 200.121 144.422 200.007C144.536 199.893 144.6 199.739 144.6 199.578C144.6 199.417 144.536 199.262 144.422 199.148C144.308 199.035 144.154 198.971 143.993 198.971C143.832 198.971 143.678 199.035 143.564 199.148C143.45 199.262 143.386 199.417 143.386 199.578C143.386 199.739 143.45 199.893 143.564 200.007C143.678 200.121 143.832 200.184 143.993 200.184ZM136.121 202.63C136.282 202.63 136.436 202.566 136.55 202.452C136.664 202.338 136.728 202.184 136.728 202.023C136.728 201.862 136.664 201.708 136.55 201.594C136.436 201.48 136.282 201.416 136.121 201.416C135.96 201.416 135.806 201.48 135.692 201.594C135.578 201.708 135.514 201.862 135.514 202.023C135.514 202.184 135.578 202.338 135.692 202.452C135.806 202.566 135.96 202.63 136.121 202.63ZM104.152 209.359C104.248 209.359 104.343 209.337 104.43 209.295C104.517 209.253 104.593 209.192 104.653 209.117C104.713 209.041 104.755 208.953 104.777 208.859C104.798 208.765 104.798 208.668 104.777 208.574C104.765 208.456 104.716 208.345 104.638 208.257C104.559 208.17 104.454 208.109 104.338 208.085C104.222 208.061 104.102 208.075 103.994 208.124C103.887 208.174 103.798 208.256 103.741 208.36C103.684 208.449 103.649 208.551 103.64 208.656C103.631 208.762 103.647 208.868 103.687 208.966C103.727 209.064 103.79 209.151 103.871 209.22C103.952 209.288 104.048 209.336 104.152 209.359ZM134.39 270.746L106.08 276.654C104.301 277.028 102.733 278.067 101.694 279.558C100.655 281.049 100.223 282.88 100.487 284.678C100.751 286.476 101.691 288.105 103.115 289.235C104.538 290.364 106.339 290.908 108.15 290.755C108.936 290.755 106.633 290.916 137.192 284.669C138.188 284.574 139.153 284.272 140.025 283.781C140.896 283.29 141.655 282.621 142.252 281.818C142.848 281.015 143.27 280.096 143.488 279.12C143.706 278.143 143.717 277.132 143.52 276.151C143.323 275.171 142.921 274.242 142.342 273.427C141.763 272.611 141.019 271.926 140.158 271.416C139.297 270.907 138.339 270.584 137.345 270.468C136.351 270.352 135.344 270.447 134.39 270.746ZM136.871 283.026L108.65 288.935C107.298 289.126 105.925 288.794 104.81 288.006C103.695 287.218 102.923 286.034 102.651 284.696C102.38 283.358 102.63 281.967 103.35 280.808C104.07 279.648 105.206 278.807 106.526 278.457C127.714 273.976 133.497 272.727 135.086 272.441C136.447 272.272 137.823 272.617 138.942 273.41C140.062 274.202 140.845 275.385 141.137 276.725C141.393 278.117 141.088 279.553 140.289 280.72C139.489 281.887 138.261 282.691 136.871 282.955V283.026Z" fill="#5669FF"/>
<path d="M133.104 277.118C130.891 277.404 122.198 280.938 108.828 282.884C108.311 282.884 108.364 283.723 108.828 283.723C113.095 283.723 129.713 280.153 133.479 278.1C133.57 278.026 133.634 277.926 133.664 277.814C133.694 277.701 133.688 277.582 133.647 277.474C133.605 277.365 133.53 277.272 133.433 277.208C133.336 277.144 133.221 277.113 133.104 277.118ZM190.76 259.286C184.155 261.607 183.977 271.031 190.653 272.352C191.546 272.498 192.459 272.459 193.335 272.238C194.212 272.016 195.035 271.617 195.751 271.065C196.467 270.512 197.062 269.819 197.5 269.027C197.937 268.235 198.207 267.362 198.293 266.462C199.56 262.445 194.83 258.162 190.76 259.286ZM192.134 271.281C191.415 271.344 190.691 271.248 190.013 271.001C189.335 270.754 188.719 270.362 188.209 269.852C187.699 269.341 187.306 268.726 187.059 268.047C186.812 267.369 186.717 266.645 186.779 265.926C187.154 262.606 190.135 259.607 193.313 260.571C200.006 262.963 196.918 270.889 192.206 271.281H192.134Z" fill="#5669FF"/>
<path d="M190.492 263.873C189.988 263.91 189.513 264.125 189.154 264.48C188.475 265.498 188.993 266.265 189.993 266.265C189.85 267.675 189.689 269.389 190.939 269.46C191.367 269.46 193.223 269.103 194.223 268.889C194.341 268.899 194.46 268.884 194.573 268.846C194.685 268.807 194.788 268.745 194.876 268.665C194.963 268.584 195.032 268.487 195.08 268.378C195.127 268.269 195.152 268.151 195.151 268.032C195.151 267.425 195.151 268.425 194.955 265.89C195.455 265.89 195.687 265.658 195.705 265.248L195.597 264.159C195.595 264.082 195.578 264.005 195.546 263.935C195.514 263.864 195.469 263.801 195.412 263.748C195.356 263.694 195.29 263.653 195.217 263.626C195.145 263.598 195.068 263.585 194.991 263.588C194.509 263.588 193.795 263.677 193.795 263.677C193.795 263.677 194.58 263.427 194.687 262.874C194.723 262.74 194.722 262.599 194.684 262.466C194.647 262.332 194.574 262.212 194.473 262.117C194.373 262.022 194.248 261.955 194.113 261.925C193.978 261.895 193.837 261.902 193.705 261.946C193.405 262.109 193.14 262.33 192.925 262.597C192.711 262.863 192.551 263.17 192.456 263.498C191.171 261.16 189.171 262.606 190.492 263.873ZM193.759 265.926C193.759 266.747 193.884 267.086 193.955 267.711C193.295 267.711 191.635 268.211 191.01 268.3C190.99 268.2 190.99 268.097 191.01 267.997V266.212C191.917 266.042 192.836 265.947 193.759 265.926ZM175.82 261.321C170.465 260.732 166.895 266.158 168.376 271.067C168.936 272.457 169.913 273.639 171.172 274.451C172.432 275.263 173.912 275.665 175.409 275.601C183.62 275.065 184.334 262.142 175.82 261.321ZM179.39 272.495C178.293 273.651 176.782 274.325 175.189 274.368C173.596 274.412 172.051 273.822 170.893 272.727C169.956 271.777 169.357 270.545 169.19 269.222C169.024 267.898 169.298 266.556 169.971 265.403C170.643 264.251 171.677 263.353 172.912 262.847C174.147 262.341 175.514 262.257 176.801 262.606C177.772 262.919 178.648 263.473 179.345 264.217C180.043 264.96 180.54 265.869 180.79 266.858C181.04 267.847 181.034 268.883 180.774 269.869C180.513 270.855 180.006 271.759 179.3 272.495H179.39ZM202.612 261.91L205.379 263.159C204.54 264.605 203.773 266.051 203.094 267.425C203.014 267.556 202.988 267.712 203.024 267.861C203.059 268.01 203.152 268.139 203.282 268.22C203.412 268.3 203.569 268.326 203.718 268.291C203.867 268.255 203.996 268.163 204.076 268.032C204.915 266.765 205.861 265.391 206.772 263.784C207.718 264.266 208.039 264.373 209.806 265.105C210.182 265.344 210.635 265.433 211.073 265.355C211.162 265.329 211.243 265.282 211.31 265.218C211.377 265.155 211.428 265.077 211.46 264.99C211.491 264.903 211.501 264.81 211.49 264.718C211.479 264.627 211.446 264.539 211.395 264.462C210.984 263.945 210.948 264.016 207.468 262.677C208.342 261.16 210.038 258.947 208.842 258.572C207.967 258.304 207.057 260.357 206.04 262.142L203.059 260.928C202.363 260.535 201.97 261.642 202.612 261.91ZM136.335 247.005C132.873 247.487 127.107 249.076 116.54 251.146C101.314 254.145 101.796 253.735 96.7263 255.109C96.6164 255.139 96.5193 255.204 96.4501 255.294C96.3809 255.384 96.3434 255.495 96.3434 255.609C96.3434 255.723 96.3809 255.833 96.4501 255.924C96.5193 256.014 96.6164 256.079 96.7263 256.109C100.011 256.109 130.374 250.057 136.585 248.29C136.737 248.239 136.865 248.135 136.945 247.996C137.026 247.858 137.053 247.695 137.023 247.538C136.992 247.381 136.906 247.241 136.779 247.143C136.653 247.044 136.495 246.996 136.335 247.005ZM152.204 233.921C157.559 232.921 163.36 232.136 168.733 230.851C169.411 230.851 169.358 229.655 168.733 229.726C158.416 230.762 95.1376 243.506 94.1916 245.095C92.9956 247.041 108.204 241.9 152.204 233.921ZM181.924 234.992C179.711 233.546 177.141 234.867 175.713 236.956C173.214 241.436 174.106 245.631 175.891 250.468C175.713 250.468 97.7794 265.962 97.6545 266.23C97.5295 266.497 97.6545 266.908 98.0115 266.908C103.027 266.908 170.143 253.502 176.373 251.7C176.888 253.043 177.484 254.355 178.158 255.627C178.228 255.745 178.327 255.843 178.446 255.911C178.565 255.98 178.699 256.017 178.836 256.019C179.693 256.019 187.19 250.861 188.939 249.611C191.474 247.826 194.08 245.863 194.473 242.721C195.151 237.188 187.868 235.902 184.245 239.151C184.045 237.515 183.212 236.021 181.924 234.992ZM53.922 41.6408C52.8548 41.0138 51.6377 40.6875 50.3999 40.6965C49.1622 40.7055 47.95 41.0495 46.892 41.692C45.8341 42.3345 44.9698 43.2514 44.391 44.3455C43.8122 45.4397 43.5405 46.6701 43.6047 47.9062C43.5467 47.9834 43.5154 48.0774 43.5154 48.1739C43.5154 48.2705 43.5467 48.3644 43.6047 48.4417C44.4576 49.4888 45.5747 50.2893 46.8405 50.7604C48.1063 51.2314 49.4749 51.3561 50.8049 51.1214C52.135 50.8866 53.3782 50.3011 54.4063 49.4252C55.4344 48.5493 56.21 47.4149 56.653 46.139C57.135 45.7463 56.8494 45.2465 56.778 45.0145C56.3033 43.5599 55.2782 42.349 53.922 41.6408ZM44.3901 48.0311C44.4433 46.8548 44.8241 45.7168 45.4896 44.7453C46.1551 43.7739 47.0787 43.0078 48.1564 42.5333C45.8002 44.3183 46.5321 49.3342 49.3524 49.834C47.531 49.8748 45.7605 49.2316 44.3901 48.0311ZM51.1017 49.5484C51.7474 49.0647 52.253 48.4181 52.5667 47.6747C52.8803 46.9314 52.9908 46.118 52.8867 45.3179C52.8297 44.5916 52.5727 43.8953 52.1442 43.3061C51.7158 42.717 51.1325 42.2579 50.4591 41.98C51.5001 41.9848 52.5172 42.293 53.3858 42.8668C54.2545 43.4406 54.937 44.2552 55.35 45.2108C55.05 46.2145 54.5144 47.1319 53.7878 47.8864C53.0612 48.641 52.1647 49.2108 51.1731 49.5484H51.1017ZM63.0433 39.2489C63.0098 39.1011 62.9252 38.9699 62.8044 38.8784C62.6835 38.787 62.5342 38.7412 62.3829 38.7491C61.2583 38.7491 62.1151 40.1057 60.5979 44.2648C60.5657 44.3679 60.5691 44.4789 60.6076 44.5799C60.646 44.6809 60.7173 44.766 60.81 44.8216C60.9026 44.8772 61.0113 44.9 61.1185 44.8865C61.2257 44.8729 61.3252 44.8237 61.4011 44.7467C61.7947 44.0785 62.1063 43.3653 62.3293 42.6226C62.6506 44.2826 62.9898 45.8891 63.3289 47.4242C63.35 47.5156 63.3889 47.602 63.4434 47.6784C63.4979 47.7548 63.5668 47.8197 63.6464 47.8694C63.726 47.9191 63.8145 47.9527 63.9071 47.9682C63.9996 47.9837 64.0943 47.9808 64.1857 47.9597C64.2771 47.9386 64.3635 47.8997 64.4399 47.8453C64.5163 47.7908 64.5812 47.7218 64.6309 47.6422C64.6806 47.5627 64.7142 47.4741 64.7297 47.3816C64.7452 47.289 64.7423 47.1943 64.7212 47.1029C64.2214 44.5325 63.6502 41.98 63.0433 39.2489ZM74.1817 44.122C72.5574 44.4076 71.5399 44.6039 70.2726 44.9431C71.5491 43.3126 72.2742 41.3185 72.3432 39.2489C72.2951 38.6753 72.0727 38.1301 71.7057 37.6866C71.3388 37.243 70.8449 36.9224 70.2904 36.7678C69.7731 36.5806 69.211 36.5562 68.6794 36.6978C68.1479 36.8394 67.6723 37.1402 67.3167 37.56C66.9612 37.9797 66.7425 38.4982 66.6901 39.0458C66.6378 39.5934 66.7542 40.1439 67.0239 40.6234C67.1488 41.141 68.0235 40.6234 67.8985 40.3199C67.7415 39.8883 67.7394 39.4155 67.8924 38.9825C68.0454 38.5494 68.3441 38.183 68.7375 37.9459C69.1391 37.7804 69.5873 37.7671 69.998 37.9084C70.4088 38.0497 70.7539 38.3359 70.9687 38.7134C71.1124 39.3228 71.1263 39.9555 71.0094 40.5706C70.8925 41.1856 70.6476 41.7692 70.2904 42.2834C68.6304 45.5678 67.4344 45.8534 68.1484 46.6031C68.2262 46.6873 68.3256 46.7485 68.4358 46.78C68.546 46.8115 68.6627 46.812 68.7732 46.7816C70.734 46.5109 72.6728 46.0993 74.5744 45.55C74.7193 45.4642 74.832 45.3331 74.895 45.177C74.9581 45.0209 74.9681 44.8483 74.9234 44.686C74.8788 44.5236 74.782 44.3805 74.648 44.2786C74.5139 44.1766 74.3501 44.1216 74.1817 44.122ZM82.0179 42.2834C82.2753 41.5375 82.2896 40.7291 82.0587 39.9746C81.8278 39.22 81.3636 38.5581 80.7328 38.084C80.1019 37.6098 79.337 37.348 78.548 37.336C77.759 37.324 76.9865 37.5625 76.3416 38.0173C76.2267 37.486 76.0083 36.9826 75.699 36.5357C77.0694 36.3648 78.4057 35.9855 79.6617 35.4112C79.828 35.3794 79.9824 35.3027 80.1083 35.1894C80.2341 35.0761 80.3266 34.9306 80.3757 34.7686C80.4042 34.6328 80.3904 34.4916 80.3361 34.3639C80.2818 34.2362 80.1897 34.1283 80.0722 34.0546C79.5724 33.7511 78.9834 34.1617 78.5907 34.3223C71.4507 37.0534 75.4134 34.9471 75.2706 39.3739C75.2739 39.5106 75.3208 39.6426 75.4043 39.7508C75.4879 39.8591 75.6038 39.9378 75.7352 39.9756C75.8666 40.0134 76.0066 40.0084 76.1349 39.9612C76.2633 39.9139 76.3731 39.827 76.4487 39.713C76.4926 39.6687 76.5235 39.6131 76.5379 39.5524C76.8932 39.0636 77.4216 38.7286 78.0153 38.6159C78.6089 38.5031 79.2233 38.621 79.7331 38.9455C80.0777 39.1978 80.3514 39.5348 80.5276 39.9239C80.7038 40.313 80.7765 40.741 80.7388 41.1664C80.7011 41.5919 80.5542 42.0004 80.3124 42.3524C80.0705 42.7045 79.7418 42.9881 79.3582 43.1759C78.4475 43.5179 77.4661 43.6283 76.5022 43.4972C75.9667 43.4972 75.7168 44.0506 76.0738 44.3719C76.5781 44.7257 77.1595 44.9542 77.7697 45.0383C78.38 45.1224 79.0015 45.0598 79.5827 44.8556C80.1639 44.6514 80.688 44.3115 81.1115 43.8642C81.535 43.4168 81.8457 42.8749 82.0179 42.2834ZM83.8921 39.6238C85.0234 39.4926 86.1406 39.2596 87.2301 38.9276C87.2556 40.1396 87.454 41.3417 87.8191 42.4976C87.8904 42.6 87.9885 42.6807 88.1026 42.7309C88.2168 42.7812 88.3425 42.799 88.4661 42.7824C88.5897 42.7658 88.7064 42.7154 88.8032 42.6368C88.9 42.5583 88.9734 42.4545 89.0151 42.337C89.1186 41.0492 88.9793 39.7534 88.6045 38.5171C89.2669 38.4234 89.8874 38.138 90.3895 37.696C90.4557 37.6116 90.4991 37.5116 90.5155 37.4056C90.5319 37.2996 90.5208 37.1912 90.4831 37.0908C90.4454 36.9904 90.3826 36.9013 90.3005 36.8322C90.2185 36.7632 90.12 36.7164 90.0147 36.6964C87.837 36.4108 88.5331 38.1065 87.9619 35.3041C87.9619 35.1573 87.9036 35.0166 87.7999 34.9128C87.6961 34.809 87.5553 34.7507 87.4086 34.7507C87.2618 34.7507 87.1211 34.809 87.0173 34.9128C86.9135 35.0166 86.8552 35.1573 86.8552 35.3041C86.8552 35.5897 86.8552 35.4647 86.9802 37.3033C86.3376 37.4818 85.7664 37.696 85.1952 37.928C84.624 38.1601 85.6236 35.9824 85.8378 33.1799C85.8393 33.087 85.8079 32.9966 85.7491 32.9247C85.6902 32.8528 85.6078 32.8041 85.5165 32.7872C84.8739 32.6623 84.856 33.3406 83.5708 38.767C83.5034 38.9236 83.4992 39.1003 83.559 39.26C83.6189 39.4197 83.7383 39.5501 83.8921 39.6238Z" fill="#5669FF"/>
<path d="M94.37 40.0344C98.2791 40.0344 99.1716 33.5548 95.3874 30.8059C93.4775 29.4315 91.5854 29.7706 90.7286 32.0019C89.6576 35.0185 91.2641 40.0344 94.37 40.0344ZM95.316 32.8944C96.8333 34.8222 96.4406 37.9459 94.7091 38.5885C92.9777 39.2311 91.514 36.4287 91.6568 33.9118C91.8888 30.4668 94.0308 31.1094 95.3696 32.823L95.316 32.8944Z" fill="#5669FF"/>
<path d="M101.938 38.4099C106.312 38.4099 107.293 31.0914 103.438 28.5567C103.084 28.2858 102.674 28.0982 102.237 28.0078C101.801 27.9174 101.35 27.9265 100.918 28.0346C100.485 28.1427 100.083 28.3469 99.7405 28.632C99.398 28.9171 99.1242 29.2757 98.9396 29.6813C98.4624 30.3869 98.1792 31.2056 98.1185 32.0553C97.4402 34.8399 99.011 38.4099 101.938 38.4099ZM99.5286 30.7344C99.6295 30.447 99.7896 30.1839 99.9985 29.9623C100.207 29.7406 100.461 29.5652 100.742 29.4474C101.022 29.3297 101.325 29.2722 101.63 29.2786C101.934 29.2851 102.234 29.3554 102.51 29.4849C105.312 31.2699 104.759 37.9101 100.832 36.6249C100.267 36.2274 99.8158 35.6883 99.5244 35.0618C99.2331 34.4353 99.1115 33.7432 99.1716 33.0549C99.1591 32.2668 99.2798 31.4823 99.5286 30.7344ZM107.543 35.3576C107.882 35.3576 107.151 35.3576 109.56 35.0006C110.846 34.8042 110.649 34.8399 112.488 34.4651C113.129 34.4385 113.748 34.2278 114.273 33.8582C114.42 33.708 114.502 33.5061 114.502 33.2959C114.502 33.0856 114.42 32.8838 114.273 32.7336C113.844 32.3052 112.773 32.4659 112.22 32.7336C110.274 33.162 110.542 33.0906 109.328 33.4298C110.246 31.9881 110.854 30.3711 111.113 28.6817C111.345 26.8967 109.846 25.308 108.382 25.8078C108.088 25.8923 107.827 26.0647 107.634 26.3019C107.441 26.539 107.325 26.8296 107.301 27.1346C107.278 27.4396 107.349 27.7445 107.503 28.0082C107.658 28.272 107.89 28.4821 108.168 28.6103C109.15 29.0387 109.203 27.8427 108.811 27.7892C108.723 27.7646 108.646 27.7102 108.594 27.6352C108.542 27.5603 108.518 27.4696 108.525 27.3786C108.525 26.7539 109.132 26.7896 109.471 27.093C110.917 28.5032 108.543 32.5373 107.043 34.233C106.976 34.3354 106.936 34.453 106.926 34.5751C106.916 34.6971 106.937 34.8197 106.987 34.9316C107.036 35.0435 107.113 35.1411 107.211 35.2155C107.308 35.29 107.422 35.3388 107.543 35.3576ZM115.915 30.6273C116.54 30.6273 116.361 30.2703 117.218 27.3072C118.467 32.6622 118.539 33.0014 119.181 33.3048C119.279 33.3801 119.398 33.4209 119.521 33.4209C119.643 33.4209 119.763 33.3801 119.86 33.3048C120.324 32.6801 120.128 32.3945 118.932 28.1819C117.932 24.7011 117.932 24.5226 117.254 24.5048C117.127 24.5113 117.007 24.5609 116.913 24.6454C116.819 24.7298 116.756 24.844 116.736 24.9689C116.397 26.6289 115.951 28.2533 115.433 30.0561C115.435 30.1924 115.484 30.3238 115.572 30.4279C115.66 30.5321 115.781 30.6025 115.915 30.6273ZM172.107 223.622L174.445 225.871C174.998 226.567 176.373 227.959 177.248 227.959C178.122 227.959 179.033 226.727 179.675 225.764C181.308 223.895 182.557 221.724 183.352 219.373C184.155 215.214 178.908 211.983 176.319 217.588C174.374 214.518 167.002 215.428 168.537 219.373C169.383 221.046 170.605 222.5 172.107 223.622ZM232.565 103.063C231.974 102.676 231.273 102.492 230.568 102.537C229.864 102.582 229.193 102.854 228.656 103.313C227.374 104.625 226.457 106.249 225.996 108.025C225.027 110.268 224.181 112.562 223.461 114.897C223.122 116.343 223.925 116.343 224.247 116.075C227.424 116.325 237.991 113.898 237.759 110.328C237.578 109.487 237.08 108.749 236.368 108.267C235.657 107.785 234.787 107.596 233.939 107.739C234.2 106.911 234.209 106.025 233.964 105.192C233.719 104.359 233.232 103.618 232.565 103.063ZM232.154 162.521C234.689 159.076 236.991 154.988 236.51 150.312C236.462 149.081 236.142 147.877 235.574 146.785C235.007 145.692 234.204 144.739 233.225 143.993C230.976 142.654 228.423 144.582 226.71 145.885C218.035 152.418 215.339 163.538 212.912 173.07C212.412 175.087 211.877 177.158 211.573 179.193C210.449 183.066 213.483 183.87 216.071 184.084C223.729 184.673 234.939 180.335 242.686 178.158C246.434 177.104 252.717 175.337 252.61 169.875C252.539 163.86 241.829 158.291 232.154 162.521ZM222.158 100.617C222.225 100.706 222.311 100.778 222.41 100.827C222.509 100.877 222.618 100.903 222.729 100.903C222.84 100.903 222.949 100.877 223.049 100.827C223.148 100.778 223.234 100.706 223.301 100.617C228.515 92.9607 233.18 84.9437 237.259 76.6268C240.561 69.4868 236.545 60.294 229.03 61.9184C225.96 62.6324 223.301 65.0064 221.141 68.9691C220.407 66.4835 218.754 64.3708 216.518 63.0608C209.11 58.8839 200.667 66.9164 204.754 74.3241C209.506 83.74 215.347 92.5649 222.158 100.617ZM101.51 113.88C101.523 114.379 101.589 114.876 101.706 115.361C101.813 116.432 101.956 117.575 103.027 117.575C103.168 117.57 103.306 117.538 103.434 117.48C103.563 117.422 103.678 117.339 103.774 117.236C103.87 117.133 103.945 117.012 103.995 116.881C104.044 116.749 104.067 116.609 104.063 116.468C103.894 115.5 103.637 114.55 103.295 113.63C103.208 113.449 103.066 113.301 102.889 113.206C102.712 113.111 102.51 113.075 102.311 113.103C102.113 113.131 101.928 113.221 101.784 113.361C101.64 113.5 101.544 113.682 101.51 113.88ZM121.984 110.988C121.791 110.843 121.552 110.773 121.312 110.793C121.072 110.813 120.847 110.92 120.681 111.095C119.913 111.452 119.788 115.629 121.484 115.629C121.743 115.637 121.996 115.551 122.196 115.387C122.396 115.223 122.53 114.992 122.573 114.737C122.573 113.933 122.466 114.023 122.466 113.487C122.466 111.595 122.323 111.256 121.984 110.988ZM178.658 265.783C177.854 264.302 175.748 264.766 175.088 266.301C174.918 266.082 174.705 265.9 174.462 265.766C174.22 265.633 173.952 265.55 173.677 265.523C173.401 265.497 173.123 265.526 172.859 265.611C172.595 265.696 172.351 265.833 172.142 266.015C171.843 266.286 171.606 266.618 171.447 266.989C171.288 267.36 171.211 267.761 171.221 268.164C171.231 268.567 171.328 268.964 171.506 269.326C171.683 269.689 171.937 270.008 172.25 270.264C173.32 271.026 174.462 271.683 175.659 272.227C175.845 272.351 176.06 272.425 176.284 272.441C176.783 272.441 176.998 271.638 177.194 271.263C178.408 268.782 179.211 267.479 178.658 265.783ZM156.024 270.585C156.327 272.37 156.595 274.369 156.72 274.958L160.112 274.173C160.361 274.173 160.379 274.298 159.487 269.942C158.314 270.042 157.154 270.257 156.024 270.585Z" fill="#5669FF"/>
<path d="M156.202 265.89C154.91 266.4 153.779 267.249 152.931 268.349C152.082 269.449 151.547 270.758 151.383 272.138C151.233 273.01 151.274 273.904 151.504 274.758C151.733 275.613 152.146 276.407 152.713 277.086C153.28 277.765 153.988 278.313 154.788 278.691C155.588 279.07 156.46 279.27 157.345 279.278C158.717 279.217 160.05 278.805 161.216 278.079C162.382 277.354 163.342 276.341 164.003 275.137C166.002 270.46 161.575 264.391 156.202 265.89ZM161.557 274.423V274.673C161.165 275.636 160.593 275.726 157.434 276.279L156.934 276.368C156.747 276.429 156.548 276.451 156.352 276.433C156.155 276.415 155.965 276.356 155.792 276.261C155.651 276.169 155.534 276.045 155.451 275.899C155.367 275.754 155.319 275.59 155.31 275.422C155.31 275.244 155.31 274.726 155.167 274.066C154.964 272.886 154.851 271.693 154.828 270.496C154.757 270.269 154.757 270.026 154.828 269.8C154.889 269.659 154.983 269.534 155.1 269.435C155.218 269.335 155.357 269.265 155.506 269.228C156.832 268.88 158.18 268.624 159.54 268.461C159.778 268.457 160.01 268.53 160.202 268.668C160.395 268.806 160.539 269.002 160.611 269.228C160.95 270.906 161.147 271.959 161.29 272.655C161.481 273.224 161.572 273.823 161.557 274.423Z" fill="#5669FF"/>
</svg>
