<svg width="361" height="361" viewBox="0 0 361 361" fill="none" xmlns="http://www.w3.org/2000/svg">
<path d="M127.74 270.931C130.749 269.865 133.831 269.02 136.963 268.404L137.342 269.793C137.385 269.957 137.485 270.1 137.624 270.196C137.763 270.292 137.932 270.335 138.101 270.317L150.501 268.873C153.912 261.093 160.176 249.307 160.266 249.126C160.176 246.184 160.266 243.711 160.266 240.895C153.172 243.531 140.05 248.531 133.191 251.725C133.036 251.825 132.916 251.971 132.848 252.143C132.78 252.314 132.767 252.503 132.812 252.682C132.812 252.682 132.938 253.133 133.101 253.783C129.743 253.783 119.69 253.296 117.271 255.588C116.895 256.112 116.71 256.749 116.747 257.393C116.603 259.884 117.848 279.234 119.834 284.919C120.863 287.898 123.029 287.573 124.509 284.721C126.222 280.426 127.322 275.911 127.776 271.31C127.776 271.075 127.722 271.093 127.74 270.931ZM125.664 254.776C127.866 254.595 128.552 254.631 133.281 254.487C134.13 257.7 135.88 264.306 136.783 267.682C133.598 268.175 130.455 268.905 127.379 269.866C126.42 264.887 125.847 259.842 125.664 254.776Z" fill="#5669FF"/>
<path d="M293.872 96.802C294.323 96.1702 293.746 95.358 293.258 94.7262C294.639 93.3063 296.17 92.0413 297.825 90.9538C300.618 89.562 303.171 87.7341 305.388 85.5388C306.309 84.5821 308.041 82.6147 307.392 81.4595C306.742 80.3043 305.587 80.2321 304.016 80.9C304.697 80.1856 305.252 79.3619 305.659 78.4632C306.164 77.0553 304.973 75.9182 302.392 76.965C303.33 75.4669 303.547 73.8966 301.959 73.1385C300.677 72.5248 298.8 73.9868 297.717 74.9435C295.59 76.8016 293.594 78.8038 291.742 80.9361C290.605 78.5535 288.8 75.8098 286.544 76.6763C284.288 77.5426 286.038 81.4234 287.194 83.5352L283.096 86.3691C282.477 86.0348 281.777 85.8786 281.075 85.9178C276.418 86.712 255.029 102.993 252.863 102.993C251.202 102.993 227.484 91.6216 206.979 88.3365C206.94 88.2136 206.866 88.1043 206.767 88.0212C206.668 87.9382 206.548 87.8848 206.42 87.8673C202.843 87.257 199.217 86.985 195.59 87.055C195.48 87.0624 195.373 87.0937 195.276 87.1467C195.18 87.1997 195.096 87.2731 195.03 87.3619H193.514C193.153 85.8998 191.817 82.5245 191.348 81.2248C192.576 80.1599 194.272 79.6184 195.157 77.9037C196.781 74.7269 196.709 69.2036 196.258 65.6658C198.297 64.1135 198.352 61.6225 197.882 59.0775C197.702 58.0486 197.142 55.7202 196.276 55.1426C195.788 54.8177 194.76 55.1426 193.875 55.4675C192.991 53.4098 192.991 54.3484 193.352 53.5181C193.519 53.1354 193.617 52.7259 193.641 52.3087C194.597 52.5975 196.583 50.6843 195.897 48.1573C195.537 47.2526 195.096 46.3826 194.579 45.5581C194.832 44.9444 195.373 44.2043 193.677 41.9481C192.946 41.1598 191.997 40.6069 190.951 40.3597H190.121C189.522 39.4901 188.643 38.8528 187.63 38.5547C186.101 38.1648 184.48 38.3917 183.117 39.1864C182.756 39.4571 182.468 39.8182 182.107 40.0709C181.29 39.5753 180.354 39.3132 179.399 39.3132C178.444 39.3132 177.508 39.5753 176.692 40.0709C176.214 40.2583 175.779 40.5404 175.413 40.9003C175.047 41.2601 174.757 41.6901 174.562 42.1647C173.677 41.8595 172.739 41.742 171.807 41.8197C170.874 41.8974 169.968 42.1686 169.147 42.6159C166.029 44.3067 163.696 47.151 162.649 50.5399C162.62 51.0509 162.62 51.5631 162.649 52.0741H162.45C159.743 51.677 156.295 58.1028 159.057 63.1026C159.382 63.6983 159.797 64.2578 160.194 64.9076C161.349 66.7126 160.898 67.2542 163.479 69.4563C164.237 70.1061 164.363 70.0519 164.833 70.449C165.302 70.8461 165.122 70.6476 165.392 71.6584C165.54 72.2538 165.804 72.814 166.17 73.3067C166.535 73.7993 166.995 74.2145 167.522 74.5283C167.714 76.2938 168.467 77.9513 169.67 79.2574C170.051 79.6838 170.496 80.0491 170.988 80.3404C171.121 80.4152 171.269 80.4585 171.421 80.4668C171.962 83.8241 172.63 88.1922 172.919 90.0513L171.313 90.9177C169.211 91.7634 167.167 92.7462 165.194 93.8599C165.039 93.967 164.93 94.1278 164.887 94.3111C162.974 95.3219 161.169 96.2785 160.14 96.8922C145.808 105.394 105.105 161.439 104.69 164.002C104.644 164.149 104.644 164.306 104.69 164.453C105.274 165.384 105.984 166.229 106.802 166.962C106.55 167.422 106.247 167.852 105.899 168.244C102.289 170.608 96.8745 174.128 93.9684 177.269C93.7646 177.451 93.6117 177.682 93.5248 177.941C93.4379 178.2 93.42 178.477 93.4728 178.745C93.5257 179.013 93.6474 179.262 93.8262 179.469C94.0049 179.675 94.2343 179.832 94.4919 179.922C95.0334 180.103 95.1236 180.049 98.6434 178.117C97.6761 178.966 96.8849 179.996 96.3149 181.15C96.0803 182.142 96.9828 182.72 98.1199 182.539C98.7598 182.372 99.369 182.104 99.9249 181.745C99.5994 182.248 99.4262 182.834 99.4262 183.433C99.4262 184.032 99.5994 184.618 99.9249 185.121C101.73 187.395 106.459 180.229 108.95 178.46C109.961 179.742 111.333 182.738 113.517 181.944C115.412 181.24 113.336 177.07 113.517 175.861C114.251 175.156 115.035 174.504 115.863 173.912C117.255 174.944 118.848 175.676 120.538 176.06C123.516 176.06 154.598 144.689 156.963 142.18C156.115 150.158 151.837 184.399 152.739 191.059C153.154 194.073 160.392 194.507 163.443 194.669C162.522 216.329 161.909 249.144 161.746 249.487C156.963 259.793 155.663 262.609 154.057 265.732C151.133 271.327 138.823 291.977 137.433 296.67C137.234 297.41 137.216 297.699 137.992 299.07C135.666 301.516 133.508 304.115 131.53 306.85C130.538 308.655 134.798 325.477 137.812 331.434C138.498 332.77 139.617 334.827 141.115 334.773C145.628 334.611 145.609 318.402 145.483 313.871C145.482 313.732 145.431 313.597 145.339 313.492C146.157 312.271 147.049 311.102 148.01 309.991C148.584 310.385 149.187 310.736 149.815 311.037C150.429 311.308 151.115 310.839 151.62 310.424C157.631 305.695 190.049 265.299 196.998 246.238C200.157 237.538 204.362 225.517 205.554 216.997C206.282 211.61 206.348 206.155 205.752 200.752C205.752 200.675 205.783 200.602 205.837 200.548C205.891 200.494 205.964 200.463 206.041 200.463C206.117 200.463 206.191 200.494 206.245 200.548C206.299 200.602 206.33 200.675 206.33 200.752C207.234 206.186 207.41 211.715 206.853 217.195C205.517 229.018 196.186 253.656 191.204 262.718C195.5 261.923 204.236 260.191 208.46 258.927C222.539 254.649 235.535 241.888 236.672 227.556C237.04 220.804 237.04 214.038 236.672 207.286C236.55 197.965 235.338 188.691 233.062 179.651C236.888 177.576 240.39 175.139 241.527 172.901C243.964 168.118 237.52 140.591 236.112 132.866C243.82 133.714 256.942 135.248 263.061 130.465C270.064 124.834 285.19 108.986 293.872 96.802ZM144.508 312.879C141.259 310.911 136.711 306.236 136.025 302.572C136.765 301.633 137.541 300.767 138.263 299.792C140.709 303.525 143.759 306.825 147.288 309.557C146.297 310.609 145.369 311.718 144.508 312.879ZM288.006 84.0407C288.099 83.9811 288.166 83.888 288.193 83.7806C288.22 83.6732 288.205 83.5595 288.15 83.4631C287.519 82.2898 285.623 78.1564 286.941 77.6871C287.699 77.3983 288.367 77.8676 288.926 78.4993C289.781 79.5833 290.446 80.8038 290.894 82.1093C290.927 82.2154 290.989 82.3105 291.072 82.3843C291.156 82.4581 291.257 82.5079 291.367 82.5282C291.476 82.5486 291.589 82.5389 291.693 82.5001C291.798 82.4613 291.889 82.3948 291.959 82.3078C293.764 80.3043 297.988 75.7376 300.37 74.5103C302.175 73.5716 302.608 75.3045 298.186 79.3476C297.17 80.1221 296.194 80.9475 295.262 81.8205C295.211 81.8914 295.183 81.9767 295.183 82.0642C295.183 82.1517 295.211 82.237 295.262 82.3078C295.262 82.7771 295.641 83.3006 296.291 82.8133C297.86 81.436 299.518 80.1637 301.255 79.0047C302.141 78.375 303.171 77.9778 304.251 77.8495C303.709 79.5101 298.673 84.0226 298.24 84.528C298.103 84.6512 298.019 84.8233 298.008 85.0074C297.996 85.1916 298.057 85.3729 298.178 85.5125C298.298 85.6521 298.469 85.7387 298.653 85.7537C298.837 85.7688 299.019 85.711 299.161 85.5929C301.164 84.2933 304.666 81.261 305.875 81.7122C307.085 82.1635 303.493 85.5208 302.59 86.3149C297.41 90.8094 298.746 87.9214 292.753 94.0223C290.145 91.1648 287.149 88.686 283.854 86.6579L288.006 84.0407ZM209.579 170.374C209.272 167.883 208.893 165.193 208.423 162.396L209.2 161.367C212.81 156.728 213.893 149.346 213.55 143.551C215.481 152.017 217.015 160.338 218.189 168.605L209.579 170.374ZM182.738 108.571C177.991 104.961 170.356 98.7333 165.916 94.4736L173.136 90.8636C179.766 97.0562 185.441 104.197 189.976 112.054C196.911 124.794 202.056 138.43 205.265 152.576L179.525 116.17L182.883 109.202C182.927 109.095 182.937 108.977 182.911 108.863C182.885 108.75 182.825 108.648 182.738 108.571ZM194.94 88.1019C195.048 88.3005 196.294 90.9538 198.189 95.5926C198.189 95.7912 197.846 100.304 197.684 101.892C195.38 100.979 193.207 99.7651 191.222 98.2821C191.619 96.7118 193.406 89.582 193.532 87.9756L194.94 88.1019ZM188.532 107.488C188.659 107.163 188.785 106.729 188.929 106.224L190.139 106.856C190.825 107.307 190.554 105.935 191.168 109.906C191.168 110.574 191.348 111.314 191.384 112.126C190.554 110.628 189.525 109.022 188.55 107.488H188.532ZM187.522 105.971C184.112 101.135 180.23 96.6483 175.933 92.5783L189.525 98.4806C189.002 99.7261 188.244 103.535 187.54 105.971H187.522ZM201.402 116.549C199.597 111.621 198.207 106.116 197.521 104.672C197.562 104.221 197.562 103.768 197.521 103.318C197.782 103.415 198.056 103.476 198.334 103.499C198.508 103.501 198.677 103.439 198.809 103.327C198.942 103.214 199.029 103.057 199.056 102.885C199.2 102.289 199.435 99.2748 199.471 98.607C204.721 111.864 209.105 125.448 212.593 139.274C202.395 117.578 203.965 123.859 201.42 116.549H201.402ZM216.329 151.006C212.214 131.278 204.976 106.675 196.745 88.4449C199.768 88.4465 202.786 88.688 205.77 89.1669C207.304 102.885 206.023 102.416 207.052 102.957C208.081 103.499 214.272 105.989 215.192 106.368C215.102 107.758 216.402 147.504 216.347 151.006H216.329ZM195.554 56.2978C196.495 58.3512 196.827 60.6315 196.51 62.868C196.364 63.4372 196.062 63.9545 195.638 64.3623C195.215 64.77 194.686 65.0523 194.112 65.1776C193.538 65.303 192.94 65.2665 192.385 65.0722C191.83 64.878 191.34 64.5336 190.969 64.0774C190.108 62.2631 189.46 60.3551 189.038 58.3916C189.525 57.7598 194.724 56.4964 195.554 56.2978ZM170.717 74.3478C170.058 74.0476 169.383 73.7825 168.695 73.5536C168.234 73.364 167.822 73.0712 167.492 72.6978C167.161 72.3243 166.92 71.8801 166.788 71.3992C166.655 70.9183 166.635 70.4134 166.728 69.9233C166.82 69.4332 167.024 68.9709 167.324 68.5718C168.461 67.6152 169.49 67.6693 170.428 69.0952C171.024 70.1963 171.006 70.2866 171.277 70.3949C171.354 70.4291 171.438 70.4463 171.523 70.4454C171.608 70.4445 171.692 70.4254 171.769 70.3895C171.846 70.3537 171.914 70.3017 171.969 70.2373C172.024 70.1728 172.065 70.0973 172.089 70.0158C172.356 68.886 172.399 67.7146 172.215 66.5683C171.999 65.3228 171.962 59.7995 171.999 59.619C172.526 59.8969 173.118 60.0278 173.713 59.9981C176.98 59.8717 177.63 58.193 178.93 56.8212C180.428 56.9656 180.735 57.6876 182.431 56.8212C183.226 56.3693 183.955 55.8106 184.597 55.1606C185.116 55.373 185.617 55.6265 186.096 55.9187C187.177 56.439 188.397 56.5987 189.577 56.3746C190.756 56.1504 191.832 55.5542 192.648 54.6733C192.846 55.0524 193.027 55.4314 193.189 55.8285C191.531 56.3432 189.969 57.1301 188.568 58.157C188.262 58.536 188.713 60.5937 188.821 61.0811C187.309 61.2713 185.846 61.7427 184.507 62.4709C184.236 61.5323 183.641 59.7814 182.702 59.2941C182.42 59.2077 182.118 59.2077 181.836 59.2941C180.211 59.5468 174.381 61.2977 173.677 62.2543C173.064 62.9222 174.814 68.0844 175.356 68.9328C177.432 72.1457 183.514 71.2071 184.652 67.4527C184.933 66.1927 184.933 64.8861 184.652 63.6261C185.175 63.6261 186.745 63.0665 186.926 63.0124C188.171 65.8102 188.532 65.9726 189.976 68.987C189.778 69.1494 189.453 69.4202 189.182 69.6007C187.901 70.449 187.63 70.3046 187.702 70.6656C187.723 70.7373 187.77 70.7988 187.833 70.8386C187.896 70.8785 187.971 70.894 188.045 70.8822C188.803 70.774 189.543 70.5677 190.247 70.2685C190.669 70.1113 191.016 69.8023 191.222 69.4021C191.727 68.265 188.929 63.9871 187.828 62.7056C188.045 62.7056 188.55 62.3446 188.929 62.146C189.435 64.1676 189.778 65.756 191.727 66.5502C192.291 66.7629 192.891 66.8597 193.493 66.8349C194.094 66.8101 194.685 66.6642 195.229 66.4058C195.518 69.5826 195.464 74.7449 193.947 77.5607C193.171 79.0228 191.258 79.5823 190.031 80.7916C189.67 81.1346 189.904 81.6219 190.031 82.1454C192.034 87.7228 192.07 87.7048 191.962 88.4268C191.431 91.4235 190.689 94.379 189.742 97.2713C189.29 97.0727 184.218 94.3833 174.291 90.5206C173.984 88.481 172.342 77.5968 171.818 75.5933C171.854 74.8893 171.764 74.7268 170.717 74.2575V74.3478ZM183.352 66.9834C182.774 68.9509 180.049 69.7992 178.099 69.2577C176.15 68.7162 176.024 67.7235 175.103 65.377C174.672 64.4805 174.374 63.5258 174.219 62.5431C174.814 61.8933 181.33 60.5576 182.143 60.4312C183.282 62.3802 183.709 64.6641 183.352 66.8932V66.9834ZM112.722 175.356C112.036 176.023 112.957 178.207 113.101 180.103C113.101 180.265 113.101 180.969 112.993 181.023C112 181.348 111.08 179.85 110.52 178.948C109.961 178.045 109.401 176.818 108.517 177.143C106.712 177.991 102.524 183.55 100.882 184.128C100.051 182.54 104.798 178.009 104.961 177.756C105.031 177.64 105.067 177.507 105.066 177.372C105.066 177.237 105.028 177.104 104.957 176.989C104.887 176.873 104.786 176.78 104.665 176.718C104.545 176.656 104.41 176.628 104.275 176.637C103.95 176.637 103.733 176.926 103.228 177.377C101.691 178.878 99.9313 180.132 98.0116 181.096C99.7522 179.099 101.615 177.212 103.589 175.446C103.687 175.346 103.755 175.221 103.788 175.085C103.788 175.085 103.409 174.128 102.669 174.507C101.622 175.085 96.5315 178.027 94.9251 178.785C94.7085 178.641 94.8348 178.424 94.9251 178.208C97.4701 175.085 103.066 171.294 106.495 168.894C106.898 168.479 107.233 168.004 107.488 167.486C109.863 169.696 112.397 171.729 115.069 173.569C114.246 174.108 113.462 174.706 112.722 175.356ZM154.725 191.763C154.328 191.51 154.039 191.276 153.985 190.951C152.992 183.586 158.515 141.855 158.425 140.212C158.425 140.116 158.406 140.021 158.368 139.932C158.331 139.843 158.276 139.763 158.207 139.695C158.138 139.628 158.056 139.575 157.967 139.54C157.877 139.505 157.781 139.488 157.685 139.49C156.764 139.49 158.389 139.49 135.393 161.511C133.877 162.937 122.289 174.02 120.358 174.76C117.704 174.561 107.723 166.601 106.098 164.092C109.239 157.739 147.324 105.466 160.501 97.4698C161.512 96.8561 163.244 95.8995 165.14 94.8887C165.795 95.5068 166.501 96.0683 167.251 96.5673C171.439 100.538 177.269 105.484 181.691 109.202L178.244 116.043C178.192 116.134 178.164 116.237 178.164 116.341C178.164 116.446 178.192 116.548 178.244 116.639C206.239 156.8 205.824 156.349 206.005 156.349C207.799 165.629 208.915 175.028 209.344 184.471C209.344 187.016 209.344 186.799 209.452 186.619C209.561 186.438 209.452 186.745 209.452 186.745C205.084 191.51 161.854 195.951 154.725 191.763ZM254.505 131.963C246.328 133.101 237.087 131.404 235.3 131.332C234.307 126.52 232.328 121.966 229.488 117.957C229.444 117.898 229.381 117.858 229.309 117.845C229.238 117.831 229.164 117.846 229.102 117.884C229.04 117.923 228.996 117.984 228.977 118.054C228.958 118.124 228.967 118.199 229 118.263C230.047 120.393 233.549 129.581 234.415 131.819C234.145 132.685 242.574 167.54 240.191 172.233C238.062 176.475 225.661 181.818 221.185 183.352C220.3 173.303 218.854 163.312 216.853 153.425C217.467 148.226 216.672 117.325 216.438 105.899C216.431 105.766 216.386 105.638 216.31 105.53C216.233 105.421 216.127 105.336 216.004 105.285L207.9 101.874C207.863 97.5846 207.592 93.3004 207.088 89.0405C227.322 92.5422 250.895 104.112 252.863 104.13C255.714 104.13 276.905 87.8853 281.291 87.2355C283.241 86.9287 291.616 94.2389 292.591 96.2605C284.035 108.21 268.999 123.913 262.032 129.346C259.788 130.847 257.196 131.748 254.505 131.963Z" fill="#5669FF"/>
<path d="M181.493 63.3734C181.47 63.2549 181.425 63.142 181.358 63.0411C181.292 62.9402 181.207 62.8534 181.107 62.7855C181.007 62.7176 180.895 62.67 180.777 62.6455C180.659 62.6209 180.537 62.6199 180.419 62.6424C180.3 62.6649 180.187 62.7106 180.086 62.7767C179.986 62.8429 179.899 62.9282 179.831 63.028C179.763 63.1277 179.715 63.2398 179.691 63.3579C179.666 63.4761 179.665 63.5978 179.688 63.7164C180.049 65.5214 180.121 65.9365 180.915 65.9365C181.065 65.937 181.213 65.9001 181.345 65.8291C181.478 65.758 181.59 65.6551 181.673 65.5297C181.755 65.4042 181.805 65.2602 181.818 65.1106C181.83 64.961 181.805 64.8106 181.745 64.673C181.691 64.3842 181.529 63.5359 181.493 63.3734ZM187.016 75.3225C188.189 75.6655 189.308 75.1059 189.272 74.8171C189.236 74.5283 189.272 74.6727 187.684 74.0771C186.619 73.68 185.446 72.2721 185.031 72.4887C184.615 72.7053 185.247 73.8605 185.392 74.0771C185.778 74.663 186.35 75.1017 187.016 75.3225ZM220.029 58.175C217.665 68.0845 215.932 76.4958 215.643 78.1744C215.452 78.9048 215.415 79.6672 215.535 80.4126C216.492 82.4523 228.856 86.4774 230.426 85.6832C231.997 84.889 236.076 75.7016 240.823 66.2253C243.731 66.3182 246.641 66.1065 249.505 65.5936C252.521 65.0403 255.456 64.1126 258.241 62.8319C264.342 60.0161 271.021 47.9587 271.923 41.8939C272.6 35.3094 271.206 28.6777 267.934 22.9234C252.79 -3.33938 208.369 10.7938 211.979 39.9626C213.01 46.6369 215.787 52.9201 220.029 58.175ZM231.04 79.6726C231.04 79.9614 230.715 79.9253 229.235 79.6726C226.208 79.2921 223.276 78.3559 220.589 76.9109C219.326 76.225 218.983 76.0806 219.109 75.7738C219.235 75.4669 219.506 75.5752 221.455 76.1167C221.636 76.1167 227.231 77.9217 228.838 78.4813C230.914 79.4199 231.04 79.4199 231.04 79.6726ZM230.715 50.3052C232.643 50.4052 234.563 50.0073 236.293 49.15C237.9 49.9286 239.638 50.4 241.419 50.5399C238.386 56.1895 232.231 67.7054 230.246 73.8424L222.593 71.7306C224.398 67.2903 228.387 56.8935 230.679 50.3052H230.715ZM230.083 48.8071C228.736 48.6035 227.493 47.9636 226.544 46.9855C225.595 46.0074 224.993 44.745 224.831 43.3921C224.325 39.7821 226.636 35.7389 230.119 36.6955C232.303 37.2912 232.574 39.024 232.195 41.208C231.87 42.7964 230.697 46.7855 230.047 48.7349L230.083 48.8071ZM234.993 44.4751C235.186 43.294 235.629 42.1677 236.293 41.1719C236.608 40.6291 237.07 40.1857 237.625 39.8921C238.18 39.5986 238.807 39.4667 239.433 39.5113C240.769 39.9084 241.347 42.4354 240.245 44.0238C239.187 45.4281 237.87 46.6167 236.365 47.5255C235.847 47.2215 235.434 46.7663 235.183 46.221C234.931 45.6757 234.852 45.0664 234.957 44.4751H234.993ZM218.405 21.5335C226.491 11.8046 241.708 7.94187 252.7 11.949C258.671 13.9988 263.694 18.1493 266.833 23.6273C269.945 29.1029 271.276 35.4112 270.642 41.6773C269.811 47.2909 263.422 58.9512 257.808 61.5323C252.676 63.8734 247.076 65.0095 241.437 64.8535C240.823 64.8535 240.173 64.8535 239.939 65.2867C238.874 67.4527 236.924 71.6403 235.011 75.5752C233.69 74.9373 232.32 74.4061 230.914 73.9868C233.007 67.9942 239.614 56.2256 242.754 50.5218C245.476 50.755 248.211 50.2825 250.696 49.15C251.368 48.7966 251.925 48.2589 252.301 47.6001C252.678 46.9414 252.859 46.1888 252.823 45.4309C252.787 44.6729 252.535 43.9409 252.098 43.3208C251.661 42.7007 251.055 42.2182 250.353 41.93C247.556 40.5582 245.047 43.8433 243.585 46.605C243.188 47.327 242.736 48.1753 242.231 49.132C240.771 49.036 239.331 48.7384 237.953 48.2475C239.326 47.2828 240.543 46.1142 241.563 44.7819C242.135 43.9189 242.424 42.8998 242.392 41.8652C242.36 40.8306 242.007 39.8316 241.383 39.0059C240.892 38.4364 240.211 38.0654 239.467 37.9624C238.722 37.8594 237.966 38.0315 237.339 38.4464C236.075 39.2231 235.062 40.3482 234.422 41.6865C233.782 43.0249 233.541 44.5196 233.729 45.9913C233.926 46.822 234.373 47.572 235.011 48.1392C233.827 48.6296 232.556 48.8752 231.275 48.8612C231.997 46.7313 233.17 42.8867 233.477 41.3163C233.669 40.421 233.712 39.5 233.603 38.5908C233.463 37.8102 233.101 37.0866 232.56 36.507C232.019 35.9274 231.322 35.5165 230.553 35.3237C226.166 34.0783 222.936 38.9337 223.567 43.4643C223.746 45.0878 224.443 46.6107 225.554 47.8072C226.666 49.0036 228.134 49.8099 229.74 50.1067C227.43 56.6047 223.82 67.0917 222.015 71.5681L218.044 70.5393C220.589 57.7599 220.896 58.0667 220.535 57.9043C216.434 52.6752 213.81 46.4421 212.936 39.8543C212.51 36.5877 212.777 33.2681 213.72 30.1116C214.662 26.9551 216.258 24.0323 218.405 21.5335ZM243.458 49.2403C244.722 46.9479 247.249 41.93 249.704 43.1574C250.195 43.3552 250.622 43.6834 250.94 44.1065C251.258 44.5296 251.455 45.0315 251.509 45.5581C251.473 48.7349 246.527 49.2944 243.386 49.2403H243.458ZM312.554 57.2003C314.729 55.9211 317.298 55.4844 319.774 55.9729C322.493 56.0216 325.091 57.1089 327.034 59.0119C328.978 60.915 330.119 63.4894 330.225 66.2073C328.589 65.2584 326.677 64.9015 324.81 65.1965C320.279 65.5936 314.359 68.0484 315.153 72.4165C315.803 76.0265 320.568 75.5391 324.178 74.5644C327.788 73.5897 330.658 71.8208 331.398 68.3372C335.784 71.532 336.813 77.1275 336.993 82.5967C336.993 82.6733 337.024 82.7467 337.078 82.8009C337.132 82.855 337.206 82.8855 337.282 82.8855C337.359 82.8855 337.432 82.855 337.486 82.8009C337.541 82.7467 337.571 82.6733 337.571 82.5967C337.697 76.4777 336.596 70.4851 331.596 67.0015C331.648 65.4343 331.381 63.8731 330.811 62.4122C330.242 60.9513 329.382 59.6211 328.283 58.5023C327.185 57.3835 325.87 56.4993 324.42 55.9032C322.97 55.3071 321.414 55.0115 319.846 55.0343C317.34 54.6684 314.786 55.1921 312.626 56.5144C311.958 56.8393 312.265 57.3267 312.554 57.2003ZM329.015 70.1422C326.976 72.8136 321.2 74.2034 318.528 73.7522C317.536 73.5897 316.723 73.1746 316.507 72.1457C315.857 68.5357 322.084 66.5683 325.802 66.4419C327.317 66.3259 328.827 66.7129 330.098 67.543C329.962 68.4867 329.589 69.3807 329.015 70.1422ZM304.287 36.0999C306.218 33.7173 304.919 29.5658 299.522 29.5477C297.428 29.5477 296.417 31.6776 296.561 33.7173C296.886 38.5727 302.355 38.4283 304.287 36.0999ZM297.825 33.627C297.825 32.4357 298.384 30.8834 299.63 30.9015C302.536 30.9015 303.872 32.2552 303.872 33.7534C303.799 37.1648 297.59 38.9337 297.825 33.627ZM297.085 238.26C281.219 231.924 273.855 262.591 260.895 288.944C260.813 290.052 260.849 291.165 261.003 292.265C261.003 295.027 261.31 313.312 262.916 315.387C263.349 316.218 265.173 315.387 266.021 314.864C273.226 310.404 280.016 305.305 286.309 299.63C286.363 299.569 286.403 299.497 286.428 299.419C286.453 299.342 286.462 299.26 286.453 299.179C289.811 294.395 302.392 269.486 305.442 256.996C307.572 248.151 305.46 241.563 297.085 238.26ZM302.753 261.183C294.259 260.095 286.046 257.413 278.548 253.277C282.771 245.281 287.988 236.166 296.598 239.596C306.182 243.404 305.984 251.292 302.753 261.129V261.183ZM272.717 308.113C272.163 307.649 271.558 307.249 270.912 306.922C268.473 305.682 265.655 305.411 263.025 306.164C262.844 304.016 261.815 290.045 261.815 289.919C275.335 294.865 271.165 292.717 284.558 299.377C283.15 300.713 277.862 304.413 272.717 308.077V308.113ZM282.031 255.877C283.792 256.838 285.599 257.712 287.446 258.494C283.309 264.993 279.653 271.786 276.508 278.818C273.476 285.154 273.584 285.118 270.497 292.031C268.692 291.453 266.887 290.912 265.082 290.37C267.032 286.489 280.894 258.115 282.031 255.841V255.877ZM271.201 292.211C277.067 281.688 283.042 268.602 288.168 258.729C289.973 259.487 291.778 260.1 293.583 260.642C292.627 262.447 289.829 267.248 289.089 268.638C288.349 270.028 280.93 284.648 280.407 285.767C279.576 287.572 277.302 292.608 276.598 294.215C274.757 293.403 272.988 292.789 271.129 292.175L271.201 292.211ZM277.248 294.45C278.349 292.446 282.88 284.035 283.439 282.952C284.287 281.273 293.746 261.941 294.269 260.822C295.93 261.292 297.681 261.689 298.8 261.905C295.496 270.93 285.984 288.312 282.555 296.886C279.432 295.424 278.728 295.063 277.176 294.413L277.248 294.45ZM278.349 253.801L281.58 255.606C275.069 266.694 269.397 278.254 264.613 290.19L261.905 289.359C272.393 267.014 272.88 264.089 278.277 253.765L278.349 253.801ZM285.786 298.457L283.06 297.157C286.002 291.381 295.208 276.562 299.413 262.032C300.424 262.212 301.417 262.375 302.374 262.501C297.735 274.878 292.166 286.885 285.713 298.421L285.786 298.457ZM229.235 310.171C229.954 309.575 230.469 308.769 230.705 307.865C230.941 306.962 230.888 306.007 230.553 305.135C230.399 303.877 229.823 302.709 228.917 301.823C228.012 300.937 226.832 300.386 225.571 300.259C224.31 300.133 223.044 300.44 221.981 301.13C220.918 301.819 220.122 302.85 219.723 304.052C217.412 302.554 214.903 300.966 212.503 299.449C214.308 297.049 219.614 298.114 220.156 300.081C220.168 300.158 220.21 300.226 220.272 300.272C220.335 300.318 220.413 300.337 220.49 300.325C220.566 300.313 220.635 300.271 220.681 300.208C220.726 300.146 220.745 300.067 220.733 299.991C220.463 296.85 213.929 295.009 211.293 298.709C208.965 297.283 206.077 295.551 203.658 294.233C205.734 292.428 210.373 293.439 210.878 295.316C210.902 295.38 210.948 295.434 211.007 295.467C211.067 295.501 211.137 295.512 211.204 295.499C211.271 295.486 211.331 295.45 211.374 295.396C211.417 295.343 211.44 295.276 211.438 295.208C211.203 292.283 205.156 290.316 202.413 293.529C201.263 292.885 200.054 292.353 198.803 291.941C198.574 291.846 198.323 291.819 198.079 291.864C197.836 291.909 197.611 292.023 197.431 292.193C192.864 297.879 177.468 312.644 170.356 314.359C170.177 314.386 170.009 314.459 169.867 314.572C169.726 314.685 169.617 314.833 169.551 315.001C169.485 315.17 169.465 315.352 169.492 315.531C169.519 315.71 169.593 315.878 169.706 316.019C171.268 317.604 173.056 318.949 175.013 320.008C173.208 321.813 171.8 323.438 170.753 324.611C170.211 325.189 169.923 336.235 170.392 338.672C170.462 338.911 170.616 339.116 170.825 339.25C173.099 340.802 202.395 353.473 205.391 351.776C207.394 350.639 231.311 325.748 231.69 324.99C232.267 323.799 232.069 315.857 232.033 312.68C231.888 311.723 230.101 310.695 229.235 310.171ZM171.475 334.015V329.99C178.966 333.6 196.113 340.964 202.611 343.022C204.272 343.564 204.416 343.491 205.283 343.022C210.246 339.845 227.773 320.099 230.986 317.084V320.893C221.239 330.658 204.687 347.769 204.38 346.795C202.593 346.686 173.027 334.737 171.475 334.015ZM228.784 304.088C229.433 305.182 229.781 306.427 229.795 307.698C229.788 308.103 229.689 308.5 229.504 308.86C229.32 309.22 229.055 309.533 228.73 309.774C227.213 308.763 224.343 306.886 220.95 304.684C222.809 301.02 226.943 300.966 228.712 304.088H228.784ZM171.024 315.64C178.713 313.366 193.315 299.287 198.225 293.186C199.407 293.515 200.546 293.981 201.618 294.576C199.813 297.933 201.745 301.615 202.431 301.092C202.81 300.803 202.124 300.695 202.016 298.926C201.969 297.634 202.262 296.352 202.864 295.208C205.355 296.507 208.279 298.204 210.752 299.63C209.236 303.005 211.059 306.344 211.69 305.857C212.322 305.37 211.402 305.478 211.293 303.709C211.249 302.549 211.472 301.395 211.943 300.334C214.488 301.832 217.087 303.384 219.47 304.846C219.103 305.746 218.957 306.72 219.045 307.688C219.133 308.655 219.452 309.587 219.975 310.406C219.999 310.437 220.029 310.462 220.062 310.482C220.096 310.501 220.133 310.514 220.172 310.519C220.21 310.524 220.249 310.521 220.287 310.511C220.324 310.501 220.36 310.484 220.39 310.46C220.421 310.436 220.447 310.407 220.467 310.373C220.486 310.339 220.499 310.302 220.504 310.264C220.509 310.225 220.506 310.186 220.496 310.148C220.486 310.111 220.468 310.076 220.445 310.045C220.12 309.328 219.96 308.547 219.976 307.76C219.991 306.973 220.182 306.2 220.535 305.496C224.741 308.059 228.134 310.207 229.181 310.911C228.982 311.092 210.156 327.842 203.748 332.824C199.543 331.723 177.468 320.766 171.024 315.64ZM171.71 325.694C179.886 329.304 198.46 337.679 202.738 338.492C203.478 338.636 203.766 338.69 205.174 337.571C211.185 332.752 230.733 312.301 230.914 312.518C230.922 312.571 230.922 312.626 230.914 312.68V316.29C226.888 319.521 204.506 343.022 204.145 341.903C202.34 341.903 173.009 329.936 171.511 329.268C171.475 328.51 171.637 326.488 171.71 325.694ZM204.579 350.567C202.774 351.596 175.284 340.423 171.601 338.149C171.463 336.999 171.397 335.841 171.403 334.683C179.309 338.582 202.304 348.293 204.416 348.202C207.503 348.04 229.325 323.474 230.878 321.759C230.895 322.681 230.805 323.602 230.607 324.503C230.3 325.098 205.77 349.899 204.579 350.567ZM55.0344 248.819C55.1608 250.75 55.251 252.429 55.251 253.999C55.251 254.239 55.3461 254.468 55.5154 254.638C55.6846 254.807 55.9142 254.902 56.1535 254.902C56.3929 254.902 56.6224 254.807 56.7917 254.638C56.9609 254.468 57.056 254.239 57.056 253.999C57.056 252.321 56.9658 250.66 56.8394 248.693C56.8227 248.453 56.7115 248.23 56.5304 248.073C56.3493 247.916 56.1131 247.837 55.8738 247.853C55.6344 247.87 55.4115 247.981 55.2541 248.162C55.0967 248.344 55.0177 248.58 55.0344 248.819ZM330.062 212.629C329.944 212.636 329.829 212.666 329.723 212.718C329.617 212.77 329.523 212.843 329.445 212.932C329.368 213.021 329.309 213.125 329.273 213.237C329.236 213.349 329.222 213.468 329.232 213.586C329.34 215.246 329.449 217.033 329.449 218.766C329.449 219.005 329.544 219.235 329.713 219.404C329.882 219.573 330.112 219.668 330.351 219.668C330.59 219.668 330.82 219.573 330.989 219.404C331.158 219.235 331.254 219.005 331.254 218.766C331.254 216.961 331.145 215.156 331.019 213.459C331.012 213.341 330.982 213.226 330.93 213.12C330.878 213.014 330.805 212.92 330.716 212.842C330.626 212.765 330.523 212.706 330.411 212.67C330.298 212.633 330.18 212.619 330.062 212.629ZM50.3595 244.325C50.5988 244.325 50.8284 244.23 50.9976 244.06C51.1669 243.891 51.262 243.662 51.262 243.422C51.262 243.183 51.1669 242.953 50.9976 242.784C50.8284 242.615 50.5988 242.52 50.3595 242.52C48.1754 242.52 46.3524 242.682 44.5474 242.646C44.3063 242.646 44.0749 242.74 43.9028 242.909C43.7306 243.078 43.6316 243.307 43.6268 243.548C43.6268 243.788 43.7219 244.017 43.8912 244.187C44.0604 244.356 44.29 244.451 44.5293 244.451C46.3885 244.487 48.4281 244.415 50.3595 244.325ZM324.467 207.286C322.301 207.286 320.478 207.412 318.655 207.43C318.415 207.43 318.186 207.526 318.016 207.695C317.847 207.864 317.752 208.094 317.752 208.333C317.752 208.572 317.847 208.802 318.016 208.971C318.186 209.14 318.415 209.235 318.655 209.235C320.604 209.235 322.626 209.235 324.575 209.091C324.814 209.077 325.038 208.968 325.197 208.788C325.356 208.609 325.438 208.374 325.423 208.134C325.409 207.895 325.3 207.671 325.121 207.512C324.941 207.353 324.706 207.272 324.467 207.286ZM54.5471 233.17C54.6554 234.83 54.7637 236.617 54.7637 238.35C54.7683 238.588 54.8649 238.815 55.0331 238.983C55.2014 239.151 55.4283 239.248 55.6662 239.253C55.9055 239.253 56.1351 239.158 56.3043 238.988C56.4736 238.819 56.5687 238.589 56.5687 238.35C56.5687 236.545 56.4604 234.74 56.3521 233.043C56.3353 232.804 56.2242 232.581 56.0431 232.424C55.862 232.266 55.6258 232.187 55.3864 232.204C55.147 232.221 54.9242 232.332 54.7667 232.513C54.6093 232.694 54.5303 232.93 54.5471 233.17ZM330.766 203.117C330.766 201.312 330.658 199.507 330.532 197.81C330.515 197.57 330.404 197.348 330.223 197.19C330.041 197.033 329.805 196.954 329.566 196.97C329.327 196.987 329.104 197.098 328.946 197.279C328.789 197.461 328.71 197.697 328.727 197.936C328.835 199.597 328.943 201.384 328.943 203.117C328.943 203.356 329.038 203.585 329.207 203.755C329.377 203.924 329.606 204.019 329.846 204.019C330.087 204.019 330.318 203.925 330.49 203.756C330.662 203.587 330.761 203.358 330.766 203.117ZM67.868 244.09C67.9865 244.085 68.103 244.057 68.2107 244.008C68.3185 243.958 68.4153 243.888 68.4958 243.8C68.5763 243.713 68.6388 243.611 68.6797 243.5C68.7206 243.388 68.7392 243.27 68.7344 243.151C68.7162 242.915 68.6093 242.695 68.4352 242.534C68.2611 242.373 68.0327 242.284 67.7958 242.285C65.6117 242.375 63.7887 242.447 61.9656 242.411C61.7263 242.411 61.4967 242.506 61.3275 242.676C61.1582 242.845 61.0631 243.074 61.0631 243.314C61.0631 243.553 61.1582 243.783 61.3275 243.952C61.4967 244.121 61.7263 244.216 61.9656 244.216C63.897 244.252 65.9186 244.18 67.868 244.09ZM341.975 207.051C340.17 207.142 338.167 207.196 336.163 207.196C336.044 207.191 335.925 207.21 335.814 207.252C335.702 207.295 335.6 207.359 335.514 207.442C335.428 207.524 335.36 207.624 335.313 207.733C335.267 207.843 335.242 207.961 335.243 208.08C335.243 208.321 335.337 208.553 335.506 208.725C335.675 208.897 335.904 208.996 336.145 209.001C338.203 209.001 339.863 209.001 342.047 208.856C342.166 208.852 342.282 208.824 342.39 208.774C342.498 208.724 342.595 208.654 342.675 208.567C342.756 208.48 342.818 208.377 342.859 208.266C342.9 208.155 342.919 208.036 342.914 207.918C342.892 207.683 342.784 207.465 342.61 207.305C342.437 207.145 342.211 207.055 341.975 207.051ZM26.3891 190.608C26.6237 190.788 77.5247 183.243 79.7088 181.908C79.8297 181.82 79.9263 181.702 79.9894 181.566C80.0526 181.431 80.0802 181.281 80.0698 181.132C80.0698 178.803 77.0193 156.945 75.5573 151.494C75.3768 150.826 75.1963 150.158 74.7811 149.923C72.0195 148.263 23.3567 157.432 20.4506 159.309C20.3719 159.356 20.3038 159.418 20.251 159.493C20.1981 159.568 20.1616 159.653 20.1438 159.742C19.5301 161.926 24.8187 189.525 26.3891 190.608ZM21.2448 160.176C24.7104 158.605 68.8788 150.519 73.9328 151.151C75.1602 154.309 78.4453 177.449 78.6619 180.843C76.1529 181.583 27.075 190.012 26.8945 190.048C26.714 190.084 26.6959 190.301 26.3169 189.164C24.7285 184.399 21.1546 164.255 21.2448 160.176Z" fill="#5669FF"/>
<path d="M83.6799 183.514C83.7781 183.332 83.8219 183.125 83.8062 182.919C83.8062 180.049 79.6908 148.19 78.2288 145.645C78.1141 145.458 77.9519 145.304 77.7585 145.199C77.5651 145.094 77.3475 145.043 77.1277 145.05C71.081 144.31 20.0717 154.273 16.7144 156.602C16.2451 156.927 16.3173 157.739 16.3714 158.605C16.6602 163.352 21.7864 194.579 23.5914 194.398C23.79 194.398 23.7178 194.254 23.2485 195.211C20.4327 201.005 15.0899 219.56 15.1982 223.296C15.1982 224.867 15.5592 226.906 17.1115 226.798C28.2483 225.426 82.8495 216.762 98.553 213.531C99.1667 213.405 99.5639 212.845 99.5458 211.925C99.3605 210.391 98.8956 208.905 98.174 207.539C95.9719 203.405 86.8386 187.034 83.6799 183.514ZM23.6997 193.839C22.2918 192.034 17.1115 160.934 17.5086 157.486C21.4796 155.428 71.803 145.699 77.0736 146.494C78.5176 150.465 82.2539 179.146 82.4886 182.594C76.0989 184.796 31.8583 191.944 23.6997 193.839ZM24.4939 194.38C26.0101 194.001 77.6512 185.355 82.3802 184.11C84.9614 186.51 96.6217 207.25 97.3798 209.019C87.0191 210.824 25.5589 221.094 16.5158 222.466C16.6422 216.997 22.2557 197.882 24.4939 194.38Z" fill="#5669FF"/>
<path d="M31.2807 213.098C32.851 212.864 66.1713 208.857 78.2107 205.59C78.2849 205.57 78.3484 205.523 78.3873 205.457C78.4263 205.391 78.4374 205.312 78.4182 205.238C78.3991 205.163 78.3512 205.1 78.2852 205.061C78.2192 205.022 78.1405 205.011 78.0663 205.03C75.7017 205.517 46.8578 209.362 31.2446 212.539C31.2014 212.531 31.1571 212.533 31.1149 212.545C31.0727 212.557 31.0338 212.578 31.0011 212.608C30.9684 212.637 30.9428 212.673 30.9262 212.714C30.9096 212.754 30.9024 212.798 30.9052 212.842C30.908 212.885 30.9208 212.928 30.9425 212.966C30.9642 213.004 30.9942 213.037 31.0304 213.061C31.0666 213.086 31.1079 213.102 31.1513 213.109C31.1946 213.115 31.2389 213.112 31.2807 213.098ZM55.6301 87.5064C54.9558 89.0293 54.3889 90.5975 53.9334 92.1994C53.9065 92.4565 53.9774 92.7142 54.132 92.9214C55.955 95.665 74.6368 116.729 79.5103 119.69C80.1781 120.105 80.9723 120.394 81.4597 119.798C84.9999 115.393 89.6201 111.979 94.8708 109.888C99.1444 108.376 103.625 107.53 108.156 107.379C111.766 107.055 112.397 106.694 113.787 104.329C115.427 101.217 117.602 98.4187 120.213 96.0621C123.542 93.1511 127.238 90.6874 131.205 88.7338C131.384 88.6326 131.524 88.4746 131.602 88.2849C131.681 88.0952 131.694 87.8848 131.639 87.6869C131.028 86.1343 130.222 84.6663 129.238 83.3188C129.888 83.1022 130.61 82.9037 130.61 82.2539C130.61 80.4489 114.87 57.6698 110.502 53.3739C110.051 52.9226 109.401 52.327 108.805 52.3631C99.7804 52.8685 90.9901 61.3881 85.9 68.8247C80.0698 68.6081 76.2974 68.0846 69.655 70.8824C64.9657 72.8729 60.738 75.8101 57.2366 79.5103C56.6951 80.0698 53.0129 83.9686 52.9587 84.2755C52.9046 84.5823 53.0129 84.5823 55.6301 87.5064ZM127.83 87.001C120.303 88.2826 115.502 94.5459 111.964 101.351C110.394 104.383 110.538 104.528 108.878 104.491C105.974 104.327 103.061 104.436 100.178 104.816C98.0626 105.132 95.9832 105.652 93.9683 106.369C89.3836 107.993 84.1311 113.192 81.3333 117.054C81.2739 117.134 81.1983 117.2 81.1116 117.248C81.0249 117.296 80.9289 117.325 80.8301 117.334C80.7312 117.342 80.6317 117.33 80.538 117.297C80.4443 117.265 80.3586 117.213 80.2864 117.145C74.4202 111.098 64.0414 100.484 58.825 94.3835C58.5723 94.1127 59.0055 93.7156 59.2582 94.0044C62.6335 97.6144 71.3517 106.26 80.7016 115.664C83.8603 111.639 88.7338 106.766 93.5532 105.069C96.1812 104.132 98.9158 103.525 101.694 103.264C104.295 103.067 106.908 103.067 109.509 103.264C110.574 102.037 115.845 88.1021 127.794 86.5498C127.829 86.5755 127.858 86.6087 127.878 86.647C127.898 86.6853 127.91 86.7277 127.912 86.7711C127.913 86.8144 127.905 86.8576 127.888 86.8974C127.871 86.9372 127.845 86.9726 127.812 87.001H127.83ZM108.787 53.8251C112.397 56.3521 127.09 78.1024 129.003 81.9109C125.683 82.9629 122.478 84.3477 119.437 86.0444C116.557 87.4882 114.035 89.5563 112.055 92.098C110.076 94.6398 108.688 97.5911 107.993 100.737C101.513 90.1959 92.4702 78.5897 86.4595 70.0521C86.8205 69.8174 96.9646 54.5291 108.787 53.8251ZM70.0521 71.8751C76.6403 69.2218 80.2864 69.8355 85.7375 70.0701C91.1525 79.3117 100.881 92.3438 107.289 100.881C101.375 99.482 95.1516 100.338 89.8349 103.282C86.64 105.087 82.7412 109.419 80.3406 112.109C76.875 109.329 56.8756 88.0299 53.6627 84.4199C58.6084 78.8244 63.175 74.6187 70.0521 71.8029V71.8751ZM37.0206 117.776C36.5744 117.463 36.047 117.286 35.5024 117.267C34.9577 117.248 34.4191 117.387 33.9521 117.668C33.6119 117.82 33.305 118.037 33.0488 118.307C32.7926 118.578 32.5921 118.896 32.4589 119.243C32.3256 119.591 32.2622 119.962 32.2722 120.334C32.2822 120.707 32.3654 121.073 32.5171 121.413C32.6688 121.754 32.886 122.06 33.1563 122.317C33.4266 122.573 33.7448 122.773 34.0926 122.907C34.4404 123.04 34.811 123.103 35.1833 123.093C35.5556 123.083 35.9223 123 36.2625 122.848C36.8058 122.73 37.3003 122.448 37.6802 122.042C38.0602 121.636 38.3076 121.124 38.3899 120.574C38.4721 120.024 38.3852 119.461 38.1406 118.962C37.8961 118.462 37.5055 118.049 37.0206 117.776ZM35.8293 121.386C34.5658 121.783 33.8077 121.386 33.5008 120.773C32.9232 119.491 33.6452 117.524 35.5224 118.101C36.8401 118.589 37.905 120.809 35.8293 121.477V121.386ZM128.805 35.1795C129.328 36.2444 131.765 35.8473 132.83 35.5044C133.389 35.3239 133.75 35.1253 133.805 34.5838C133.967 33.2301 134.148 21.4976 133.534 20.3604C133.47 20.2412 133.373 20.1433 133.254 20.0791C133.136 20.0149 133.001 19.9872 132.866 19.9994C130.94 19.9941 129.024 20.2739 127.18 20.8297C126.44 21.281 128.155 33.9882 128.805 35.1795ZM127.559 21.2629C129.227 21.0244 130.913 20.9458 132.595 21.0283C132.704 22.364 132.415 33.934 132.397 34.1145C131.634 34.3878 130.82 34.4865 130.014 34.4033C129.888 33.9882 129.671 32.8691 129.4 31.4612C128.605 28.0971 127.991 24.6928 127.559 21.2629ZM35.2697 102.542C35.4429 102.631 35.6347 102.677 35.8293 102.677C36.0238 102.677 36.2156 102.631 36.3888 102.542C37.0861 102.112 37.6392 101.483 37.9772 100.737C38.0231 100.618 38.0373 100.488 38.0183 100.362C37.9993 100.235 37.9478 100.116 37.8689 100.015C37.0025 98.9862 27.5443 88.0299 26.3891 88.7158C24.9708 89.634 23.6251 90.6598 22.364 91.7843C22.3131 91.8297 22.2724 91.8854 22.2444 91.9475C22.2164 92.0097 22.2018 92.0771 22.2015 92.1453C22.1654 93.0839 32.6705 101.495 35.2697 102.542ZM26.6057 89.1851C27.9234 90.1417 32.3637 95.6289 36.4791 100.484C36.302 100.763 36.0828 101.013 35.8293 101.224C31.5024 98.4551 27.3713 95.3914 23.465 92.055C24.4442 91.0269 25.4937 90.0679 26.6057 89.1851ZM54.9623 49.3668C55.3594 42.3634 59.4387 39.1144 63.6985 38.2841C62.4891 42.7244 62.6877 48.5004 67.0738 49.2404C69.1676 49.5834 70.1965 48.5004 71.7127 47.2369C78.1926 41.8219 72.9581 36.4069 65.6479 36.7859C68.3734 29.3132 74.6729 23.2304 83.03 23.0318C83.1066 23.0318 83.1801 23.0014 83.2342 22.9472C83.2884 22.8931 83.3188 22.8196 83.3188 22.743C83.3188 22.6664 83.2884 22.593 83.2342 22.5388C83.1801 22.4847 83.1066 22.4542 83.03 22.4542C74.005 22.2737 66.9114 28.7717 64.1136 36.8942C59.2943 37.7245 54.511 41.3345 54.3847 49.2585C54.3775 49.2964 54.378 49.3354 54.3859 49.3731C54.3939 49.4109 54.4092 49.4467 54.431 49.4786C54.4527 49.5104 54.4806 49.5376 54.5129 49.5587C54.5452 49.5798 54.5814 49.5943 54.6193 49.6014C54.6572 49.6085 54.6962 49.6081 54.7339 49.6002C54.7717 49.5922 54.8075 49.5769 54.8394 49.5551C54.8712 49.5333 54.8985 49.5055 54.9195 49.4732C54.9406 49.4409 54.9551 49.4047 54.9623 49.3668ZM65.2327 38.0675C67.9222 37.887 71.9293 38.7173 73.0303 41.154C73.6621 42.5439 73.0303 44.2586 70.7921 46.1358C70.1845 46.7446 69.4913 47.2614 68.7344 47.6701C66.0269 48.8253 63.0306 45.486 65.2327 38.0675ZM70.395 293.349C68.6511 292.882 66.8314 292.768 65.043 293.015C63.2546 293.261 61.5336 293.863 59.9812 294.785C58.4288 295.706 57.0765 296.929 56.0038 298.381C54.9311 299.833 54.1596 301.485 53.7349 303.24C52.933 306.885 53.6121 310.7 55.6228 313.845C57.6336 316.989 60.8111 319.207 64.4566 320.008C68.102 320.81 71.9166 320.131 75.0613 318.12C78.206 316.11 80.4232 312.932 81.225 309.287C81.5675 307.529 81.5586 305.72 81.1989 303.965C80.8391 302.21 80.1356 300.544 79.1288 299.063C78.1221 297.581 76.832 296.313 75.3331 295.333C73.8341 294.352 72.1558 293.678 70.395 293.349ZM75.9725 308.059C75.2482 310.948 73.5144 313.482 71.0845 315.203C68.6546 316.925 65.689 317.72 62.7238 317.445C60.0018 316.382 57.7421 314.392 56.3423 311.827C54.9424 309.262 54.4921 306.285 55.0706 303.421C55.746 300.462 57.4637 297.845 59.9096 296.049C62.3555 294.253 65.3663 293.397 68.3915 293.637C71.1403 294.773 73.4004 296.842 74.7739 299.48C76.1474 302.118 76.5462 305.156 75.9003 308.059H75.9725Z" fill="#5669FF"/>
<path d="M94.4376 298.493C92.8663 297.95 91.1822 297.82 89.5461 298.114C88.868 296.559 88.0334 295.077 87.0552 293.691C88.2284 292.626 91.4413 289.666 90.6652 288.276C87.903 284.972 84.6235 282.138 80.9543 279.883C79.4221 279.025 77.735 278.479 75.9905 278.277C74.8353 278.439 72.0917 282.933 71.478 283.944C71.0809 283.944 69.673 283.493 69.5647 283.439C69.5647 282.139 69.1857 277.446 68.0124 276.905C66.7004 276.422 65.338 276.089 63.9512 275.912C62.6696 275.713 51.1357 277.825 50.2873 279.378C49.7278 280.424 51.0274 284.377 51.4064 285.479C50.433 286.014 49.4981 286.617 48.6087 287.284C46.8037 288.565 47.291 288.511 46.9661 288.366C46.5735 288.179 46.1527 288.057 45.7207 288.005C44.2788 287.16 42.5882 286.841 40.9374 287.103C39.2768 287.645 35.36 296.561 34.7282 298.854C34.5215 299.432 34.4656 300.053 34.5658 300.659C34.999 301.85 37.887 302.807 39.0963 303.186C38.7624 305.508 38.7624 307.866 39.0963 310.189C37.5079 310.622 34.2048 311.597 34.3853 313.221C34.5658 314.846 38.7895 325.568 40.5403 326.416C41.4995 326.952 42.5601 327.282 43.6542 327.385C44.7483 327.488 45.8518 327.36 46.8939 327.012C47.4808 326.719 48.0477 326.387 48.5906 326.019C49.3126 326.56 50.0707 327.048 50.8469 327.517C50.2873 328.907 49.0419 332.011 49.439 333.419C49.6375 334.159 50.2332 334.394 51.0635 334.701C53.3558 335.531 65.702 338.491 67.5792 338.166C68.2832 338.058 68.6622 337.318 68.8788 336.614C69.2799 335.012 69.5158 333.373 69.5828 331.723C70.5098 331.631 71.4315 331.493 72.3444 331.307C72.902 332.289 73.6152 333.172 74.4563 333.925C75.3768 334.575 76.153 334.25 77.1999 333.582C77.7053 334.232 78.4634 335.134 79.2756 335.224C81.3153 335.459 89.7446 327.517 90.611 325.892C91.333 324.539 88.6977 322.12 87.5245 321.055C88.7937 319.145 89.79 317.067 90.4847 314.882C91.7865 315.078 93.1041 315.151 94.4196 315.099C95.0152 315.099 95.7011 314.882 95.9538 314.322C97.0549 311.813 96.73 302.301 95.9538 299.882C95.8455 299.178 95.0333 298.709 94.4376 298.493ZM94.8708 300.153C95.4845 302.5 95.6831 311.362 94.7806 313.655C93.22 313.808 91.6453 313.735 90.1056 313.438C89.9412 313.41 89.7723 313.444 89.632 313.534C89.4917 313.625 89.3902 313.764 89.3475 313.925C88.6287 316.366 87.5127 318.671 86.0444 320.748C85.9398 320.886 85.8926 321.059 85.9128 321.23C85.933 321.402 86.019 321.559 86.1527 321.669C87.4191 322.672 88.4951 323.895 89.3295 325.279C88.427 326.759 81.3694 333.221 79.42 333.762C79.1312 333.762 78.337 332.679 78.1385 332.39C77.4717 331.389 76.8689 330.346 76.3335 329.268C76.2553 329.111 76.1213 328.988 75.9577 328.925C75.7941 328.862 75.6127 328.861 75.449 328.925C70.2145 330.892 68.229 329.737 68.229 331.037C68.2314 332.982 67.9143 334.916 67.2904 336.759C63.0486 336.297 58.8713 335.365 54.8359 333.979C55.0308 332.052 55.5688 330.175 56.4243 328.438C56.9658 327.228 54.7998 327.571 50.7566 323.456C50.6265 323.335 50.4557 323.268 50.2783 323.268C50.1009 323.268 49.9301 323.335 49.8 323.456C47.995 324.936 45.6485 326.38 45.1792 326.145C44.2586 325.694 40.0169 316.073 39.7642 314.124C41.048 313.229 42.5054 312.614 44.042 312.319C44.2059 312.273 44.3474 312.168 44.4404 312.026C44.5333 311.883 44.5713 311.711 44.5474 311.543C44.1051 308.987 44.1051 306.373 44.5474 303.817C44.575 303.66 44.5419 303.498 44.4549 303.364C44.3678 303.23 44.2332 303.134 44.0781 303.095C42.7174 302.739 41.4073 302.211 40.1793 301.525C39.7822 301.236 39.8183 301.254 39.8544 300.947C41.0227 296.734 42.8963 292.748 45.3958 289.161C46.3705 288.89 49.0058 290.821 49.9083 291.507C50.0026 291.599 50.1288 291.65 50.2603 291.65C50.3917 291.65 50.5179 291.599 50.6122 291.507C51.4416 290.647 52.3346 289.851 53.2836 289.125C56.0272 287.049 56.7673 287.32 56.5326 286.598C55.7029 284.787 55.2368 282.83 55.1608 280.84C55.4406 280.607 55.758 280.424 56.0994 280.298C57.7846 279.632 59.5159 279.089 61.2798 278.674C63.4178 278.078 65.6153 277.721 67.8319 277.609C68.211 277.771 68.5539 279.414 68.6442 279.919C69.312 283.529 68.8608 284.269 69.3842 284.323C74.5285 284.829 75.5754 286.255 75.9364 285.623C76.9373 283.873 78.1039 282.223 79.42 280.695C79.7991 280.316 79.781 280.136 80.9182 280.785C84.3154 283.005 87.358 285.726 89.9432 288.854C90.2139 289.323 87.8674 291.814 86.1527 293.276C85.557 293.8 86.4054 294.034 87.9577 296.994C89.51 299.955 89.149 300.785 89.9793 300.604C91.5799 300.221 93.2271 300.069 94.8708 300.153ZM345.387 149.327C341.603 147.782 337.635 146.732 333.582 146.205C330.622 145.735 327.138 145.266 324.196 144.887C327.03 140.88 335.423 130.736 336.831 128.263C337.228 127.595 336.47 126.657 335.911 126.097C332.77 122.74 326.705 121.476 322.048 120.754C319.377 120.321 308.222 118.949 306.327 119.852C304.052 120.935 287.23 146.205 286.724 150.049C286.724 150.699 286.941 150.952 287.573 151.187C290.226 152.161 302.193 153.677 304.865 154.309C301.255 160.627 285.208 181.98 283.638 184.994C283.259 185.752 283.493 186.203 283.945 186.348C285.569 186.993 287.24 187.512 288.944 187.9C289.594 188.099 291.02 187.214 293.096 185.951C302.41 180.355 342.372 153.966 345.441 150.555C345.526 150.475 345.592 150.377 345.636 150.269C345.68 150.161 345.7 150.045 345.694 149.929C345.689 149.812 345.659 149.698 345.606 149.595C345.553 149.491 345.478 149.4 345.387 149.327ZM306.597 170.987C291.255 181.113 286.074 184.074 285.894 184.2C288.367 180.428 303.727 159.381 306.363 154.345C306.409 154.248 306.432 154.142 306.432 154.034C306.431 153.927 306.407 153.821 306.36 153.724C306.313 153.627 306.246 153.542 306.162 153.474C306.078 153.407 305.98 153.359 305.875 153.334C304.07 152.685 290.93 151.277 287.825 150.176C288.222 146.818 304.612 121.44 306.597 120.429C308.583 119.419 327.842 121.711 331.452 124.292C329.557 127.992 319.088 140.952 317.391 143.967C317.048 144.58 316.94 145.176 317.608 145.338C318.276 145.501 335.243 147.486 338.943 148.696C334.43 152.468 311.651 167.594 306.597 170.915V170.987ZM190.807 60.6297C190.807 60.7921 190.915 60.9907 191.186 62.0376C191.257 62.2647 191.413 62.4554 191.622 62.5698C191.83 62.6843 192.075 62.7134 192.305 62.6513C192.535 62.5842 192.728 62.4287 192.843 62.2188C192.958 62.0089 192.985 61.7619 192.918 61.5322C192.738 60.8282 192.575 60.2326 192.467 59.9438C192.362 59.7456 192.187 59.5936 191.976 59.5176C191.765 59.4416 191.533 59.4469 191.325 59.5326C191.118 59.6182 190.95 59.7781 190.854 59.9809C190.758 60.1837 190.741 60.415 190.807 60.6297Z" fill="#5669FF"/>
</svg>
