<svg width="362" height="361" viewBox="0 0 362 361" fill="none" xmlns="http://www.w3.org/2000/svg">
<path d="M297.298 89.8668C298.031 89.7115 298.702 89.3418 299.224 88.8048C299.163 89.1029 299.085 89.3974 298.99 89.6868C298.846 90.1728 299.386 90.3168 299.566 90.0108C300.203 89.0657 300.454 87.913 300.268 86.7888C300.259 86.6825 300.219 86.5812 300.154 86.4968C300.089 86.4124 300.001 86.3484 299.901 86.3124C299.8 86.2765 299.692 86.27 299.588 86.2938C299.484 86.3176 299.389 86.3707 299.314 86.4468C298.558 87.3648 298.414 88.6608 297.136 89.0568C297.035 89.0843 296.948 89.1493 296.893 89.2385C296.838 89.3277 296.819 89.4345 296.839 89.5374C296.86 89.6402 296.918 89.7314 297.004 89.7925C297.089 89.8537 297.194 89.8802 297.298 89.8668ZM293.752 83.8008C293.853 83.8653 293.969 83.9016 294.088 83.906C294.207 83.9104 294.325 83.8826 294.43 83.8255C294.535 83.7685 294.623 83.6843 294.684 83.5818C294.745 83.4792 294.778 83.3621 294.778 83.2428C294.778 83.0988 294.778 82.9368 293.914 81.6408C293.734 81.3708 293.518 80.8668 293.05 81.1188C292.582 81.3708 292.906 81.8388 293.158 82.4688C293.662 83.8008 293.662 83.8008 293.752 83.8008ZM293.464 80.5068C294.346 80.5068 294.958 80.5068 295.066 81.2448C295.08 81.3546 295.138 81.4542 295.226 81.5217C295.313 81.5892 295.424 81.6191 295.534 81.6048C295.644 81.5904 295.744 81.5331 295.811 81.4453C295.879 81.3576 295.908 81.2466 295.894 81.1368C295.752 80.5536 295.408 80.0392 294.925 79.6837C294.441 79.3283 293.847 79.1545 293.248 79.1928C293.106 79.2519 292.988 79.3575 292.913 79.4923C292.838 79.6271 292.811 79.7832 292.836 79.9353C292.861 80.0874 292.936 80.2266 293.051 80.3304C293.165 80.4341 293.31 80.4963 293.464 80.5068ZM73.3061 135.371C68.2572 137.813 62.7009 139.023 57.0937 138.901C51.4864 138.779 45.988 137.328 41.0501 134.669C40.9594 134.614 40.8506 134.597 40.7477 134.623C40.6447 134.648 40.556 134.713 40.5011 134.804C40.4462 134.894 40.4296 135.003 40.4549 135.106C40.4802 135.209 40.5454 135.298 40.6361 135.353C50.5001 141.779 64.9901 142.139 73.5761 135.839C73.6382 135.803 73.6835 135.744 73.7021 135.675C73.7206 135.606 73.7109 135.532 73.6751 135.47C73.6393 135.408 73.5803 135.362 73.5111 135.344C73.4419 135.325 73.3682 135.335 73.3061 135.371ZM71.9741 82.0008C73.0001 82.4148 74.6921 82.0008 74.2421 81.0468C73.9417 80.3188 73.7302 79.5573 73.6121 78.7788C73.6121 78.669 73.5685 78.5637 73.4909 78.486C73.4132 78.4084 73.3079 78.3648 73.1981 78.3648C73.0883 78.3648 72.983 78.4084 72.9054 78.486C72.8277 78.5637 72.7841 78.669 72.7841 78.7788C72.7733 79.5404 72.8458 80.3009 73.0001 81.0468C72.7546 81.1864 72.4705 81.2432 72.1901 81.2088C72.1381 81.1946 72.0838 81.1908 72.0304 81.1976C71.9769 81.2044 71.9253 81.2216 71.8785 81.2484C71.8317 81.2751 71.7906 81.3108 71.7576 81.3534C71.7246 81.3961 71.7003 81.4448 71.6861 81.4968C71.6719 81.5488 71.6681 81.6031 71.6749 81.6565C71.6817 81.71 71.699 81.7616 71.7257 81.8084C71.7525 81.8552 71.7882 81.8963 71.8308 81.9293C71.8734 81.9623 71.9221 81.9866 71.9741 82.0008ZM69.9041 78.0588C70.1829 77.4112 70.4115 76.7433 70.5881 76.0608C70.6042 75.9981 70.6076 75.9329 70.5981 75.8689C70.5887 75.8049 70.5665 75.7434 70.533 75.6881C70.4995 75.6328 70.4552 75.5847 70.4029 75.5467C70.3505 75.5087 70.2911 75.4815 70.2281 75.4668C69.6881 75.3048 69.5981 75.8808 69.3281 76.5828C69.1731 76.9319 69.0467 77.2931 68.9501 77.6628C68.9496 77.7735 68.982 77.882 69.0432 77.9743C69.1045 78.0666 69.1919 78.1385 69.2942 78.181C69.3965 78.2235 69.5092 78.2345 69.6178 78.2128C69.7264 78.191 69.8261 78.1374 69.9041 78.0588ZM75.8981 79.7508C76.0006 79.7958 76.1146 79.8078 76.2242 79.7853C76.3338 79.7627 76.4338 79.7066 76.5101 79.6248C76.7862 78.9762 77.0148 78.3084 77.1941 77.6268C77.2131 77.5653 77.2192 77.5006 77.212 77.4367C77.2049 77.3728 77.1846 77.311 77.1525 77.2553C77.1204 77.1995 77.0772 77.151 77.0255 77.1127C76.9738 77.0744 76.9148 77.0472 76.8521 77.0328C76.2941 76.8708 76.1861 77.5188 75.9521 78.1308C75.7181 78.7428 75.2681 79.4988 75.8981 79.7508ZM67.2581 83.4408C67.9042 83.7643 68.6444 83.8472 69.3461 83.6748C69.7961 83.4768 69.4901 82.7928 69.0581 82.9368C68.5826 82.9042 68.1264 82.7355 67.7441 82.4508C67.5006 82.291 67.2909 82.0847 67.1272 81.8438C66.9635 81.6029 66.849 81.332 66.7901 81.0468C66.6641 80.2908 65.4761 80.5788 65.6561 81.3348C65.7435 81.7852 65.9335 82.2095 66.2113 82.5748C66.4891 82.94 66.8473 83.2363 67.2581 83.4408ZM195.22 280.487C195.22 280.009 195.03 279.552 194.693 279.214C194.355 278.876 193.898 278.687 193.42 278.687C192.943 278.687 192.485 278.876 192.147 279.214C191.81 279.552 191.62 280.009 191.62 280.487C191.62 280.964 191.81 281.422 192.147 281.76C192.485 282.097 192.943 282.287 193.42 282.287C193.898 282.287 194.355 282.097 194.693 281.76C195.03 281.422 195.22 280.964 195.22 280.487ZM195.184 298.217C195.469 298.243 195.755 298.211 196.026 298.12C196.297 298.03 196.546 297.883 196.758 297.691C196.969 297.499 197.138 297.264 197.253 297.003C197.368 296.742 197.428 296.459 197.428 296.174C197.428 295.888 197.368 295.606 197.253 295.344C197.138 295.083 196.969 294.849 196.758 294.656C196.546 294.464 196.297 294.318 196.026 294.228C195.755 294.137 195.469 294.104 195.184 294.131C194.9 294.104 194.613 294.137 194.342 294.228C194.071 294.318 193.822 294.464 193.611 294.656C193.399 294.849 193.231 295.083 193.115 295.344C193 295.606 192.94 295.888 192.94 296.174C192.94 296.459 193 296.742 193.115 297.003C193.231 297.264 193.399 297.499 193.611 297.691C193.822 297.883 194.071 298.03 194.342 298.12C194.613 298.211 194.9 298.243 195.184 298.217ZM195.706 312.797C195.216 312.844 194.761 313.072 194.429 313.436C194.098 313.8 193.915 314.275 193.915 314.768C193.915 315.26 194.098 315.735 194.429 316.099C194.761 316.464 195.216 316.692 195.706 316.739C196.196 316.692 196.652 316.464 196.983 316.099C197.314 315.735 197.498 315.26 197.498 314.768C197.498 314.275 197.314 313.8 196.983 313.436C196.652 313.072 196.196 312.844 195.706 312.797ZM184.78 234.623C185.667 239.322 186.268 244.071 186.58 248.843C186.58 249.01 186.646 249.17 186.765 249.288C186.883 249.406 187.043 249.473 187.21 249.473C187.377 249.473 187.537 249.406 187.656 249.288C187.774 249.17 187.84 249.01 187.84 248.843C187.487 243.991 186.747 239.176 185.626 234.443C185.58 234.357 185.507 234.288 185.419 234.246C185.33 234.205 185.231 234.194 185.135 234.214C185.04 234.235 184.954 234.285 184.889 234.359C184.825 234.433 184.787 234.525 184.78 234.623ZM188.2 287.327C188.2 287.203 188.151 287.084 188.063 286.996C187.975 286.908 187.856 286.859 187.732 286.859C187.608 286.859 187.489 286.908 187.401 286.996C187.313 287.084 187.264 287.203 187.264 287.327C187.084 299.657 186.868 329.123 186.976 332.327C187.001 332.469 187.075 332.598 187.185 332.69C187.295 332.783 187.435 332.834 187.579 332.834C187.723 332.834 187.863 332.783 187.973 332.69C188.083 332.598 188.157 332.469 188.182 332.327C188.434 326.513 188.2 290.207 188.2 287.327ZM236.512 163.523C236.531 163.573 236.566 163.616 236.611 163.645C236.657 163.674 236.71 163.688 236.764 163.685C241.516 161.23 245.795 157.952 249.4 154.001C249.451 153.947 249.479 153.876 249.479 153.803C249.479 153.729 249.451 153.658 249.4 153.605C245.278 150.689 233.632 145.847 233.614 147.215C233.523 152.787 234.507 158.324 236.512 163.523ZM103.996 189.641C105.454 189.701 106.895 189.303 108.115 188.502C109.336 187.701 110.275 186.539 110.8 185.177C111.286 183.647 111.106 183.377 109.63 174.467C110.706 175.33 111.837 176.124 113.014 176.843C113.385 176.986 113.795 176.986 114.165 176.843C114.536 176.701 114.84 176.426 115.02 176.072C115.199 175.718 115.241 175.309 115.136 174.926C115.032 174.543 114.788 174.213 114.454 173.999C111.443 172.432 109.13 169.792 107.974 166.601C107.812 166.043 105.706 165.863 104.914 167.213C104.914 167.375 107.668 182.675 107.704 182.837C107.821 183.297 107.821 183.78 107.704 184.241C107.437 184.819 107.027 185.32 106.515 185.698C106.002 186.075 105.402 186.317 104.77 186.401C104.267 186.5 103.749 186.499 103.246 186.396C102.743 186.293 102.266 186.092 101.842 185.803C101.417 185.514 101.055 185.144 100.775 184.714C100.496 184.284 100.304 183.802 100.212 183.297C100.12 182.792 100.13 182.274 100.24 181.773C100.35 181.272 100.559 180.798 100.854 180.378C101.149 179.958 101.525 179.602 101.959 179.328C102.394 179.055 102.878 178.871 103.384 178.787C103.807 178.713 104.182 178.474 104.429 178.123C104.675 177.772 104.772 177.337 104.698 176.915C104.624 176.492 104.385 176.116 104.034 175.87C103.683 175.624 103.249 175.527 102.826 175.601C101.577 175.809 100.406 176.343 99.4291 177.149C98.4526 177.955 97.7058 179.004 97.2641 180.191C96.8587 181.264 96.7237 182.42 96.8711 183.557C97.0184 184.694 97.4436 185.778 98.109 186.712C98.7744 187.646 99.6595 188.402 100.686 188.912C101.713 189.423 102.85 189.673 103.996 189.641Z" fill="#5669FF"/>
<path d="M123.94 177.166C123.751 173.529 122.478 170.032 120.283 167.125C118.089 164.219 115.074 162.036 111.628 160.858C96.0942 155.602 81.8022 173.8 91.0002 187.606C93.1701 190.838 96.3295 193.28 100.005 194.564C103.679 195.849 107.672 195.908 111.383 194.732C115.094 193.555 118.324 191.208 120.588 188.041C122.852 184.874 124.028 181.058 123.94 177.166ZM95.1402 165.646C106.174 155.494 122.374 163.846 122.806 177.184C122.765 180.581 121.785 183.901 119.975 186.776C118.164 189.651 115.593 191.969 112.546 193.474C102.502 197.848 90.3702 190.306 89.5242 179.686C89.3021 177.075 89.6888 174.448 90.6539 172.012C91.619 169.575 93.1362 167.396 95.0862 165.646H95.1402ZM224.2 163.18C225.764 165.573 227.879 167.556 230.369 168.96C232.859 170.365 235.65 171.151 238.507 171.251C241.364 171.352 244.204 170.764 246.786 169.538C249.368 168.312 251.618 166.483 253.346 164.205C255.074 161.927 256.229 159.268 256.714 156.45C257.199 153.633 256.999 150.74 256.133 148.016C255.266 145.292 253.757 142.816 251.733 140.797C249.71 138.778 247.23 137.274 244.504 136.414C228.34 131.41 215.344 150.238 224.2 163.18ZM228.34 141.238C239.59 130.87 255.574 139.852 255.988 152.776C255.952 156.165 254.982 159.479 253.185 162.353C251.387 165.227 248.832 167.55 245.8 169.066C235.774 173.44 223.624 165.916 222.76 155.278C222.543 152.661 222.939 150.029 223.917 147.591C224.895 145.154 226.428 142.979 228.394 141.238H228.34ZM113.194 77.9678C99.8922 49.8878 65.8002 37.9178 38.2962 56.6378C2.6562 80.9918 11.0802 132.4 51.1482 146.224C90.2802 160.12 132.994 119.8 113.194 77.9678ZM88.1202 142.588C84.8537 144.187 81.4099 145.396 77.8602 146.188C78.0942 143.956 78.3822 138.196 78.4902 135.496C80.1822 138.196 83.2422 140.896 87.0402 140.356C90.3522 139.834 93.2862 136.756 96.0402 131.356C98.7365 125.455 100.253 119.083 100.504 112.6C100.798 111.849 100.985 111.062 101.062 110.26C101.977 108.152 103.042 106.113 104.248 104.158C104.896 103.593 105.46 102.938 105.922 102.214C106.425 100.818 106.537 99.3122 106.246 97.8578C106.19 96.3992 105.652 95.0003 104.716 93.8798C105.454 92.3858 107.506 85.5638 107.848 84.2318C107.878 84.0891 107.853 83.9405 107.78 83.8144C107.707 83.6882 107.591 83.5934 107.452 83.5478C103.844 82.9976 100.193 82.7687 96.5442 82.8638C96.4182 82.6298 89.9382 101.134 89.3442 102.664C89.3168 102.748 89.3067 102.836 89.3147 102.924C89.3227 103.012 89.3486 103.097 89.3907 103.175C89.4328 103.252 89.4904 103.32 89.5597 103.375C89.6291 103.429 89.7089 103.469 89.7942 103.492C91.5831 103.769 93.3858 103.95 95.1942 104.032C95.1942 104.806 94.8522 106.948 94.7262 107.632C94.2129 108.283 93.7948 109.005 93.4842 109.774C91.2494 111.718 89.6763 114.31 88.9842 117.19C85.7982 103.204 83.5842 97.1918 70.9842 90.1898C70.3542 89.8478 69.5982 89.5958 68.9142 89.1458C77.6262 91.2338 78.5982 92.2238 78.9222 91.7918C88.7862 77.8958 84.1962 62.0018 74.0802 55.6118C64.6122 48.7718 55.2702 55.2338 51.8682 66.0518C49.3482 74.5658 53.6682 82.0178 55.9002 85.1138C53.8482 85.3118 53.1462 85.5458 51.5082 85.7258C37.6482 87.2198 26.4162 103.834 21.2682 116.812C5.9142 81.5858 39.3582 41.4818 78.2382 50.7698C122.68 62.9558 130.762 121.96 88.1202 142.588ZM33.0582 133.588C34.4262 131.464 37.8462 125.56 38.6382 124.174C48.6462 131.878 67.4382 132.886 77.3022 126.316C77.3022 126.622 76.8522 143.974 76.8522 146.44C69.0559 147.867 61.0337 147.447 53.4287 145.216C45.8236 142.984 38.847 139.001 33.0582 133.588ZM89.5242 121.204C89.4917 120.642 89.4256 120.083 89.3262 119.53C89.4882 119.026 89.5962 118.576 89.7582 117.982C90.9282 119.926 94.7982 123.382 96.4002 123.58C96.4808 123.586 96.5612 123.565 96.6285 123.52C96.6957 123.475 96.7458 123.409 96.7708 123.332C96.7957 123.255 96.7941 123.172 96.766 123.096C96.738 123.02 96.6852 122.956 96.6162 122.914C93.9513 121.257 91.8105 118.879 90.4422 116.056C90.8567 114.927 91.466 113.879 92.2422 112.96C93.6531 115.174 95.6373 116.966 97.9842 118.144C98.0256 118.154 98.0686 118.157 98.1109 118.151C98.1532 118.145 98.1939 118.131 98.2307 118.109C98.2674 118.087 98.2996 118.058 98.3252 118.024C98.3509 117.99 98.3696 117.951 98.3802 117.91C98.3908 117.868 98.3932 117.825 98.3872 117.783C98.3812 117.741 98.3669 117.7 98.3452 117.663C98.3235 117.627 98.2947 117.594 98.2606 117.569C98.2264 117.543 98.1876 117.524 98.1462 117.514C96.041 116.067 94.3078 114.142 93.0882 111.898C93.3222 111.61 93.5742 111.322 93.8262 111.052C95.272 112.475 97.199 113.303 99.2262 113.374C98.9078 118.769 97.798 124.088 95.9322 129.16C94.4572 132.726 92.1486 135.886 89.2002 138.376C91.6807 133.561 92.2467 127.985 90.7842 122.77C90.7482 122.646 90.6719 122.539 90.5675 122.464C90.4631 122.389 90.3366 122.351 90.2082 122.356C88.6782 122.356 90.8202 128.62 80.0382 135.55C79.4812 134.752 78.9819 133.916 78.5442 133.048C78.6522 126.928 78.4002 120.826 78.1482 114.922C78.1482 114.812 78.1046 114.707 78.0269 114.629C77.9493 114.551 77.844 114.508 77.7342 114.508C77.6244 114.508 77.5191 114.551 77.4415 114.629C77.3638 114.707 77.3202 114.812 77.3202 114.922C77.4282 118.054 77.3202 121.15 77.3202 124.858C71.2722 128.656 64.3422 129.97 55.4862 128.98C49.5951 128.669 43.9194 126.663 39.1422 123.202C39.7722 122.05 42.4002 117.01 43.1382 115.66C43.1738 115.598 43.1922 115.528 43.1915 115.457C43.1907 115.386 43.1709 115.317 43.1341 115.256C43.0973 115.195 43.0449 115.146 42.9822 115.112C42.9196 115.079 42.8491 115.063 42.7782 115.066C42.3462 115.066 42.7782 114.958 39.1782 121.132C33.5001 118.908 28.9146 114.555 26.3982 109C29.3117 103.438 33.132 98.401 37.7022 94.0958C40.0497 97.3551 43.0285 100.109 46.4614 102.194C49.8944 104.28 53.7115 105.654 57.686 106.235C61.6604 106.816 65.7111 106.592 69.5973 105.576C73.4835 104.561 77.126 102.775 80.3082 100.324C80.3692 100.259 80.4053 100.174 80.41 100.085C80.4146 99.996 80.3876 99.9081 80.3338 99.837C80.2799 99.7659 80.2026 99.7161 80.1156 99.6965C80.0285 99.6769 79.9374 99.6887 79.8582 99.7298C77.246 101.525 74.4073 102.965 71.4162 104.014C65.516 105.883 59.177 105.845 53.2995 103.906C47.4219 101.968 42.3045 98.2263 38.6742 93.2138C40.3981 91.8149 42.2691 90.6078 44.2542 89.6138C51.0762 104.968 67.9062 106.066 76.0422 95.0138C80.2542 98.2898 81.5502 98.7038 84.9162 106.84C77.1942 113.572 70.1562 116.92 63.4242 116.848C57.8302 116.887 52.3003 115.655 47.252 113.244C42.2037 110.834 37.7689 107.308 34.2822 102.934C33.9942 102.538 33.3462 102.934 33.6342 103.366C39.0342 111.592 49.2762 116.992 61.8042 118.18C70.2822 119.008 79.2822 114.166 85.3302 108.01C86.2662 111.106 87.4002 115.66 87.5262 116.2C86.9682 118 80.9382 123.598 79.9842 123.814C79.4262 123.94 79.7142 124.804 80.2182 124.588C83.1193 122.909 85.7325 120.776 87.9582 118.27C88.1562 119.206 88.5162 120.88 88.5702 121.294C88.6242 121.708 89.5602 121.78 89.5242 121.204ZM100.324 94.0598C100.101 93.997 99.8661 93.9897 99.6395 94.0385C99.413 94.0873 99.2018 94.1907 99.0244 94.3398C98.8469 94.4888 98.7086 94.679 98.6214 94.8937C98.5342 95.1085 98.5009 95.3412 98.5242 95.5718C96.5982 95.9858 96.7242 97.3718 97.8402 98.2718C98.9449 98.969 100.087 99.606 101.26 100.18C100.846 101.17 100.522 101.98 100.09 102.934C98.2902 102.934 92.6922 102.592 90.7482 102.43C91.4682 100.18 95.2662 89.7218 97.3542 84.0698C99.1542 84.1598 104.788 84.3038 106.606 84.5918C106.174 86.3918 104.338 91.6298 103.816 93.2678C103.538 93.0844 103.226 92.9593 102.899 92.8998C102.571 92.8404 102.235 92.8479 101.91 92.9219C101.585 92.9959 101.279 93.1349 101.01 93.3304C100.74 93.526 100.513 93.7741 100.342 94.0598H100.324ZM101.116 103.798C101.422 102.826 101.8 101.89 102.304 100.666C102.384 100.68 102.467 100.668 102.54 100.631C102.612 100.594 102.671 100.535 102.708 100.463C102.744 100.39 102.756 100.307 102.742 100.227C102.727 100.147 102.688 100.073 102.628 100.018C102.178 99.6038 98.0022 97.3898 98.1642 96.9578C98.3262 96.5258 99.3702 96.8318 99.9642 97.1738C101.136 97.6562 102.338 98.0592 103.564 98.3798C103.643 98.3883 103.722 98.3707 103.79 98.3296C103.858 98.2885 103.91 98.2262 103.939 98.1524C103.967 98.0786 103.971 97.9974 103.949 97.9213C103.927 97.8453 103.88 97.7787 103.816 97.7318C102.411 97.2216 101.04 96.6204 99.7122 95.9318C99.4422 95.6798 99.3162 94.9958 99.7122 95.0138C101.035 95.3289 102.267 95.9449 103.312 96.8138C103.354 96.8528 103.402 96.8833 103.455 96.9035C103.508 96.9237 103.565 96.9332 103.622 96.9315C103.679 96.9299 103.735 96.917 103.787 96.8937C103.838 96.8704 103.885 96.8372 103.924 96.7958C103.963 96.7544 103.994 96.7058 104.014 96.6526C104.034 96.5995 104.044 96.5429 104.042 96.4861C104.04 96.4292 104.027 96.3733 104.004 96.3214C103.981 96.2696 103.948 96.2228 103.906 96.1838C103.23 95.6499 102.514 95.1685 101.764 94.7438C100.864 94.2218 101.512 93.5738 102.412 93.6998C103.618 93.8798 105.166 95.4998 105.004 98.8298C105.154 99.7242 105.038 100.643 104.67 101.472C104.302 102.301 103.698 103.003 102.934 103.492C101.774 105.332 100.792 107.279 100 109.306C99.2087 109.511 98.3752 109.486 97.5973 109.234C96.8195 108.982 96.1295 108.514 95.6082 107.884C95.7342 107.254 96.1122 105.094 96.2202 104.284C100.234 104.41 100.936 104.392 101.134 103.798H101.116ZM90.0822 125.596C90.702 130.189 89.9439 134.862 87.9042 139.024C86.5891 139.401 85.1893 139.359 83.8991 138.904C82.6089 138.449 81.4923 137.604 80.7042 136.486C85.0905 134.167 88.4397 130.278 90.0822 125.596ZM56.9622 86.7338C56.9942 86.7717 57.0361 86.8001 57.0832 86.8157C57.1303 86.8314 57.1808 86.8338 57.2292 86.8226C57.2775 86.8115 57.3219 86.7872 57.3573 86.7525C57.3928 86.7177 57.418 86.6739 57.4302 86.6258C60.1482 75.9338 60.0762 76.5998 59.8242 76.4558C56.8002 74.7998 57.7542 71.5778 58.9782 71.1998C59.5902 71.0018 60.4002 71.3978 61.2102 72.2978C61.7392 72.7951 62.1405 73.4125 62.3802 74.0978C64.1802 79.1378 74.1522 72.4958 78.4722 69.3098C78.7719 69.0606 79.1265 68.886 79.5068 68.8003C79.8871 68.7146 80.2822 68.7203 80.6599 68.8169C81.0376 68.9136 81.3869 69.0983 81.6794 69.3561C81.9718 69.6138 82.199 69.9373 82.3422 70.2998C82.7562 71.0918 82.0002 71.7578 81.5502 70.8938C80.6142 69.3098 78.9762 70.1918 79.0122 70.6238C79.3722 75.0878 78.5442 81.4238 75.0702 84.5198C71.5962 87.6158 67.5642 86.0138 67.2042 86.3198C66.8442 86.6258 67.0422 86.9138 67.0422 87.2558C66.8812 87.6378 66.8098 88.0516 66.8333 88.4655C66.8568 88.8794 66.9747 89.2824 67.178 89.6437C67.3812 90.005 67.6644 90.3151 68.0059 90.5501C68.3474 90.7852 68.7381 90.939 69.1482 90.9998C70.6191 91.5557 72.0205 92.2805 73.3242 93.1598C66.9162 103.06 52.9122 101.602 47.5482 88.2638C50.5468 87.24 53.6722 86.6343 56.8362 86.4638L56.9622 86.7338ZM25.8042 110.134C26.9672 112.913 28.7033 115.416 30.8993 117.478C33.0953 119.541 35.7016 121.117 38.5482 122.104C38.3322 122.446 33.3102 130.654 32.1222 132.67C27.7517 128.471 24.1994 123.496 21.6462 118C23.4282 114.796 24.4002 112.852 25.8042 110.152V110.134ZM340.408 78.2378C330.274 45.8378 293.752 30.9518 265.384 48.1958C233.416 67.5998 231.508 110.8 262 132.616C302.068 161.2 354.34 121.744 340.408 78.2378ZM285.688 127.342C291.646 135.244 297.622 135.856 301.618 134.938C309.07 133.246 315.604 124.876 317.512 114.562C317.538 114.44 317.515 114.313 317.448 114.208C317.38 114.104 317.274 114.03 317.152 114.004C317.03 113.978 316.903 114.001 316.799 114.068C316.694 114.136 316.62 114.242 316.594 114.364C315.747 118.768 313.899 122.919 311.194 126.496C300.61 140.284 289.594 133.552 281.152 118.288C278.408 113.911 276.868 108.888 276.688 103.726C280.972 101.71 280.882 101.602 281.386 102.034C286.39 106.336 295.48 116.596 296.74 117.982C296.763 118.101 296.826 118.209 296.92 118.287C297.014 118.365 297.132 118.407 297.253 118.407C297.375 118.407 297.493 118.365 297.586 118.287C297.68 118.209 297.744 118.101 297.766 117.982C299.782 109.846 301.366 101.404 307.36 95.5898C309.586 95.0775 311.84 94.6988 314.11 94.4558C322.084 104.536 320.95 117.982 320.914 130.744C315.569 134.826 309.428 137.743 302.886 139.309C296.345 140.874 289.549 141.053 282.934 139.834C283.323 135.571 284.249 131.373 285.688 127.342ZM315.64 94.2938C316.612 94.2938 316.522 92.7098 315.64 92.8358C311.883 93.1492 308.195 94.0229 304.696 95.4278C304.21 95.6258 303.652 95.7338 303.832 96.2198C304.012 96.7058 304.408 96.3458 305.758 96.0038C300.466 101.602 298.468 109.486 297.082 116.578C296.092 115.372 293.644 112.582 293.014 111.862C298.558 99.6398 298.252 99.2618 301.51 96.7958C302.77 95.7878 307.9 92.0798 312.148 89.4158C314.416 87.9758 316.036 86.9678 319.816 92.2058C323.326 97.0838 323.416 97.1558 321.166 107.866C320.49 102.934 318.542 98.263 315.514 94.3118L315.64 94.2938ZM276.04 83.6918C276.364 83.6918 276.526 83.9438 276.778 84.3218C282.718 93.3218 282.268 92.2958 282.268 92.4758C282.268 93.3398 283.438 94.6358 284.608 95.7338C283.654 96.0938 281.872 96.8138 280.81 97.2458C280.81 93.9338 278.47 93.9338 277.84 95.3198C276.724 93.6818 274.24 90.4418 273.736 89.8118C273.6 89.6179 273.415 89.4629 273.2 89.3619C272.986 89.2609 272.749 89.2175 272.512 89.2358C271.666 88.1558 269.758 85.6358 269.02 84.5378C269.2 84.5018 275.464 83.7998 276.022 83.6918H276.04ZM288.28 100.756C288.01 102.952 284.572 100.504 285.904 99.2798C286.15 99.6966 286.493 100.048 286.903 100.305C287.314 100.562 287.78 100.716 288.262 100.756H288.28ZM288.082 99.6218C287.344 99.4958 285.85 97.8218 286.282 97.4438C286.714 97.0658 288.568 99.3338 288.532 99.6038C288.381 99.6547 288.219 99.661 288.064 99.6218H288.082ZM292.204 111.052C290.638 109.396 283.528 102.052 283.348 101.908C283.087 101.518 282.75 101.185 282.357 100.928C281.965 100.671 281.524 100.496 281.062 100.414C280.826 99.801 280.733 99.142 280.792 98.4878L285.436 96.5078C285.868 96.8858 285.436 96.5078 285.22 97.3358C285.117 97.7221 285.162 98.133 285.346 98.4878C283.546 99.8198 285.346 102.916 287.722 102.682C288.428 103.166 289.038 103.776 289.522 104.482C290.055 106.319 290.81 108.084 291.772 109.738C292.366 110.8 292.33 110.674 292.186 111.052H292.204ZM290.674 104.626C290.674 104.05 292.744 101.89 293.068 101.62C294.033 101.9 294.972 102.262 295.876 102.7C295.354 103.888 293.68 107.686 292.852 109.612C291.949 108.031 291.213 106.36 290.656 104.626H290.674ZM289.936 103.474C289.588 103.015 289.176 102.609 288.712 102.268C288.934 102.028 289.101 101.743 289.2 101.432C289.3 101.121 289.33 100.792 289.288 100.468C289.392 100.399 289.479 100.309 289.544 100.203C289.609 100.097 289.651 99.979 289.666 99.8558C289.81 99.0098 288.856 98.3078 288.226 97.7138C286.362 96.2508 284.703 94.5434 283.294 92.6378C284.725 93.3543 286.092 94.1913 287.38 95.1398C289.54 96.7418 292.312 98.2538 292.096 100.918C291.302 101.709 290.573 102.564 289.918 103.474H289.936ZM272.8 90.3158C274.63 92.3823 276.308 94.578 277.822 96.8858C277.875 96.9661 277.949 97.0291 278.038 97.0669C278.126 97.1048 278.223 97.1157 278.317 97.0984C278.411 97.0811 278.498 97.0363 278.567 96.9696C278.636 96.903 278.684 96.8174 278.704 96.7238C278.704 96.2198 278.938 95.3198 279.406 95.5178C280.396 96.8678 279.406 98.9738 280.072 100.648C275.248 102.772 279.19 102.232 276.22 98.8478C273.466 95.9498 272.386 91.2338 272.8 90.3158ZM291.358 88.5158C292.015 86.1608 292.015 83.6708 291.358 81.3158C291.091 80.2664 290.928 79.1932 290.872 78.1118C291.953 78.2271 293.046 78.1786 294.112 77.9678C297.262 77.4458 298.882 75.7538 299.656 76.2758C300.16 76.6178 300.25 77.6798 299.926 79.3718C299.919 79.4267 299.929 79.4824 299.955 79.5315C299.98 79.5806 300.02 79.6206 300.069 79.6461C300.119 79.6717 300.174 79.6815 300.229 79.6743C300.284 79.6671 300.335 79.6432 300.376 79.6058C301.061 79.0445 301.921 78.739 302.806 78.7418C305.2 78.9398 305.11 82.3418 302.806 83.7998C302.757 83.8392 302.722 83.8948 302.71 83.9568C302.697 84.0189 302.706 84.0834 302.736 84.1392C302.766 84.195 302.815 84.2384 302.874 84.2619C302.933 84.2854 302.998 84.2875 303.058 84.2678C303.922 83.9709 304.849 83.9062 305.746 84.0799C306.644 84.2536 307.479 84.6598 308.17 85.2578C308.547 86.7648 309.059 88.2347 309.7 89.6498C307.198 91.3598 303.85 93.6998 301.456 95.5538C299.296 91.0178 296.614 94.2398 294.76 90.6038C292.888 87.4898 291.7 88.5698 291.268 88.4618L291.358 88.5158ZM321.526 110.116C322.823 106.163 323.568 102.05 323.74 97.8938C323.485 95.8929 322.674 94.0036 321.4 92.4398C316.288 85.0598 314.2 86.2838 310.258 88.9478C309.898 87.8498 309.106 85.5638 308.962 84.9518C309.196 84.7178 309.808 84.1238 309.988 83.9978C310.654 83.0634 311.17 82.031 311.518 80.9378C311.979 79.4106 312.168 77.8143 312.076 76.2218C312.167 74.7123 311.927 73.2012 311.374 71.7938C310.229 69.7924 308.419 68.2554 306.259 67.4498C304.098 66.6441 301.724 66.6208 299.548 67.3838C296.182 66.2678 291.844 65.1158 290.206 65.8178C288.904 66.1319 287.736 66.8553 286.875 67.8818C286.014 68.9084 285.505 70.1839 285.423 71.5212C285.34 72.8585 285.688 74.187 286.417 75.3116C287.145 76.4363 288.214 77.2979 289.468 77.7698C289.414 79.1596 289.572 80.5496 289.936 81.8918C290.547 83.7811 290.597 85.8067 290.08 87.7238C289.756 89.1638 290.224 89.8118 291.88 89.5238C293.824 89.6678 292.762 93.1238 297.172 93.7718C298.234 93.9518 299.08 94.1138 300.178 96.1478C298.342 97.6154 296.962 99.576 296.2 101.8C295.221 101.223 294.183 100.752 293.104 100.396C292.985 99.4983 292.672 98.6375 292.187 97.8729C291.702 97.1083 291.057 96.4583 290.296 95.9678C288.619 94.5671 286.811 93.3314 284.896 92.2778C284.518 92.0798 283.726 91.4678 283.096 91.5938C276.832 82.0538 277.48 82.4678 275.518 82.4678C272.984 82.565 270.465 82.9025 267.994 83.4758C267.905 83.5091 267.825 83.562 267.76 83.6306C267.695 83.6992 267.645 83.7816 267.616 83.8718C267.508 84.3038 267.616 84.0518 270.136 87.6518C272.476 90.9278 271.63 89.3258 271.774 91.0898C272.093 94.4908 273.479 97.7038 275.734 100.27C276.163 100.929 276.336 101.723 276.22 102.502L275.986 102.61C275.374 102.916 276.148 109.054 276.58 110.494C278.558 116.151 281.406 121.465 285.022 126.244C283.25 130.498 282.163 135.006 281.8 139.6C265.726 136 251.992 125.074 245.8 110.89C239.608 96.7058 241.192 80.0738 250.588 64.5398C276.598 26.3618 333.64 41.6978 340.408 86.3018C342.892 103.24 335.476 119.314 322.156 129.862C322.338 123.282 322.085 116.698 321.4 110.152L321.526 110.116ZM314.434 146.656C314.591 149.543 315.093 152.401 315.928 155.17C315.986 155.342 316.109 155.483 316.271 155.564C316.433 155.645 316.62 155.659 316.792 155.602C318.16 155.206 316.144 153.316 315.55 146.602C315.496 145.9 314.38 145.936 314.434 146.656ZM319.942 168.166C319.906 168.015 319.812 167.885 319.681 167.804C319.549 167.723 319.391 167.698 319.24 167.734C319.09 167.77 318.96 167.864 318.879 167.995C318.798 168.127 318.772 168.285 318.808 168.436C321.112 180.136 320.806 181.27 321.976 181.036C323.146 180.802 322.318 179.686 319.942 168.166ZM324.172 195.994C323.182 196.264 324.496 196.408 325.378 207.334C325.378 208.324 326.998 208.27 326.89 207.334C326.437 203.64 325.721 199.982 324.748 196.39C324.743 196.323 324.723 196.258 324.689 196.2C324.656 196.142 324.61 196.093 324.555 196.055C324.499 196.017 324.436 195.991 324.37 195.981C324.304 195.97 324.236 195.975 324.172 195.994ZM278.488 166.222C280.41 160.519 282.015 154.714 283.294 148.834C283.321 148.698 283.296 148.558 283.222 148.441C283.149 148.324 283.034 148.239 282.9 148.205C282.766 148.17 282.624 148.188 282.504 148.255C282.383 148.322 282.292 148.432 282.25 148.564C280.81 154.342 278.902 159.94 277.12 165.808C277.09 165.981 277.125 166.159 277.217 166.309C277.309 166.458 277.453 166.569 277.621 166.62C277.789 166.671 277.97 166.659 278.13 166.585C278.29 166.512 278.417 166.383 278.488 166.222ZM271.18 190C272.188 190 272.008 188.776 274.87 178.066C274.908 177.937 274.894 177.798 274.83 177.68C274.766 177.562 274.657 177.474 274.528 177.436C274.399 177.398 274.261 177.412 274.142 177.476C274.024 177.54 273.936 177.649 273.898 177.778C273.34 179.578 270.892 187.156 270.442 189.064C270.415 189.175 270.413 189.292 270.438 189.404C270.462 189.516 270.512 189.622 270.583 189.712C270.654 189.802 270.745 189.875 270.848 189.925C270.952 189.975 271.065 190 271.18 190ZM263.008 213.4C263.638 213.4 263.602 212.932 264.124 210.844C264.826 208 265.924 203.644 266.356 202.42C266.626 201.7 265.528 201.376 265.258 202.06C264.044 205.586 263.088 209.195 262.396 212.86C262.41 213.011 262.481 213.151 262.595 213.252C262.709 213.352 262.857 213.405 263.008 213.4ZM257.068 228.718C255.41 231.931 254.129 235.326 253.252 238.834C253.204 239.015 253.231 239.208 253.325 239.37C253.42 239.532 253.575 239.65 253.756 239.698C253.938 239.746 254.131 239.719 254.293 239.625C254.455 239.53 254.572 239.375 254.62 239.194C257.626 228.988 258.598 228.898 257.716 228.394C257.653 228.369 257.584 228.357 257.516 228.36C257.448 228.363 257.381 228.38 257.32 228.411C257.259 228.441 257.205 228.485 257.161 228.537C257.118 228.59 257.086 228.652 257.068 228.718ZM238.258 176.392C238.438 177.796 239.086 183.592 239.302 185.194C239.315 185.293 239.348 185.389 239.398 185.476C239.448 185.562 239.514 185.638 239.594 185.699C239.673 185.76 239.764 185.805 239.86 185.831C239.957 185.857 240.058 185.864 240.157 185.851C240.256 185.838 240.352 185.805 240.439 185.755C240.526 185.705 240.602 185.639 240.663 185.559C240.724 185.48 240.769 185.389 240.795 185.293C240.821 185.196 240.827 185.095 240.814 184.996C240.58 183.448 239.572 177.634 239.356 176.248C239.248 175.6 238.168 175.726 238.258 176.392ZM241.084 202.15C241.282 203.284 242.02 208.18 242.254 209.476C242.434 210.448 243.874 210.088 243.694 209.134C243.262 206.74 242.686 204.328 242.236 201.934C242.092 201.124 240.958 201.412 241.084 202.15ZM244 227.188C244.081 230.209 244.406 233.219 244.972 236.188C245.188 237.178 246.664 236.782 246.484 235.81C245.869 232.95 245.4 230.06 245.08 227.152C244.918 226.486 243.874 226.468 244 227.188ZM197.2 77.3918C196.858 76.7438 195.904 77.2838 196.21 77.9318C202.06 89.9378 201.61 90.0458 202.456 90.0458C202.596 90.0445 202.733 90.008 202.854 89.9396C202.976 89.8713 203.078 89.7733 203.152 89.6547C203.226 89.5362 203.268 89.401 203.275 89.2617C203.283 89.1224 203.255 88.9834 203.194 88.8578C201.214 84.9878 199.126 81.2258 197.2 77.3918ZM208.36 100.864C208.09 100.252 207.172 100.738 207.442 101.35C209.242 105.364 210.736 109.486 212.572 113.518C212.968 114.418 214.282 113.698 213.886 112.816C212.104 108.676 209.998 104.518 208.36 100.864ZM224.2 137.53C224.309 137.536 224.418 137.515 224.517 137.469C224.616 137.423 224.702 137.353 224.768 137.266C224.834 137.179 224.877 137.077 224.894 136.969C224.911 136.861 224.902 136.751 224.866 136.648C224.236 134.848 221.122 128.242 220.33 126.46C220.006 125.722 218.926 126.298 219.232 127.036C223.516 136.864 223.444 137.53 224.2 137.53ZM256.996 130.996C256.33 132.13 253.27 136.288 252.442 137.35C252.381 137.429 252.335 137.519 252.309 137.616C252.283 137.713 252.275 137.814 252.288 137.913C252.3 138.013 252.332 138.109 252.382 138.196C252.432 138.283 252.498 138.359 252.577 138.421C252.656 138.482 252.747 138.528 252.844 138.554C252.94 138.58 253.041 138.588 253.141 138.575C253.24 138.563 253.336 138.531 253.423 138.481C253.51 138.431 253.587 138.365 253.648 138.286C255.198 136.124 256.605 133.863 257.86 131.518C257.929 131.403 257.95 131.266 257.918 131.136C257.886 131.006 257.804 130.894 257.689 130.825C257.575 130.756 257.437 130.735 257.307 130.767C257.177 130.799 257.065 130.881 256.996 130.996ZM225.55 63.0998C226.288 63.0998 226.684 61.9838 225.91 61.6418C224.272 60.9038 217.378 58.6178 215.668 58.0418C214.966 57.7718 214.606 58.8518 215.308 59.1218C217.126 59.7698 224.956 63.0998 225.55 63.0998ZM231.796 65.7998C235.027 67.5577 238.421 68.9984 241.93 70.1018C242.132 70.1365 242.339 70.0955 242.512 69.9866C242.685 69.8777 242.811 69.7087 242.867 69.5121C242.923 69.3155 242.904 69.1051 242.814 68.9215C242.724 68.738 242.57 68.5942 242.38 68.5178C238.935 67.5826 235.585 66.3292 232.372 64.7738C231.688 64.4678 231.112 65.5118 231.796 65.7998ZM145.882 64.7198C153.082 59.8778 155.242 60.9758 154.882 59.6978C154.862 59.6241 154.826 59.5554 154.779 59.4954C154.731 59.4355 154.672 59.3857 154.605 59.3488C154.538 59.312 154.465 59.2888 154.388 59.2807C154.312 59.2727 154.235 59.2798 154.162 59.3018C150.912 60.1565 147.82 61.5236 145 63.3518C144.172 63.9998 145 65.2958 145.882 64.7198ZM129.52 70.7858C128.962 71.2358 129.412 71.9738 130.042 71.9738C130.258 71.9738 130.294 71.9738 132.274 70.9838C134.254 69.9938 136.522 68.9318 137.368 68.6798C137.51 68.6238 137.626 68.5168 137.694 68.3796C137.761 68.2425 137.774 68.0852 137.731 67.9387C137.689 67.7921 137.592 67.6668 137.462 67.5875C137.331 67.5081 137.176 67.4804 137.026 67.5098C134.421 68.3491 131.907 69.4466 129.52 70.7858Z" fill="#5669FF"/>
<path d="M122.572 74.1879C121.636 74.7099 116.47 77.4279 115.912 77.7879C115.798 77.8678 115.71 77.981 115.662 78.1123C115.613 78.2435 115.606 78.3865 115.642 78.5218C115.677 78.6572 115.753 78.7785 115.859 78.8693C115.966 78.9601 116.097 79.0162 116.236 79.0299C118.628 77.9003 120.948 76.6259 123.184 75.2139C123.286 75.1183 123.351 74.9911 123.37 74.8532C123.389 74.7154 123.361 74.5751 123.29 74.4556C123.218 74.3361 123.108 74.2444 122.978 74.1957C122.848 74.1471 122.705 74.1443 122.572 74.1879ZM107.2 45.4239C109.616 45.4401 112.01 44.967 114.238 44.033C116.466 43.0989 118.482 41.7234 120.164 39.9893C121.846 38.2551 123.159 36.1983 124.025 33.9429C124.891 31.6874 125.29 29.28 125.2 26.8659C124.66 10.7919 103.834 3.12387 93.3044 16.8039C83.8004 28.7019 92.9444 45.4239 107.2 45.4239ZM96.4004 15.3999C107.434 5.22987 123.634 13.5999 124.048 26.9379C124.015 30.3232 123.039 33.6322 121.23 36.4938C119.421 39.3553 116.85 41.6561 113.806 43.1379C103.744 47.5299 91.6304 39.9879 90.7664 29.3679C90.5589 26.7623 90.9599 24.1441 91.9377 21.72C92.9154 19.296 94.4432 17.1323 96.4004 15.3999ZM147.232 30.1779C150.418 30.5199 153.622 30.5559 156.808 30.6999C156.952 30.6999 157.089 30.643 157.19 30.5417C157.292 30.4404 157.348 30.3031 157.348 30.1599C157.348 30.0167 157.292 29.8793 157.19 29.778C157.089 29.6768 156.952 29.6199 156.808 29.6199C153.46 29.3139 151.408 28.8999 147.232 28.6299C146.278 28.5759 146.26 30.0699 147.232 30.1779ZM128.368 28.2699C129.826 28.4319 135.82 28.8459 137.368 29.0439C138.178 29.1699 138.502 27.9459 137.656 27.8019C134.61 27.3236 131.539 27.0111 128.458 26.8659C128.366 26.86 128.274 26.8723 128.186 26.9021C128.099 26.9319 128.018 26.9787 127.949 27.0397C127.88 27.1007 127.823 27.1747 127.782 27.2576C127.741 27.3406 127.717 27.4307 127.711 27.5229C127.706 27.6151 127.718 27.7075 127.748 27.7949C127.777 27.8824 127.824 27.9631 127.885 28.0324C127.946 28.1018 128.02 28.1585 128.103 28.1992C128.186 28.2399 128.276 28.264 128.368 28.2699ZM56.8004 161.452C57.3224 158.14 57.4484 154.846 57.8444 151.552C57.9344 150.94 56.9264 150.796 56.8364 151.426C56.3324 154.666 55.5584 157.924 55.1804 161.218C55.1822 161.416 55.2547 161.606 55.3849 161.755C55.515 161.904 55.6942 162.002 55.89 162.03C56.0858 162.058 56.2853 162.016 56.4523 161.909C56.6193 161.803 56.7428 161.641 56.8004 161.452ZM54.8564 170.362C53.0564 180.244 52.6424 181.45 53.9384 181.45C54.9104 181.45 54.7304 180.802 55.9544 170.506C56.0444 169.84 55.0004 169.696 54.8564 170.362ZM87.9584 186.814C85.2224 188.254 81.8204 189.928 80.7584 190.558C80.6109 190.645 80.4965 190.779 80.4331 190.938C80.3698 191.097 80.3611 191.273 80.4085 191.438C80.4559 191.603 80.5566 191.747 80.6948 191.848C80.8331 191.95 81.0011 192.002 81.1724 191.998C83.6824 190.753 86.1221 189.371 88.4804 187.858C88.5905 187.774 88.6678 187.654 88.6991 187.52C88.7304 187.385 88.7137 187.243 88.6518 187.12C88.5899 186.996 88.4868 186.898 88.3602 186.842C88.2336 186.786 88.0915 186.776 87.9584 186.814ZM77.4284 192.358C75.4633 193.279 73.5467 194.3 71.6864 195.418C71.1104 195.94 71.7944 196.804 72.4784 196.48C73.1624 196.156 76.9964 193.78 77.8784 193.366C78.7604 192.952 78.0944 192.07 77.4284 192.358ZM149.914 207.352C150.562 207.766 151.174 206.776 150.544 206.344C149.176 205.444 143.974 201.592 142.534 200.836C142.348 200.746 142.135 200.728 141.936 200.784C141.737 200.84 141.566 200.968 141.454 201.142C140.716 202.294 143.2 202.942 149.914 207.352ZM124.984 190.72C125.884 191.35 126.784 191.944 127.702 192.52C133.84 196.588 133.552 196.714 133.93 196.714C134.055 196.712 134.176 196.674 134.278 196.603C134.381 196.533 134.46 196.433 134.507 196.318C134.553 196.202 134.564 196.076 134.538 195.954C134.512 195.832 134.451 195.721 134.362 195.634C131.63 193.385 128.775 191.288 125.812 189.352C124.948 188.83 124.156 190.162 124.984 190.72ZM302.23 250.372C299.278 250.786 296.236 251.092 293.23 251.776C293.046 251.833 292.887 251.954 292.784 252.118C292.681 252.282 292.64 252.477 292.668 252.668C292.696 252.86 292.792 253.035 292.938 253.162C293.084 253.288 293.271 253.359 293.464 253.36C294.166 253.36 298.648 252.154 302.464 251.56C303.4 251.488 303.04 250.228 302.23 250.372ZM286.318 253.288C283.294 253.738 279.964 254.008 276.688 254.566C275.77 254.728 276.022 256.06 276.922 256.06C277.822 256.06 284.266 254.764 286.552 254.404C287.29 254.278 287.038 253.18 286.318 253.288ZM177.4 188.758C177.31 188.605 177.162 188.495 176.99 188.451C176.818 188.407 176.635 188.433 176.482 188.524C176.33 188.615 176.219 188.762 176.175 188.934C176.131 189.107 176.158 189.289 176.248 189.442C177.137 190.889 178.536 191.95 180.17 192.414C181.804 192.877 183.552 192.71 185.068 191.944C185.17 191.882 185.244 191.784 185.276 191.67C185.307 191.555 185.295 191.433 185.24 191.328C185.185 191.223 185.092 191.142 184.98 191.103C184.868 191.063 184.745 191.068 184.636 191.116C183.345 191.636 181.913 191.684 180.59 191.253C179.266 190.822 178.137 189.938 177.4 188.758ZM190 182.098C189.874 183.142 188.938 182.566 188.866 183.196C188.866 183.538 189.154 183.664 189.514 183.664C189.834 183.653 190.145 183.557 190.415 183.386C190.685 183.215 190.905 182.975 191.051 182.691C191.198 182.406 191.266 182.088 191.249 181.769C191.232 181.45 191.13 181.141 190.954 180.874C189.945 179.792 189.024 178.63 188.2 177.4C188.169 177.288 188.095 177.192 187.994 177.135C187.893 177.078 187.773 177.063 187.66 177.094C187.548 177.125 187.453 177.199 187.396 177.3C187.338 177.402 187.323 177.522 187.354 177.634C187.777 178.586 188.309 179.486 188.938 180.316C189.35 180.874 189.706 181.471 190 182.098ZM180.442 168.922C180.395 168.707 180.264 168.52 180.078 168.402C179.892 168.284 179.667 168.244 179.452 168.292C179.238 168.34 179.051 168.471 178.932 168.656C178.814 168.842 178.775 169.067 178.822 169.282C179.326 172.702 179.02 174.16 180.37 174.16C180.628 174.16 180.875 174.057 181.058 173.875C181.24 173.693 181.342 173.446 181.342 173.188C181.342 172.738 180.586 169.678 180.442 168.922ZM194.59 169.084C194.552 168.888 194.444 168.712 194.287 168.589C194.129 168.466 193.932 168.404 193.732 168.415C193.533 168.426 193.344 168.509 193.2 168.648C193.057 168.788 192.969 168.975 192.952 169.174C192.952 169.444 193.204 172.666 193.294 172.918C193.321 173.157 193.441 173.375 193.628 173.525C193.815 173.675 194.055 173.745 194.293 173.719C194.532 173.693 194.751 173.573 194.901 173.385C195.051 173.198 195.121 172.959 195.094 172.72C195.058 172.504 194.77 170.74 194.59 169.084ZM177.616 168.004C177.848 167.239 178.327 166.572 178.979 166.109C179.63 165.646 180.418 165.414 181.216 165.448C181.356 165.464 181.497 165.427 181.611 165.343C181.724 165.26 181.802 165.136 181.828 164.998C182.008 163.702 177.166 164.224 176.104 167.59C176.05 167.79 176.077 168.004 176.179 168.185C176.282 168.366 176.453 168.498 176.653 168.553C176.854 168.608 177.068 168.581 177.249 168.478C177.429 168.375 177.562 168.204 177.616 168.004ZM191.08 164.8C191.735 164.762 192.384 164.941 192.928 165.308C193.471 165.676 193.878 166.212 194.086 166.834C194.41 167.536 195.544 167.068 195.328 166.312C194.976 165.463 194.34 164.763 193.53 164.33C192.719 163.897 191.784 163.757 190.882 163.936C190.785 163.977 190.705 164.051 190.657 164.145C190.609 164.24 190.595 164.348 190.619 164.451C190.642 164.554 190.702 164.646 190.786 164.709C190.871 164.773 190.975 164.805 191.08 164.8ZM329.986 225.37C329.986 225.37 329.032 221.014 328.78 219.754C328.749 219.613 328.664 219.49 328.542 219.413C328.421 219.335 328.273 219.309 328.132 219.34C327.992 219.371 327.869 219.457 327.791 219.578C327.714 219.7 327.687 219.847 327.718 219.988L328.564 225.118C325.705 224.756 322.801 225.005 320.046 225.85C317.29 226.695 314.745 228.116 312.58 230.019C310.415 231.922 308.68 234.263 307.488 236.887C306.296 239.512 305.676 242.36 305.668 245.242C306.748 272.368 345.682 271.828 346.222 245.242C346.259 240.556 344.656 236.004 341.691 232.375C338.726 228.747 334.586 226.268 329.986 225.37ZM334.63 253.756C331.786 261.838 321.058 260.398 321.058 250.75V244.918C320.744 244.958 320.425 244.931 320.122 244.838C319.818 244.745 319.539 244.589 319.301 244.379C319.063 244.17 318.872 243.912 318.742 243.623C318.611 243.334 318.544 243.021 318.544 242.704C318.544 242.387 318.611 242.074 318.742 241.785C318.872 241.496 319.063 241.238 319.301 241.029C319.539 240.819 319.818 240.663 320.122 240.57C320.425 240.477 320.744 240.45 321.058 240.49C321.058 238.69 321.058 236.89 321.184 234.928C321.191 234.637 321.256 234.351 321.373 234.085C321.491 233.819 321.66 233.579 321.871 233.378C322.082 233.177 322.33 233.02 322.601 232.916C322.872 232.811 323.162 232.761 323.452 232.768C324.041 232.787 324.599 233.038 325.003 233.466C325.408 233.894 325.627 234.465 325.612 235.054C325.612 236.944 325.612 238.744 325.504 240.454H329.302C329.593 240.447 329.882 240.498 330.152 240.604C330.423 240.71 330.67 240.869 330.878 241.072C331.086 241.275 331.251 241.518 331.364 241.786C331.476 242.054 331.535 242.341 331.534 242.632C331.539 242.924 331.486 243.214 331.378 243.486C331.27 243.758 331.109 244.005 330.905 244.214C330.701 244.424 330.457 244.59 330.189 244.705C329.92 244.819 329.631 244.88 329.338 244.882H325.45C325.45 251.452 325.27 252.55 326.17 253.666C327.448 255.286 329.392 254.746 330.4 252.262C330.599 251.701 331.011 251.242 331.548 250.985C332.085 250.729 332.701 250.696 333.262 250.894C333.823 251.092 334.283 251.505 334.539 252.042C334.796 252.578 334.829 253.195 334.63 253.756ZM185.338 19.7919C181.654 19.7728 178.003 20.4841 174.595 21.8847C171.187 23.2852 168.091 25.3473 165.485 27.9516C162.879 30.556 160.815 33.651 159.412 37.0578C158.009 40.4646 157.296 44.1156 157.312 47.7999C158.05 84.8799 212.626 84.8979 213.346 47.7999C213.366 44.1165 212.654 40.4658 211.253 37.0591C209.853 33.6524 207.79 30.5573 205.186 27.9527C202.581 25.3481 199.486 23.2857 196.079 21.885C192.672 20.4842 189.022 19.7728 185.338 19.7919ZM193.42 33.9399C193.145 34.4568 192.677 34.8446 192.118 35.0197C191.559 35.1948 190.954 35.1432 190.432 34.8759C189.504 34.3654 188.426 34.1975 187.386 34.4015C186.346 34.6055 185.411 35.1684 184.744 35.9919C182.674 38.1519 182.764 45.4959 182.764 45.8919L188.164 45.0639C188.747 44.9756 189.34 45.1222 189.815 45.4716C190.289 45.821 190.605 46.3445 190.693 46.9269C190.782 47.5093 190.635 48.1029 190.286 48.5772C189.936 49.0515 189.413 49.3676 188.83 49.4559L182.782 50.3739C182.782 54.6579 182.98 58.7979 183.124 62.9739C183.099 63.5336 182.864 64.0631 182.466 64.4575C182.068 64.8518 181.536 65.082 180.976 65.1024C180.416 65.1228 179.869 64.9319 179.443 64.5676C179.018 64.2033 178.745 63.6922 178.678 63.1359C178.48 57.2319 178.336 51.2379 178.264 44.8299C178.264 41.2299 178.264 36.5319 181.468 32.9859C186.49 27.4959 195.4 30.2499 193.42 33.9399Z" fill="#5669FF"/>
<path d="M270.604 262C277.966 240.616 277.606 241.876 277.48 241.696C277.354 241.516 254.08 241.084 241.156 241.336C236.002 233.608 229.266 227.063 221.394 222.132C213.522 217.201 204.692 213.998 195.49 212.734C194.091 211.199 192.16 210.253 190.09 210.088L187.84 209.314C187.75 207.557 187.75 205.797 187.84 204.04C192.891 202.116 197.018 198.337 199.378 193.474C202.024 187.534 200.71 179.938 199.162 160.624C202.87 161.776 202.96 157.96 200.71 154.972C200.811 154.333 200.779 153.681 200.616 153.055C200.452 152.429 200.161 151.845 199.76 151.337C199.359 150.83 198.858 150.411 198.287 150.107C197.716 149.803 197.089 149.621 196.444 149.572C196.79 149.041 196.99 148.428 197.023 147.795C197.057 147.162 196.922 146.531 196.634 145.967C196.345 145.402 195.913 144.924 195.38 144.581C194.847 144.237 194.233 144.04 193.6 144.01C193.225 143.186 192.602 142.5 191.817 142.048C191.033 141.596 190.127 141.401 189.226 141.49C189.099 140.884 188.812 140.324 188.395 139.866C187.979 139.409 187.448 139.071 186.857 138.887C186.266 138.704 185.637 138.681 185.034 138.823C184.432 138.964 183.878 139.263 183.43 139.69C183.052 139.114 182.116 137.692 181.63 137.152C182.015 136.773 182.279 136.29 182.391 135.762C182.503 135.233 182.458 134.684 182.26 134.182C183.142 133.906 183.913 133.355 184.46 132.611C185.007 131.866 185.302 130.966 185.302 130.042C185.302 129.118 185.007 128.218 184.46 127.473C183.913 126.728 183.142 126.178 182.26 125.902C183.682 120.718 178.822 117.532 174.412 119.602C174.174 119.007 173.764 118.496 173.236 118.134C172.707 117.772 172.083 117.575 171.442 117.568C175.042 113.032 169.912 109.864 165.034 111.412C164.713 110.589 164.174 109.869 163.475 109.329C162.776 108.79 161.943 108.451 161.066 108.349C160.189 108.247 159.3 108.387 158.496 108.752C157.692 109.117 157.003 109.694 156.502 110.422C155.321 110.112 154.065 110.277 153.005 110.883C151.945 111.489 151.165 112.487 150.832 113.662C150.076 113.484 149.29 113.475 148.531 113.637C147.772 113.799 147.058 114.127 146.44 114.598C146.028 113.886 145.371 113.348 144.591 113.085C143.812 112.823 142.963 112.853 142.204 113.171C141.445 113.488 140.828 114.072 140.468 114.811C140.108 115.551 140.03 116.397 140.248 117.19C139.75 117.329 139.308 117.621 138.985 118.025C138.662 118.428 138.474 118.923 138.448 119.44C138.25 119.407 138.047 119.416 137.853 119.466C137.659 119.517 137.478 119.608 137.321 119.734C137.165 119.86 137.037 120.018 136.945 120.196C136.854 120.375 136.802 120.571 136.792 120.772C136.323 120.653 135.83 120.673 135.373 120.831C134.915 120.988 134.514 121.276 134.218 121.658C133.922 122.04 133.743 122.501 133.705 122.983C133.667 123.465 133.77 123.948 134.002 124.372C133.416 124.504 132.881 124.805 132.465 125.239C132.049 125.672 131.77 126.219 131.662 126.81C131.555 127.401 131.624 128.011 131.861 128.563C132.097 129.116 132.492 129.586 132.994 129.916C130.15 130.744 128.314 133.516 129.394 136.036C126.154 137.998 124.822 141.976 127.108 144.748C126.697 145.892 126.715 147.147 127.158 148.279C127.602 149.411 128.441 150.344 129.52 150.904C129.049 151.483 128.75 152.181 128.656 152.921C128.562 153.661 128.677 154.413 128.988 155.091C129.299 155.769 129.793 156.347 130.415 156.758C131.037 157.17 131.762 157.399 132.508 157.42C132.563 158.072 132.785 158.699 133.154 159.239C133.522 159.78 134.024 160.217 134.611 160.506C135.198 160.796 135.849 160.929 136.503 160.893C137.156 160.857 137.789 160.653 138.34 160.3C138.633 160.768 139.057 161.139 139.559 161.369C140.062 161.599 140.62 161.676 141.166 161.592C141.711 161.508 142.22 161.265 142.63 160.895C143.039 160.525 143.332 160.042 143.47 159.508C144.351 159.839 145.297 159.963 146.233 159.869C147.17 159.775 148.072 159.467 148.87 158.968C148.132 163.45 144.73 163.774 145.792 168.472C145.165 169.297 144.818 170.301 144.802 171.337C144.785 172.373 145.101 173.388 145.702 174.232C145.498 174.666 145.383 175.136 145.363 175.616C145.343 176.095 145.419 176.573 145.587 177.023C145.755 177.472 146.01 177.883 146.339 178.233C146.668 178.582 147.063 178.862 147.502 179.056C147.334 179.386 147.254 179.755 147.271 180.126C147.288 180.497 147.4 180.856 147.598 181.17C147.796 181.484 148.072 181.742 148.399 181.917C148.726 182.092 149.093 182.179 149.464 182.17C149.818 183.493 150.498 184.707 151.441 185.701C152.384 186.694 153.561 187.436 154.864 187.858C155.044 210.484 155.872 207.766 153.712 210.394C151.723 211.439 150.092 213.057 149.032 215.038C117.46 226 104.716 251.038 100.54 284.644C98.1281 284.266 98.0201 284.176 97.9301 284.482C96.9584 288.264 96.6178 292.181 96.9221 296.074C96.9221 296.308 96.9221 296.29 99.8021 296.992C100.612 310.87 108.118 325.918 123.202 328.564C123.004 331.48 122.77 348.184 123.202 351.964C123.221 352.052 123.27 352.131 123.341 352.188C123.411 352.245 123.499 352.276 123.589 352.276C123.68 352.276 123.767 352.245 123.838 352.188C123.908 352.131 123.957 352.052 123.976 351.964C123.976 349.948 124.228 331.84 124.39 328.834C133.552 329.734 138.916 325.9 146.134 318.034C157.474 305.434 163.9 291.844 170.596 277.588C171.772 275.286 172.719 272.875 173.422 270.388C174.478 270.815 175.643 270.897 176.748 270.622C177.854 270.347 178.845 269.73 179.578 268.858C182.156 269.69 184.895 269.9 187.57 269.47C188.023 269.386 188.453 269.21 188.834 268.952C189.215 268.694 189.539 268.361 189.786 267.972C190.033 267.584 190.196 267.149 190.267 266.694C190.338 266.239 190.315 265.775 190.198 265.33C192.502 265.222 193.942 263.134 191.638 261.388C190.905 260.824 190.128 260.319 189.316 259.876C191.224 259.75 196.264 259.192 197.902 258.076C199.54 256.96 199.486 254.17 197.218 253.864C196.264 253.738 182.242 254.314 179.056 254.764C175.903 255.098 172.918 256.35 170.47 258.364C166.87 261.334 141.418 282.484 132.328 290.116C127.054 289.162 107.29 285.778 102.034 284.95C106.39 248.644 121.186 226.936 148.546 216.712C146.872 223.552 154.972 230.572 157.546 232.66C161.776 236.134 168.688 239.86 174.61 238.24C178.372 237.232 181.18 234.334 182.98 229.6C190.972 236.53 194.734 235.756 195.994 235.108C200.836 232.57 200.638 220.222 196.606 214.282C205.245 215.62 213.515 218.725 220.899 223.405C228.282 228.085 234.621 234.238 239.518 241.48C231.256 241.66 231.76 241.66 231.688 241.876C229.736 247.142 227.84 252.428 226 257.734C225.28 253.252 224.2 247.15 223.732 245.386C223.692 245.29 223.619 245.211 223.525 245.165C223.432 245.118 223.325 245.107 223.224 245.134C223.123 245.16 223.035 245.222 222.976 245.308C222.918 245.394 222.892 245.498 222.904 245.602C223.426 247.798 224.506 256.132 225.1 260.344C217.792 281.494 212.068 300.556 212.212 300.754C212.356 300.952 230.212 300.952 232.516 300.916C234.316 315.964 235.684 347.338 235.63 351.064C235.63 351.169 235.672 351.27 235.746 351.344C235.82 351.418 235.921 351.46 236.026 351.46C236.131 351.46 236.232 351.418 236.306 351.344C236.38 351.27 236.422 351.169 236.422 351.064C236.746 344.44 236.422 324.532 236.116 320.23C240.373 319.524 244.274 317.421 247.204 314.254C249.4 312.004 252.604 305.344 254.818 299.98C258.31 299.746 258.418 299.8 258.418 299.566C260.47 294.796 262.504 289.18 264.214 283.708C272.71 282.43 277.012 270.514 273.574 265.114C272.803 263.887 271.793 262.828 270.604 262ZM123.85 300.268C125.002 300.07 123.724 298.468 167.176 262.756C174.376 256.87 174.934 256.312 183.664 255.718C186.904 255.502 195.31 255.196 196.264 255.178C197.002 255.178 197.65 255.178 197.596 255.844C197.596 256.996 195.796 257.338 194.554 257.644C190.828 258.546 187.011 259.017 183.178 259.048C183.064 259.048 182.954 259.093 182.873 259.174C182.792 259.255 182.746 259.365 182.746 259.48C182.746 259.594 182.792 259.704 182.873 259.785C182.954 259.866 183.064 259.912 183.178 259.912H186.922C188.07 260.468 189.166 261.124 190.198 261.874C190.63 262.18 191.404 262.468 191.458 262.882C191.746 265.276 185.698 263.062 183.574 262.036C183.5 261.998 183.414 261.99 183.335 262.016C183.255 262.041 183.189 262.097 183.151 262.171C183.113 262.245 183.106 262.331 183.131 262.41C183.156 262.49 183.212 262.556 183.286 262.594C184.816 263.548 190.108 265.402 188.884 267.202C187.318 269.47 183.214 268.498 180.496 267.958C181.064 267.499 181.747 267.204 182.47 267.106C183.194 267.007 183.93 267.109 184.6 267.4C184.692 267.423 184.788 267.412 184.873 267.37C184.957 267.328 185.024 267.257 185.061 267.171C185.098 267.084 185.102 266.987 185.074 266.897C185.046 266.807 184.986 266.73 184.906 266.68C183.8 266.215 182.577 266.105 181.406 266.366C180.236 266.627 179.175 267.247 178.372 268.138C176.23 270.19 173.566 269.704 171.496 267.616C171.422 267.55 171.327 267.514 171.228 267.512C171.13 267.51 171.034 267.544 170.958 267.607C170.881 267.67 170.83 267.758 170.814 267.856C170.797 267.953 170.816 268.053 170.866 268.138C171.28 268.774 171.819 269.319 172.45 269.74C169.243 277.627 165.639 285.347 161.65 292.87C154.45 306.37 147.142 315.91 138.934 322.858C130.042 330.508 116.974 327.7 109.468 318.952C104.968 313.75 102.142 306.46 101.098 297.352C104.842 298 119.8 300.142 123.85 300.268ZM155.062 150.112C153.509 151.203 152.308 152.723 151.606 154.486C150.903 153.866 150.36 153.086 150.022 152.212C149.684 151.338 149.56 150.395 149.662 149.464C151.264 142.264 158.662 135.964 164.8 134.11C168.58 132.58 178.192 134.29 181.288 138.916C180.278 138.824 179.27 139.113 178.462 139.726C177.978 139.096 177.357 138.584 176.647 138.227C175.937 137.871 175.156 137.679 174.362 137.667C173.567 137.655 172.78 137.823 172.06 138.157C171.339 138.492 170.703 138.985 170.2 139.6C169.215 139.887 168.326 140.434 167.626 141.184C166.964 140.829 166.212 140.676 165.464 140.743C164.715 140.81 164.003 141.095 163.414 141.562C162.787 141.732 162.236 142.109 161.85 142.632C161.465 143.155 161.267 143.793 161.29 144.442C160.5 144.364 159.702 144.452 158.949 144.702C158.195 144.952 157.502 145.357 156.915 145.892C156.328 146.426 155.86 147.078 155.54 147.805C155.221 148.532 155.058 149.318 155.062 150.112ZM189.1 224.902C180.694 233.614 155.44 223.462 153.802 215.362C153.672 214.491 153.75 213.602 154.028 212.767C154.307 211.932 154.778 211.175 155.404 210.556C155.584 210.376 155.71 210.178 155.89 209.998C155.911 209.946 155.911 209.888 155.89 209.836L156.232 209.404C156.682 208.558 156.124 190.648 156.034 188.074C156.712 188.083 157.374 187.877 157.927 187.486C158.48 187.094 158.895 186.538 159.112 185.896C159.495 186.104 159.932 186.195 160.367 186.156C160.802 186.118 161.215 185.951 161.556 185.678C161.896 185.405 162.148 185.037 162.28 184.621C162.412 184.205 162.419 183.759 162.298 183.34L166.726 178.588C166.72 179.179 166.883 179.759 167.196 180.26C167.509 180.762 167.959 181.163 168.493 181.416C169.027 181.67 169.622 181.765 170.208 181.692C170.795 181.618 171.348 181.378 171.802 181C172.267 180.662 172.652 180.225 172.929 179.721C173.206 179.217 173.368 178.658 173.404 178.084C173.411 178.022 173.396 177.959 173.363 177.907C173.329 177.855 173.278 177.816 173.218 177.797C173.159 177.777 173.095 177.779 173.037 177.802C172.979 177.825 172.93 177.867 172.9 177.922C172.601 178.37 172.158 178.703 171.645 178.867C171.131 179.03 170.577 179.015 170.074 178.822C170.25 178.076 170.216 177.295 169.974 176.567C169.732 175.839 169.293 175.193 168.706 174.7C166.006 166.06 166.258 162.64 171.1 159.4C174.7 156.682 187.3 150.634 195.778 158.356C196.361 159.033 197.055 159.605 197.83 160.048C200.026 189.946 201.43 190.342 193.222 199.018C190.708 201.567 187.36 203.126 183.79 203.41C183.16 203.41 183.088 204.328 183.79 204.4C184.704 204.525 185.63 204.525 186.544 204.4C186.544 210.502 186.274 210.034 188.02 210.646C193.978 213.4 193.456 220.348 189.1 224.902ZM242.038 316.378C240.147 317.427 238.126 318.22 236.026 318.736C235.756 315.712 234.658 306.136 233.938 300.736C240.49 300.592 247.078 300.322 253.36 299.926C250.732 306.478 246.754 314.074 242.038 316.378ZM253.936 256.978C249.976 256.87 249.976 251.974 253.936 251.866C257.896 251.758 257.896 256.96 253.936 257.068V256.978ZM237.898 247.708C237.058 248.21 236.377 248.94 235.936 249.814C235.396 250.84 219.934 292.906 219.196 295.3C219.158 295.429 219.07 295.537 218.952 295.601C218.834 295.665 218.695 295.68 218.566 295.642C218.437 295.604 218.329 295.516 218.265 295.398C218.2 295.28 218.186 295.141 218.224 295.012C219.142 291.61 232.48 253.414 232.624 253.18C235.81 245.224 237.052 245.35 243.136 245.152C245.926 245.062 266.23 244.972 269.164 245.458C269.812 245.566 269.668 246.484 269.164 246.538C267.562 246.736 239.158 247.168 237.898 247.798V247.708ZM264.754 281.908C265.438 279.604 266.068 277.354 266.554 275.212C267.355 275.536 268.188 275.777 269.038 275.932C269.131 275.953 269.229 275.937 269.31 275.886C269.391 275.836 269.449 275.755 269.47 275.662C269.492 275.569 269.475 275.471 269.425 275.39C269.374 275.309 269.293 275.251 269.2 275.23C267.238 274.462 265.414 273.38 263.8 272.026C262.702 270.784 262.198 269.866 263.476 268.966C265.924 270.892 269.11 272.566 270.28 273.412C270.355 273.449 270.439 273.459 270.52 273.44C270.601 273.421 270.673 273.375 270.724 273.31C270.775 273.244 270.802 273.163 270.799 273.08C270.797 272.996 270.766 272.917 270.712 272.854C269.398 271.666 264.952 268.678 262.63 266.356C262.593 265.989 262.67 265.619 262.851 265.297C263.031 264.975 263.306 264.716 263.638 264.556C265.727 266.377 268.008 267.965 270.442 269.29C270.521 269.338 270.616 269.354 270.707 269.333C270.797 269.313 270.877 269.259 270.928 269.182C271.198 268.84 270.928 268.714 269.128 267.22C267.778 266.104 265.888 264.538 264.502 263.17C262.54 261.37 266.302 261.694 269.74 263.17C270.937 263.854 271.913 264.867 272.551 266.089C273.189 267.311 273.463 268.691 273.34 270.064C273.07 275.266 269.866 280.666 264.754 282.088V281.908ZM117.244 22.6899C116.521 22.7953 115.784 22.6492 115.156 22.2759C114.742 21.2215 114.039 20.3047 113.129 19.63C112.219 18.9554 111.137 18.5499 110.008 18.4599C107.254 18.6399 106.714 22.5279 104.608 22.8159C103.348 22.9959 101.8 21.6999 100 18.9999C99.978 18.9542 99.9435 18.9157 99.9005 18.8888C99.8575 18.8618 99.8078 18.8476 99.7571 18.8476C99.7064 18.8476 99.6567 18.8618 99.6137 18.8888C99.5707 18.9157 99.5362 18.9542 99.5141 18.9999C99.3155 19.6755 99.2562 20.3845 99.3397 21.0837C99.4233 21.783 99.6479 22.458 100 23.0679C99.7085 23.0544 99.4324 22.9324 99.2261 22.7259C98.6141 22.1319 98.3081 24.3279 99.7841 25.8399C99.331 25.8157 98.8887 25.6929 98.4881 25.4799C97.5881 24.7779 97.9661 28.4859 100.918 30.1779C100.083 30.1251 99.2673 29.9051 98.5191 29.5309C97.7708 29.1568 97.1053 28.6361 96.5621 27.9999C96.5267 27.9508 96.4758 27.915 96.4176 27.8983C96.3594 27.8816 96.2973 27.8849 96.2412 27.9078C96.1852 27.9306 96.1384 27.9716 96.1084 28.0242C96.0785 28.0768 96.0671 28.138 96.0761 28.1979C96.396 30.8683 97.6303 33.3457 99.5695 35.2094C101.509 37.0731 104.033 38.2082 106.714 38.4219C112.672 38.4219 116.434 32.0139 115.048 27.0999C115.4 26.9893 115.777 26.9893 116.128 27.0999C116.18 27.1389 116.244 27.1578 116.309 27.1532C116.374 27.1486 116.435 27.1207 116.481 27.0748C116.527 27.0288 116.555 26.9678 116.559 26.903C116.564 26.8382 116.545 26.7739 116.506 26.7219C116.322 26.4283 116.199 26.1006 116.145 25.7583C116.09 25.4161 116.106 25.0665 116.19 24.7303C116.274 24.3941 116.425 24.0784 116.634 23.802C116.843 23.5256 117.106 23.2943 117.406 23.1219C117.435 23.0854 117.453 23.0422 117.461 22.9964C117.468 22.9506 117.463 22.9037 117.447 22.8603C117.43 22.8169 117.403 22.7784 117.368 22.7486C117.332 22.7187 117.29 22.6985 117.244 22.6899ZM111.7 24.0759C111.344 24.0361 111.014 23.8663 110.775 23.599C110.536 23.3316 110.404 22.9855 110.404 22.6269C110.404 22.2682 110.536 21.9221 110.775 21.6548C111.014 21.3875 111.344 21.2177 111.7 21.1779C112.057 21.2177 112.386 21.3875 112.625 21.6548C112.864 21.9221 112.996 22.2682 112.996 22.6269C112.996 22.9855 112.864 23.3316 112.625 23.599C112.386 23.8663 112.057 24.0361 111.7 24.0759ZM63.2261 203.554C57.3614 203.227 51.4785 203.522 45.6761 204.436C45.6157 204.445 45.5605 204.475 45.5207 204.521C45.481 204.568 45.4595 204.627 45.4601 204.688C45.4454 207.822 45.8695 210.942 46.7201 213.958C46.7374 214.007 46.7688 214.051 46.8103 214.083C46.8519 214.115 46.9018 214.134 46.9541 214.138C52.1626 214.552 57.4004 214.407 62.5781 213.706C63.6041 213.562 64.3421 203.626 63.2261 203.554ZM58.3841 209.44C58.265 210.026 57.9756 210.565 57.552 210.988C57.1284 211.411 56.5894 211.699 56.0026 211.817C55.4159 211.935 54.8073 211.877 54.2532 211.651C53.699 211.425 53.2239 211.04 52.8874 210.545C52.5508 210.05 52.3677 209.467 52.3611 208.869C52.3544 208.27 52.5244 207.683 52.8499 207.181C53.1754 206.678 53.6418 206.283 54.1907 206.045C54.7397 205.806 55.3468 205.735 55.9361 205.84C56.3354 205.911 56.7166 206.061 57.057 206.282C57.3974 206.502 57.6903 206.789 57.9184 207.124C58.1465 207.46 58.3052 207.837 58.3852 208.235C58.4651 208.633 58.4648 209.042 58.3841 209.44ZM59.4281 201.484C59.7425 201.542 60.0652 201.537 60.3778 201.47C60.6904 201.404 60.9868 201.276 61.2501 201.095C61.5133 200.913 61.7383 200.682 61.9121 200.413C62.0859 200.145 62.2052 199.845 62.2631 199.531C62.321 199.216 62.3164 198.894 62.2496 198.581C62.1828 198.269 62.0551 197.972 61.8737 197.709C61.6924 197.446 61.461 197.221 61.1927 197.047C60.9244 196.873 60.6245 196.754 60.3101 196.696C59.6752 196.579 59.0198 196.719 58.4881 197.085C57.9564 197.451 57.592 198.014 57.4751 198.649C57.3581 199.284 57.4982 199.939 57.8644 200.471C58.2307 201.003 58.7932 201.367 59.4281 201.484Z" fill="#5669FF"/>
<path d="M68.9323 195.545C59.9323 182.513 39.4483 187.121 36.9643 202.439C36.4614 205.004 36.5419 207.65 37.1996 210.181C37.8573 212.711 39.0754 215.061 40.7639 217.058C42.4524 219.054 44.5681 220.645 46.9544 221.713C49.3408 222.781 51.9367 223.299 54.5503 223.229C69.5262 223.229 76.6003 206.705 68.9323 195.545ZM65.1522 215.345C65.1414 215.396 65.1147 215.443 65.076 215.478C65.0373 215.514 64.9884 215.536 64.9363 215.543C58.2487 216.44 51.4851 216.627 44.7582 216.101C44.7046 216.093 44.6541 216.07 44.6127 216.035C44.5713 216 44.5407 215.954 44.5243 215.903C42.7364 209.278 42.4048 202.345 43.5522 195.581C43.5604 195.523 43.5882 195.47 43.6308 195.431C43.6734 195.392 43.7283 195.368 43.7863 195.365C51.0276 194.533 58.3445 194.612 65.5662 195.599C65.6199 195.609 65.6692 195.635 65.7077 195.673C65.7463 195.712 65.7723 195.761 65.7823 195.815C66.9097 202.305 66.6953 208.958 65.1522 215.363V215.345Z" fill="#5669FF"/>
</svg>
