<svg width="23" height="22" viewBox="0 0 23 22" fill="none" xmlns="http://www.w3.org/2000/svg">
<g clip-path="url(#clip0_34_32)">
<path d="M11.2401 21.9225C17.2358 21.9225 22.0964 17.062 22.0964 11.0663C22.0964 5.07049 17.2358 0.209961 11.2401 0.209961C5.24432 0.209961 0.383789 5.07049 0.383789 11.0663C0.383789 17.062 5.24432 21.9225 11.2401 21.9225Z" fill="#F0F0F0"/>
<path d="M2.86523 4.15745H19.6148C18.9962 3.40832 18.2786 2.74401 17.4827 2.18359H4.99735C4.20141 2.74392 3.48392 3.40828 2.86523 4.15745Z" fill="#F0F0F0"/>
<path d="M0.383789 11.067C0.383789 11.3998 0.399607 11.7288 0.428911 12.0539H22.0512C22.0806 11.7288 22.0964 11.3998 22.0964 11.067C22.0964 10.7342 22.0806 10.4052 22.0512 10.0801H0.428911C0.399607 10.4052 0.383789 10.7342 0.383789 11.067Z" fill="#F0F0F0"/>
<path d="M1.56801 16.0011H20.9129C21.2326 15.3758 21.4933 14.7155 21.6879 14.0273H0.792969C0.987576 14.7155 1.24838 15.3759 1.56801 16.0011Z" fill="#F0F0F0"/>
<path d="M4.99735 19.9485H17.4826C18.2786 19.3881 18.9961 18.7237 19.6148 17.9746H2.86523C3.48392 18.7237 4.20141 19.3881 4.99735 19.9485Z" fill="#F0F0F0"/>
<path d="M0.792969 8.10618H21.688C21.4934 7.41799 21.2326 6.75762 20.9129 6.13232H1.56805C1.24842 6.75762 0.987619 7.41799 0.792969 8.10618Z" fill="#F0F0F0"/>
<path d="M5.57568 2.18381H17.4825C15.7166 0.940513 13.5636 0.209961 11.2398 0.209961C9.8238 0.209961 7.34153 0.940513 5.57568 2.18381Z" fill="#D80027"/>
<path d="M10.7681 6.13156H20.9125C20.5515 5.42535 20.1155 4.76384 19.6148 4.15771H10.7681V6.13156Z" fill="#D80027"/>
<path d="M10.7681 10.0788H22.0512C21.9902 9.40107 21.8674 8.74105 21.6876 8.10498H10.7681V10.0788Z" fill="#D80027"/>
<path d="M0.792397 14.028H21.6874C21.8673 13.392 21.99 12.732 22.0511 12.0542H0.428711C0.489778 12.732 0.612505 13.392 0.792397 14.028Z" fill="#D80027"/>
<path d="M2.86505 17.9753H19.6146C20.1152 17.3691 20.5513 16.7076 20.9123 16.0015H1.56738C1.9284 16.7077 2.36443 17.3692 2.86505 17.9753Z" fill="#D80027"/>
<path d="M11.2397 21.9231C13.5635 21.9231 15.7166 21.1925 17.4824 19.9492H4.99707C6.76291 21.1925 8.91594 21.9231 11.2397 21.9231Z" fill="#D80027"/>
<path d="M0.792354 8.10496C0.612462 8.74108 0.489778 9.40106 0.428711 10.0788H11.2399V0.209473C6.27058 0.209473 2.0812 3.54829 0.792354 8.10496Z" fill="#0052B4"/>
<path d="M6.84646 3.04199L7.54936 5.20541H9.82434L7.98395 6.5426L8.68681 8.70614L6.84646 7.36903L5.00602 8.70614L5.70905 6.5426L3.86865 5.20541H6.14351L6.84646 3.04199Z" fill="#F0F0F0"/>
</g>
<defs>
<clipPath id="clip0_34_32">
<rect width="21.7126" height="21.7126" fill="white" transform="translate(0.383789 0.209961)"/>
</clipPath>
</defs>
</svg>
